<?xml version="1.0" encoding="UTF-8" standalone="no"?>
<!DOCTYPE svg  PUBLIC '-//W3C//DTD SVG 1.1//EN'  'http://www.w3.org/Graphics/SVG/1.1/DTD/svg11.dtd'>
<svg xmlns="http://www.w3.org/2000/svg">
<defs>
<font id="Appetite-Regular" horiz-adv-x="689">
<font-face underline-position="-50" font-weight="400" descent="-200" panose-1="2 0 0 0 0 0 0 0 0 0" units-per-em="1000" unicode-range="U+0020-2122" bbox="-130 -266 1129 1032" x-height="520" underline-thickness="50" font-family="Appetite" ascent="800" cap-height="746"/>
<missing-glyph horiz-adv-x="1000"/>
<glyph glyph-name=".notdef" horiz-adv-x="1000"/>
<glyph glyph-name=".null" horiz-adv-x="0"/>
<glyph glyph-name="nonmarkingreturn" horiz-adv-x="333"/>
<glyph glyph-name="space" horiz-adv-x="249" unicode=" "/>
<glyph glyph-name="exclam" horiz-adv-x="266" unicode="!" d="M256 598q0 -72 -11 -155t-38.5 -153.5t-64.5 -70.5q-25 0 -43 35t-26.5 90t-12.5 98.5t-5 85.5q-1 51 -11 82.5t-20.5 40t-19.5 14t-9 10.5q0 3 1 5q9 25 45 48t76 23q62 0 100.5 -41.5t38.5 -111.5zM244 80q0 -41 -28.5 -70t-69.5 -29t-69.5 29t-28.5 70q0 40 29 69 t69 29t69 -29t29 -69z"/>
<glyph glyph-name="quotedbl" horiz-adv-x="395" unicode='&quot;' d="M380 637q0 -71 -30.5 -140t-57.5 -69t-57.5 69.5t-30.5 139.5q0 54 26 84t62 30t62 -30t26 -84zM191 637q0 -71 -30.5 -140t-57.5 -69t-57.5 69.5t-30.5 139.5q0 54 26 84t62 30t62 -30t26 -84z"/>
<glyph glyph-name="numbersign" horiz-adv-x="590" unicode="#" d="M322 204q22 66 33 98q-31 1 -94 1q-17 -54 -32 -98q62 0 93 -1zM581 375l3 -4l-21 -65q-2 -4 -7 -4h-128q-11 -32 -33 -98h133l3 -4l-21 -65q-2 -4 -7 -4h-132q-13 -37 -28 -81.5t-15 -45.5q-1 -4 -4 -4h-1h-66h-1q-2 0 -1 3q3 11 42 128q-62 0 -93 1q-39 -118 -42 -128 q-1 -4 -4 -4h-1h-67h-1q-2 0 -1 3l43 129h-122l-3 4l22 66q1 3 5 3h122q26 76 33 98h-126l-3 4l22 66q1 4 5 4q61 0 127 -1l41 123l6 5h65l2 -5q-17 -52 -41 -123h93l42 123l5 5h65l3 -5q-18 -53 -41 -124h128z"/>
<glyph glyph-name="dollar" horiz-adv-x="500" unicode="$" d="M490 141q0 -64 -47 -102.5t-119 -52.5l9 -62l-3 -5l-59 -3q-5 0 -5 5q2 18 2 58q-10 -1 -29 -1h-16l2 -57l-4 -5l-59 3l-4 5q3 26 7 60q-66 12 -110.5 42.5t-44.5 81.5q0 38 26.5 64.5t67.5 26.5q24 0 47 -5.5t26 -11.5q3 -4 3 -14q0 -3 -0.5 -12t-0.5 -15q0 -29 16 -45 t42 -16q50 0 52 45q0 12 -6.5 21.5t-14 16t-23.5 13.5t-26.5 10.5t-33 10.5t-34.5 11q-57 20 -94.5 57.5t-38.5 92.5v3q0 57 42.5 97t106.5 57l-9 66l4 6l59 3q4 0 4 -5q-2 -19 -2 -61h14q21 0 32 -1l-3 62l4 5l59 -3l4 -5q-4 -29 -8 -67q63 -13 102 -44t39 -77 q1 -37 -24.5 -62t-69.5 -25q-23 0 -45 6t-25 12q-3 5 -3 12q0 3 1 12.5t1 16.5q0 57 -47 57h-3q-21 -1 -33 -16t-12 -31q0 -22 17 -37t36 -22.5t58 -18.5q9 -3 14 -4q159 -47 159 -153z"/>
<glyph glyph-name="percent" horiz-adv-x="740" unicode="%" d="M586 57q29 0 29 61t-29 61q-27 0 -27 -61t27 -61zM153 321q29 0 29 61t-29 61q-27 0 -27 -61t27 -61zM586 255q70 0 110 -39t40 -98t-40 -97.5t-110 -38.5q-68 0 -108.5 38.5t-40.5 97.5t41 98t108 39zM593 517q2 0 2 -2q0 -1 -1 -2q-127 -243 -155.5 -305t-28.5 -95 q0 -23 9 -50.5t9 -31.5q0 -3 -2 -7q-45 -41 -100 -41q-46 0 -77.5 30t-31.5 80q0 34 16 72l137 277h-80q13 -29 13 -60q0 -59 -40 -97.5t-110 -38.5q-68 0 -108.5 38.5t-40.5 97.5t41 98t108 39z"/>
<glyph glyph-name="ampersand" horiz-adv-x="615" unicode="&amp;" d="M262 86q28 2 47 29.5t19 73.5q0 3 -0.5 8t-0.5 7h-38q-38 0 -56 -22t-18 -46q0 -50 41 -50h6zM604 90q15 0 15 -13q0 -7 -3 -13q-44 -91 -145 -91q-90 0 -124 83q-28 -39 -75 -60t-98 -21q-70 0 -119.5 39.5t-49.5 111.5q0 105 122 137q-92 25 -92 106q0 43 23.5 75 t62.5 48.5t80 24t84 7.5q35 0 70.5 -6t71.5 -19t58.5 -39t22.5 -61q1 -35 -29 -54t-74 -19q-23 0 -45 5.5t-26 11.5q-2 3 -2.5 5t0 3.5t1 6.5t0.5 11q0 53 -56 53q-26 0 -40 -17t-14 -40q0 -22 14 -40.5t41 -18.5h3h1h331q3 0 3 -5v-91l-4 -5h-105v-4q0 -34 2 -48 q4 -28 21 -43t33 -17.5t41 -2.5z"/>
<glyph glyph-name="quotesingle" horiz-adv-x="206" unicode="&apos;" d="M191 657q0 -64 -36.5 -106t-71.5 -54q-20 -8 -33 -8t-13 10q0 9 16 23q31 30 31 44q0 10 -11 13q-26 11 -42 33t-16 51q0 36 25.5 62t62.5 26q36 0 62 -27t26 -67z"/>
<glyph glyph-name="parenleft" horiz-adv-x="216" unicode="(" d="M148 273q0 -123 14 -230.5t28 -154.5l14 -46q1 -4 1 -10q0 -9 -5 -9q-8 0 -18 13q-7 6 -18.5 18t-41 54t-52.5 89.5t-41.5 123t-18.5 155.5q0 83 17.5 160.5t43 128t51 89.5t42.5 57l18 18q10 13 18 13q6 0 6 -8q0 -3 -2 -11q-6 -17 -15.5 -50.5t-25 -150t-15.5 -249.5z "/>
<glyph glyph-name="parenright" horiz-adv-x="236" unicode=")" d="M78 273q0 133 -14 245.5t-28 158.5l-14 46q-2 8 -2 11q0 8 6 8q8 0 18 -13q7 -6 18.5 -18.5t41 -55.5t52.5 -91.5t41.5 -126.5t18.5 -161q0 -80 -17.5 -154t-43 -122t-51 -84.5t-42.5 -53.5l-18 -16q-10 -13 -18 -13q-5 0 -5 9q0 6 1 10q6 16 15.5 48t25 141t15.5 232z "/>
<glyph glyph-name="asterisk" horiz-adv-x="358" unicode="*" d="M272 655q17 5 27 5q22 0 35.5 -13t13.5 -31q0 -36 -46 -52q-27 -8 -55 -8h-8q29 -22 46 -44q15 -20 15 -42q0 -19 -12.5 -31.5t-30.5 -12.5q-27 0 -50 30q-18 25 -28 60q-9 -32 -28 -60q-23 -30 -50 -30q-18 0 -30.5 12.5t-12.5 31.5q0 22 15 42q19 25 46 44h-8 q-28 0 -55 8q-46 16 -46 52q0 18 13.5 31t35.5 13q10 0 27 -5q29 -10 58 -32q-13 37 -13 66q0 30 14 46t34 16t34 -16t14 -46q0 -31 -12 -65q25 20 57 31z"/>
<glyph glyph-name="plus" horiz-adv-x="467" unicode="+" d="M439 301l5 -4v-86q0 -3 -4 -3h-97h-62v-158l-3 -5h-89q-4 0 -4 4v159h-157l-5 4v84q0 5 5 5h157l1 157l4 5h87q4 0 4 -5v-157h158z"/>
<glyph glyph-name="comma" horiz-adv-x="226" unicode="," d="M211 74q0 -72 -40.5 -118.5t-79.5 -60.5q-24 -8 -37 -8q-14 0 -14 11q0 10 17 25q35 34 35 50q0 9 -12 14q-29 12 -47 36.5t-18 56.5q0 40 28.5 69t69.5 29q40 0 69 -30t29 -74z"/>
<glyph glyph-name="hyphen" horiz-adv-x="368" unicode="-" d="M337 297v-88q0 -3 -4 -3h-125h-173l-5 4v86q1 5 6 5h297z"/>
<glyph glyph-name="period" horiz-adv-x="226" unicode="." d="M211 80q0 -40 -28.5 -69t-69.5 -29t-69.5 29t-28.5 69t28.5 69t69.5 29t69.5 -29t28.5 -69z"/>
<glyph glyph-name="slash" horiz-adv-x="407" unicode="/" d="M95 -171q-1 -4 -5 -4h-1h-85h-1q-2 0 -2 3q0 16 75.5 238.5t151.5 437.5l76 215l6 5h84q3 0 3 -3q0 -1 -0.5 -1t-0.5 -1q-285 -839 -301 -890z"/>
<glyph glyph-name="zero" horiz-adv-x="549" unicode="0" d="M208 278q0 -196 64 -196q22 0 36 17t20 49.5t8 61t2 68.5q0 196 -66 196q-64 0 -64 -196zM534 278q0 -58 -16.5 -110.5t-47.5 -96t-82.5 -69t-115.5 -25.5q-83 0 -143.5 44.5t-88.5 111.5t-28 145q0 121 69 210.5t191 89.5q82 0 143.5 -44.5t90 -111.5t28.5 -144z"/>
<glyph glyph-name="one" horiz-adv-x="274" unicode="1" d="M241 580q3 0 3 -5v-570l-4 -5h-193q-4 0 -4 5v400q0 40 -7.5 63.5t-18 33.5t-10.5 11q-1 2 -1 5q0 10 24 15z"/>
<glyph glyph-name="two" horiz-adv-x="495" unicode="2" d="M473 151v-147q1 -4 -4 -4h-439l-5 4v146q0 3 3 4q71 29 165 119.5t94 144.5q0 58 -49 58q-26 0 -42.5 -16.5t-16.5 -45.5q0 -7 1 -16.5t1 -12.5q0 -7 -3 -12q-4 -6 -26.5 -12t-46.5 -6q-42 0 -68.5 27t-25.5 64q0 47 40.5 78.5t89 42.5t98.5 11q60 0 114 -15t94 -52.5 t40 -90.5q0 -30 -15 -61t-39.5 -56.5t-53.5 -49t-58 -41t-53.5 -30.5t-39.5 -20l-15 -7l-3 -1q102 1 259 1z"/>
<glyph glyph-name="three" horiz-adv-x="498" unicode="3" d="M318 319q69 -10 119.5 -50.5t50.5 -108.5q0 -50 -23 -87t-61 -57t-79.5 -29.5t-85.5 -9.5q-33 0 -69.5 6.5t-74 20t-61.5 41t-24 63.5q0 40 26 66.5t68 26.5q24 0 47 -6.5t27 -12.5q3 -6 3 -14q0 -3 -1 -13.5t-1 -18.5q0 -28 14.5 -42t38.5 -14q25 0 43 20.5t18 48.5 q0 35 -23 62.5t-82 27.5h-34q-4 0 -4 5v80q0 4 2 4l138 73h-252l-4 4v146q0 4 5 4h430l5 -3v-147q0 -3 -2 -4l-153 -81z"/>
<glyph glyph-name="four" horiz-adv-x="516" unicode="4" d="M250 224v125q-73 -99 -95 -125h95zM502 223l5 -4v-142q0 -4 -5 -4h-59v-70l-4 -5h-186l-4 5q0 28 -1 70h-232l-5 4v135q0 2 1 3q47 42 89.5 92t69.5 88.5t48.5 76.5t30 55.5t11.5 25.5v1l4 2h174q4 0 4 -5v-261v-67h59z"/>
<glyph glyph-name="five" horiz-adv-x="499" unicode="5" d="M156 337q50 9 94 9q107 0 173 -49.5t66 -136.5q0 -50 -22.5 -87t-59.5 -57t-78 -29.5t-85 -9.5q-34 0 -70 6.5t-73.5 20t-61.5 41t-24 63.5q0 40 26 66.5t68 26.5q24 0 47 -6.5t26 -12.5q3 -4 3 -15q0 -3 -0.5 -13.5t-0.5 -17.5q0 -28 14.5 -42t38.5 -14t40.5 20.5 t16.5 48.5q0 47 -32.5 71.5t-118.5 24.5q-39 0 -92 -6h-6q-4 0 -4 5v48v113v39v107q0 4 5 4h417q4 0 4 -3v-147q0 -4 -4 -4h-307v-64z"/>
<glyph glyph-name="six" horiz-adv-x="513" unicode="6" d="M270 88q20 0 33 18.5t16.5 36.5t3.5 35q0 77 -71 77q-22 0 -41 -5q0 -162 59 -162zM211 336q52 15 97 15q90 0 143 -51t53 -122q0 -47 -18 -84t-44 -58t-58.5 -35t-59 -18.5t-49.5 -4.5q-122 1 -192 86.5t-70 214.5q0 128 71.5 214.5t188.5 86.5h4q86 -1 143 -43t57 -88 q0 -37 -23.5 -61t-66.5 -24h-2q-23 0 -44.5 6.5t-24.5 11.5q-3 4 -3 12q0 4 1 13t1 15q0 57 -39 57h-1q-62 0 -64 -143z"/>
<glyph glyph-name="seven" horiz-adv-x="450" unicode="7" d="M443 552v-147q0 -3 -2 -4q-7 -4 -18 -11t-39 -31t-49.5 -49t-39.5 -64t-19 -78q0 -44 14 -69q7 -13 16.5 -21.5t16.5 -11t12 -6t5 -8.5v-2q-1 -1 -1 -2q-9 -25 -45 -48t-76 -23q-62 0 -104.5 40.5t-42.5 112.5q0 40 17 79.5t40.5 68t56 55t55.5 41t47 27.5h-279l-5 4v146 q0 4 5 4h430z"/>
<glyph glyph-name="eight" horiz-adv-x="530" unicode="8" d="M264 327q23 0 38.5 23.5t15.5 51.5q0 31 -15 51.5t-39 20.5t-39 -21t-15 -51q0 -28 15.5 -51.5t38.5 -23.5zM264 89q25 0 40 20.5t15 55.5q0 30 -15.5 55t-39.5 25q-23 0 -38.5 -25t-15.5 -55q0 -35 15 -55.5t39 -20.5zM402 287q50 -15 81.5 -48.5t31.5 -81.5t-21 -84.5 t-57.5 -56.5t-78 -29.5t-88.5 -9.5h-10q-47 0 -88.5 9.5t-78 29.5t-57.5 56.5t-21 84.5t31.5 81.5t81.5 48.5q-45 11 -72 44.5t-27 80.5q0 86 66 126.5t165 40.5h10q62 0 112.5 -16.5t84.5 -55t34 -95.5q0 -47 -27 -80t-72 -45z"/>
<glyph glyph-name="nine" horiz-adv-x="510" unicode="9" d="M297 319q0 5 0.5 13t0.5 12q0 116 -62 116h-1q-27 -1 -39 -25t-12 -51v-7q3 -65 64 -65q22 0 49 7zM236 578q122 0 190.5 -85.5t68.5 -217.5q0 -140 -68.5 -219t-190.5 -79q-84 0 -143 36t-59 90q0 38 24 66.5t66 28.5h4q23 0 43.5 -6t23.5 -11t3 -12q0 -3 -1 -13t-1 -16 q0 -60 44 -60q58 0 58 148q-53 -19 -100 -19q-84 0 -135.5 52t-51.5 122q0 47 16 83.5t40 57t56 33.5t59 17t54 4z"/>
<glyph glyph-name="colon" horiz-adv-x="226" unicode=":" d="M211 80q0 -40 -28.5 -69t-69.5 -29t-69.5 29t-28.5 69t28.5 69t69.5 29t69.5 -29t28.5 -69zM211 347q0 -41 -28.5 -69.5t-69.5 -28.5t-69.5 28.5t-28.5 69.5t28.5 69.5t69.5 28.5t69.5 -28.5t28.5 -69.5z"/>
<glyph glyph-name="semicolon" horiz-adv-x="226" unicode=";" d="M211 74q0 -72 -40.5 -118.5t-79.5 -60.5q-24 -8 -37 -8q-14 0 -14 11q0 10 17 25q35 34 35 50q0 9 -12 14q-29 12 -47 36.5t-18 56.5q0 40 28.5 69t69.5 29q40 0 69 -30t29 -74zM211 347q0 -41 -28.5 -69.5t-69.5 -28.5t-69.5 28.5t-28.5 69.5t28.5 69.5t69.5 28.5 t69.5 -28.5t28.5 -69.5z"/>
<glyph glyph-name="equal" horiz-adv-x="500" unicode="=" d="M466 202v-88q0 -3 -4 -3h-159h-269l-5 4v86q1 5 6 5h427zM466 372v-88q0 -3 -4 -3h-159h-269l-5 4v86q1 5 6 5h427z"/>
<glyph glyph-name="question" horiz-adv-x="299" unicode="?" d="M252 371q-7 -13 -22.5 -47t-25.5 -52.5t-27.5 -35.5t-35.5 -17q-30 0 -52 43.5t-22 93.5q0 12 1 18q4 43 31 85.5t51.5 78.5t24.5 66q0 46 -36 46q-35 0 -37 -65q0 -6 1 -17.5t1 -16.5q0 -11 -3 -15q-3 -5 -27.5 -11t-47.5 -7q-44 0 -67 22.5t-23 58.5q0 57 60 103 t152 46q99 0 157.5 -49.5t58.5 -111.5q0 -35 -15.5 -66t-47.5 -74.5t-49 -75.5zM243 80q0 -41 -28.5 -70t-69.5 -29t-69.5 29t-28.5 70q0 40 28.5 69t69.5 29t69.5 -29t28.5 -69z"/>
<glyph glyph-name="at" horiz-adv-x="719" unicode="@" d="M347 158q25 0 38.5 26.5t13.5 67.5t-13.5 67.5t-38.5 26.5t-38.5 -26.5t-13.5 -67.5t13.5 -67.5t38.5 -26.5zM512 60q-28 0 -51 10t-36 26.5t-18.5 26t-9.5 18.5q-40 -78 -109 -78q-62 0 -98.5 57t-36.5 132q0 77 36.5 132t101.5 55q67 0 104 -66v48l3 4h139q3 0 3 -3 q-5 -178 -5 -209q0 -22 11 -35.5t28 -13.5q26 0 44.5 32.5t18.5 79.5t-16.5 91.5t-48.5 83t-87 62t-124 23.5q-124 0 -201.5 -87t-77.5 -201q0 -73 27 -129.5t69.5 -88.5t89.5 -47.5t93 -15.5q53 0 97.5 9.5t69 18.5t28.5 9q5 0 5 -4q0 -5 -5.5 -15t-20.5 -24.5t-36.5 -26.5 t-58.5 -20.5t-82 -8.5q-147 0 -247.5 101t-100.5 245t100.5 245t247.5 101q150 0 250 -87.5t100 -229.5v-6q-1 -95 -61.5 -154.5t-134.5 -59.5z"/>
<glyph glyph-name="A" d="M274 246h117l-59 290q-10 -42 -31 -151.5t-27 -138.5zM683 5l-3 -5h-226q-5 0 -6 5l-25 106h-177l-22 -106q-1 -2 -2.5 -3.5t-3.5 -1.5h-1h-209q-3 0 -3 2t1 3q172 538 172 539q16 40 16 67q0 21 -11 38t-11 20t1 5q9 28 53.5 48.5t89.5 20.5q58 0 108 -39.5t78 -117.5 q19 -52 64 -197.5t81 -264.5z" unicode="A"/>
<glyph glyph-name="B" horiz-adv-x="645" unicode="B" d="M335 98q41 0 64 29t23 78q0 57 -38.5 91t-96.5 34q-21 0 -38 -4v-129q4 -99 86 -99zM378 541q0 47 -26.5 68t-64.5 21q-20 0 -38 -5v-189q66 0 97.5 30.5t31.5 74.5zM502 411q-6 -4 1 -6q63 -22 97.5 -73.5t34.5 -107.5q0 -64 -26 -112.5t-71 -77t-99.5 -42.5t-117.5 -14 q-65 0 -116 18.5t-83.5 47.5t-53.5 68.5t-29.5 78t-8.5 78.5v431q0 6 5 6q107 31 268 31q52 0 98.5 -8.5t89.5 -27.5t68.5 -56t25.5 -88q0 -49 -26 -91.5t-57 -54.5z"/>
<glyph glyph-name="C" horiz-adv-x="642" unicode="C" d="M623 198q8 7 13 7q6 0 6 -11q0 -7 -3 -19q-4 -15 -12.5 -35t-30.5 -49t-51.5 -52.5t-78.5 -41t-107 -18.5h-6q-144 0 -243.5 113.5t-99.5 268.5q0 154 98.5 264.5t251.5 111.5h6q115 0 188 -51.5t73 -131.5q0 -44 -30 -79t-81 -35q-32 0 -54.5 10t-22.5 24q0 6 1 17t1 17 q0 45 -18.5 74t-57.5 29q-57 0 -92 -70.5t-35 -152.5q0 -13 2 -35q14 -112 72.5 -167.5t138.5 -55.5q96 0 172 68z"/>
<glyph glyph-name="D" horiz-adv-x="657" unicode="D" d="M250 624v-537h8q57 0 96.5 40.5t56.5 100.5t17 133q0 62 -15.5 120t-52.5 101.5t-90 43.5q-6 0 -20 -2zM649 356q0 -164 -95 -271.5t-265 -107.5q-73 0 -136.5 7.5t-90.5 15.5l-27 7q-5 0 -5 6v686q0 6 5 6q90 28 254 28q160 0 260 -108t100 -269z"/>
<glyph glyph-name="E" horiz-adv-x="541" unicode="E" d="M511 171q6 5 14 5q11 0 11 -18q0 -7 -1 -11q-3 -21 -20 -48t-46 -55t-77.5 -47t-105.5 -19q-122 0 -189 80t-67 192l1 461l6 5h477q6 0 8 -5q6 -20 6 -46q0 -87 -82 -119q-34 -13 -86 -13q-24 0 -50.5 2.5t-41.5 5.5l-14 3q0 -6 -0.5 -54.5t-0.5 -77.5h165l5 -5v-100 l-6 -5h-165v-72q1 -50 35 -73t86 -23q79 0 138 37z"/>
<glyph glyph-name="F" horiz-adv-x="527" unicode="F" d="M512 715q6 0 8 -5q7 -20 7 -46q0 -84 -83 -119q-33 -14 -87 -14q-24 0 -50.5 3t-40.5 6l-14 3q0 -7 -0.5 -51t-0.5 -75h163l6 -6v-106q0 -2 -2 -3.5t-4 -1.5h-1h-163v-89q1 -41 8.5 -69.5t17 -40.5t19 -18.5t16 -10t6.5 -8.5q0 -3 -1 -5q-10 -29 -50.5 -55t-83.5 -26 q-66 0 -109 43.5t-43 131.5l1 557l5 5h476z"/>
<glyph glyph-name="G" horiz-adv-x="657" unicode="G" d="M522 375q61 0 95.5 -40.5t34.5 -111.5q0 -78 -8 -142q0 -8 -6 -12q-1 -1 -11 -8t-16 -11t-19.5 -12.5t-25.5 -14t-29 -13t-35.5 -12.5t-40 -9.5t-46.5 -7t-51 -2.5q-148 0 -249 113t-101 270q0 154 98.5 265t252.5 112h6q116 0 189 -51.5t73 -131.5q0 -44 -30 -79.5 t-81 -35.5q-33 0 -55.5 10t-22.5 24q0 5 1 16.5t1 17.5q0 45 -18.5 74.5t-57.5 29.5q-58 0 -92 -75t-34 -161q0 -16 1 -23q2 -23 5.5 -45.5t16 -57.5t31 -60t53 -44t79.5 -19h8q2 18 2 48q0 37 -6.5 62t-14 33.5t-14 15.5t-6.5 12q0 3 1 5q10 26 46 48.5t76 22.5z"/>
<glyph glyph-name="H" horiz-adv-x="687" unicode="H" d="M656 714l4 -5l-1 -704l-5 -5h-207l-4 5l2 288h-176l1 -288l-5 -5h-206l-4 5q2 546 2 547q-3 38 -13.5 61.5t-21 30t-19 11t-8.5 9.5q0 3 1 5q9 26 50 50t83 24q61 0 102 -40.5t41 -120.5q0 -14 -0.5 -68t-0.5 -77h174l-2 272l5 5h208z"/>
<glyph glyph-name="I" horiz-adv-x="311" unicode="I" d="M133 739q64 0 106 -40t42 -120v-574l-5 -5h-213l-4 5v353v190q-3 38 -14 61.5t-22 30t-19.5 11.5t-8.5 10q0 3 1 5q9 26 51.5 49.5t85.5 23.5z"/>
<glyph glyph-name="J" horiz-adv-x="468" unicode="J" d="M295 739q63 0 103 -39.5t40 -120.5v-27.5t-0.5 -87.5t-0.5 -166q0 -318 -237 -318q-92 0 -143.5 40.5t-51.5 95.5q0 41 29 73t72 32q26 0 52 -6t28 -12q1 -2 1 -6q0 -3 -4 -25t-4 -40q0 -64 35 -64q43 0 43 61q0 34 -18.5 85.5t-18.5 91.5v250q-2 34 -12 55.5t-21.5 28 t-20.5 11.5t-9 11q0 2 1 4q9 26 51.5 49.5t85.5 23.5z"/>
<glyph glyph-name="K" horiz-adv-x="692" unicode="K" d="M681 105q5 -2 5 -12q0 -30 -30 -68.5t-82 -44.5q-20 -2 -29 -2q-164 0 -218 231q-6 25 -18 104q-4 -1 -28 -4v-304l-5 -5h-213l-4 5v353v190q-3 38 -14 61.5t-22 30t-19.5 11.5t-8.5 10q0 3 1 5q9 26 51.5 49.5t85.5 23.5q64 0 106 -40t42 -120v-163q52 0 84.5 46 t32.5 107q0 65 -37 108q-2 2 -2 5q0 15 37 36t78 21q62 0 102 -45t40 -109q0 -142 -150 -220q2 -8 7.5 -24.5t23.5 -52.5t40 -68t60.5 -65t83.5 -50z"/>
<glyph glyph-name="L" horiz-adv-x="529" unicode="L" d="M527 143q2 -16 2 -24q0 -72 -52 -107.5t-128 -35.5q-23 0 -45 3q-165 21 -241 21l-4 5v353v190q-3 38 -14 61.5t-22 30t-19.5 11.5t-8.5 10q0 3 1 5q9 26 51.5 49.5t85.5 23.5q64 0 106 -40t42 -120v-423h17q51 0 89.5 4t57.5 9.5t30 11t15.5 9.5t6.5 4q3 0 5 -2 q21 -16 25 -49z"/>
<glyph glyph-name="M" horiz-adv-x="841" unicode="M" d="M433 401l172 308l7 5h193l5 -5l3 -704l-6 -5h-204l-5 5l3 320l19 103l-157 -298q-2 -4 -13 -4h-28q-12 0 -14 4l-164 301l19 -93l6 -333l-5 -5h-211l-5 5q7 546 7 547q-2 47 -17 70.5t-28.5 30t-13.5 11.5q0 3 1 5q9 26 56 50t95 24q34 0 61.5 -11t50.5 -35.5t37 -46 t36 -58.5q22 -38 47 -86t39 -76z"/>
<glyph glyph-name="N" horiz-adv-x="696" unicode="N" d="M668 710l-3 -705l-5 -5h-184h-1q-3 0 -6 5l-212 417l9 -83l9 -334l-5 -5h-214l-5 5q6 546 6 547q-2 47 -17.5 70.5t-29.5 30t-14 11.5q0 3 1 5q10 26 54.5 50t91.5 24q54 0 89.5 -30.5t79.5 -96.5q105 -179 154 -286l-10 96l-5 284l4 5h208q5 0 5 -5z"/>
<glyph glyph-name="O" horiz-adv-x="710" unicode="O" d="M236 357q0 -95 34 -180.5t86 -85.5q37 0 65.5 42.5t42 102t13.5 121.5q0 98 -34 183t-87 85t-86.5 -85t-33.5 -183zM703 357q0 -159 -95 -268.5t-252 -109.5q-154 0 -250 110t-96 268t96.5 269t249.5 111q154 0 250.5 -111t96.5 -269z"/>
<glyph glyph-name="P" horiz-adv-x="588" unicode="P" d="M373 507q0 52 -30 86.5t-77 34.5q-6 0 -20 -2v-265q57 0 92 44t35 102zM26 152l1 547l5 5q97 30 233 30h30q123 -4 204.5 -64t81.5 -165q0 -43 -14 -83t-46.5 -79t-96 -62.5t-151.5 -23.5q-5 0 -14 0.5t-13 0.5v-48q2 -50 12.5 -81.5t22.5 -40t21.5 -14.5t9.5 -11 q0 -3 -1 -5q-10 -29 -50.5 -55t-83.5 -26q-66 0 -108.5 43.5t-42.5 131.5z"/>
<glyph glyph-name="Q" horiz-adv-x="693" unicode="Q" d="M346 92q6 0 9 1q-28 49 -66 49q-9 0 -14 -1q29 -49 71 -49zM346 624q-36 0 -61.5 -43t-36.5 -101.5t-11 -121.5q0 -112 18 -167q29 8 50 8q64 0 116 -55q17 32 26.5 94t9.5 120q0 63 -11 121.5t-37 101.5t-63 43zM717 -45v-9q0 -52 -36.5 -88.5t-85.5 -40.5h-13 q-70 0 -109.5 44.5t-67.5 122.5q-25 -4 -59 -4q-102 0 -179.5 52.5t-117 137.5t-39.5 188t39.5 188.5t117 138t179.5 52.5q153 0 245.5 -110t92.5 -269q0 -108 -43.5 -198.5t-121.5 -135.5q22 -32 43 -32q54 0 81 63q4 10 11 9q8 -1 20 -11t26 -36.5t17 -61.5z"/>
<glyph glyph-name="R" horiz-adv-x="634" unicode="R" d="M249 625v-248q57 0 90.5 40.5t33.5 98.5q0 50 -27.5 80.5t-73.5 30.5q-7 0 -23 -2zM631 99q2 0 2 -7q0 -29 -28 -68.5t-81 -45.5q-18 -2 -26 -2q-67 0 -115.5 41.5t-73 106.5t-31.5 150h-29v-268l-4 -6h-210q-5 0 -5 6v692l5 5q97 30 233 30h30q122 -4 202.5 -63.5 t80.5 -165.5q0 -65 -35 -125t-105 -89q54 -129 190 -191z"/>
<glyph glyph-name="S" horiz-adv-x="637" unicode="S" d="M412 407q220 -67 220 -210q0 -59 -30.5 -103.5t-80.5 -68.5t-105 -35.5t-114 -11.5q-47 0 -93.5 8t-92.5 26t-76 53.5t-34 83.5v7q0 43 31.5 75t78.5 32q29 0 61 -10t38 -18q2 -4 2 -7q0 -4 -2.5 -19t-2.5 -26q1 -47 29 -72.5t66 -25.5q35 0 61.5 22.5t27.5 60.5 q0 17 -8.5 32t-20 25.5t-33.5 22.5t-39 19t-46.5 19t-45.5 19q-88 39 -118 61q-69 51 -73 135v9q0 96 89.5 161t198.5 67h15q120 0 198.5 -46t78.5 -130q1 -53 -27.5 -83.5t-86.5 -30.5q-31 0 -56 8t-29 16q-1 1 -1 6q0 6 2 27t3 32v6q0 37 -24 58t-57 21q-31 0 -54 -19 t-26 -52q0 -91 176 -144z"/>
<glyph glyph-name="T" horiz-adv-x="636" unicode="T" d="M623 716q8 -25 8 -56q0 -95 -83 -119q-24 -7 -62 -7l-73 5l6 -339q2 -48 12.5 -77.5t22 -37.5t21 -13.5t9.5 -10.5q0 -3 -1 -5q-9 -27 -51 -51.5t-85 -24.5q-64 0 -106.5 41t-42.5 124l7 408h-19q-92 0 -163 -14q-2 0 -4 1t-3 2v2q-10 25 -10 57q0 78 71 115 q47 25 116 25q31 0 145 -9.5t212 -11.5l65 1q6 0 8 -5z"/>
<glyph glyph-name="U" horiz-adv-x="698" unicode="U" d="M668 710q-2 -170 -2 -388v-78q0 -125 -89 -195.5t-211 -70.5t-210.5 70.5t-88.5 195.5v1v256q0 54 -11.5 88t-24.5 42.5t-24.5 14t-11.5 11.5q0 1 0.5 2t0.5 2q10 27 48 51t80 24q67 0 115 -44t48 -116v-383v-2q0 -40 23 -62t54 -22t53.5 22.5t22.5 62.5v517l4 6h220 q4 -1 4 -5z"/>
<glyph glyph-name="V" horiz-adv-x="664" unicode="V" d="M479 746q79 0 129 -81t50 -248q0 -65 -9 -124t-31.5 -118t-58 -101.5t-92.5 -69t-130 -26.5q-58 0 -111 18t-97.5 53.5t-71.5 95.5t-27 137q1 0 1 427q0 2 1.5 4t3.5 3h1h216q4 -2 4 -8v-462q0 -60 19.5 -96.5t57.5 -36.5q43 0 73.5 57.5t30.5 168.5q0 69 -10.5 122.5 t-26 82.5t-31 48.5t-26 30.5t-10.5 18q0 28 42 66.5t103 38.5z"/>
<glyph glyph-name="W" horiz-adv-x="1001" unicode="W" d="M809 746q79 0 129 -81t50 -248q0 -66 -8.5 -124.5t-31 -117.5t-57 -101t-91.5 -68.5t-130 -26.5q-138 0 -208 98q-54 -97 -191 -97q-111 0 -176 86t-65 212v431q0 3 1 4.5t3 2.5h1h214q7 -1 7 -8v-507q0 -44 18 -67.5t44 -23.5q29 0 52 29t23 79v491q0 3 1 4.5t2 2.5h1 h209q4 -2 4 -8v-478q0 -127 68 -127q41 0 65.5 60.5t24.5 175.5q0 69 -10.5 122.5t-26 82.5t-31 48.5t-26 30.5t-10.5 18q0 28 42 66.5t103 38.5z"/>
<glyph glyph-name="X" horiz-adv-x="708" unicode="X" d="M700 5q4 -5 -2 -5h-270q-2 0 -4 1t-2 3l-1 1l-140 264q-41 -32 -41 -80q0 -34 18 -68t33 -48q1 -1 1 -6q0 -24 -34.5 -56.5t-89.5 -32.5q-65 0 -112.5 46.5t-52.5 112.5v10q0 76 60 142.5t159 96.5l-202 323q-3 7 5 7h253q2 0 4 -1.5t3 -2.5l1 -2l136 -265q47 30 47 88 q0 38 -17.5 77.5t-32.5 52.5q-2 2 -2 5q0 19 26.5 43t78.5 29q6 1 17 1q66 0 111.5 -43t51.5 -107q1 -5 1 -16q0 -76 -60 -141.5t-158 -96.5z"/>
<glyph glyph-name="Y" horiz-adv-x="668" unicode="Y" d="M664 615q0 -47 -16 -91.5t-36 -75t-55 -63.5t-57.5 -50t-58.5 -42v-85q1 -41 8.5 -69.5t17 -40.5t19 -18.5t16 -10t6.5 -8.5q0 -3 -1 -5q-9 -28 -50 -53.5t-84 -25.5q-66 0 -109 42.5t-43 130.5q0 103 -1 150l-219 408q-1 1 -1 3l5 5h240q5 0 7 -6l123 -305q57 88 57 210 q0 21 -2 41.5t-3.5 33t-1.5 13.5q0 15 31.5 28t71.5 13q55 0 94.5 -30.5t41.5 -98.5z"/>
<glyph glyph-name="Z" horiz-adv-x="611" unicode="Z" d="M604 143q2 -16 2 -24q0 -72 -52 -107.5t-128 -35.5q-22 0 -45 3q-52 7 -165.5 14t-185.5 7l-4 5v141q0 12 9 22q8 10 86 120t122 163q12 14 28.5 28.5t32 25.5t29 20t21.5 14l9 5q-54 3 -99 3q-113 0 -241 -25q-2 0 -3.5 1t-2.5 3l-1 1q-10 27 -10 61q0 84 72 121 q45 24 110 24q26 0 154.5 -11.5t245.5 -11.5q6 0 8 -5l-1 -145q0 -4 -1.5 -8.5t-3.5 -7.5l-2 -2q-60 -78 -104.5 -139.5t-61.5 -86t-35.5 -49t-41.5 -49.5q-7 -8 -26 -23.5t-35 -26.5l-16 -12h107q76 0 121.5 9.5t60.5 19t16 9.5q4 0 6 -2q21 -16 25 -49z"/>
<glyph glyph-name="bracketleft" horiz-adv-x="305" unicode="[" d="M280 -92q4 0 4 -3v-81q1 -4 -3 -4l-246 1l-5 4v895q1 5 6 5h244l4 -4v-81q1 -4 -3 -4q-89 0 -155 1v-729h154z"/>
<glyph glyph-name="backslash" horiz-adv-x="407" unicode="\" d="M303 -171l-301 890q0 1 -0.5 1t-0.5 1l3 3h84q5 0 6 -5q303 -856 303 -891q0 -3 -2 -3h-1h-85h-1q-4 0 -5 4z"/>
<glyph glyph-name="bracketright" horiz-adv-x="291" unicode="]" d="M22 -92h154v729q-66 -1 -155 -1l-3 4v81q-1 4 4 4h244l6 -5v-895l-5 -4q-210 -1 -246 -1l-3 4v81q3 0 4 3z"/>
<glyph glyph-name="underscore" horiz-adv-x="476" unicode="_" d="M452 -5v-88q0 -3 -4 -3h-156h-262l-5 4v86q1 5 6 5h417z"/>
<glyph glyph-name="grave" horiz-adv-x="272" unicode="`" d="M4 735v1l-1 2q0 4 3 5q50 60 129 79h2q2 0 4 -2q17 -68 44.5 -113.5t81.5 -99.5q2 -2 2 -4t-1 -3q-18 -31 -41 -49h-2q-4 0 -6 1q-148 52 -215 183z"/>
<glyph glyph-name="a" horiz-adv-x="617" unicode="a" d="M291 117q35 0 55 38t20 97t-20 97.5t-55 38.5t-55 -38.5t-20 -97.5t20 -97t55 -38zM562 201q0 -51 9 -82.5t20.5 -40t20.5 -14t9 -10.5q0 -3 -1 -5q-8 -26 -44 -48.5t-76 -22.5q-52 0 -89 30.5t-47 83.5q-59 -113 -158 -113q-60 0 -106 41t-68 102t-22 130 q0 110 54 190.5t147 80.5q96 0 149 -95v69l5 6h200q4 -1 4 -5q-7 -228 -7 -297z"/>
<glyph glyph-name="b" horiz-adv-x="591" unicode="b" d="M301 116q35 0 55 38.5t20 97.5t-20 97t-55 38t-55 -38t-20 -97t20 -97.5t55 -38.5zM386 525q89 0 142 -82.5t53 -190.5q0 -110 -53.5 -190.5t-146.5 -80.5q-96 0 -149 95v-70l-5 -6h-193q-4 1 -4 5v709l4 4h194h1q3 0 3 -4v-296q57 107 154 107z"/>
<glyph glyph-name="c" horiz-adv-x="521" unicode="c" d="M512 155q4 -4 4 -10q0 -3 -1 -6q-5 -19 -21.5 -43.5t-43.5 -52t-71.5 -46t-95.5 -18.5q-114 0 -193.5 80t-79.5 193q0 110 75.5 188.5t189.5 83.5q92 0 158 -36.5t66 -103.5q1 -38 -27 -69t-70 -31q-23 0 -45 6t-25 11t-3 12q0 3 1 12.5t1 16.5q0 31 -13.5 50t-34.5 19 q-34 0 -54 -40.5t-20 -94.5q0 -16 1 -24q6 -74 45 -107.5t97 -33.5q74 0 146 43q8 6 14 1z"/>
<glyph glyph-name="d" horiz-adv-x="607" unicode="d" d="M281 117q35 0 55 38t20 97t-20 97.5t-55 38.5q-36 0 -56 -38.5t-20 -97.5q0 -58 20 -96.5t56 -38.5zM559 202q0 -50 8 -82t18 -40.5t18 -14t8 -10.5q0 -3 -1 -5q-8 -26 -44 -48.5t-76 -22.5q-52 0 -89 30.5t-47 83.5q-59 -114 -158 -114q-60 0 -106 41t-68 102t-22 130 q0 110 53.5 190.5t147.5 80.5q96 0 149 -95v286l5 5h200q4 0 4 -4v-513z"/>
<glyph glyph-name="e" horiz-adv-x="540" unicode="e" d="M260 401q-45 -27 -52 -117q9 -1 25 -1q53 0 80.5 21t27.5 59q0 20 -14 34t-35 14h-4q0 -1 -1 -1h-3q-12 -2 -24 -9zM519 155q7 -5 3 -16q-5 -18 -22.5 -43t-46 -52.5t-74.5 -46t-97 -18.5q-113 0 -192.5 80t-79.5 193t79.5 192.5t205.5 79.5q112 0 173.5 -55.5 t61.5 -118.5q0 -85 -64.5 -123.5t-160.5 -38.5q-44 0 -89 8q30 -86 138 -86q73 0 152 44q7 5 13 1z"/>
<glyph glyph-name="f" horiz-adv-x="409" unicode="f" d="M308 555q-1 2 -1 5q0 2 4 18t4 33q0 52 -38 52q-43 0 -43 -52q0 -44 27 -108h138q4 0 4 -5v-84l-4 -5h-133v-403l-4 -6h-193q-4 1 -4 5v404h-56q-4 0 -4 5v85l4 4h57v20q0 60 18.5 104.5t50.5 68.5t69.5 35.5t81.5 11.5q86 0 136 -34t50 -83q1 -37 -25.5 -63t-66.5 -26 q-23 0 -46 6.5t-26 11.5z"/>
<glyph glyph-name="g" horiz-adv-x="596" unicode="g" d="M291 120q35 0 55 37t20 95t-20 97t-55 39q-36 0 -56 -38.5t-20 -97.5q0 -58 20 -95t56 -37zM565 56v-15q0 -127 -72 -204.5t-204 -77.5q-51 0 -94 15.5t-69 39t-41 44t-21 37.5q-8 25 -8 40q0 16 10 16h3q7 -1 20.5 -13.5t29 -27t46.5 -26t69 -11.5q57 0 92 37.5t37 86.5 v89q-25 -49 -65.5 -76.5t-91.5 -27.5q-90 0 -143 81t-53 189q0 110 53.5 190.5t147.5 80.5q97 0 150 -97v71l4 5h193q4 0 4 -5q3 -319 3 -441z"/>
<glyph glyph-name="h" horiz-adv-x="601" unicode="h" d="M538 204q0 -51 10.5 -83t23.5 -40.5t23.5 -14t10.5 -11.5q0 -2 -1 -4q-9 -25 -45 -47.5t-76 -22.5q-63 0 -105 41.5t-42 110.5v194q0 29 -10 44t-26 15q-24 0 -45 -31t-22 -81v-268l-4 -6h-193q-4 1 -4 5q-3 602 -3 710l4 4h197h1q2 0 2 -4v-302q31 57 77 84.5t90 27.5 q57 0 97 -46t40 -119v-156z"/>
<glyph glyph-name="i" horiz-adv-x="286" unicode="i" d="M249 645q0 -39 -34.5 -66t-82.5 -27t-82 27t-34 66q0 38 34 65.5t82 27.5t82.5 -27.5t34.5 -65.5zM256 6l-4 -6h-200q-5 1 -5 5q8 228 8 297q0 51 -9.5 83t-20.5 40.5t-20.5 14t-9.5 10.5q0 2 1 4q9 26 45 48.5t76 22.5q62 0 100.5 -41t38.5 -111v-367z"/>
<glyph glyph-name="j" horiz-adv-x="306" unicode="j" d="M169 552q-48 0 -82 27t-34 66q0 38 34 65.5t82 27.5q49 0 83 -27.5t34 -65.5q0 -39 -34 -66t-83 -27zM270 498v-466q0 -296 -221 -296q-84 0 -131.5 37.5t-47.5 88.5q0 38 26.5 68.5t66.5 30.5q23 0 46 -6t25 -12q1 -1 1 -5q0 -3 -4 -23t-4 -37q0 -60 36 -60q39 0 39 57 q0 31 -16.5 79t-16.5 86v457l4 6h193q4 -1 4 -5z"/>
<glyph glyph-name="k" horiz-adv-x="601" unicode="k" d="M593 66q13 -6 13 -13q0 -5 -12 -20q-19 -21 -57 -38t-77 -17q-49 0 -86.5 19.5t-58 47t-34 63.5t-18 63t-4.5 50q0 22 11 22q49 0 73 24t24 57q0 27 -15 47t-38 20q-41 0 -59.5 -32t-20.5 -74v-279l-4 -6h-193q-4 1 -4 5q-3 602 -3 710l4 4h196h1q3 0 3 -4v-293 q29 51 74.5 77t94.5 26q66 0 105 -44t39 -103q0 -50 -31 -88.5t-91 -47.5v-2q2 -5 5.5 -13t17.5 -31t31.5 -43.5t48 -45t65.5 -41.5z"/>
<glyph glyph-name="l" horiz-adv-x="295" unicode="l" d="M30 714l5 5h200l4 -5q1 -444 1 -513q0 -51 9.5 -83t20.5 -40.5t20.5 -14t9.5 -10.5q0 -2 -1 -4q-9 -25 -48.5 -48t-80.5 -23q-62 0 -101 41.5t-39 110.5v584z"/>
<glyph glyph-name="m" horiz-adv-x="911" unicode="m" d="M849 204q0 -51 10.5 -82.5t23 -40t23 -14.5t10.5 -11q0 -3 -1 -5q-9 -25 -45 -47.5t-76 -22.5q-62 0 -104.5 41.5t-42.5 110.5v194q0 29 -9.5 44t-23.5 15q-22 0 -41.5 -31t-19.5 -81v-18l8 -250l-5 -6h-200l-4 5q-1 119 -1 200v51v24v47q0 29 -9.5 44t-23.5 15 q-22 0 -41.5 -31t-19.5 -81v-268l-5 -6h-200q-4 1 -4 5q7 228 7 297q0 51 -9 82.5t-20.5 40t-20.5 14t-9 10.5q0 3 1 5q8 26 44 48.5t76 22.5q53 0 90 -30.5t47 -84.5q29 59 73 87t88 28q48 0 84.5 -32t48.5 -87q28 61 73 90t90 29q58 0 98 -46t40 -119v-156z"/>
<glyph glyph-name="n" horiz-adv-x="622" unicode="n" d="M559 204q0 -51 10.5 -83t23.5 -40.5t23.5 -14.5t10.5 -11q0 -2 -1 -4q-9 -25 -45 -47.5t-76 -22.5q-62 0 -104.5 41.5t-42.5 110.5v194q0 29 -10 44t-26 15q-24 0 -44.5 -31t-21.5 -81v-268l-5 -6h-200q-4 1 -4 5q8 228 8 297q0 51 -9.5 82.5t-20.5 40t-20.5 14 t-9.5 10.5q0 3 1 5q8 26 44 48.5t76 22.5q53 0 90 -31.5t47 -85.5q31 60 77.5 88.5t91.5 28.5q58 0 98 -46t40 -119q0 -17 -0.5 -65.5t-0.5 -90.5z"/>
<glyph glyph-name="o" horiz-adv-x="580" unicode="o" d="M207 249q0 -68 21 -113.5t62 -45.5q43 0 63 44t20 115q0 69 -21 114t-62 45q-42 0 -62.5 -44.5t-20.5 -114.5zM570 249q0 -115 -79 -193.5t-201 -78.5q-120 0 -200 79t-80 193t80 193t200 79t200 -79t80 -193z"/>
<glyph glyph-name="p" horiz-adv-x="616" unicode="p" d="M326 116q35 0 55 38.5t20 97.5t-20 97t-55 38t-55 -38t-20 -97t20 -97.5t55 -38.5zM411 525q89 0 142 -82.5t53 -190.5q0 -110 -53.5 -190.5t-146.5 -80.5q-96 0 -149 95v-290l-5 -6h-200l-4 5q-1 448 -1 517q0 51 -8 82.5t-18 40t-18 14t-8 10.5q0 3 1 5q9 26 45 48.5 t76 22.5q52 0 89 -30.5t47 -83.5q59 114 158 114z"/>
<glyph glyph-name="q" horiz-adv-x="584" unicode="q" d="M290 117q35 0 55 38.5t20 97.5t-20 97t-55 38t-55 -38t-20 -97t20 -97.5t55 -38.5zM561 503q0 -3 3 -4v-713l-4 -5h-193q-4 0 -4 5q-1 122 -1 295q-55 -101 -157 -101q-60 0 -105.5 40.5t-67.5 101.5t-22 131q0 110 53.5 190.5t146.5 80.5q100 0 153 -103v78l4 4h194z "/>
<glyph glyph-name="r" horiz-adv-x="483" unicode="r" d="M377 524q49 0 80 -29.5t31 -82.5q0 -60 -36 -94.5t-89 -34.5q-16 0 -31.5 7t-18.5 13q-3 4 -3 12q0 2 0.5 10t0.5 14q0 44 -21 44q-34 0 -34 -113v-265l-4 -5h-201q-4 0 -4 5q8 227 8 296q0 51 -9.5 83t-20.5 40.5t-20.5 14t-9.5 10.5q0 2 1 4q9 26 45 48.5t76 22.5 q51 0 87 -29t47 -80q20 49 54.5 79t71.5 30z"/>
<glyph glyph-name="s" horiz-adv-x="513" unicode="s" d="M339 294q164 -47 164 -154q0 -57 -42 -95.5t-97.5 -53t-118.5 -14.5q-37 0 -75 6.5t-75.5 21t-61 41t-23.5 61.5q0 38 27 64.5t70 26.5q24 0 48 -5.5t27 -11.5q3 -4 3 -14q0 -3 -0.5 -12t-0.5 -15q0 -29 16.5 -45t42.5 -16q52 0 54 45q0 10 -4 18.5t-12.5 15t-17 11.5 t-23 10.5t-25.5 9t-30 9t-31 9.5q-58 20 -96.5 58t-39.5 93v3q0 73 70.5 118t154.5 45q96 0 166 -33.5t70 -96.5q1 -37 -25.5 -62t-71.5 -25q-25 0 -47 6t-25 12q-3 5 -3 12q0 3 1 12.5t1 16.5q0 57 -48 57h-3q-21 -1 -34 -16t-13 -31q0 -21 17 -36.5t38 -23t58 -18.5 q10 -3 15 -4z"/>
<glyph glyph-name="t" horiz-adv-x="380" unicode="t" d="M368 90q17 0 17 -13q0 -5 -4 -13q-20 -40 -69.5 -65.5t-104.5 -25.5q-52 2 -89 23q-68 41 -68 134v279h-51q-4 0 -4 5v85l4 4h51v76l5 5l192 79l4 -5q1 -70 1 -155h122q3 0 3 -5v-84l-4 -5h-121v-208v-16q0 -12 2 -32q10 -65 74 -65q7 0 20.5 1t19.5 1z"/>
<glyph glyph-name="u" horiz-adv-x="615" unicode="u" d="M560 201q0 -51 9.5 -83t20.5 -40.5t20.5 -14t9.5 -10.5q0 -2 -1 -4q-9 -26 -45 -48.5t-76 -22.5q-52 0 -89 30.5t-47 84.5q-29 -59 -73 -87t-89 -28q-57 0 -97 46t-40 119v156q0 51 -10.5 83t-23.5 40t-23.5 14t-10.5 11q0 2 1 4q9 26 45 48.5t76 22.5q63 0 105.5 -41.5 t42.5 -110.5v-194q0 -58 33 -58q21 0 40.5 29t20.5 75v275l4 6h201q4 -1 4 -5q-8 -228 -8 -297z"/>
<glyph glyph-name="v" horiz-adv-x="548" unicode="v" d="M385 525q65 0 109 -56t44 -176q0 -32 -5.5 -68t-23.5 -81.5t-46.5 -81t-79 -60t-116.5 -24.5h-6q-98 0 -169.5 56.5t-71.5 165.5h1v1v297l4 5h193q4 -1 4 -6v-308q0 -51 8.5 -73.5t32.5 -22.5q36 0 61.5 39.5t25.5 118.5q0 61 -13.5 103.5t-30 57.5t-30 26t-13.5 16 q0 19 36 45t86 26z"/>
<glyph glyph-name="w" horiz-adv-x="860" unicode="w" d="M697 525q65 0 109 -56t44 -176q0 -32 -5.5 -68t-23.5 -81.5t-46.5 -81t-79 -60t-116.5 -24.5h-6q-120 0 -188 74q-56 -74 -157 -74q-77 0 -133.5 49t-70.5 128q-4 17 -4 42v3v2v296l4 5h195q5 -1 5 -6v-323q4 -81 54 -81q22 0 38 24t16 72l1 -1q-1 4 -1 12h1v1v297l4 5 h193q4 -1 4 -6v-308q0 -51 8.5 -73.5t32.5 -22.5q36 0 61.5 39.5t25.5 118.5q0 61 -13.5 103.5t-30 57.5t-30 26t-13.5 16q0 19 36 45t86 26z"/>
<glyph glyph-name="x" horiz-adv-x="580" unicode="x" d="M406 248l170 -242q1 -1 1 -3q0 -3 -4 -3h-221q-6 0 -8 5l-112 173q-36 -10 -36 -37q0 -23 24 -58l23 -35q0 -25 -32 -47.5t-72 -22.5q-59 0 -95.5 32.5t-38.5 84.5v9q0 123 169 161l-163 233q-3 5 3 5h217q5 0 8 -5l112 -170q32 9 32 34q0 16 -12 36.5t-24 35.5t-12 17 q0 25 32 47t72 22q59 0 96 -35.5t37 -87.5q0 -54 -47 -93.5t-119 -55.5z"/>
<glyph glyph-name="y" horiz-adv-x="595" unicode="y" d="M564 71v-15q0 -127 -72 -204.5t-204 -77.5q-67 0 -119.5 27.5t-75 56t-30.5 52.5t-8 40t10 16h3q7 -1 20.5 -14t29 -27.5t46.5 -26.5t69 -12q57 0 92 33t37 81v100q-28 -60 -72.5 -88t-89.5 -28q-57 0 -97 46t-40 119v150q0 51 -10.5 83t-23.5 40t-23.5 14t-10.5 11 q0 2 1 4q9 26 45 48.5t76 22.5q63 0 105 -41.5t42 -110.5v-188q0 -29 10 -44t24 -15q22 0 41.5 31t20.5 80v263l4 5h193q4 0 4 -5q3 -293 3 -426z"/>
<glyph glyph-name="z" horiz-adv-x="496" unicode="z" d="M495 127q1 -7 1 -21q0 -64 -43 -96t-106 -32q-18 0 -36 3q-144 19 -289 19l-3 4q-6 54 -6 72q0 20 3 42q6 49 75 107.5t142 99.5q23 12 81 36q-46 3 -87 3q-111 0 -211 -21l-6 4q-8 24 -8 54q0 73 59 105q34 19 81 19q21 0 130 -12.5t210 -12.5q5 0 6 -4q0 -12 1 -36.5 t1 -37.5q0 -23 -3 -44q-7 -46 -60 -95.5t-132 -93.5q-68 -37 -95 -51h106q63 0 100.5 8.5t49.5 17t13 8.5t5 -2q17 -14 21 -43z"/>
<glyph glyph-name="braceleft" horiz-adv-x="212" unicode="{" d="M197 -151q10 -10 9 -13q0 -8 -18 -9h-8q-70 0 -106.5 48.5t-36.5 140.5q0 20 1 31q1 10 1 15q3 36 3 69q0 116 -28 139q-9 9 -9 12q0 4 9 13q28 26 28 141q0 31 -3 67l-1 15q-1 11 -1 31q0 92 36.5 140.5t106.5 48.5h8q18 0 18 -9q1 -3 -9 -13q-28 -24 -28 -120 q0 -30 3 -64l1 -15q1 -11 1 -32q0 -76 -23 -130.5t-65 -71.5q42 -17 65 -71.5t23 -130.5q0 -21 -1 -32q-1 -10 -1 -16q-3 -34 -3 -64q0 -96 28 -120z"/>
<glyph glyph-name="bar" horiz-adv-x="158" unicode="|" d="M125 -171q0 -4 -2 -4h-1h-88h-1q-3 0 -3 4l1 910l4 5h86q4 0 4 -5v-910z"/>
<glyph glyph-name="braceright" horiz-adv-x="232" unicode="}" d="M25 -151q28 24 28 120q0 30 -3 64l-1 16q-1 11 -1 32q0 76 23 130.5t65 71.5q-42 17 -65 71.5t-23 130.5q0 21 1 32q1 10 1 15q3 34 3 64q0 96 -28 120q-10 10 -9 13q0 9 18 9h8q70 0 106.5 -48.5t36.5 -140.5q0 -20 -1 -31q-1 -10 -1 -15q-3 -36 -3 -67q0 -115 28 -141 q9 -9 9 -13q0 -3 -9 -12q-28 -23 -28 -139q0 -33 3 -69l1 -15q1 -11 1 -31q0 -92 -36.5 -140.5t-106.5 -48.5h-8q-18 1 -18 9q-1 3 9 13z"/>
<glyph glyph-name="asciitilde" horiz-adv-x="596" unicode="~" d="M481 332q3 1 10 1q25 0 48 -23t23 -55q0 -4 -2 -16q-7 -33 -33 -56t-70 -23q-25 0 -50 7q-28 7 -89.5 43t-96.5 36q-22 0 -42 -10q-18 -9 -32 -23t-20.5 -24.5t-8.5 -11.5q-4 -1 -12 -1q-27 0 -50 22.5t-23 55.5q0 10 1 15q6 34 34.5 56.5t71.5 22.5q27 0 52 -8 q21 -6 86.5 -40t101.5 -34q21 0 39 7q19 7 32.5 21.5t20.5 25.5t9 12z"/>
<glyph glyph-name="exclamdown" horiz-adv-x="266" unicode="¡" d="M10 -85q0 72 11 155t38.5 153.5t64.5 70.5q25 0 43 -35t26.5 -90t12.5 -98.5t5 -85.5q1 -51 11 -82.5t20.5 -40t19.5 -14t9 -10.5q0 -3 -1 -5q-9 -25 -45 -48t-76 -23q-62 0 -100.5 41.5t-38.5 111.5zM22 433q0 41 28.5 70t69.5 29t69.5 -29t28.5 -70t-29 -69.5 t-69 -28.5t-69 28.5t-29 69.5z"/>
<glyph glyph-name="cent" horiz-adv-x="423" unicode="¢" d="M414 174q4 -4 4 -8q0 -3 -1 -5q-10 -35 -53 -77t-110 -50l6 -66l-4 -5h-67q-4 1 -4 6q4 34 6 67q-78 14 -129.5 75t-51.5 141t51 140.5t131 74.5l-7 62l4 4h67q5 0 5 -5q-5 -26 -7 -58q65 -7 109.5 -36t44.5 -77q0 -32 -20 -54.5t-62 -25.5h-4q-18 0 -34 5t-19 10 q-2 3 -2 11q0 4 2 22v7q0 35 -30 39h-4q-55 0 -55 -119q0 -62 27.5 -92.5t72.5 -30.5q57 0 123 44q7 5 11 1z"/>
<glyph glyph-name="sterling" horiz-adv-x="488" unicode="£" d="M466 152v-147q0 -4 -5 -4h-430l-6 4v146q1 3 3 4v1q42 17 60 43q-21 -2 -46 -5l-26 -2l-4 4l-2 68q0 3 4 3h8q22 0 63 -3q-4 4 -19.5 17t-23.5 21.5t-15.5 26.5t-7.5 40q0 57 38 93.5t88 49t112 12.5q35 0 71 -6.5t71 -21t57 -41.5t22 -62q0 -37 -26.5 -64t-68.5 -27 q-24 0 -46.5 6t-26.5 12q-3 5 -3 13q0 6 2 28v9q0 54 -48 54q-34 0 -43 -31q-2 -5 -2 -17q0 -29 35 -109l92 8l5 -4l2 -67q0 -5 -5 -5q-46 4 -103 5q-19 -30 -78 -49q102 1 298 1z"/>
<glyph glyph-name="section" horiz-adv-x="500" unicode="§" d="M301 191q10 2 18.5 15t8.5 28q0 16 -11 30q-8 11 -25 17l-28 10l-26 9l-28 10l-2 1l-6 2q-10 -3 -18.5 -15.5t-8.5 -27.5q0 -22 20 -39v1q7 -7 17 -10l64 -22zM414 143q63 -42 67 -107q1 -3 1 -10q0 -72 -69 -116t-151 -44q-58 0 -108.5 13.5t-85 43t-34.5 70.5 q-1 37 24 61.5t70 24.5q23 0 45 -6t25 -12q3 -5 3 -12q0 -3 -1 -12t-1 -16q0 -56 47 -56h3q21 1 33 16t12 31h-1q0 30 -25.5 44.5t-85.5 31.5q-9 3 -13 4q-112 31 -144 89q-15 25 -15 51v4v6q0 77 76 119q-63 44 -68 108v10q0 72 68.5 116t150.5 44q59 0 109.5 -13.5t85 -43 t34.5 -70.5q1 -37 -24.5 -61.5t-69.5 -24.5q-23 0 -45 6t-25 12q-3 4 -3 12q0 3 1 12t1 16q0 56 -47 56h-3q-21 -1 -33 -16t-12 -31q0 -21 17 -35.5t36 -22t58 -18.5q9 -3 14 -4q110 -31 144 -89q15 -25 15 -51v-5v-5q0 -76 -76 -120z"/>
<glyph glyph-name="dieresis" horiz-adv-x="441" unicode="¨" d="M436 638q0 -36 -29 -61t-70 -25t-70 25t-29 61t29 61t70 25t70 -25t29 -61zM204 638q0 -36 -29.5 -61t-70.5 -25t-70 25t-29 61t29 61t70 25t70.5 -25t29.5 -61z"/>
<glyph glyph-name="copyright" horiz-adv-x="725" unicode="©" d="M361 -9q108 0 185 76.5t77 185.5q0 108 -77 185t-185 77q-109 0 -185.5 -77t-76.5 -185q0 -109 76.5 -185.5t185.5 -76.5zM361 578q134 0 229.5 -95.5t95.5 -229.5t-95.5 -229.5t-229.5 -95.5t-229.5 95.5t-95.5 229.5t95.5 229.5t229.5 95.5zM516 184q6 4 9 1t3 -7 q0 -31 -47.5 -72.5t-113.5 -41.5q-78 0 -133 55t-55 133q0 76 52.5 130t130.5 58q63 0 110.5 -26t47.5 -72q0 -27 -17.5 -46.5t-52.5 -21.5h-7q-35 0 -42 12q-3 7 0 28v8q0 18 -7.5 31t-17.5 14h-4q-27 0 -40.5 -35.5t-13.5 -79.5q0 -53 24.5 -79t65.5 -26q52 0 108 37z"/>
<glyph glyph-name="guillemotleft" horiz-adv-x="410" unicode="«" d="M225 68q1 -3 1 -8q0 -14 -11 -14q-5 0 -13 6q-95 81 -178 164q-14 17 -14 25t14 24q105 105 178 164q8 6 14 6q10 0 10 -12q0 -2 -2 -10q-32 -102 -57 -172q49 -147 58 -173zM398 68q1 -3 1 -8q0 -14 -11 -14q-6 0 -13 6q-89 75 -178 164q-13 16 -13 25q0 10 13 24 q105 105 178 164q7 6 14 6q10 0 10 -12q0 -2 -2 -10q-7 -20 -20.5 -62t-24 -73t-12.5 -37q49 -147 58 -173z"/>
<glyph glyph-name="registered" horiz-adv-x="444" unicode="®" d="M222 238q70 0 120.5 50t50.5 121t-50.5 121t-120.5 50q-71 0 -121 -50t-50 -121t50 -121t121 -50zM222 621q88 0 150 -62t62 -150t-62 -150t-150 -62t-150 62t-62 150t62 150t150 62zM249 452q0 28 -28 28q-8 0 -22 -2v-55h19q31 0 31 29zM334 331q6 -4 6 -7t-5 -8 q-21 -23 -51 -23q-16 0 -28.5 6t-19.5 14.5t-12 21t-7 20.5t-3.5 19t-1.5 12l-13 1v-82l-2 -3h-81q-2 1 -2 3v209l1 2q55 9 111 9q43 0 76.5 -18t33.5 -52q0 -41 -54 -62q25 -46 52 -62z"/>
<glyph glyph-name="degree" horiz-adv-x="324" unicode="°" d="M162 641q-24 0 -41 -17t-17 -41t17 -40.5t41 -16.5t41 16.5t17 40.5t-17 41t-41 17zM162 431q-63 0 -107.5 44.5t-44.5 107.5t44.5 107.5t107.5 44.5t107.5 -44.5t44.5 -107.5t-44.5 -107.5t-107.5 -44.5z"/>
<glyph glyph-name="acute" horiz-adv-x="274" unicode="´" d="M269 735q-67 -131 -215 -183q-2 -1 -6 -1h-2q-23 18 -41 49q-1 1 -1 3t2 4q54 54 81.5 99.5t44.5 113.5q2 2 4 2h2q79 -19 129 -79q3 -1 3 -5v-1q-1 -1 -1 -2z"/>
<glyph glyph-name="paragraph" horiz-adv-x="676" unicode="¶" d="M646 701v-856l-4 -5h-114q-4 0 -4 4l-1 769l-4 5h-52q-4 0 -4 -4v-768q-1 -4 -4 -4h-115l-3 1q-1 1 -1 3v401q-24 -3 -50 -3q-55 0 -103 14t-89 43.5t-64.5 81t-23.5 120.5q0 62 25 108.5t68.5 73t96 39t113.5 12.5q69 0 151.5 -7.5t129.5 -14.5l48 -8q4 0 4 -5z"/>
<glyph glyph-name="cedilla" horiz-adv-x="265" unicode="¸" d="M97 5h13l3 -3v-74q20 2 28 2q57 0 90 -31t33 -72q0 -38 -29.5 -65.5t-84.5 -27.5h-13q-39 2 -72.5 18.5t-49 33t-15.5 24.5q0 3 3 3h1q2 0 18.5 -4.5t40 -9t42.5 -4.5q57 0 57 42q0 38 -66 38q-31 0 -70 -10q-5 0 -3 4q49 98 70 133z"/>
<glyph glyph-name="guillemotright" horiz-adv-x="410" unicode="»" d="M185 68q9 26 58 173q-25 70 -57 172q-2 8 -2 10q0 12 10 12q7 0 14 -6q73 -59 178 -164q14 -16 14 -24t-14 -25q-83 -83 -178 -164q-7 -6 -13 -6q-11 0 -11 14q0 5 1 8zM12 68q9 26 58 173q-2 6 -12.5 37t-24 73t-20.5 62q-2 8 -2 10q0 12 10 12q7 0 14 -6 q73 -59 178 -164q13 -14 13 -24q0 -9 -13 -25q-89 -89 -178 -164q-7 -6 -13 -6q-11 0 -11 14q0 5 1 8z"/>
<glyph glyph-name="questiondown" horiz-adv-x="299" unicode="¿" d="M47 137q7 13 22.5 47t25.5 52.5t27.5 35.5t35.5 17q30 0 52 -43.5t22 -93.5q0 -12 -1 -18q-4 -43 -31 -85.5t-51.5 -78.5t-24.5 -66q0 -46 36 -46q35 0 37 65q0 6 -1 17.5t-1 16.5q0 11 3 15q3 5 27.5 11t47.5 7q44 0 67 -22.5t23 -58.5q0 -57 -60 -103t-152 -46 q-99 0 -157.5 49.5t-58.5 111.5q0 35 15.5 66t47.5 74.5t49 75.5zM56 428q0 41 28.5 70t69.5 29t69.5 -29t28.5 -70q0 -40 -29 -69t-69 -29t-69 29t-29 69z"/>
<glyph glyph-name="Agrave" d="M212 935q-2 5 2 8q50 60 129 79h2q2 0 4 -2q17 -68 44.5 -113.5t81.5 -99.5q4 -4 1 -7q-18 -31 -41 -49q-2 -1 -8 1q-148 52 -215 183zM274 246h117l-59 290q-10 -42 -31 -151.5t-27 -138.5zM683 5l-3 -5h-226q-5 0 -6 5l-25 106h-177l-22 -106q-1 -2 -2.5 -3.5 t-3.5 -1.5h-1h-209q-3 0 -3 2t1 3q172 538 172 539q16 40 16 67q0 21 -11 38t-11 20t1 5q9 28 53.5 48.5t89.5 20.5q58 0 108 -39.5t78 -117.5q19 -52 64 -197.5t81 -264.5z" unicode="À"/>
<glyph glyph-name="Aacute" d="M477 945q-67 -131 -215 -183q-6 -2 -8 -1q-23 18 -41 49q-3 3 1 7q54 54 81.5 99.5t44.5 113.5q2 2 4 2h2q79 -19 129 -79q2 -1 2.5 -4t-0.5 -4zM274 246h117l-59 290q-10 -42 -31 -151.5t-27 -138.5zM683 5l-3 -5h-226q-5 0 -6 5l-25 106h-177l-22 -106q-1 -2 -2.5 -3.5 t-3.5 -1.5h-1h-209q-3 0 -3 2t1 3q172 538 172 539q16 40 16 67q0 21 -11 38t-11 20t1 5q9 28 53.5 48.5t89.5 20.5q58 0 108 -39.5t78 -117.5q19 -52 64 -197.5t81 -264.5z" unicode="Á"/>
<glyph glyph-name="Acircumflex" d="M506 753l-179 65q-129 -44 -184 -62q-5 -2 -12 -2q-10 0 -10 7q0 5 6 13q157 180 158 181l6 3h69q6 0 10 -4l153 -183q6 -7 6 -13q0 -7 -11 -7q-8 0 -12 2zM274 246h117l-59 290q-10 -42 -31 -151.5t-27 -138.5zM683 5l-3 -5h-226q-5 0 -6 5l-25 106h-177l-22 -106 q-1 -2 -2.5 -3.5t-3.5 -1.5h-1h-209q-3 0 -3 2t1 3q172 538 172 539q16 40 16 67q0 21 -11 38t-11 20t1 5q9 28 53.5 48.5t89.5 20.5q58 0 108 -39.5t78 -117.5q19 -52 64 -197.5t81 -264.5z" unicode="Â"/>
<glyph glyph-name="Atilde" d="M576 926h1q13 0 13 -41q0 -22 -7 -43.5t-23 -43t-47.5 -35t-74.5 -13.5q-17 0 -26 1q-40 4 -109.5 34.5t-97.5 31.5h-6q-32 0 -54 -14t-33.5 -28.5t-16.5 -14.5h-1q-8 0 -8 23q0 20 8 43t24.5 47t49 40t74.5 16h8q46 -2 116 -31t108 -30h3q27 0 48.5 14t33.5 28.5 t17 15.5zM274 246h117l-59 290q-10 -42 -31 -151.5t-27 -138.5zM683 5l-3 -5h-226q-5 0 -6 5l-25 106h-177l-22 -106q-1 -2 -2.5 -3.5t-3.5 -1.5h-1h-209q-3 0 -3 2t1 3q172 538 172 539q16 40 16 67q0 21 -11 38t-11 20t1 5q9 28 53.5 48.5t89.5 20.5q58 0 108 -39.5 t78 -117.5q19 -52 64 -197.5t81 -264.5z" unicode="Ã"/>
<glyph glyph-name="Adieresis" d="M544 838q0 -36 -29 -61t-70 -25t-70 25t-29 61t29 61t70 25t70 -25t29 -61zM312 838q0 -36 -29.5 -61t-70.5 -25t-70 25t-29 61t29 61t70 25t70.5 -25t29.5 -61zM274 246h117l-59 290q-10 -42 -31 -151.5t-27 -138.5zM683 5l-3 -5h-226q-5 0 -6 5l-25 106h-177l-22 -106 q-1 -2 -2.5 -3.5t-3.5 -1.5h-1h-209q-3 0 -3 2t1 3q172 538 172 539q16 40 16 67q0 21 -11 38t-11 20t1 5q9 28 53.5 48.5t89.5 20.5q58 0 108 -39.5t78 -117.5q19 -52 64 -197.5t81 -264.5z" unicode="Ä"/>
<glyph glyph-name="Aring" d="M326 901q20 0 34 -16t14 -40q0 -25 -14 -42t-34 -17t-34.5 17.5t-14.5 41.5q0 25 14 40.5t35 15.5zM456 845q0 51 -38 87t-92 36t-92.5 -36t-38.5 -87q0 -35 19 -64t50 -45q24 7 52 7q31 0 61 -12q35 15 57 45.5t22 68.5zM274 246h117l-59 290q-10 -42 -31 -151.5 t-27 -138.5zM683 5l-3 -5h-226q-5 0 -6 5l-25 106h-177l-22 -106q-1 -2 -2.5 -3.5t-3.5 -1.5h-1h-209q-3 0 -3 2t1 3q172 538 172 539q16 40 16 67q0 21 -11 38t-11 20t1 5q14 42 91 62q29 -15 62 -15q28 0 51 10q85 -33 125 -145q19 -52 64 -197.5t81 -264.5z" unicode="Å"/>
<glyph glyph-name="Ccedilla" horiz-adv-x="642" unicode="Ç" d="M623 198q8 7 13 7q6 0 6 -11q0 -7 -3 -19q-5 -20 -19 -46t-43 -61t-83 -60.5t-123 -28.5v-51q20 2 28 2q57 0 90 -31t33 -72q0 -38 -29.5 -65.5t-84.5 -27.5h-13q-39 2 -72.5 18.5t-49 33t-15.5 24.5q0 3 3 3h1q2 0 18.5 -4.5t40 -9t42.5 -4.5q57 0 57 42q0 38 -66 38 q-31 0 -70 -10q-5 0 -3 4q20 40 58 110q-139 6 -234 118.5t-95 263.5q0 154 98.5 264.5t251.5 111.5h6q115 0 188 -51.5t73 -131.5q0 -44 -30 -79t-81 -35q-32 0 -54.5 10t-22.5 24q0 6 1 17t1 17q0 45 -18.5 74t-57.5 29q-57 0 -92 -70.5t-35 -152.5q0 -13 2 -35 q14 -112 72.5 -167.5t138.5 -55.5q96 0 172 68z"/>
<glyph glyph-name="Egrave" horiz-adv-x="541" unicode="È" d="M118 935q-2 5 2 8q50 60 129 79h2q2 0 4 -2q17 -68 44.5 -113.5t81.5 -99.5q4 -4 1 -7q-18 -31 -41 -49q-2 -1 -8 1q-148 52 -215 183zM511 171q6 5 14 5q11 0 11 -18q0 -7 -1 -11q-3 -21 -20 -48t-46 -55t-77.5 -47t-105.5 -19q-122 0 -189 80t-67 192l1 461l6 5h477 q6 0 8 -5q6 -20 6 -46q0 -87 -82 -119q-34 -13 -86 -13q-24 0 -50.5 2.5t-41.5 5.5l-14 3q0 -6 -0.5 -54.5t-0.5 -77.5h165l5 -5v-100l-6 -5h-165v-72q1 -50 35 -73t86 -23q79 0 138 37z"/>
<glyph glyph-name="Eacute" horiz-adv-x="541" unicode="É" d="M403 935q-67 -131 -215 -183q-6 -2 -8 -1q-23 18 -41 49q-3 3 1 7q54 54 81.5 99.5t44.5 113.5q2 2 4 2h2q79 -19 129 -79q2 -1 2.5 -4t-0.5 -4zM511 171q6 5 14 5q11 0 11 -18q0 -7 -1 -11q-3 -21 -20 -48t-46 -55t-77.5 -47t-105.5 -19q-122 0 -189 80t-67 192l1 461 l6 5h477q6 0 8 -5q6 -20 6 -46q0 -87 -82 -119q-34 -13 -86 -13q-24 0 -50.5 2.5t-41.5 5.5l-14 3q0 -6 -0.5 -54.5t-0.5 -77.5h165l5 -5v-100l-6 -5h-165v-72q1 -50 35 -73t86 -23q79 0 138 37z"/>
<glyph glyph-name="Ecircumflex" horiz-adv-x="541" unicode="Ê" d="M450 753l-179 65q-129 -44 -184 -62q-5 -2 -12 -2q-10 0 -10 7q0 5 6 13q157 180 158 181l6 3h69q6 0 10 -4l153 -183q6 -7 6 -13q0 -7 -11 -7q-8 0 -12 2zM511 171q6 5 14 5q11 0 11 -18q0 -7 -1 -11q-3 -21 -20 -48t-46 -55t-77.5 -47t-105.5 -19q-122 0 -189 80 t-67 192l1 461l6 5h477q6 0 8 -5q6 -20 6 -46q0 -87 -82 -119q-34 -13 -86 -13q-24 0 -50.5 2.5t-41.5 5.5l-14 3q0 -6 -0.5 -54.5t-0.5 -77.5h165l5 -5v-100l-6 -5h-165v-72q1 -50 35 -73t86 -23q79 0 138 37z"/>
<glyph glyph-name="Edieresis" horiz-adv-x="541" unicode="Ë" d="M486 838q0 -36 -29 -61t-70 -25t-70 25t-29 61t29 61t70 25t70 -25t29 -61zM254 838q0 -36 -29.5 -61t-70.5 -25t-70 25t-29 61t29 61t70 25t70.5 -25t29.5 -61zM511 171q6 5 14 5q11 0 11 -18q0 -7 -1 -11q-3 -21 -20 -48t-46 -55t-77.5 -47t-105.5 -19q-122 0 -189 80 t-67 192l1 461l6 5h477q6 0 8 -5q6 -20 6 -46q0 -87 -82 -119q-34 -13 -86 -13q-24 0 -50.5 2.5t-41.5 5.5l-14 3q0 -6 -0.5 -54.5t-0.5 -77.5h165l5 -5v-100l-6 -5h-165v-72q1 -50 35 -73t86 -23q79 0 138 37z"/>
<glyph glyph-name="Igrave" horiz-adv-x="311" unicode="Ì" d="M23 935q-1 1 -0.5 4t2.5 4q50 60 129 79h2q2 0 4 -2q17 -68 44.5 -113.5t81.5 -99.5q2 -2 2 -4t-1 -3q-18 -31 -41 -49q-2 -1 -8 1q-148 52 -215 183zM133 739q64 0 106 -40t42 -120v-574l-5 -5h-213l-4 5v353v190q-3 38 -14 61.5t-22 30t-19.5 11.5t-8.5 10q0 3 1 5 q9 26 51.5 49.5t85.5 23.5z"/>
<glyph glyph-name="Iacute" horiz-adv-x="311" unicode="Í" d="M288 945q-67 -131 -215 -183q-6 -2 -8 -1q-23 18 -41 49q-3 3 1 7q54 54 81.5 99.5t44.5 113.5q2 2 4 2h2q79 -19 129 -79q3 -1 3 -5l-1 -1v-2zM133 739q64 0 106 -40t42 -120v-574l-5 -5h-213l-4 5v353v190q-3 38 -14 61.5t-22 30t-19.5 11.5t-8.5 10q0 3 1 5 q9 26 51.5 49.5t85.5 23.5z"/>
<glyph glyph-name="Icircumflex" horiz-adv-x="311" unicode="Î" d="M336 753l-179 65q-129 -44 -184 -62q-5 -2 -12 -2q-10 0 -10 7q0 5 6 13q157 180 158 181l6 3h69q6 0 10 -4l153 -183q6 -7 6 -13q0 -7 -11 -7q-8 0 -12 2zM133 739q64 0 106 -40t42 -120v-574l-5 -5h-213l-4 5v353v190q-3 38 -14 61.5t-22 30t-19.5 11.5t-8.5 10 q0 3 1 5q9 26 51.5 49.5t85.5 23.5z"/>
<glyph glyph-name="Idieresis" horiz-adv-x="311" unicode="Ï" d="M371 838q0 -36 -29 -61t-70 -25t-70 25t-29 61t29 61t70 25t70 -25t29 -61zM139 838q0 -36 -29.5 -61t-70.5 -25t-70 25t-29 61t29 61t70 25t70.5 -25t29.5 -61zM133 739q64 0 106 -40t42 -120v-574l-5 -5h-213l-4 5v353v190q-3 38 -14 61.5t-22 30t-19.5 11.5t-8.5 10 q0 3 1 5q9 26 51.5 49.5t85.5 23.5z"/>
<glyph glyph-name="Ntilde" horiz-adv-x="696" unicode="Ñ" d="M579 926h1q13 0 13 -41q0 -22 -7 -43.5t-23 -43t-47.5 -35t-74.5 -13.5q-17 0 -26 1q-40 4 -109.5 34.5t-97.5 31.5h-6q-32 0 -54 -14t-33.5 -28.5t-16.5 -14.5h-1q-8 0 -8 23q0 20 8 43t24.5 47t49 40t74.5 16h8q46 -2 116 -31t108 -30h3q27 0 48.5 14t33.5 28.5 t17 15.5zM668 710l-3 -705l-5 -5h-184h-1q-3 0 -6 5l-212 417l9 -83l9 -334l-5 -5h-214l-5 5q6 546 6 547q-2 47 -17.5 70.5t-29.5 30t-14 11.5q0 3 1 5q10 26 54.5 50t91.5 24q54 0 89.5 -30.5t79.5 -96.5q105 -179 154 -286l-10 96l-5 284l4 5h208q5 0 5 -5z"/>
<glyph glyph-name="Ograve" horiz-adv-x="710" unicode="Ò" d="M222 935q-2 5 2 8q50 60 129 79h2q2 0 4 -2q17 -68 44.5 -113.5t81.5 -99.5q4 -4 1 -7q-18 -31 -41 -49q-2 -1 -8 1q-148 52 -215 183zM236 357q0 -95 34 -180.5t86 -85.5q37 0 65.5 42.5t42 102t13.5 121.5q0 98 -34 183t-87 85t-86.5 -85t-33.5 -183zM703 357 q0 -159 -95 -268.5t-252 -109.5q-154 0 -250 110t-96 268t96.5 269t249.5 111q154 0 250.5 -111t96.5 -269z"/>
<glyph glyph-name="Oacute" horiz-adv-x="710" unicode="Ó" d="M513 945q-67 -131 -215 -183q-6 -2 -8 -1q-23 18 -41 49q-3 3 1 7q54 54 81.5 99.5t44.5 113.5q2 2 4 2h2q79 -19 129 -79q2 -1 2.5 -4t-0.5 -4zM236 357q0 -95 34 -180.5t86 -85.5q37 0 65.5 42.5t42 102t13.5 121.5q0 98 -34 183t-87 85t-86.5 -85t-33.5 -183zM703 357 q0 -159 -95 -268.5t-252 -109.5q-154 0 -250 110t-96 268t96.5 269t249.5 111q154 0 250.5 -111t96.5 -269z"/>
<glyph glyph-name="Ocircumflex" horiz-adv-x="710" unicode="Ô" d="M538 743l-179 65q-129 -44 -184 -62q-5 -2 -12 -2q-10 0 -10 7q0 5 6 13q157 180 158 181l6 3h69q6 0 10 -4l153 -183q6 -7 6 -13q0 -7 -11 -7q-8 0 -12 2zM236 357q0 -95 34 -180.5t86 -85.5q37 0 65.5 42.5t42 102t13.5 121.5q0 98 -34 183t-87 85t-86.5 -85 t-33.5 -183zM703 357q0 -159 -95 -268.5t-252 -109.5q-154 0 -250 110t-96 268t96.5 269t249.5 111q154 0 250.5 -111t96.5 -269z"/>
<glyph glyph-name="Otilde" horiz-adv-x="710" unicode="Õ" d="M595 936h1q13 0 13 -41q0 -22 -7 -43.5t-23 -43t-47.5 -35t-74.5 -13.5q-17 0 -26 1q-40 4 -109.5 34.5t-97.5 31.5h-6q-32 0 -54 -14t-33.5 -28.5t-16.5 -14.5h-1q-8 0 -8 23q0 20 8 43t24.5 47t49 40t74.5 16h8q46 -2 116 -31t108 -30h3q27 0 48.5 14t33.5 28.5 t17 15.5zM236 357q0 -95 34 -180.5t86 -85.5q37 0 65.5 42.5t42 102t13.5 121.5q0 98 -34 183t-87 85t-86.5 -85t-33.5 -183zM703 357q0 -159 -95 -268.5t-252 -109.5q-154 0 -250 110t-96 268t96.5 269t249.5 111q154 0 250.5 -111t96.5 -269z"/>
<glyph glyph-name="Odieresis" horiz-adv-x="710" unicode="Ö" d="M570 838q0 -36 -29 -61t-70 -25t-70 25t-29 61t29 61t70 25t70 -25t29 -61zM338 838q0 -36 -29.5 -61t-70.5 -25t-70 25t-29 61t29 61t70 25t70.5 -25t29.5 -61zM236 357q0 -95 34 -180.5t86 -85.5q37 0 65.5 42.5t42 102t13.5 121.5q0 98 -34 183t-87 85t-86.5 -85 t-33.5 -183zM703 357q0 -159 -95 -268.5t-252 -109.5q-154 0 -250 110t-96 268t96.5 269t249.5 111q154 0 250.5 -111t96.5 -269z"/>
<glyph glyph-name="Oslash" horiz-adv-x="710" unicode="Ø" d="M236 357q0 -67 16 -127l176 340q-32 55 -72 55q-53 0 -86.5 -85t-33.5 -183zM477 357q0 65 -17 130l-175 -342q31 -54 71 -54q37 0 65.5 42.5t42 102t13.5 121.5zM703 357q0 -159 -95 -268.5t-252 -109.5q-74 0 -138 28l-49 -106q-3 -4 -7 -4h-1h-85h-1q-2 0 0 4 t11.5 21.5t30 54t38.5 67.5q-69 51 -107 133.5t-38 179.5q0 158 96.5 269t249.5 111q73 0 137 -28l39 82l8 5h84q4 0 0 -5q-29 -49 -67 -120q69 -52 107.5 -135t38.5 -179z"/>
<glyph glyph-name="Ugrave" horiz-adv-x="698" unicode="Ù" d="M216 935q-2 5 2 8q50 60 129 79h2q2 0 4 -2q17 -68 44.5 -113.5t81.5 -99.5q4 -4 1 -7q-18 -31 -41 -49q-2 -1 -8 1q-148 52 -215 183zM668 710q-2 -170 -2 -388v-78q0 -125 -89 -195.5t-211 -70.5t-210.5 70.5t-88.5 195.5v1v256q0 54 -11.5 88t-24.5 42.5t-24.5 14 t-11.5 11.5q0 1 0.5 2t0.5 2q10 27 48 51t80 24q67 0 115 -44t48 -116v-383v-2q0 -40 23 -62t54 -22t53.5 22.5t22.5 62.5v517l4 6h220q4 -1 4 -5z"/>
<glyph glyph-name="Uacute" horiz-adv-x="698" unicode="Ú" d="M481 935q-67 -131 -215 -183q-6 -2 -8 -1q-23 18 -41 49q-3 3 1 7q54 54 81.5 99.5t44.5 113.5q2 2 4 2h2q79 -19 129 -79q2 -1 2.5 -4t-0.5 -4zM668 710q-2 -170 -2 -388v-78q0 -125 -89 -195.5t-211 -70.5t-210.5 70.5t-88.5 195.5v1v256q0 54 -11.5 88t-24.5 42.5 t-24.5 14t-11.5 11.5q0 1 0.5 2t0.5 2q10 27 48 51t80 24q67 0 115 -44t48 -116v-383v-2q0 -40 23 -62t54 -22t53.5 22.5t22.5 62.5v517l4 6h220q4 -1 4 -5z"/>
<glyph glyph-name="Ucircumflex" horiz-adv-x="698" unicode="Û" d="M529 753l-179 65q-129 -44 -184 -62q-5 -2 -12 -2q-10 0 -10 7q0 5 6 13q157 180 158 181l6 3h69q6 0 10 -4l153 -183q6 -7 6 -13q0 -7 -11 -7q-8 0 -12 2zM668 710q-2 -170 -2 -388v-78q0 -125 -89 -195.5t-211 -70.5t-210.5 70.5t-88.5 195.5v1v256q0 54 -11.5 88 t-24.5 42.5t-24.5 14t-11.5 11.5q0 1 0.5 2t0.5 2q10 27 48 51t80 24q67 0 115 -44t48 -116v-383v-2q0 -40 23 -62t54 -22t53.5 22.5t22.5 62.5v517l4 6h220q4 -1 4 -5z"/>
<glyph glyph-name="Udieresis" horiz-adv-x="698" unicode="Ü" d="M564 838q0 -36 -29 -61t-70 -25t-70 25t-29 61t29 61t70 25t70 -25t29 -61zM332 838q0 -36 -29.5 -61t-70.5 -25t-70 25t-29 61t29 61t70 25t70.5 -25t29.5 -61zM668 710q-2 -170 -2 -388v-78q0 -125 -89 -195.5t-211 -70.5t-210.5 70.5t-88.5 195.5v1v256q0 54 -11.5 88 t-24.5 42.5t-24.5 14t-11.5 11.5q0 1 0.5 2t0.5 2q10 27 48 51t80 24q67 0 115 -44t48 -116v-383v-2q0 -40 23 -62t54 -22t53.5 22.5t22.5 62.5v517l4 6h220q4 -1 4 -5z"/>
<glyph glyph-name="Yacute" horiz-adv-x="668" unicode="Ý" d="M478 935q-67 -131 -215 -183q-6 -2 -8 -1q-23 18 -41 49q-3 3 1 7q54 54 81.5 99.5t44.5 113.5q2 2 4 2h2q79 -19 129 -79q4 -3 2 -8zM664 615q0 -47 -16 -91.5t-36 -75t-55 -63.5t-57.5 -50t-58.5 -42v-85q1 -41 8.5 -69.5t17 -40.5t19 -18.5t16 -10t6.5 -8.5 q0 -3 -1 -5q-9 -28 -50 -53.5t-84 -25.5q-66 0 -109 42.5t-43 130.5q0 103 -1 150l-219 408q-1 1 -1 3l5 5h240q5 0 7 -6l123 -305q57 88 57 210q0 21 -2 41.5t-3.5 33t-1.5 13.5q0 15 31.5 28t71.5 13q55 0 94.5 -30.5t41.5 -98.5z"/>
<glyph glyph-name="germandbls" horiz-adv-x="699" unicode="ß" d="M547 349q83 -67 105 -93q42 -49 46 -104v-9q0 -67 -63 -116t-173 -50h-4q-88 0 -149 33.5t-61 96.5q0 38 26.5 66.5t68.5 28.5q24 0 49 -7.5t28 -13.5q2 -2 2 -9q0 -5 -2.5 -19.5t-2.5 -21.5q0 -26 13 -39.5t30 -13.5t30 11.5t13 30.5q0 29 -33 59q-21 19 -65.5 53.5 t-70.5 57t-48.5 56.5t-22.5 68v8q1 22 11.5 42t24.5 35t27.5 29.5t23 31t9.5 34.5q0 38 -21.5 59t-51.5 21t-53.5 -20.5t-26.5 -54.5q-1 -6 -1 -17q0 -12 7 -53t12 -109v-414l-4 -6h-193q-4 1 -4 5v498q-2 20 -2 30q0 93 75 152.5t198 59.5h5q76 0 147 -23t108 -72 q24 -31 24 -59q0 -32 -43 -81t-43 -77q0 -40 55 -84z"/>
<glyph glyph-name="agrave" horiz-adv-x="617" unicode="à" d="M175 735q-1 1 -0.5 4t2.5 4q50 60 129 79h2q2 0 4 -2q17 -68 44.5 -113.5t81.5 -99.5q4 -4 1 -7q-18 -31 -41 -49q-2 -1 -8 1q-148 52 -215 183zM291 117q35 0 55 38t20 97t-20 97.5t-55 38.5t-55 -38.5t-20 -97.5t20 -97t55 -38zM562 201q0 -51 9 -82.5t20.5 -40 t20.5 -14t9 -10.5q0 -3 -1 -5q-8 -26 -44 -48.5t-76 -22.5q-52 0 -89 30.5t-47 83.5q-59 -113 -158 -113q-60 0 -106 41t-68 102t-22 130q0 110 54 190.5t147 80.5q96 0 149 -95v69l5 6h200q4 -1 4 -5q-7 -228 -7 -297z"/>
<glyph glyph-name="aacute" horiz-adv-x="617" unicode="á" d="M454 735q-67 -131 -215 -183q-6 -2 -8 -1q-23 18 -41 49q-3 3 1 7q54 54 81.5 99.5t44.5 113.5q2 2 4 2h2q79 -19 129 -79q4 -3 2 -8zM291 117q35 0 55 38t20 97t-20 97.5t-55 38.5t-55 -38.5t-20 -97.5t20 -97t55 -38zM562 201q0 -51 9 -82.5t20.5 -40t20.5 -14t9 -10.5 q0 -3 -1 -5q-8 -26 -44 -48.5t-76 -22.5q-52 0 -89 30.5t-47 83.5q-59 -113 -158 -113q-60 0 -106 41t-68 102t-22 130q0 110 54 190.5t147 80.5q96 0 149 -95v69l5 6h200q4 -1 4 -5q-7 -228 -7 -297z"/>
<glyph glyph-name="acircumflex" horiz-adv-x="617" unicode="â" d="M488 553l-179 65q-129 -44 -184 -62q-5 -2 -12 -2q-10 0 -10 7q0 5 6 13q157 180 158 181l6 3h69q6 0 10 -4l153 -183q6 -7 6 -13q0 -7 -11 -7q-8 0 -12 2zM291 117q35 0 55 38t20 97t-20 97.5t-55 38.5t-55 -38.5t-20 -97.5t20 -97t55 -38zM562 201q0 -51 9 -82.5 t20.5 -40t20.5 -14t9 -10.5q0 -3 -1 -5q-8 -26 -44 -48.5t-76 -22.5q-52 0 -89 30.5t-47 83.5q-59 -113 -158 -113q-60 0 -106 41t-68 102t-22 130q0 110 54 190.5t147 80.5q96 0 149 -95v69l5 6h200q4 -1 4 -5q-7 -228 -7 -297z"/>
<glyph glyph-name="atilde" horiz-adv-x="617" unicode="ã" d="M553 726h1q13 0 13 -41q0 -22 -7 -43.5t-23 -43t-47.5 -35t-74.5 -13.5q-17 0 -26 1q-40 4 -109.5 34.5t-97.5 31.5h-6q-32 0 -54 -14t-33.5 -28.5t-16.5 -14.5h-1q-8 0 -8 23q0 20 8 43t24.5 47t49 40t74.5 16h8q46 -2 116 -31t108 -30h3q27 0 48.5 14t33.5 28.5 t17 15.5zM291 117q35 0 55 38t20 97t-20 97.5t-55 38.5t-55 -38.5t-20 -97.5t20 -97t55 -38zM562 201q0 -51 9 -82.5t20.5 -40t20.5 -14t9 -10.5q0 -3 -1 -5q-8 -26 -44 -48.5t-76 -22.5q-52 0 -89 30.5t-47 83.5q-59 -113 -158 -113q-60 0 -106 41t-68 102t-22 130 q0 110 54 190.5t147 80.5q96 0 149 -95v69l5 6h200q4 -1 4 -5q-7 -228 -7 -297z"/>
<glyph glyph-name="adieresis" horiz-adv-x="617" unicode="ä" d="M530 638q0 -36 -29 -61t-70 -25t-70 25t-29 61t29 61t70 25t70 -25t29 -61zM298 638q0 -36 -29.5 -61t-70.5 -25t-70 25t-29 61t29 61t70 25t70.5 -25t29.5 -61zM291 117q35 0 55 38t20 97t-20 97.5t-55 38.5t-55 -38.5t-20 -97.5t20 -97t55 -38zM562 201q0 -51 9 -82.5 t20.5 -40t20.5 -14t9 -10.5q0 -3 -1 -5q-8 -26 -44 -48.5t-76 -22.5q-52 0 -89 30.5t-47 83.5q-59 -113 -158 -113q-60 0 -106 41t-68 102t-22 130q0 110 54 190.5t147 80.5q96 0 149 -95v69l5 6h200q4 -1 4 -5q-7 -228 -7 -297z"/>
<glyph glyph-name="aring" horiz-adv-x="617" unicode="å" d="M309 731q-21 0 -35 -15.5t-14 -40.5q0 -24 14.5 -41.5t34.5 -17.5t34 17t14 42q0 24 -14 40t-34 16zM439 675q0 -51 -38 -87.5t-92 -36.5t-92.5 36.5t-38.5 87.5t38.5 87t92.5 36t92 -36t38 -87zM291 117q35 0 55 38t20 97t-20 97.5t-55 38.5t-55 -38.5t-20 -97.5t20 -97 t55 -38zM562 201q0 -51 9 -82.5t20.5 -40t20.5 -14t9 -10.5q0 -3 -1 -5q-8 -26 -44 -48.5t-76 -22.5q-52 0 -89 30.5t-47 83.5q-59 -113 -158 -113q-60 0 -106 41t-68 102t-22 130q0 110 54 190.5t147 80.5q96 0 149 -95v69l5 6h200q4 -1 4 -5q-7 -228 -7 -297z"/>
<glyph glyph-name="ae" horiz-adv-x="1134" unicode="æ" d="M859 401q-45 -27 -52 -117q9 -1 25 -1q53 0 80.5 21t27.5 59q0 20 -14 34t-35 14h-4q0 -1 -1 -1h-3q-12 -2 -24 -9zM291 117q35 0 55 38t20 97t-20 97.5t-55 38.5t-55 -38.5t-20 -97.5t20 -97t55 -38zM1118 155q7 -5 3 -16q-5 -18 -22.5 -43t-46 -52.5t-74.5 -46 t-97 -18.5q-115 0 -195 82q-35 -41 -76 -61.5t-103 -21.5h-2q-53 0 -92.5 34.5t-48.5 79.5q-59 -113 -158 -113q-60 0 -106 41t-68 102t-22 130q0 110 54 190.5t147 80.5q96 0 149 -95v69l5 6h199q4 -1 4 -5q-2 -225 -4 -298q0 -76 37 -76q15 0 32 14q-24 56 -24 114 q0 113 79.5 192.5t205.5 79.5q112 0 173.5 -55.5t61.5 -118.5q0 -85 -64.5 -123.5t-160.5 -38.5q-44 0 -89 8q30 -86 138 -86q73 0 152 44q7 5 13 1z"/>
<glyph glyph-name="ccedilla" horiz-adv-x="521" unicode="ç" d="M270 5h13l3 -3v-23q50 1 94 19.5t71 46t43 51.5t21 43q1 3 1 6q0 6 -4 10q-6 5 -14 -1q-72 -43 -146 -43q-58 0 -97 33.5t-45 107.5q-1 8 -1 24q0 54 20 94.5t54 40.5q21 0 34.5 -19t13.5 -50q0 -7 -1 -16.5t-1 -12.5q0 -7 3 -12t25 -11t45 -6q42 0 70 31t27 69 q0 67 -66 103.5t-158 36.5q-114 -5 -189.5 -83.5t-75.5 -188.5q0 -106 70 -183.5t174 -88.5q8 16 12 22zM286 -21v-51q20 2 28 2q57 0 90 -31t33 -72q0 -38 -29.5 -65.5t-84.5 -27.5h-13q-39 2 -72.5 18.5t-49 33t-15.5 24.5q0 3 3 3h1q2 0 18.5 -4.5t40 -9t42.5 -4.5 q57 0 57 42q0 38 -66 38q-31 0 -70 -10q-5 0 -3 4q26 53 58 111q9 -1 29 -1h3z"/>
<glyph glyph-name="egrave" horiz-adv-x="540" unicode="è" d="M128 735q-2 5 2 8q50 60 129 79h2q2 0 4 -2q17 -68 44.5 -113.5t81.5 -99.5q4 -4 1 -7q-18 -31 -41 -49q-2 -1 -8 1q-148 52 -215 183zM260 401q-45 -27 -52 -117q9 -1 25 -1q53 0 80.5 21t27.5 59q0 20 -14 34t-35 14h-4q0 -1 -1 -1h-3q-12 -2 -24 -9zM519 155 q7 -5 3 -16q-5 -18 -22.5 -43t-46 -52.5t-74.5 -46t-97 -18.5q-113 0 -192.5 80t-79.5 193t79.5 192.5t205.5 79.5q112 0 173.5 -55.5t61.5 -118.5q0 -85 -64.5 -123.5t-160.5 -38.5q-44 0 -89 8q30 -86 138 -86q73 0 152 44q7 5 13 1z"/>
<glyph glyph-name="eacute" horiz-adv-x="540" unicode="é" d="M413 735q-67 -131 -215 -183q-6 -2 -8 -1q-23 18 -41 49q-3 3 1 7q54 54 81.5 99.5t44.5 113.5q2 2 4 2h2q79 -19 129 -79q2 -1 2.5 -4t-0.5 -4zM260 401q-45 -27 -52 -117q9 -1 25 -1q53 0 80.5 21t27.5 59q0 20 -14 34t-35 14h-4q0 -1 -1 -1h-3q-12 -2 -24 -9zM519 155 q7 -5 3 -16q-5 -18 -22.5 -43t-46 -52.5t-74.5 -46t-97 -18.5q-113 0 -192.5 80t-79.5 193t79.5 192.5t205.5 79.5q112 0 173.5 -55.5t61.5 -118.5q0 -85 -64.5 -123.5t-160.5 -38.5q-44 0 -89 8q30 -86 138 -86q73 0 152 44q7 5 13 1z"/>
<glyph glyph-name="ecircumflex" horiz-adv-x="540" unicode="ê" d="M463 553l-179 65q-129 -44 -184 -62q-5 -2 -12 -2q-10 0 -10 7q0 5 6 13q157 180 158 181l6 3h69q6 0 10 -4l153 -183q6 -7 6 -13q0 -7 -11 -7q-8 0 -12 2zM260 401q-45 -27 -52 -117q9 -1 25 -1q53 0 80.5 21t27.5 59q0 20 -14 34t-35 14h-4q0 -1 -1 -1h-3 q-12 -2 -24 -9zM519 155q7 -5 3 -16q-5 -18 -22.5 -43t-46 -52.5t-74.5 -46t-97 -18.5q-113 0 -192.5 80t-79.5 193t79.5 192.5t205.5 79.5q112 0 173.5 -55.5t61.5 -118.5q0 -85 -64.5 -123.5t-160.5 -38.5q-44 0 -89 8q30 -86 138 -86q73 0 152 44q7 5 13 1z"/>
<glyph glyph-name="edieresis" horiz-adv-x="540" unicode="ë" d="M260 401q-45 -27 -52 -117q9 -1 25 -1q53 0 80.5 21t27.5 59q0 20 -14 34t-35 14h-4q0 -1 -1 -1h-3q-12 -2 -24 -9zM519 155q7 -5 3 -16q-5 -18 -22.5 -43t-46 -52.5t-74.5 -46t-97 -18.5q-113 0 -192.5 80t-79.5 193t79.5 192.5t205.5 79.5q112 0 173.5 -55.5 t61.5 -118.5q0 -85 -64.5 -123.5t-160.5 -38.5q-44 0 -89 8q30 -86 138 -86q73 0 152 44q7 5 13 1zM488 638q0 -36 -29 -61t-70 -25t-70 25t-29 61t29 61t70 25t70 -25t29 -61zM255 638q0 -36 -29 -61t-70 -25t-70 25t-29 61t29 61t70 25t70 -25t29 -61z"/>
<glyph glyph-name="igrave" horiz-adv-x="286" unicode="ì" d="M10 735q-2 5 2 8q50 60 129 79h2q2 0 4 -2q17 -68 44.5 -113.5t81.5 -99.5q2 -2 2 -4t-1 -3q-18 -31 -41 -49q-2 -1 -8 1q-148 52 -215 183zM256 6l-4 -6h-200q-5 1 -5 5q8 228 8 297q0 51 -9.5 83t-20.5 40.5t-20.5 14t-9.5 10.5q0 2 1 4q9 26 45 48.5t76 22.5 q62 0 100.5 -41t38.5 -111v-367z"/>
<glyph glyph-name="iacute" horiz-adv-x="286" unicode="í" d="M275 735q-67 -131 -215 -183q-6 -2 -8 -1q-23 18 -41 49q-3 3 1 7q54 54 81.5 99.5t44.5 113.5q2 2 4 2h2q79 -19 129 -79q3 -1 3 -5v-1q-1 -1 -1 -2zM256 6l-4 -6h-200q-5 1 -5 5q8 228 8 297q0 51 -9.5 83t-20.5 40.5t-20.5 14t-9.5 10.5q0 2 1 4q9 26 45 48.5t76 22.5 q62 0 100.5 -41t38.5 -111v-367z"/>
<glyph glyph-name="icircumflex" horiz-adv-x="286" unicode="î" d="M323 553l-179 65q-129 -44 -184 -62q-5 -2 -12 -2q-10 0 -10 7q0 5 6 13q157 180 158 181l6 3h69q6 0 10 -4l153 -183q6 -7 6 -13q0 -7 -11 -7q-8 0 -12 2zM256 6l-4 -6h-200q-5 1 -5 5q8 228 8 297q0 51 -9.5 83t-20.5 40.5t-20.5 14t-9.5 10.5q0 2 1 4q9 26 45 48.5 t76 22.5q62 0 100.5 -41t38.5 -111v-367z"/>
<glyph glyph-name="idieresis" horiz-adv-x="286" unicode="ï" d="M359 638q0 -36 -29 -61t-70 -25t-70 25t-29 61t29 61t70 25t70 -25t29 -61zM127 638q0 -36 -29.5 -61t-70.5 -25t-70 25t-29 61t29 61t70 25t70.5 -25t29.5 -61zM256 6l-4 -6h-200q-5 1 -5 5q8 228 8 297q0 51 -9.5 83t-20.5 40.5t-20.5 14t-9.5 10.5q0 2 1 4 q9 26 45 48.5t76 22.5q62 0 100.5 -41t38.5 -111v-367z"/>
<glyph glyph-name="ntilde" horiz-adv-x="622" unicode="ñ" d="M542 726h1q13 0 13 -41q0 -22 -7 -43.5t-23 -43t-47.5 -35t-74.5 -13.5q-17 0 -26 1q-40 4 -109.5 34.5t-97.5 31.5h-6q-32 0 -54 -14t-33.5 -28.5t-16.5 -14.5h-1q-8 0 -8 23q0 20 8 43t24.5 47t49 40t74.5 16h8q46 -2 116 -31t108 -30h3q27 0 48.5 14t33.5 28.5 t17 15.5zM559 204q0 -51 10.5 -83t23.5 -40.5t23.5 -14.5t10.5 -11q0 -2 -1 -4q-9 -25 -45 -47.5t-76 -22.5q-62 0 -104.5 41.5t-42.5 110.5v194q0 29 -10 44t-26 15q-24 0 -44.5 -31t-21.5 -81v-268l-5 -6h-200q-4 1 -4 5q8 228 8 297q0 51 -9.5 82.5t-20.5 40t-20.5 14 t-9.5 10.5q0 3 1 5q8 26 44 48.5t76 22.5q53 0 90 -31.5t47 -85.5q31 60 77.5 88.5t91.5 28.5q58 0 98 -46t40 -119q0 -17 -0.5 -65.5t-0.5 -90.5z"/>
<glyph glyph-name="ograve" horiz-adv-x="580" unicode="ò" d="M157 735q-1 1 -0.5 4t2.5 4q50 60 129 79h2q2 0 4 -2q17 -68 44.5 -113.5t81.5 -99.5q4 -4 1 -7q-18 -31 -41 -49q-2 -1 -8 1q-148 52 -215 183zM207 249q0 -68 21 -113.5t62 -45.5q43 0 63 44t20 115q0 69 -21 114t-62 45q-42 0 -62.5 -44.5t-20.5 -114.5zM570 249 q0 -115 -79 -193.5t-201 -78.5q-120 0 -200 79t-80 193t80 193t200 79t200 -79t80 -193z"/>
<glyph glyph-name="oacute" horiz-adv-x="580" unicode="ó" d="M422 735q-67 -131 -215 -183q-6 -2 -8 -1q-23 18 -41 49q-3 3 1 7q54 54 81.5 99.5t44.5 113.5q2 2 4 2h2q79 -19 129 -79q4 -3 2 -8zM207 249q0 -68 21 -113.5t62 -45.5q43 0 63 44t20 115q0 69 -21 114t-62 45q-42 0 -62.5 -44.5t-20.5 -114.5zM570 249 q0 -115 -79 -193.5t-201 -78.5q-120 0 -200 79t-80 193t80 193t200 79t200 -79t80 -193z"/>
<glyph glyph-name="ocircumflex" horiz-adv-x="580" unicode="ô" d="M470 553l-179 65q-129 -44 -184 -62q-5 -2 -12 -2q-10 0 -10 7q0 5 6 13q157 180 158 181l6 3h69q6 0 10 -4l153 -183q6 -7 6 -13q0 -7 -11 -7q-8 0 -12 2zM207 249q0 -68 21 -113.5t62 -45.5q43 0 63 44t20 115q0 69 -21 114t-62 45q-42 0 -62.5 -44.5t-20.5 -114.5z M570 249q0 -115 -79 -193.5t-201 -78.5q-120 0 -200 79t-80 193t80 193t200 79t200 -79t80 -193z"/>
<glyph glyph-name="otilde" horiz-adv-x="580" unicode="õ" d="M539 726h1q13 0 13 -41q0 -22 -7 -43.5t-23 -43t-47.5 -35t-74.5 -13.5q-17 0 -26 1q-40 4 -109.5 34.5t-97.5 31.5h-6q-32 0 -54 -14t-33.5 -28.5t-16.5 -14.5h-1q-8 0 -8 23q0 20 8 43t24.5 47t49 40t74.5 16h8q46 -2 116 -31t108 -30h3q27 0 48.5 14t33.5 28.5 t17 15.5zM207 249q0 -68 21 -113.5t62 -45.5q43 0 63 44t20 115q0 69 -21 114t-62 45q-42 0 -62.5 -44.5t-20.5 -114.5zM570 249q0 -115 -79 -193.5t-201 -78.5q-120 0 -200 79t-80 193t80 193t200 79t200 -79t80 -193z"/>
<glyph glyph-name="odieresis" horiz-adv-x="580" unicode="ö" d="M505 638q0 -36 -29 -61t-70 -25t-70 25t-29 61t29 61t70 25t70 -25t29 -61zM273 638q0 -36 -29.5 -61t-70.5 -25t-70 25t-29 61t29 61t70 25t70.5 -25t29.5 -61zM207 249q0 -68 21 -113.5t62 -45.5q43 0 63 44t20 115q0 69 -21 114t-62 45q-42 0 -62.5 -44.5 t-20.5 -114.5zM570 249q0 -115 -79 -193.5t-201 -78.5q-120 0 -200 79t-80 193t80 193t200 79t200 -79t80 -193z"/>
<glyph glyph-name="divide" horiz-adv-x="500" unicode="÷" d="M466 289v-88q0 -3 -4 -3h-159h-269l-5 4v86q1 5 6 5h427zM250 327q-31 0 -53 21.5t-22 52.5t22 53t53 22t53 -22t22 -53t-22 -52.5t-53 -21.5zM250 164q31 0 53 -21.5t22 -52.5t-22 -53t-53 -22t-53 22t-22 53t22 52.5t53 21.5z"/>
<glyph glyph-name="oslash" horiz-adv-x="570" unicode="ø" d="M368 249q0 49 -10 83l-115 -225q17 -17 42 -17q43 0 63 44t20 115zM202 249q0 -49 10 -85l116 226q-18 18 -43 18q-42 0 -62.5 -44.5t-20.5 -114.5zM565 249q0 -115 -79 -193.5t-201 -78.5q-49 0 -97 16l-43 -95q-2 -3 -5 -3h-1h-72h-1q-1 0 1 3q1 3 9.5 17.5t26 45 t32.5 56.5q-61 36 -95.5 97.5t-34.5 134.5q0 114 80 193t200 79q52 0 98 -17l39 86l6 4h71q3 0 0 -4q-28 -45 -64 -110q60 -36 95 -97.5t35 -133.5z"/>
<glyph glyph-name="ugrave" horiz-adv-x="615" unicode="ù" d="M165 735q-1 1 -0.5 4t2.5 4q50 60 129 79h2q2 0 4 -2q17 -68 44.5 -113.5t81.5 -99.5q4 -4 1 -7q-18 -31 -41 -49q-2 -1 -8 1q-148 52 -215 183zM560 201q0 -51 9.5 -83t20.5 -40.5t20.5 -14t9.5 -10.5q0 -2 -1 -4q-9 -26 -45 -48.5t-76 -22.5q-52 0 -89 30.5t-47 84.5 q-29 -59 -73 -87t-89 -28q-57 0 -97 46t-40 119v156q0 51 -10.5 83t-23.5 40t-23.5 14t-10.5 11q0 2 1 4q9 26 45 48.5t76 22.5q63 0 105.5 -41.5t42.5 -110.5v-194q0 -58 33 -58q21 0 40.5 29t20.5 75v275l4 6h201q4 -1 4 -5q-8 -228 -8 -297z"/>
<glyph glyph-name="uacute" horiz-adv-x="615" unicode="ú" d="M447 735q-67 -131 -215 -183q-6 -2 -8 -1q-23 18 -41 49q-3 3 1 7q54 54 81.5 99.5t44.5 113.5q2 2 4 2h2q79 -19 129 -79q2 -1 2.5 -4t-0.5 -4zM560 201q0 -51 9.5 -83t20.5 -40.5t20.5 -14t9.5 -10.5q0 -2 -1 -4q-9 -26 -45 -48.5t-76 -22.5q-52 0 -89 30.5t-47 84.5 q-29 -59 -73 -87t-89 -28q-57 0 -97 46t-40 119v156q0 51 -10.5 83t-23.5 40t-23.5 14t-10.5 11q0 2 1 4q9 26 45 48.5t76 22.5q63 0 105.5 -41.5t42.5 -110.5v-194q0 -58 33 -58q21 0 40.5 29t20.5 75v275l4 6h201q4 -1 4 -5q-8 -228 -8 -297z"/>
<glyph glyph-name="ucircumflex" horiz-adv-x="615" unicode="û" d="M487 553l-179 65q-129 -44 -184 -62q-5 -2 -12 -2q-10 0 -10 7q0 5 6 13q157 180 158 181l6 3h69q6 0 10 -4l153 -183q6 -7 6 -13q0 -7 -11 -7q-8 0 -12 2zM560 201q0 -51 9.5 -83t20.5 -40.5t20.5 -14t9.5 -10.5q0 -2 -1 -4q-9 -26 -45 -48.5t-76 -22.5q-52 0 -89 30.5 t-47 84.5q-29 -59 -73 -87t-89 -28q-57 0 -97 46t-40 119v156q0 51 -10.5 83t-23.5 40t-23.5 14t-10.5 11q0 2 1 4q9 26 45 48.5t76 22.5q63 0 105.5 -41.5t42.5 -110.5v-194q0 -58 33 -58q21 0 40.5 29t20.5 75v275l4 6h201q4 -1 4 -5q-8 -228 -8 -297z"/>
<glyph glyph-name="udieresis" horiz-adv-x="615" unicode="ü" d="M523 638q0 -36 -29 -61t-70 -25t-70 25t-29 61t29 61t70 25t70 -25t29 -61zM291 638q0 -36 -29.5 -61t-70.5 -25t-70 25t-29 61t29 61t70 25t70.5 -25t29.5 -61zM560 201q0 -51 9.5 -83t20.5 -40.5t20.5 -14t9.5 -10.5q0 -2 -1 -4q-9 -26 -45 -48.5t-76 -22.5 q-52 0 -89 30.5t-47 84.5q-29 -59 -73 -87t-89 -28q-57 0 -97 46t-40 119v156q0 51 -10.5 83t-23.5 40t-23.5 14t-10.5 11q0 2 1 4q9 26 45 48.5t76 22.5q63 0 105.5 -41.5t42.5 -110.5v-194q0 -58 33 -58q21 0 40.5 29t20.5 75v275l4 6h201q4 -1 4 -5q-8 -228 -8 -297z"/>
<glyph glyph-name="yacute" horiz-adv-x="595" unicode="ý" d="M439 735q-67 -131 -215 -183q-6 -2 -8 -1q-23 18 -41 49q-3 3 1 7q54 54 81.5 99.5t44.5 113.5q2 2 4 2h2q79 -19 129 -79q2 -1 2.5 -4t-0.5 -4zM564 71v-15q0 -127 -72 -204.5t-204 -77.5q-67 0 -119.5 27.5t-75 56t-30.5 52.5t-8 40t10 16h3q7 -1 20.5 -14t29 -27.5 t46.5 -26.5t69 -12q57 0 92 33t37 81v100q-28 -60 -72.5 -88t-89.5 -28q-57 0 -97 46t-40 119v150q0 51 -10.5 83t-23.5 40t-23.5 14t-10.5 11q0 2 1 4q9 26 45 48.5t76 22.5q63 0 105 -41.5t42 -110.5v-188q0 -29 10 -44t24 -15q22 0 41.5 31t20.5 80v263l4 5h193q4 0 4 -5 q3 -293 3 -426z"/>
<glyph glyph-name="oe" horiz-adv-x="900" unicode="œ" d="M625 401q-45 -27 -52 -117q9 -1 25 -1q53 0 80.5 21t27.5 59q0 20 -14 34t-35 14h-4q0 -1 -1 -1h-3q-12 -2 -24 -9zM207 249q0 -68 21 -113.5t62 -45.5q43 0 63 44t20 115q0 69 -21 114t-62 45q-42 0 -62.5 -44.5t-20.5 -114.5zM884 155q7 -5 3 -16q-5 -18 -22.5 -43 t-46 -52.5t-74.5 -46t-97 -18.5q-49 0 -98 22.5t-77 55.5q-26 -36 -76 -58t-106 -22q-120 0 -200 79t-80 193t80 193t200 79q53 0 102.5 -20.5t76.5 -53.5q26 32 80 54.5t111 22.5q112 0 173.5 -55.5t61.5 -118.5q0 -85 -64.5 -123.5t-160.5 -38.5q-44 0 -89 8 q30 -86 138 -86q73 0 152 44q7 5 13 1z"/>
<glyph glyph-name="Scaron" horiz-adv-x="637" unicode="Š" d="M488 970q4 2 12 2q11 0 11 -7q0 -5 -6 -13q-152 -182 -153 -183q-4 -4 -10 -4h-69q-4 0 -6 3l-158 181q-6 7 -6 13q0 7 10 7q7 0 12 -2l184 -62q116 43 179 65zM412 407q220 -67 220 -210q0 -59 -30.5 -103.5t-80.5 -68.5t-105 -35.5t-114 -11.5q-47 0 -93.5 8t-92.5 26 t-76 53.5t-34 83.5v7q0 43 31.5 75t78.5 32q29 0 61 -10t38 -18q2 -4 2 -7q0 -4 -2.5 -19t-2.5 -26q1 -47 29 -72.5t66 -25.5q35 0 61.5 22.5t27.5 60.5q0 17 -8.5 32t-20 25.5t-33.5 22.5t-39 19t-46.5 19t-45.5 19q-88 39 -118 61q-69 51 -73 135v9q0 96 89.5 161 t198.5 67h15q120 0 198.5 -46t78.5 -130q1 -53 -27.5 -83.5t-86.5 -30.5q-31 0 -56 8t-29 16q-1 1 -1 6q0 6 2 27t3 32v6q0 37 -24 58t-57 21q-31 0 -54 -19t-26 -52q0 -91 176 -144z"/>
<glyph glyph-name="scaron" horiz-adv-x="513" unicode="š" d="M436 760q4 2 12 2q11 0 11 -7q0 -5 -6 -13q-152 -182 -153 -183q-4 -4 -10 -4h-69q-4 0 -6 3l-158 181q-6 7 -6 13q0 7 10 7q7 0 12 -2l184 -62q116 43 179 65zM339 294q164 -47 164 -154q0 -57 -42 -95.5t-97.5 -53t-118.5 -14.5q-37 0 -75 6.5t-75.5 21t-61 41 t-23.5 61.5q0 38 27 64.5t70 26.5q24 0 48 -5.5t27 -11.5q3 -4 3 -14q0 -3 -0.5 -12t-0.5 -15q0 -29 16.5 -45t42.5 -16q52 0 54 45q0 10 -4 18.5t-12.5 15t-17 11.5t-23 10.5t-25.5 9t-30 9t-31 9.5q-58 20 -96.5 58t-39.5 93v3q0 73 70.5 118t154.5 45q96 0 166 -33.5 t70 -96.5q1 -37 -25.5 -62t-71.5 -25q-25 0 -47 6t-25 12q-3 5 -3 12q0 3 1 12.5t1 16.5q0 57 -48 57h-3q-21 -1 -34 -16t-13 -31q0 -21 17 -36.5t38 -23t58 -18.5q10 -3 15 -4z"/>
<glyph glyph-name="Ydieresis" horiz-adv-x="668" unicode="Ÿ" d="M549 838q0 -36 -29 -61t-70 -25t-70 25t-29 61t29 61t70 25t70 -25t29 -61zM317 838q0 -36 -29.5 -61t-70.5 -25t-70 25t-29 61t29 61t70 25t70.5 -25t29.5 -61zM664 615q0 -47 -16 -91.5t-36 -75t-55 -63.5t-57.5 -50t-58.5 -42v-85q1 -41 8.5 -69.5t17 -40.5t19 -18.5 t16 -10t6.5 -8.5q0 -3 -1 -5q-9 -28 -50 -53.5t-84 -25.5q-66 0 -109 42.5t-43 130.5q0 103 -1 150l-219 408q-1 1 -1 3l5 5h240q5 0 7 -6l123 -305q57 88 57 210q0 21 -2 41.5t-3.5 33t-1.5 13.5q0 15 31.5 28t71.5 13q55 0 94.5 -30.5t41.5 -98.5z"/>
<glyph glyph-name="circumflex" horiz-adv-x="415" unicode="ˆ" d="M390 553l-179 65q-129 -44 -184 -62q-5 -2 -12 -2q-10 0 -10 7q0 5 6 13q157 180 158 181l6 3h69q6 0 10 -4l153 -183q6 -7 6 -13q0 -7 -11 -7q-8 0 -12 2z"/>
<glyph glyph-name="tilde" horiz-adv-x="514" unicode="˜" d="M495 726h1q13 0 13 -41q0 -22 -7 -43.5t-23 -43t-47.5 -35t-74.5 -13.5q-17 0 -26 1q-40 4 -109.5 34.5t-97.5 31.5h-6q-32 0 -54 -14t-33.5 -28.5t-16.5 -14.5h-1q-8 0 -8 23q0 20 8 43t24.5 47t49 40t74.5 16h8q46 -2 116 -31t108 -30h3q27 0 48.5 14t33.5 28.5 t17 15.5z"/>
<glyph glyph-name="afii10023" horiz-adv-x="542" unicode="Ё" d="M511 171q6 5 14 5q11 0 11 -18q0 -7 -1 -11q-3 -21 -20 -48t-46 -55t-77.5 -47t-105.5 -19q-122 0 -189 80t-67 192l1 461l6 5h477q6 0 8 -5q6 -20 6 -46q0 -87 -82 -119q-34 -13 -86 -13q-24 0 -50.5 2.5t-41.5 5.5l-14 3q0 -6 -0.5 -54.5t-0.5 -77.5h165l5 -5v-100 l-6 -5h-165v-72q1 -50 35 -73t86 -23q79 0 138 37zM484 837q0 -36 -29 -61t-70 -25t-70 25t-29 61t29 61t70 25t70 -25t29 -61zM251 837q0 -36 -29 -61t-70 -25t-70 25t-29 61t29 61t70 25t70 -25t29 -61z"/>
<glyph glyph-name="afii10052" horiz-adv-x="506" unicode="Ѓ" d="M405 924q-67 -131 -215 -183q-6 -2 -8 -1q-23 18 -41 49q-3 3 1 7q54 54 81.5 99.5t44.5 113.5q2 2 4 2h2q79 -19 129 -79q2 -1 2.5 -4t-0.5 -4zM36 715q107 10 224 10q112 0 222 -10q6 0 8 -5q7 -18 7 -44q0 -83 -83 -118q-33 -14 -80 -14q-21 0 -43 3t-33 6l-11 3 q0 -112 3 -335q1 -41 8.5 -69.5t17 -40.5t19 -18.5t16 -10t6.5 -8.5q0 -3 -1 -5q-10 -29 -50.5 -55t-83.5 -26q-66 0 -109 43.5t-43 131.5l1 557z"/>
<glyph glyph-name="afii10053" horiz-adv-x="632" unicode="Є" d="M516 275q51 0 81 -35t30 -79q0 -80 -73 -131.5t-188 -51.5h-6q-150 1 -250 113.5t-100 269.5q0 154 98.5 264.5t251.5 111.5h6q115 0 188 -51.5t73 -131.5q0 -44 -30 -79t-81 -35q-32 0 -54.5 10t-22.5 24q0 6 1 17t1 17q0 45 -18.5 74t-57.5 29q-53 0 -89 -54.5 t-36 -130.5v-8h159l5 -5v-109l-6 -5h-158q0 -81 36 -138t89 -57q39 0 57.5 29t18.5 74q0 6 -1 17.5t-1 16.5q0 14 22.5 24t54.5 10z"/>
<glyph glyph-name="afii10054" horiz-adv-x="637" unicode="Ѕ" d="M412 407q220 -67 220 -210q0 -59 -30.5 -103.5t-80.5 -68.5t-105 -35.5t-114 -11.5q-47 0 -93.5 8t-92.5 26t-76 53.5t-34 83.5v7q0 43 31.5 75t78.5 32q29 0 61 -10t38 -18q2 -4 2 -7q0 -4 -2.5 -19t-2.5 -26q1 -47 29 -72.5t66 -25.5q35 0 61.5 22.5t27.5 60.5 q0 17 -8.5 32t-20 25.5t-33.5 22.5t-39 19t-46.5 19t-45.5 19q-88 39 -118 61q-69 51 -73 135v9q0 96 89.5 161t198.5 67h15q120 0 198.5 -46t78.5 -130q1 -53 -27.5 -83.5t-86.5 -30.5q-31 0 -56 8t-29 16q-1 1 -1 6q0 6 2 27t3 32v6q0 37 -24 58t-57 21q-31 0 -54 -19 t-26 -52q0 -91 176 -144z"/>
<glyph glyph-name="uni0406" horiz-adv-x="311" unicode="І" d="M133 739q64 0 106 -40t42 -120v-574l-5 -5h-213l-4 5v353v190q-3 38 -14 61.5t-22 30t-19.5 11.5t-8.5 10q0 3 1 5q9 26 51.5 49.5t85.5 23.5z"/>
<glyph glyph-name="afii10056" horiz-adv-x="296" unicode="Ї" d="M133 739q64 0 106 -40t42 -120v-574l-5 -5h-213l-4 5v353v190q-3 38 -14 61.5t-22 30t-19.5 11.5t-8.5 10q0 3 1 5q9 26 51.5 49.5t85.5 23.5zM362 851q0 -36 -29 -61t-70 -25t-70 25t-29 61t29 61t70 25t70 -25t29 -61zM130 851q0 -36 -29.5 -61t-70.5 -25t-70 25 t-29 61t29 61t70 25t70.5 -25t29.5 -61z"/>
<glyph glyph-name="afii10057" horiz-adv-x="468" unicode="Ј" d="M295 739q63 0 103 -39.5t40 -120.5v-27.5t-0.5 -87.5t-0.5 -166q0 -318 -237 -318q-92 0 -143.5 40.5t-51.5 95.5q0 41 29 73t72 32q26 0 52 -6t28 -12q1 -2 1 -6q0 -3 -4 -25t-4 -40q0 -64 35 -64q43 0 43 61q0 34 -18.5 85.5t-18.5 91.5v250q-2 34 -12 55.5t-21.5 28 t-20.5 11.5t-9 11q0 2 1 4q9 26 51.5 49.5t85.5 23.5z"/>
<glyph glyph-name="afii10058" horiz-adv-x="1059" unicode="Љ" d="M755 99q38 0 59.5 37.5t21.5 84.5q0 68 -36 107.5t-94 39.5q-16 0 -33 -3v-164q1 -39 23 -70.5t59 -31.5zM669 714l4 -5v-229q41 6 78 6q137 0 218.5 -72.5t81.5 -172.5q0 -120 -79.5 -191.5t-231.5 -71.5q-76 0 -133.5 26t-89 68.5t-46.5 90t-15 98.5l-1 334h-110 q-1 -19 -2.5 -66.5t-3 -82.5t-5.5 -88t-11 -92.5t-17 -86.5t-26.5 -80t-37.5 -62t-51 -43.5t-66 -14.5q-54 0 -92 35.5t-38 62.5q0 5 15.5 21t37.5 54t44.5 100t38 181.5t16.5 275.5v1l4 4q116 32 263 32t255 -32z"/>
<glyph glyph-name="afii10059" horiz-adv-x="1041" unicode="Њ" d="M736 99q38 0 59.5 37.5t21.5 84.5q0 68 -36 107.5t-94 39.5q-17 0 -33 -3v-164q1 -39 23 -70.5t59 -31.5zM650 714l4 -5v-229q40 6 78 6q137 0 218.5 -72.5t81.5 -172.5q0 -120 -79.5 -191.5t-231.5 -71.5q-76 0 -133 26t-88.5 68.5t-46 90t-14.5 98.5l-1 32h-169l1 -288 l-5 -5h-206l-4 5q2 546 2 547q-3 38 -13.5 61.5t-21 30t-19 11t-8.5 9.5q0 3 1 5q9 26 50 50t83 24q61 0 102 -40.5t41 -120.5q0 -14 -0.5 -68t-0.5 -77h165l-3 272l5 5h212z"/>
<glyph glyph-name="afii10062" horiz-adv-x="640" unicode="Ў" d="M624 708q0 -290 -7 -399q-9 -149 -82.5 -237.5t-196.5 -98.5q-26 -2 -39 -2q-94 0 -153.5 38t-63.5 113v8q0 49 32 77t84 28q32 0 60 -16.5t26 -31.5q-11 -30 -11 -50q0 -30 15.5 -47.5t38.5 -17.5q79 0 79 172q0 39 -2 75q-52 -70 -139 -70q-72 0 -127.5 51t-59.5 138 l-3 50q-2 57 -15 92t-27.5 44.5t-26 16t-11.5 12.5l1 1v3q9 27 48 52t83 25q69 0 117 -46t51 -121l4 -113q1 -32 14.5 -49.5t31.5 -17.5t33.5 16.5t21.5 45.5q2 22 2 50l-8 209l5 5h220q5 0 5 -5zM540 852q-27 -49 -86.5 -76.5t-129.5 -27.5q-66 0 -124 24.5t-89 71.5 q-18 27 -18 58q0 54 45 81q23 16 53 16q53 0 81 -45q16 -25 16 -52q0 -31 -20 -57q-4 -5 -4 -12q0 -11 16 -18q19 -8 42 -8q26 0 49 10q18 9 18 19q0 6 -6 12q-22 28 -22 60q0 23 14 48q28 49 84 49q25 0 50 -14q46 -29 46 -82q0 -29 -15 -57z"/>
<glyph glyph-name="uni0410" d="M274 246h117l-59 290q-10 -42 -31 -151.5t-27 -138.5zM683 5l-3 -5h-226q-5 0 -6 5l-25 106h-177l-22 -106q-1 -2 -2.5 -3.5t-3.5 -1.5h-1h-209q-3 0 -3 2t1 3q172 538 172 539q16 40 16 67q0 21 -11 38t-11 20t1 5q9 28 53.5 48.5t89.5 20.5q58 0 108 -39.5t78 -117.5 q19 -52 64 -197.5t81 -264.5z" unicode="А"/>
<glyph glyph-name="uni0411" horiz-adv-x="639" unicode="Б" d="M333 99q38 0 59.5 37.5t21.5 84.5q0 63 -31 93.5t-85 30.5q-19 0 -46 -5v-139q1 -41 20.5 -71.5t60.5 -30.5zM252 460q43 7 88 7q134 0 211.5 -64.5t77.5 -161.5q0 -120 -79.5 -191.5t-231.5 -71.5q-76 0 -134 26t-90.5 68.5t-48 90t-15.5 98.5l1 451l5 5q124 13 261 13 q140 0 269 -13q6 0 8 -5q7 -19 7 -44q0 -81 -83 -116q-33 -14 -102 -14q-32 0 -68 3t-56 6l-20 3v-90z"/>
<glyph glyph-name="uni0412" horiz-adv-x="645" unicode="В" d="M335 98q41 0 64 29t23 78q0 57 -38.5 91t-96.5 34q-21 0 -38 -4v-129q4 -99 86 -99zM378 541q0 47 -26.5 68t-64.5 21q-20 0 -38 -5v-189q66 0 97.5 30.5t31.5 74.5zM502 411q-6 -4 1 -6q63 -22 97.5 -73.5t34.5 -107.5q0 -64 -26 -112.5t-71 -77t-99.5 -42.5t-117.5 -14 q-65 0 -116 18.5t-83.5 47.5t-53.5 68.5t-29.5 78t-8.5 78.5v431q0 6 5 6q107 31 268 31q52 0 98.5 -8.5t89.5 -27.5t68.5 -56t25.5 -88q0 -49 -26 -91.5t-57 -54.5z"/>
<glyph glyph-name="uni0413" horiz-adv-x="502" unicode="Г" d="M36 715q107 10 224 10q112 0 222 -10q6 0 8 -5q7 -18 7 -44q0 -83 -83 -118q-33 -14 -80 -14q-21 0 -43 3t-33 6l-11 3q0 -112 3 -335q1 -41 8.5 -69.5t17 -40.5t19 -18.5t16 -10t6.5 -8.5q0 -3 -1 -5q-10 -29 -50.5 -55t-83.5 -26q-66 0 -109 43.5t-43 131.5l1 557z"/>
<glyph glyph-name="uni0414" horiz-adv-x="786" unicode="Д" d="M256 153l1 -2h210v444h-111q0 -370 -100 -442zM780 145l1 -156q0 -175 -179 -175q-14 0 -33.5 4.5t-19.5 11.5v170h-323q0 -2 0.5 -18t0.5 -19q0 -69 -46.5 -109.5t-128.5 -40.5q-13 0 -30 4.5t-17 11.5v298q0 2 3 5q1 1 4 3q13 9 25 20.5t36.5 52.5t41.5 95t30.5 154.5 t13.5 225.5v25v1l4 4q116 32 263 32q146 0 254 -32l4 -5l-1 -557h93q4 0 4 -6z"/>
<glyph glyph-name="uni0415" horiz-adv-x="542" unicode="Е" d="M511 171q6 5 14 5q11 0 11 -18q0 -7 -1 -11q-3 -21 -20 -48t-46 -55t-77.5 -47t-105.5 -19q-122 0 -189 80t-67 192l1 461l6 5h477q6 0 8 -5q6 -20 6 -46q0 -87 -82 -119q-34 -13 -86 -13q-24 0 -50.5 2.5t-41.5 5.5l-14 3q0 -6 -0.5 -54.5t-0.5 -77.5h165l5 -5v-100 l-6 -5h-165v-72q1 -50 35 -73t86 -23q79 0 138 37z"/>
<glyph glyph-name="uni0416" horiz-adv-x="1024" unicode="Ж" d="M0 105q51 16 105.5 87.5t80.5 125.5q50 106 114 114q1 56 -23.5 103.5t-55.5 47.5h-1q-31 -1 -31 -48v-10q0 -3 -9 -6.5t-25.5 -6.5t-33.5 -3q-46 0 -81.5 23.5t-42.5 80.5q-1 5 -1 15q0 50 40.5 81t98.5 31q13 0 20 -1q103 -11 163.5 -105.5t64.5 -211.5q3 -1 11 -3 t12 -4l-5 294l5 5h213l4 -5l-6 -294q4 2 12.5 4t11.5 3q3 74 29 142t79 118t123 57q7 1 20 1q57 0 96.5 -30.5t39.5 -80.5q0 -11 -1 -16q-7 -57 -42.5 -80.5t-81.5 -23.5q-17 0 -33.5 3t-25.5 6.5t-9 6.5t0.5 11.5t0.5 12.5q0 32 -32 33h-2q-30 0 -55 -47t-24 -103 q65 -9 115 -114q26 -54 80.5 -125.5t105.5 -87.5q5 -2 5 -12q0 -30 -30 -68.5t-82 -44.5q-20 -2 -29 -2q-48 0 -87.5 19.5t-66 51.5t-46 76t-30 90t-14.5 98q-15 4 -27 -4l6 -304l-5 -5h-213l-4 5l5 304q-12 8 -27 4q-6 -65 -21.5 -121.5t-43 -106.5t-73.5 -78.5t-105 -28.5 q-9 0 -29 2q-52 6 -82 44.5t-30 68.5q0 10 5 12z"/>
<glyph glyph-name="uni0417" horiz-adv-x="620" unicode="З" d="M465 369q145 -45 145 -164q0 -60 -29.5 -106t-78 -71.5t-102 -37.5t-109.5 -12q-45 0 -90.5 9.5t-90 29t-72.5 56.5t-28 86q0 51 31 82t84 31q30 0 56.5 -10t28.5 -20q0 -1 0.5 -3t0.5 -4q0 -4 -1.5 -21t-1.5 -29q0 -41 22.5 -68t52.5 -27q44 0 70.5 31.5t26.5 73.5 q0 44 -30 75.5t-86 31.5h-26q-5 0 -5 7v105l5 5h45q48 0 73 27.5t25 66.5q0 41 -25.5 72.5t-66.5 31.5q-33 0 -58 -24.5t-25 -63.5q0 -11 0.5 -26.5t0.5 -19.5q0 -9 -1 -11q-4 -10 -28 -20.5t-53 -10.5q-52 0 -83.5 32t-31.5 82q0 49 28 86.5t72.5 57.5t90 29.5t90.5 9.5 q56 0 106.5 -10t98 -32t75.5 -64.5t28 -99.5v-10q-5 -120 -134 -153z"/>
<glyph glyph-name="uni0418" horiz-adv-x="703" unicode="И" d="M670 710l3 -705l-5 -5h-208l-4 5l5 284l10 96q-24 -44 -96.5 -188t-99.5 -192q-1 -2 -3 -3.5t-4 -1.5h-1h-204l-4 5v353v190q-3 38 -14 61.5t-22 30t-19.5 11.5t-8.5 10q0 3 1 5q9 26 51.5 49.5t85.5 23.5q64 0 106 -40t42 -120v-203l-9 -84l202 418q1 3 3 4t3 1h1h184z "/>
<glyph glyph-name="uni0419" horiz-adv-x="703" unicode="Й" d="M670 710l3 -705l-5 -5h-208l-4 5l5 284l10 96q-24 -44 -96.5 -188t-99.5 -192q-1 -2 -3 -3.5t-4 -1.5h-1h-204l-4 5v353v190q-3 38 -14 61.5t-22 30t-19.5 11.5t-8.5 10q0 3 1 5q9 26 51.5 49.5t85.5 23.5q64 0 106 -40t42 -120v-203l-9 -84l202 418q1 3 3 4t3 1h1h184z M570 832q-27 -48 -85 -74t-127 -26q-68 0 -127 26t-90 74q-17 28 -17 56q0 56 46 83q24 15 52 15q54 0 82 -47q15 -24 15 -50q0 -30 -21 -59q-5 -7 -5 -12q0 -11 16 -18q19 -9 45 -9q28 0 46 9t18 19q0 5 -5 12q-21 29 -21 59q0 25 15 49q28 47 82 47q28 0 52 -15 q45 -26 45 -81q0 -30 -16 -58z"/>
<glyph glyph-name="uni041A" horiz-adv-x="682" unicode="К" d="M682 105q5 -2 5 -12q0 -30 -30 -68.5t-82 -44.5q-20 -2 -29 -2q-49 0 -87.5 21.5t-62 53t-41.5 79.5t-26.5 88.5t-15.5 92.5q-3 1 -11 1q-18 0 -26 -5l7 -304l-5 -5h-215l-4 5v353v190q-3 38 -14 61.5t-22 30t-19.5 11.5t-8.5 10q0 3 1 5q9 26 51.5 49.5t85.5 23.5 q64 0 106 -40t42 -120l-5 -160q4 2 16 4t15 3v6q0 120 56.5 207t161.5 100q8 1 23 1q55 0 91.5 -30t36.5 -80q0 -11 -1 -17q-7 -57 -42.5 -80.5t-81.5 -23.5q-17 0 -33.5 3t-25.5 6.5t-9 6.5v15q0 36 -29 36t-44.5 -38.5t-15.5 -96.5v-5h2q24 0 42 -8t33 -27t24 -35t24 -48 q58 -121 101 -169q32 -34 62 -44z"/>
<glyph glyph-name="uni041B" horiz-adv-x="714" unicode="Л" d="M679 714l4 -5l-1 -704l-5 -5h-207l-4 5v590h-111q-1 -19 -2.5 -66.5t-3 -82.5t-5.5 -88t-11 -92.5t-17 -86.5t-26.5 -80t-37.5 -62t-51 -43.5t-66 -14.5q-54 0 -92 35.5t-38 62.5q0 5 15.5 21t38 54t45 100t38 181.5t16.5 275.5v1l4 4q116 32 263 32q146 0 254 -32z"/>
<glyph glyph-name="uni041C" horiz-adv-x="843" unicode="М" d="M433 401l172 308l7 5h193l5 -5l3 -704l-6 -5h-204l-5 5l3 320l19 103l-157 -298q-2 -4 -13 -4h-28q-12 0 -14 4l-164 301l19 -93l6 -333l-5 -5h-211l-5 5q7 546 7 547q-2 47 -17 70.5t-28.5 30t-13.5 11.5q0 3 1 5q9 26 56 50t95 24q34 0 61.5 -11t50.5 -35.5t37 -46 t36 -58.5q22 -38 47 -86t39 -76z"/>
<glyph glyph-name="uni041D" horiz-adv-x="691" unicode="Н" d="M656 714l4 -5l-1 -704l-5 -5h-207l-4 5l2 288h-176l1 -288l-5 -5h-206l-4 5q2 546 2 547q-3 38 -13.5 61.5t-21 30t-19 11t-8.5 9.5q0 3 1 5q9 26 50 50t83 24q61 0 102 -40.5t41 -120.5q0 -14 -0.5 -68t-0.5 -77h174l-2 272l5 5h208z"/>
<glyph glyph-name="uni041E" horiz-adv-x="713" unicode="О" d="M236 357q0 -95 34 -180.5t86 -85.5q37 0 65.5 42.5t42 102t13.5 121.5q0 98 -34 183t-87 85t-86.5 -85t-33.5 -183zM703 357q0 -159 -95 -268.5t-252 -109.5q-154 0 -250 110t-96 268t96.5 269t249.5 111q154 0 250.5 -111t96.5 -269z"/>
<glyph glyph-name="uni041F" horiz-adv-x="673" unicode="П" d="M638 714l4 -5l-1 -704l-5 -5h-207l-4 5v588h-177v-588l-4 -5h-207q-5 0 -5 5l-1 704l4 5q116 32 307 32q188 0 296 -32z"/>
<glyph glyph-name="uni0420" horiz-adv-x="589" unicode="Р" d="M376 507q0 52 -29.5 86.5t-76.5 34.5q-6 0 -20 -2v-265q57 0 91.5 44t34.5 102zM30 152l1 547l5 5q97 30 233 30h30q122 -4 203.5 -64t81.5 -165q0 -34 -8 -66t-29.5 -66t-54.5 -59t-88.5 -41t-126.5 -16q-5 0 -14 0.5t-13 0.5v-48q2 -50 12.5 -81.5t22.5 -40t21.5 -14.5 t9.5 -11q0 -3 -1 -5q-10 -29 -50.5 -55t-83.5 -26q-66 0 -108.5 43.5t-42.5 131.5z"/>
<glyph glyph-name="uni0421" horiz-adv-x="647" unicode="С" d="M623 198q8 7 13 7q6 0 6 -11q0 -7 -3 -19q-4 -15 -12.5 -35t-30.5 -49t-51.5 -52.5t-78.5 -41t-107 -18.5h-6q-144 0 -243.5 113.5t-99.5 268.5q0 154 98.5 264.5t251.5 111.5h6q115 0 188 -51.5t73 -131.5q0 -44 -30 -79t-81 -35q-32 0 -54.5 10t-22.5 24q0 6 1 17t1 17 q0 45 -18.5 74t-57.5 29q-57 0 -92 -70.5t-35 -152.5q0 -13 2 -35q14 -112 72.5 -167.5t138.5 -55.5q96 0 172 68z"/>
<glyph glyph-name="uni0422" horiz-adv-x="636" unicode="Т" d="M623 716q8 -25 8 -56q0 -95 -83 -119q-24 -7 -61 -7l-72 5l4 -339q2 -48 12.5 -77.5t22 -37.5t21 -13.5t9.5 -10.5q0 -3 -1 -5q-9 -27 -51 -51.5t-85 -24.5q-64 0 -106.5 41t-42.5 124l3 408h-18q-89 0 -160 -14q-2 0 -4 1t-3 2v2q-10 25 -10 57q0 78 71 115 q47 25 116 25q31 0 145 -9.5t212 -11.5l65 1q6 0 8 -5z"/>
<glyph glyph-name="uni0423" horiz-adv-x="649" unicode="У" d="M624 708q0 -290 -7 -399q-9 -149 -82.5 -237.5t-196.5 -98.5q-26 -2 -39 -2q-94 0 -153.5 38t-63.5 113v8q0 49 32 77t84 28q32 0 60 -16.5t26 -31.5q-11 -30 -11 -50q0 -30 15.5 -47.5t38.5 -17.5q79 0 79 172q0 39 -2 75q-52 -70 -139 -70q-72 0 -127.5 51t-59.5 138 l-3 50q-2 57 -15 92t-27.5 44.5t-26 16t-11.5 12.5l1 1v3q9 27 48 52t83 25q69 0 117 -46t51 -121l4 -113q1 -32 14.5 -49.5t31.5 -17.5t33.5 16.5t21.5 45.5q2 22 2 50l-8 209l5 5h220q5 0 5 -5z"/>
<glyph glyph-name="uni0424" horiz-adv-x="845" unicode="Ф" d="M204 469q0 -60 26 -99t80 -43v283q-53 -7 -79.5 -45t-26.5 -96zM530 610v-283q54 4 80 43t26 99q0 58 -26.5 96t-79.5 45zM531 211v-15q0 -37 10.5 -62.5t22.5 -35t22.5 -18t10.5 -14.5q0 -3 -1 -5q-10 -29 -50.5 -55t-83.5 -26q-66 0 -108.5 43.5t-42.5 131.5v57 q-151 0 -228.5 72t-77.5 186q0 123 106.5 192.5t308.5 70.5h1h1h1q417 0 417 -263q0 -114 -77.5 -186t-231.5 -73z"/>
<glyph glyph-name="uni0425" horiz-adv-x="711" unicode="Х" d="M703 5q4 -5 -2 -5h-270q-2 0 -4 1t-3 3v1l-140 264q-41 -32 -41 -80q0 -34 18 -68t33 -48q1 -1 1 -6q0 -24 -34.5 -56.5t-89.5 -32.5q-65 0 -112.5 46.5t-52.5 112.5v10q0 76 60 142.5t159 96.5l-202 323q-3 7 5 7h253q2 0 4 -1.5t3 -2.5l1 -2l136 -265q47 30 47 88 q0 38 -17.5 77.5t-32.5 52.5q-2 2 -2 5q0 19 26.5 43t78.5 29q6 1 17 1q66 0 111.5 -43t51.5 -107q1 -5 1 -16q0 -76 -60 -141.5t-158 -96.5z"/>
<glyph glyph-name="uni0426" horiz-adv-x="757" unicode="Ц" d="M751 125l1 -136q0 -175 -179 -175q-14 0 -33.5 4.5t-19.5 11.5v157q-78 -9 -176 -9q-185 0 -286 30l-4 5l3 539q-3 38 -13.5 61.5t-21 30t-19 11t-8.5 9.5q0 3 1 5q9 26 50 50t83 24q61 0 102 -40.5t41 -120.5l-1 -451h167v579l4 5h207q5 0 5 -5l1 -579h92q4 0 4 -6z"/>
<glyph glyph-name="uni0427" horiz-adv-x="710" unicode="Ч" d="M70 488q0 56 -11.5 91.5t-26 45t-26 16t-11.5 12.5q0 2 1 4q10 27 50 52t84 25q69 0 115.5 -46t46.5 -121v-145q0 -31 14 -47.5t36 -16.5q30 0 55.5 29t26.5 75l1 245l4 7h214q5 -2 5 -6v-42q0 -180 2 -466q2 -48 12.5 -77.5t22 -37.5t21 -13.5t9.5 -10.5q0 -3 -1 -5 q-8 -26 -53 -51t-88 -25q-64 0 -106.5 41t-42.5 124v170q-25 -54 -73 -82.5t-103 -28.5q-73 0 -125.5 48.5t-52.5 133.5v102z"/>
<glyph glyph-name="uni0428" horiz-adv-x="982" unicode="Ш" d="M272 582l-1 -453h125v581l4 5h201q5 0 5 -5l1 -581h127v581l4 5h207q5 0 5 -5l1 -697l-4 -5q-116 -32 -454 -32q-327 0 -435 32l-4 5l3 539q-3 38 -13.5 61.5t-21 30t-19 11t-8.5 9.5q0 3 1 5q9 26 50 50t83 24q61 0 102 -40.5t41 -120.5z"/>
<glyph glyph-name="uni0429" horiz-adv-x="1052" unicode="Щ" d="M272 582l-1 -453h124v581l4 5h203q5 0 5 -5l1 -581h126v581l4 5h207q5 0 5 -5l1 -579h91q4 0 4 -6l1 -136q0 -175 -179 -175q-14 0 -33.5 4.5t-19.5 11.5v156q-126 -12 -300 -12q-340 0 -457 34l-4 5l3 539q-3 38 -13.5 61.5t-21 30t-19 11t-8.5 9.5q0 3 1 5q9 26 50 50 t83 24q61 0 102 -40.5t41 -120.5z"/>
<glyph glyph-name="uni042A" horiz-adv-x="818" unicode="Ъ" d="M512 99q38 0 59.5 37.5t21.5 84.5q0 68 -36 107.5t-94 39.5q-17 0 -33 -3v-164q1 -39 23 -70.5t59 -31.5zM429 717l1 -237q40 6 78 6q137 0 218.5 -72.5t81.5 -172.5q0 -120 -79.5 -191.5t-231.5 -71.5q-76 0 -134 26t-90.5 68.5t-48 90t-15.5 98.5l-1 295h-19 q-95 0 -166 -14q-2 0 -4 1t-3 3v1q-10 25 -10 56q0 76 71 113q41 21 105 21q26 0 101 -5t128 -6q16 0 18 -8v-1z"/>
<glyph glyph-name="uni042B" horiz-adv-x="912" unicode="Ы" d="M633 708l5 5h214l4 -5q1 -428 1 -497q0 -51 9.5 -84.5t20.5 -43.5t20.5 -17.5t9.5 -12.5q0 -2 -1 -4q-8 -25 -50.5 -48t-83.5 -23q-63 0 -106 41.5t-43 110.5v578zM325 99q32 0 51.5 38t19.5 84q0 69 -29 108t-83 39q-16 0 -32 -3v-164q1 -41 19 -71.5t54 -30.5zM248 714 l4 -5v-229q41 6 78 6q134 0 207.5 -71.5t73.5 -173.5q0 -119 -76.5 -191t-215.5 -72q-76 0 -134 26t-90.5 68.5t-48 90t-15.5 98.5l-1 448l5 5h213z"/>
<glyph glyph-name="uni042C" horiz-adv-x="640" unicode="Ь" d="M334 99q38 0 59.5 37.5t21.5 84.5q0 68 -36 107.5t-94 39.5q-17 0 -33 -3v-164q1 -39 23 -70.5t59 -31.5zM248 714l4 -5v-229q40 6 78 6q137 0 218.5 -72.5t81.5 -172.5q0 -120 -79.5 -191.5t-231.5 -71.5q-76 0 -134 26t-90.5 68.5t-48 90t-15.5 98.5l-1 448l5 5h213z "/>
<glyph glyph-name="uni042D" horiz-adv-x="637" unicode="Э" d="M121 275q32 0 54.5 -10t22.5 -24q0 -5 -1 -16.5t-1 -17.5q0 -45 18.5 -74t57.5 -29q53 0 89 57t36 138h-158q-6 0 -6 5v109l5 5h159v8q0 76 -36 130.5t-89 54.5q-39 0 -57.5 -29t-18.5 -74q0 -6 1 -17t1 -17q0 -14 -22.5 -24t-54.5 -10q-51 0 -81 35t-30 79 q0 80 73 131.5t188 51.5h6q153 -1 251.5 -111.5t98.5 -264.5q0 -157 -100 -269.5t-250 -113.5h-6q-115 0 -188 51.5t-73 131.5q0 44 30 79t81 35z"/>
<glyph glyph-name="uni042E" horiz-adv-x="1012" unicode="Ю" d="M555 357q0 -61 11.5 -120t37.5 -102.5t61 -43.5q37 0 63 43t37 101t11 122q0 63 -11.5 122t-37.5 102.5t-62 43.5t-62 -43.5t-37 -102.5t-11 -122zM1002 357q0 -160 -90.5 -269t-246.5 -109q-139 0 -231.5 89.5t-100.5 224.5h-64l1 -288l-5 -5h-206l-4 5q2 546 2 547 q-3 38 -13.5 61.5t-21 30t-19 11t-8.5 9.5q0 3 1 5q9 26 50 50t83 24q61 0 102 -40.5t41 -120.5q0 -14 -0.5 -68t-0.5 -77h65q15 129 105.5 214.5t223.5 85.5q153 0 245 -110.5t92 -269.5z"/>
<glyph glyph-name="uni042F" horiz-adv-x="639" unicode="Я" d="M390 377v248q-14 2 -21 2q-49 0 -83 -33.5t-34 -83.5v-5q2 -53 41 -90.5t92 -37.5h5zM-2 99q136 62 190 191q-67 27 -105 83.5t-38 130.5q0 105 81.5 165t204.5 64h30q61 0 121.5 -7.5t91.5 -15.5l30 -7q5 0 5 -5v-692l-5 -6h-210q-4 0 -4 6v268h-37 q-10 -131 -66.5 -214.5t-155.5 -83.5q-8 0 -26 2q-53 6 -81 45.5t-28 68.5q0 7 2 7z"/>
<glyph glyph-name="afii10065" horiz-adv-x="617" unicode="а" d="M291 117q35 0 55 38t20 97t-20 97.5t-55 38.5t-55 -38.5t-20 -97.5t20 -97t55 -38zM562 201q0 -51 9 -82.5t20.5 -40t20.5 -14t9 -10.5q0 -3 -1 -5q-8 -26 -44 -48.5t-76 -22.5q-52 0 -89 30.5t-47 83.5q-59 -113 -158 -113q-60 0 -106 41t-68 102t-22 130 q0 110 54 190.5t147 80.5q96 0 149 -95v69l5 6h200q4 -1 4 -5q-7 -228 -7 -297z"/>
<glyph glyph-name="afii10066" horiz-adv-x="549" unicode="б" d="M274 93q68 0 68 135q0 136 -68 136q-67 0 -67 -136q0 -135 67 -135zM284 473h16q105 0 172 -68.5t67 -176.5q0 -113 -71 -181t-194 -68q-74 0 -133 39t-90.5 96t-36.5 120q-3 42 -3 86q0 263 144 331q51 24 106.5 34t80.5 16.5t30 28.5q5 18 14 19q9 2 27 2 q51 0 80.5 -30.5t29.5 -72.5q0 -67 -66 -99q-25 -12 -71 -16t-86.5 -8t-80 -17t-64 -51t-27.5 -102q15 49 59.5 82t96.5 36z"/>
<glyph glyph-name="afii10067" horiz-adv-x="544" unicode="в" d="M285 94q28 0 44 20t16 53q0 28 -21.5 43t-55.5 15q-26 0 -36 -1v-61q4 -69 53 -69zM314 368q0 50 -60 50q-14 0 -22 -3v-100h19q63 0 63 53zM430 299q49 -15 76.5 -48t27.5 -80q0 -92 -75 -142t-182 -50q-66 0 -116 20.5t-77.5 53.5t-40.5 69.5t-13 73.5v2v4v296q0 5 4 5 q95 23 228 23q43 0 81.5 -6.5t74 -20.5t56.5 -41.5t21 -64.5q0 -35 -19.5 -60t-45.5 -34z"/>
<glyph glyph-name="afii10068" horiz-adv-x="422" unicode="г" d="M413 496q4 -12 4 -30q0 -75 -76 -98q-18 -6 -51 -6q-23 0 -55 4v-164q0 -51 9.5 -82.5t20.5 -40t20.5 -14t9.5 -10.5q0 -3 -1 -5q-9 -25 -46.5 -48t-77.5 -23q-61 0 -100 41.5t-39 110.5l-1 367q0 1 2 3t3 2q90 15 186 15q122 0 182 -12q8 -1 10 -10z"/>
<glyph glyph-name="afii10069" horiz-adv-x="662" unicode="д" d="M383 411h-75q-15 -182 -29 -260q-5 -22 -7 -30h111v290zM656 8l1 -1q0 -160 -155 -160q-13 0 -30 4t-17 11v138h-251q0 -3 0.5 -8.5t0.5 -7.5q0 -64 -40 -100.5t-115 -36.5q-14 0 -29.5 4t-15.5 11v216v3q0 5 10 11t24 16t32.5 44.5t33.5 89.5q10 36 18.5 100t12.5 110 l4 46l5 5q104 23 212 23q110 0 224 -23q3 0 3 -4v-378h69q3 0 3 -6v-107z"/>
<glyph glyph-name="afii10070" horiz-adv-x="535" unicode="е" d="M260 401q-45 -27 -52 -117q9 -1 25 -1q53 0 80.5 21t27.5 59q0 20 -14 34t-35 14h-4q0 -1 -1 -1h-3q-12 -2 -24 -9zM519 155q7 -5 3 -16q-5 -18 -22.5 -43t-46 -52.5t-74.5 -46t-97 -18.5q-113 0 -192.5 80t-79.5 193t79.5 192.5t205.5 79.5q112 0 173.5 -55.5 t61.5 -118.5q0 -85 -64.5 -123.5t-160.5 -38.5q-44 0 -89 8q30 -86 138 -86q73 0 152 44q7 5 13 1z"/>
<glyph glyph-name="afii10072" horiz-adv-x="893" unicode="ж" d="M885 66q12 -6 12 -12t-12 -21q-18 -22 -53 -38.5t-73 -16.5q-57 0 -94.5 23.5t-52 57.5t-22.5 68t-17.5 59.5t-25.5 27.5v-208l-4 -5h-193q-4 0 -4 5v208q-15 -1 -24 -19t-13.5 -44t-15.5 -56.5t-26.5 -56.5t-50 -43t-83.5 -17q-38 0 -73 16.5t-53 38.5q-12 15 -12 20 q0 7 13 13q38 18 64 46t36.5 52t24 53.5t25.5 45.5q33 41 79 41q11 0 17 -1h1q-12 56 -26 71q-12 13 -30 13h-1q-29 0 -29 -38q0 -4 0.5 -10.5t0.5 -8.5q0 -11 -15 -17t-35 -6q-48 0 -78.5 28.5t-30.5 77.5t34.5 80.5t89.5 31.5q47 0 85 -22.5t61 -59.5t37 -74.5t20 -76.5 q6 -2 8 -3v210l4 4h194q0 -3 3 -4v-210q3 1 7 3q4 42 25 92.5t69 95.5t109 45q55 0 90 -31.5t35 -80.5t-30.5 -77.5t-79.5 -28.5q-20 0 -35 6t-15 17q0 2 0.5 8.5t0.5 10.5q0 38 -30 38q-37 0 -55 -83h8q55 0 88 -41q13 -16 30.5 -59t44.5 -78.5t76 -59.5z"/>
<glyph glyph-name="afii10073" horiz-adv-x="500" unicode="з" d="M376 259q114 -32 114 -118q0 -57 -41 -95.5t-95 -53t-115 -14.5q-35 0 -72.5 6.5t-74 21t-59.5 41t-23 61.5q0 38 26.5 64.5t67.5 26.5q24 0 47 -5.5t26 -11.5q3 -4 3 -14q0 -3 -0.5 -12t-0.5 -15q0 -29 15 -45t38 -16q26 0 41.5 16.5t15.5 39.5q0 26 -15 47t-54 21h-23 q-4 0 -4 5v93l4 4h35q29 0 43 18.5t14 40.5q0 24 -13 40.5t-39 16.5t-42 -16t-16 -45q0 -6 0.5 -15.5t0.5 -12.5q0 -10 -3 -13q-3 -6 -26 -12t-47 -6q-41 0 -67.5 27t-26.5 64q0 35 23 62t59.5 41t73.5 21t73 7q62 0 113.5 -12.5t91.5 -49t40 -93.5q0 -84 -108 -110z"/>
<glyph glyph-name="afii10074" horiz-adv-x="615" unicode="и" d="M560 201q0 -51 9.5 -83t20.5 -40.5t20.5 -14t9.5 -10.5q0 -2 -1 -4q-9 -26 -45 -48.5t-76 -22.5q-52 0 -89 30.5t-47 84.5q-29 -59 -73 -87t-89 -28q-57 0 -97 46t-40 119v156q0 51 -10.5 83t-23.5 40t-23.5 14t-10.5 11q0 2 1 4q9 26 45 48.5t76 22.5q63 0 105.5 -41.5 t42.5 -110.5v-194q0 -58 33 -58q21 0 40.5 29t20.5 75v275l4 6h201q4 -1 4 -5q-8 -228 -8 -297z"/>
<glyph glyph-name="afii10075" horiz-adv-x="615" unicode="й" d="M560 201q0 -51 9.5 -83t20.5 -40.5t20.5 -14t9.5 -10.5q0 -2 -1 -4q-9 -26 -45 -48.5t-76 -22.5q-52 0 -89 30.5t-47 84.5q-29 -59 -73 -87t-89 -28q-57 0 -97 46t-40 119v156q0 51 -10.5 83t-23.5 40t-23.5 14t-10.5 11q0 2 1 4q9 26 45 48.5t76 22.5q63 0 105.5 -41.5 t42.5 -110.5v-194q0 -58 33 -58q21 0 40.5 29t20.5 75v275l4 6h201q4 -1 4 -5q-8 -228 -8 -297zM521 642q-27 -48 -85 -74t-127 -26q-68 0 -127 26t-90 74q-17 28 -17 56q0 56 46 83q24 15 52 15q54 0 82 -47q15 -24 15 -50q0 -30 -21 -59q-5 -7 -5 -12q0 -11 16 -18 q19 -9 45 -9q28 0 46 9t18 19q0 5 -5 12q-21 29 -21 59q0 25 15 49q28 47 82 47q28 0 52 -15q45 -26 45 -81q0 -30 -16 -58z"/>
<glyph glyph-name="afii10076" horiz-adv-x="602" unicode="к" d="M594 66q13 -6 13 -12t-12 -21q-20 -22 -54 -38.5t-73 -16.5q-57 0 -94 23.5t-52 58t-23 68.5t-17 59t-26 27v-208l-4 -6h-201q-4 1 -4 5q8 228 8 297q0 51 -9.5 83t-20.5 40.5t-20.5 14t-9.5 10.5q0 2 1 4q9 26 45 48.5t76 22.5q61 0 100 -41.5t39 -110.5v-84q1 1 4 2 t4 1q3 25 12 53.5t26 61t39 58.5t55 43t71 17q55 0 89.5 -31.5t34.5 -80.5t-30.5 -77.5t-78.5 -28.5q-20 0 -35.5 6t-15.5 17q0 2 0.5 9t0.5 11q0 32 -26 36h-5q-24 0 -37.5 -27t-15.5 -57q6 1 18 1q46 0 78 -40q12 -16 29.5 -59t45 -78.5t75.5 -59.5z"/>
<glyph glyph-name="afii10077" horiz-adv-x="601" unicode="л" d="M571 499v-493l-4 -5h-193q-4 0 -4 5v405h-71q-12 -197 -24 -260q-31 -172 -166 -172q-44 0 -74 25t-30 45q0 5 7.5 12.5t19 18.5t28.5 47.5t32 91.5q10 36 18.5 105.5t12.5 121.5l4 52q0 5 4 5q104 23 212 23q111 0 225 -23q3 0 3 -4z"/>
<glyph glyph-name="afii10078" horiz-adv-x="769" unicode="м" d="M731 499l8 -494l-4 -5h-194q-4 0 -4 5q1 89 1 191l10 108l-127 -295q-3 -8 -13 -8h-25q-8 0 -12 8l-101 256q0 -63 -5 -105q-24 -179 -155 -179q-44 0 -74.5 24t-30.5 44q0 7 6 14.5t15.5 18t23 46.5t26.5 91q15 65 15 188l-2 91l4 5h210l5 -4l90 -187h3l98 188q1 3 5 3 h224q3 0 3 -4z"/>
<glyph glyph-name="afii10079" horiz-adv-x="611" unicode="н" d="M556 202q0 -51 9.5 -82.5t20.5 -40t20.5 -14.5t9.5 -11q0 -3 -1 -5q-8 -25 -44 -46.5t-76 -21.5q-62 0 -101 40.5t-39 109.5v67h-98v-192l-5 -6h-200l-4 5q7 228 7 297q0 51 -9.5 83t-20.5 40.5t-20.5 14t-9.5 10.5q0 2 1 4q9 26 45 48.5t76 22.5q62 0 101 -41.5 t39 -110.5v-58h98v183l5 5h192q4 0 4 -5v-296z"/>
<glyph glyph-name="afii10080" horiz-adv-x="580" unicode="о" d="M207 249q0 -68 21 -113.5t62 -45.5q43 0 63 44t20 115q0 69 -21 114t-62 45q-42 0 -62.5 -44.5t-20.5 -114.5zM570 249q0 -115 -79 -193.5t-201 -78.5q-120 0 -200 79t-80 193t80 193t200 79t200 -79t80 -193z"/>
<glyph glyph-name="afii10081" horiz-adv-x="575" unicode="п" d="M542 503h1q2 0 2 -4v-493l-4 -5h-193q-4 0 -4 5v405h-112v-405l-5 -5h-193q-4 0 -4 5v493l4 4q113 23 260 23q146 0 248 -23z"/>
<glyph glyph-name="afii10082" horiz-adv-x="616" unicode="р" d="M326 116q35 0 55 38.5t20 97.5t-20 97t-55 38t-55 -38t-20 -97t20 -97.5t55 -38.5zM411 525q89 0 142 -82.5t53 -190.5q0 -110 -53.5 -190.5t-146.5 -80.5q-96 0 -149 95v-290l-5 -6h-200l-4 5q-1 448 -1 517q0 51 -8 82.5t-18 40t-18 14t-8 10.5q0 3 1 5q9 26 45 48.5 t76 22.5q52 0 89 -30.5t47 -83.5q59 114 158 114z"/>
<glyph glyph-name="afii10083" horiz-adv-x="521" unicode="с" d="M512 155q4 -4 4 -10q0 -3 -1 -6q-5 -19 -21.5 -43.5t-43.5 -52t-71.5 -46t-95.5 -18.5q-114 0 -193.5 80t-79.5 193q0 110 75.5 188.5t189.5 83.5q92 0 158 -36.5t66 -103.5q1 -38 -27 -69t-70 -31q-23 0 -45 6t-25 11t-3 12q0 3 1 12.5t1 16.5q0 31 -13.5 50t-34.5 19 q-34 0 -54 -40.5t-20 -94.5q0 -16 1 -24q6 -74 45 -107.5t97 -33.5q74 0 146 43q8 6 14 1z"/>
<glyph glyph-name="afii10084" horiz-adv-x="507" unicode="т" d="M501 464q0 -37 -21 -60t-46.5 -30.5t-57.5 -7.5q-13 0 -33 2h-1v-165q0 -51 9.5 -83t20.5 -40.5t20.5 -14t9.5 -10.5q0 -2 -1 -4q-9 -26 -45.5 -48.5t-76.5 -22.5q-61 0 -100 41.5t-39 110.5v244l-130 1q-3 0 -3 4l-2 112v7q0 2 2 4q94 18 227 18q137 0 254 -16 q8 -1 10 -10q3 -16 3 -32z"/>
<glyph glyph-name="afii10085" horiz-adv-x="595" unicode="у" d="M564 73v-15q0 -127 -72 -204.5t-204 -77.5q-67 0 -119.5 27.5t-75 56t-30.5 52.5t-8 40t10 16h3q7 -1 20.5 -13.5t29 -27t46.5 -26t69 -11.5q57 0 92 37.5t37 86.5v100q-28 -60 -72.5 -88t-89.5 -28q-57 0 -97 46t-40 119v136q0 51 -10.5 83t-23.5 40t-23.5 14t-10.5 11 q0 2 1 4q9 26 45 48.5t76 22.5q63 0 105 -41.5t42 -110.5v-174q0 -29 10 -44t24 -15q22 0 41.5 31t20.5 80v249l4 5h193q4 0 4 -5q3 -291 3 -424z"/>
<glyph glyph-name="afii10086" horiz-adv-x="892" unicode="ф" d="M609 116q35 0 51.5 37.5t16.5 98.5q0 135 -68 135q-34 0 -50.5 -37.5t-16.5 -97.5q0 -61 16.5 -98.5t50.5 -37.5zM282 117q35 0 51.5 37.5t16.5 98.5q0 135 -68 135q-34 0 -50.5 -37.5t-16.5 -97.5q0 -61 16.5 -98.5t50.5 -37.5zM694 525q89 0 138.5 -81.5t49.5 -191.5 q0 -112 -50 -191.5t-143 -79.5q-91 0 -140 87v-282l-1 -5h-193h-2t-3 1.5t-2 3.5q-1 119 -2 289q-52 -95 -148 -95q-61 0 -104.5 41t-63.5 101.5t-20 130.5q0 71 20 131t64.5 100t107.5 40q95 0 146 -96v71l3 4h194l3 -1q1 -1 1 -3v-73q55 99 145 99z"/>
<glyph glyph-name="afii10087" horiz-adv-x="577" unicode="х" d="M406 248l170 -242q1 -1 1 -3q0 -3 -4 -3h-221q-6 0 -8 5l-112 173q-36 -10 -36 -37q0 -23 24 -58l23 -35q0 -25 -32 -47.5t-72 -22.5q-59 0 -95.5 32.5t-38.5 84.5v9q0 123 169 161l-163 233q-3 5 3 5h217q5 0 8 -5l112 -170q32 9 32 34q0 16 -12 36.5t-24 35.5t-12 17 q0 25 32 47t72 22q59 0 96 -35.5t37 -87.5q0 -54 -47 -93.5t-119 -55.5z"/>
<glyph glyph-name="afii10088" horiz-adv-x="651" unicode="ц" d="M645 97v-90q0 -83 -38.5 -121.5t-115.5 -38.5q-14 0 -30.5 4t-16.5 11v127q-76 -12 -158 -12q-112 0 -226 23l-4 5q-1 227 -1 296q0 51 -9.5 83t-20.5 40.5t-20.5 14t-9.5 10.5q0 2 1 4q9 26 45 48.5t76 22.5q62 0 101 -41.5t39 -110.5v-271h105v396l4 5h193q4 -1 4 -5 v-396h79q3 0 3 -4z"/>
<glyph glyph-name="afii10089" horiz-adv-x="599" unicode="ч" d="M544 201q0 -51 9.5 -82.5t20.5 -40t20.5 -14t9.5 -10.5q0 -3 -1 -5q-8 -26 -44 -48.5t-76 -22.5q-62 0 -101 41.5t-39 110.5v68q-45 -63 -135 -63q-67 0 -106 43.5t-39 120.5q0 51 -10.5 83t-23.5 40t-23.5 14t-10.5 11q0 2 1 4q9 26 45 48.5t76 22.5q63 0 105 -41.5 t42 -110.5v-60q0 -32 9.5 -49t23.5 -17q18 0 32 24t14 63v166l5 6h200q4 -1 4 -5q-8 -228 -8 -297z"/>
<glyph glyph-name="afii10090" horiz-adv-x="862" unicode="ш" d="M832 497v-493q0 -4 -3 -4q-104 -23 -383 -23q-273 0 -387 23q-4 0 -4 5v296q0 51 -9.5 83t-20.5 40.5t-20.5 14t-9.5 10.5q0 2 1 4q9 26 45 48.5t76 22.5q62 0 100.5 -41t38.5 -111v-272h90v397l4 5h185q4 -1 4 -5v-397h92v397l5 5h192q4 -1 4 -5z"/>
<glyph glyph-name="afii10091" horiz-adv-x="920" unicode="щ" d="M914 8l1 -1q0 -160 -155 -160q-14 0 -31 4t-17 11v123q-111 -9 -264 -9q-270 0 -390 24q-3 3 -2 5q-1 227 -1 296q0 51 -9.5 83t-20.5 40.5t-20.5 14t-9.5 10.5q0 2 1 4q9 26 45 48.5t76 22.5q62 0 101 -41.5t39 -110.5v-272h89v397l4 5h185q4 -1 4 -5v-396h92v396l5 5 h192q5 -1 5 -5v-396h77q4 0 4 -4v-89z"/>
<glyph glyph-name="afii10092" horiz-adv-x="628" unicode="ъ" d="M377 94q52 0 52 108q0 43 -22.5 70t-55.5 27q-10 0 -20 -2v-132q4 -71 46 -71zM411 394q83 0 145 -55.5t62 -140.5q0 -95 -73.5 -157t-175.5 -62q-66 0 -115 20.5t-74.5 54t-37.5 69t-12 73.5v187h-121q-4 1 -4 5v111l3 4q60 22 155 22q94 0 164 -22q4 0 4 -5v-110 q48 6 80 6z"/>
<glyph glyph-name="afii10093" horiz-adv-x="793" unicode="ы" d="M274 94q47 0 47 108q0 44 -18.5 70t-51.5 26q-10 0 -20 -2v-122q2 -80 43 -80zM731 201q0 -51 10.5 -83t23 -40.5t23 -14t10.5 -10.5q0 -2 -1 -4q-9 -26 -45 -48.5t-76 -22.5q-62 0 -104.5 41.5t-42.5 110.5v194q0 59 -27 59q-12 0 -24 -14t-19 -38q51 -56 51 -134 q0 -95 -70 -157t-171 -62q-66 0 -115 20.5t-74.5 54t-37.5 69t-12 73.5v303l4 5h193q4 -1 4 -6v-110q42 7 80 7q56 0 104 -28q26 80 76 118t102 38q58 0 98 -46t40 -119v-156z"/>
<glyph glyph-name="afii10094" horiz-adv-x="528" unicode="ь" d="M277 94q52 0 52 108q0 43 -22 69.5t-56 26.5q-8 0 -20 -2v-132q4 -70 46 -70zM311 394q83 0 145 -55.5t62 -141.5q0 -95 -73.5 -157t-175.5 -62q-66 0 -115 20.5t-74.5 54t-37.5 69t-12 73.5v303l4 5h193q4 -1 4 -6v-110q44 7 80 7z"/>
<glyph glyph-name="afii10095" horiz-adv-x="529" unicode="э" d="M516 231q-8 -110 -87 -180t-191 -70h-6q-50 1 -97.5 13.5t-86 44t-38.5 77.5q0 39 26 67.5t70 28.5q67 0 67 -27q0 -4 -0.5 -10.5t-0.5 -9.5q0 -27 10 -44q18 -29 57 -29q75 0 81 100h-124q-4 0 -4 5v99l4 4h124q-7 111 -89 111q-33 -3 -48 -28q-10 -18 -10 -45 q0 -3 0.5 -9.5t0.5 -10.5q0 -27 -67 -27q-43 0 -69.5 28.5t-26.5 65.5q0 38 22 66t57 43t71 22t72 8h1h1q118 0 200.5 -77.5t82.5 -182.5q0 -22 -2 -33z"/>
<glyph glyph-name="afii10096" horiz-adv-x="837" unicode="ю" d="M562 93q22 0 36 11.5t20.5 36t8.5 49t2 62.5q0 77 -13.5 118t-53.5 41t-53.5 -41.5t-13.5 -117.5q0 -35 2.5 -60.5t9 -49.5t20.5 -36.5t35 -12.5zM562 524q118 0 191.5 -78.5t73.5 -193.5q0 -117 -72 -195t-193 -78q-104 0 -174 61.5t-86 157.5h-42v-192l-4 -6h-197 q-4 1 -4 5v297q0 51 -9.5 83t-20.5 40.5t-20.5 14t-9.5 10.5q0 2 1 4q9 25 48.5 48t80.5 23q61 0 98 -41t37 -111v-58h44q18 92 87.5 150.5t170.5 58.5z"/>
<glyph glyph-name="afii10097" horiz-adv-x="560" unicode="я" d="M295 418q-28 0 -46.5 -17.5t-18.5 -50.5q0 -65 67 -65h32v131q-22 2 -34 2zM530 499v-493l-4 -5h-193q-4 0 -4 5v189q-7 -3 -13 -21t-11 -41.5t-17 -51t-29.5 -50.5t-51 -38t-78.5 -15q-62 0 -113 55q-10 11 -10 19t14 16q60 38 136 143q-55 18 -88.5 54.5t-33.5 88.5 q0 81 74.5 126.5t174.5 45.5q59 0 120 -6t92 -12l31 -5q4 0 4 -4z"/>
<glyph glyph-name="afii10071" horiz-adv-x="535" unicode="ё" d="M260 401q-45 -27 -52 -117q9 -1 25 -1q53 0 80.5 21t27.5 59q0 20 -14 34t-35 14h-4q0 -1 -1 -1h-3q-12 -2 -24 -9zM519 155q7 -5 3 -16q-5 -18 -22.5 -43t-46 -52.5t-74.5 -46t-97 -18.5q-113 0 -192.5 80t-79.5 193t79.5 192.5t205.5 79.5q112 0 173.5 -55.5 t61.5 -118.5q0 -85 -64.5 -123.5t-160.5 -38.5q-44 0 -89 8q30 -86 138 -86q73 0 152 44q7 5 13 1zM488 638q0 -36 -29 -61t-70 -25t-70 25t-29 61t29 61t70 25t70 -25t29 -61zM255 638q0 -36 -29 -61t-70 -25t-70 25t-29 61t29 61t70 25t70 -25t29 -61z"/>
<glyph glyph-name="afii10100" horiz-adv-x="422" unicode="ѓ" d="M355 735q-67 -131 -215 -183q-6 -2 -8 -1q-23 18 -41 49q-3 3 1 7q54 54 81.5 99.5t44.5 113.5q2 2 4 2h2q79 -19 129 -79q2 -1 2.5 -4t-0.5 -4zM413 496q4 -12 4 -30q0 -75 -76 -98q-18 -6 -51 -6q-23 0 -55 4v-164q0 -51 9.5 -82.5t20.5 -40t20.5 -14t9.5 -10.5 q0 -3 -1 -5q-9 -25 -46.5 -48t-77.5 -23q-61 0 -100 41.5t-39 110.5l-1 367q0 1 2 3t3 2q90 15 186 15q122 0 182 -12q8 -1 10 -10z"/>
<glyph glyph-name="afii10101" horiz-adv-x="525" unicode="є" d="M13 231q-2 11 -2 33q0 105 82.5 182.5t200.5 77.5h1h1q36 -1 72 -8t71 -22t57 -43t22 -66q0 -37 -26.5 -65.5t-69.5 -28.5q-67 0 -67 27q0 4 0.5 10.5t0.5 9.5q0 27 -10 45q-15 25 -48 28q-82 0 -89 -111h124q4 0 4 -4v-99l-4 -5h-124q6 -100 81 -100q39 0 57 29 q10 17 10 44q0 3 -0.5 9.5t-0.5 10.5q0 27 67 27q44 0 70 -28.5t26 -67.5q0 -46 -38.5 -77.5t-86 -44t-97.5 -13.5h-6q-112 0 -191 70t-87 180z"/>
<glyph glyph-name="afii10102" horiz-adv-x="513" unicode="ѕ" d="M339 294q164 -47 164 -154q0 -57 -42 -95.5t-97.5 -53t-118.5 -14.5q-37 0 -75 6.5t-75.5 21t-61 41t-23.5 61.5q0 38 27 64.5t70 26.5q24 0 48 -5.5t27 -11.5q3 -4 3 -14q0 -3 -0.5 -12t-0.5 -15q0 -29 16.5 -45t42.5 -16q52 0 54 45q0 10 -4 18.5t-12.5 15t-17 11.5 t-23 10.5t-25.5 9t-30 9t-31 9.5q-58 20 -96.5 58t-39.5 93v3q0 73 70.5 118t154.5 45q96 0 166 -33.5t70 -96.5q1 -37 -25.5 -62t-71.5 -25q-25 0 -47 6t-25 12q-3 5 -3 12q0 3 1 12.5t1 16.5q0 57 -48 57h-3q-21 -1 -34 -16t-13 -31q0 -21 17 -36.5t38 -23t58 -18.5 q10 -3 15 -4z"/>
<glyph glyph-name="afii10103" horiz-adv-x="296" unicode="і" d="M259 645q0 -39 -34.5 -66t-82.5 -27t-82 27t-34 66q0 38 34 65.5t82 27.5t82.5 -27.5t34.5 -65.5zM266 6l-4 -6h-200q-5 1 -5 5q8 228 8 297q0 51 -9.5 83t-20.5 40.5t-20.5 14t-9.5 10.5q0 2 1 4q9 26 45 48.5t76 22.5q62 0 100.5 -41t38.5 -111v-367z"/>
<glyph glyph-name="afii10104" horiz-adv-x="296" unicode="ї" d="M356 638q0 -36 -29 -61t-70 -25t-70 25t-29 61t29 61t70 25t70 -25t29 -61zM124 638q0 -36 -29.5 -61t-70.5 -25t-70 25t-29 61t29 61t70 25t70.5 -25t29.5 -61zM264 6l-5 -6h-200q-4 1 -4 5q7 228 7 297q0 51 -9 82.5t-20.5 40t-20.5 14t-9 10.5q0 3 1 5q8 26 44 48.5 t76 22.5q62 0 101 -41.5t39 -110.5v-367z"/>
<glyph glyph-name="afii10105" horiz-adv-x="306" unicode="ј" d="M169 552q-48 0 -82 27t-34 66q0 38 34 65.5t82 27.5q49 0 83 -27.5t34 -65.5q0 -39 -34 -66t-83 -27zM270 498v-466q0 -296 -221 -296q-84 0 -131.5 37.5t-47.5 88.5q0 38 26.5 68.5t66.5 30.5q23 0 46 -6t25 -12q1 -1 1 -5q0 -3 -4 -23t-4 -37q0 -60 36 -60q39 0 39 57 q0 31 -16.5 79t-16.5 86v457l4 6h193q4 -1 4 -5z"/>
<glyph glyph-name="afii10106" horiz-adv-x="850" unicode="љ" d="M601 94q51 0 51 108q0 43 -22 69.5t-56 26.5q-10 0 -20 -2v-128q4 -74 47 -74zM633 394q84 0 145.5 -55.5t61.5 -141.5q0 -95 -73 -157t-176 -62q-66 0 -114.5 20.5t-74 54t-37.5 69t-12 73.5v2v4v210h-63q-11 -188 -24 -260q-32 -172 -166 -172q-44 0 -74.5 25t-30.5 45 q0 5 8 12.5t19.5 18.5t28.5 47.5t32 91.5q10 36 18.5 105.5t12.5 121.5l3 52q1 5 5 5q104 23 206 23q100 0 221 -23q5 -1 5 -6v-110q42 7 79 7z"/>
<glyph glyph-name="afii10107" horiz-adv-x="845" unicode="њ" d="M594 94q52 0 52 108q0 43 -22 69.5t-56 26.5q-8 0 -20 -2v-132q4 -70 46 -70zM628 394q83 0 145 -55.5t62 -141.5q0 -95 -73.5 -157t-175.5 -62q-66 0 -115 20.5t-74.5 54t-37.5 69t-12 73.5v2v1h-91v-192l-4 -6h-201q-4 1 -4 5q8 228 8 297q0 51 -9.5 83t-20.5 40.5 t-20.5 14t-9.5 10.5q0 2 1 4q9 26 45 48.5t76 22.5q61 0 100 -41.5t39 -110.5v-58h91v183l4 5h193q4 -1 4 -6v-110q44 7 80 7z"/>
<glyph glyph-name="afii10110" horiz-adv-x="595" unicode="ў" d="M564 73v-15q0 -127 -72 -204.5t-204 -77.5q-67 0 -119.5 27.5t-75 56t-30.5 52.5t-8 40t10 16h3q7 -1 20.5 -13.5t29 -27t46.5 -26t69 -11.5q57 0 92 37.5t37 86.5v100q-28 -60 -72.5 -88t-89.5 -28q-57 0 -97 46t-40 119v136q0 51 -10.5 83t-23.5 40t-23.5 14t-10.5 11 q0 2 1 4q9 26 45 48.5t76 22.5q63 0 105 -41.5t42 -110.5v-174q0 -29 10 -44t24 -15q22 0 41.5 31t20.5 80v249l4 5h193q4 0 4 -5q3 -291 3 -424zM521 642q-27 -48 -85 -74t-127 -26q-68 0 -127 26t-90 74q-17 28 -17 56q0 56 46 83q24 15 52 15q54 0 82 -47q15 -24 15 -50 q0 -30 -21 -59q-5 -7 -5 -12q0 -11 16 -18q19 -9 45 -9q28 0 46 9t18 19q0 5 -5 12q-21 29 -21 59q0 25 15 49q28 47 82 47q28 0 52 -15q45 -26 45 -81q0 -30 -16 -58z"/>
<glyph glyph-name="afii10050" horiz-adv-x="508" unicode="Ґ" d="M34 715q32 3 92 3h83h26q72 0 72 75v36q0 10 17 10q63 0 114 -43t51 -105v-7q-3 -73 -53 -106.5t-121 -33.5q-36 0 -70 8q0 -118 3 -341q1 -41 8.5 -69.5t17 -40.5t19 -18.5t16 -10t6.5 -8.5q0 -3 -1 -5q-10 -29 -50.5 -55t-83.5 -26q-66 0 -109 43.5t-43 131.5l1 557z "/>
<glyph glyph-name="afii10098" horiz-adv-x="449" unicode="ґ" d="M435 493q0 -51 -39.5 -90.5t-111.5 -39.5q-19 0 -49 5l1 -163q0 -53 9 -85.5t20.5 -40t20.5 -13.5t9 -12l-1 -2v-3q-5 -24 -44.5 -47t-79.5 -23q-60 0 -100.5 43.5t-40.5 112.5v358q0 4 2 6t4 2h2l179 4q34 0 48.5 14.5t14.5 44.5v54q0 8 15 8q55 0 98 -38t43 -95z"/>
<glyph glyph-name="endash" horiz-adv-x="500" unicode="–" d="M466 289v-88q0 -3 -4 -3h-159h-269l-5 4v86q1 5 6 5h427z"/>
<glyph glyph-name="emdash" horiz-adv-x="813" unicode="—" d="M779 289v-88q0 -3 -4 -3h-240h-501l-5 4v86q1 5 6 5h740z"/>
<glyph glyph-name="quoteleft" horiz-adv-x="206" unicode="‘" d="M15 553q0 64 36.5 106t71.5 54q20 8 33 8q12 0 12 -10t-15 -23q-31 -30 -31 -44q0 -10 11 -13q26 -11 42 -33t16 -51q0 -36 -26 -62t-62 -26t-62 27t-26 67z"/>
<glyph glyph-name="quotesinglbase" horiz-adv-x="205" unicode="‚" d="M191 74q0 -64 -36.5 -106t-71.5 -54q-20 -8 -33 -8t-13 10q0 9 16 23q31 30 31 44q0 10 -11 13q-26 11 -42 33t-16 51q0 36 25.5 62t62.5 26q36 0 62 -27t26 -67z"/>
<glyph glyph-name="quotedblleft" horiz-adv-x="396" unicode="“" d="M15 553q0 64 36.5 106t71.5 54q20 8 33 8q12 0 12 -10t-15 -23q-31 -30 -31 -44q0 -10 11 -13q26 -11 42 -33t16 -51q0 -36 -26 -62t-62 -26t-62 27t-26 67zM205 553q0 64 36.5 106t71.5 54q20 8 33 8t13 -10q0 -9 -16 -23q-31 -30 -31 -44q0 -10 11 -13q26 -11 42 -33 t16 -51q0 -36 -25.5 -62t-62.5 -26q-36 0 -62 27t-26 67z"/>
<glyph glyph-name="quotedblright" horiz-adv-x="396" unicode="”" d="M381 628q0 -64 -36.5 -106t-71.5 -54q-20 -8 -33 -8q-12 0 -12 10t15 23q31 30 31 44q0 10 -11 13q-26 11 -42 33t-16 51q0 36 26 62t62 26t62 -27t26 -67zM191 628q0 -64 -36.5 -106t-71.5 -54q-20 -8 -33 -8t-13 10q0 9 16 23q31 30 31 44q0 10 -11 13q-26 11 -42 33 t-16 51q0 36 25.5 62t62.5 26q36 0 62 -27t26 -67z"/>
<glyph glyph-name="dagger" horiz-adv-x="440" unicode="†" d="M360 523q37 0 58 -20.5t21 -48.5t-21 -49t-58 -21q-53 0 -108 32q21 -21 33 -68.5t12 -100.5q0 -89 -28 -224t-48 -135q-21 0 -49 134.5t-28 224.5q0 47 11.5 97.5t34.5 71.5q-55 -32 -108 -32q-37 0 -58 21t-21 49t21 48.5t58 20.5q56 0 108 -37q-41 57 -41 127 q0 38 21.5 60t50.5 22t50.5 -22t21.5 -60q0 -70 -41 -127q52 37 108 37z"/>
<glyph glyph-name="ellipsis" horiz-adv-x="736" unicode="…" d="M721 80q0 -40 -28.5 -69t-69.5 -29t-69.5 29t-28.5 69t28.5 69t69.5 29t69.5 -29t28.5 -69zM466 80q0 -40 -29 -69t-69 -29t-69 29t-29 69t29 69t69 29t69 -29t29 -69zM211 80q0 -40 -28.5 -69t-69.5 -29t-69.5 29t-28.5 69t28.5 69t69.5 29t69.5 -29t28.5 -69z"/>
<glyph glyph-name="Euro" horiz-adv-x="564" unicode="€" d="M558 116q0 -41 -30.5 -71.5t-70.5 -45t-86 -18.5q-11 -2 -34 -2h-1h-1h-1q-100 1 -172 54t-98 136q-51 -3 -54 -3l-5 4v61q0 3 4 3q13 0 43 -2q-1 6 -1 19q0 12 1 18q-26 -2 -42 -2l-5 4v61q0 3 4 3q25 0 54 -3q26 84 98 137t172 54h1h2q23 0 35 -2q46 -4 86 -18.5 t70.5 -45t30.5 -71.5q0 -38 -26 -66.5t-70 -28.5q-26 0 -46.5 7t-20.5 20q0 3 0.5 9t0.5 8q0 29 -10 47q-15 24 -48 28h-9q-12 0 -17 -2q-43 -11 -57 -78l107 5l5 -4v-59q0 -5 -5 -5q-46 4 -113 6q0 -1 -0.5 -4t-0.5 -5q1 -4 1 -13v-23l113 6l5 -4v-59q0 -5 -5 -5 q-43 4 -106 6q14 -67 57 -78q5 -2 17 -2h8q33 3 48 28q10 18 10 45q0 11 -1 18q-1 14 20 21.5t47 7.5q44 0 70.5 -29t25.5 -67z"/>
<glyph glyph-name="trademark" horiz-adv-x="553" unicode="™" d="M539 516l3 -211l-1 -2h-82q-2 0 -2 3v100l3 19q0 1 -3 1t-3 -1l-6 -21l-44 -97q-1 -4 -6 -4h-7q-5 0 -6 4l-44 96l-6 22q-2 1 -6 0q0 -6 3 -21v-98l-2 -3h-82q-2 1 -2 2q4 201 4 211l1 1h99l3 -2l41 -79h1l41 79q1 2 3 2h99q1 0 1 -1zM234 518l2 -2v-57q0 -1 -1 -1 q-15 -3 -71 -5v-148l-2 -2h-82q-1 0 -1 2q-1 83 -1 148q-50 2 -71 5l-2 2v56q0 2 3 2h226z"/>
</font>
</defs>
</svg>
