<?xml version="1.0" encoding="UTF-8" standalone="no"?>
<!DOCTYPE svg  PUBLIC '-//W3C//DTD SVG 1.1//EN'  'http://www.w3.org/Graphics/SVG/1.1/DTD/svg11.dtd'>
<svg xmlns="http://www.w3.org/2000/svg">
<defs>
<font id="SegoeUI-Bold" horiz-adv-x="1102">
<font-face underline-position="-119" font-weight="700" descent="-410" panose-1="2 11 8 2 4 2 4 2 2 3" units-per-em="2048" unicode-range="U+0020-2666" bbox="-291 -481 2970 2123" x-height="1024" underline-thickness="119" font-family="SegoeUI" ascent="1638" cap-height="1434"/>
<missing-glyph horiz-adv-x="2048"/>
<glyph glyph-name=".notdef" horiz-adv-x="2048"/>
<glyph glyph-name=".null" horiz-adv-x="0"/>
<glyph glyph-name="nonmarkingreturn" horiz-adv-x="2048"/>
<glyph glyph-name="space" horiz-adv-x="565" unicode=" "/>
<glyph glyph-name="exclam" horiz-adv-x="670" unicode="!" d="M336 -23q-80 0 -132 48.5t-52 117.5q0 72 52.5 118t131.5 46q80 0 131 -46.5t51 -117.5q0 -72 -50.5 -119t-131.5 -47zM500 1434l-39 -988h-256l-37 988h332z"/>
<glyph glyph-name="quotedbl" horiz-adv-x="1010" unicode='&quot;' d="M438 1452l-30 -442h-203l-29 442h262zM834 1452l-31 -444h-201l-31 444h263z"/>
<glyph glyph-name="numbersign" horiz-adv-x="1213" unicode="#" d="M750 889h-232l-55 -248h231zM1176 1069l-39 -180h-185l-55 -248h207l-45 -180h-199l-78 -346h-200l73 346h-229l-74 -346h-200l71 346h-186l37 180h188l53 248h-202l34 180h205l74 356h205l-74 -356h229l76 356h203l-74 -356h185z"/>
<glyph glyph-name="dollar" horiz-adv-x="1178" unicode="$" d="M674 545v-303q143 22 143 143q0 98 -143 160zM528 883v317q-139 -25 -139 -145q0 -103 139 -172zM674 8v-217h-146v211q-203 1 -378 92v277q58 -47 173 -87t205 -46v364q-234 87 -319.5 188.5t-85.5 247.5q0 157 111 267.5t294 128.5v186h146v-182q211 -10 315 -68v-270 q-140 85 -315 104v-379q219 -79 314 -180.5t95 -245.5q0 -166 -106 -267.5t-303 -123.5z"/>
<glyph glyph-name="percent" horiz-adv-x="1776" unicode="%" d="M1339 551q-145 0 -145 -203q0 -192 141 -192q142 0 142 200q0 93 -38 144t-100 51zM1323 -20q-153 0 -246.5 97t-93.5 261q0 179 99.5 284t265.5 105q160 0 249 -94t89 -266q0 -177 -99 -282t-264 -105zM1477 1434l-934 -1434h-244l932 1434h246zM449 1278 q-146 0 -146 -203q0 -192 139 -192q142 0 142 200q0 195 -135 195zM430 707q-153 0 -246.5 97t-93.5 261q0 179 99.5 284t265.5 105q159 0 248.5 -95t89.5 -267q0 -177 -99 -281t-264 -104z"/>
<glyph glyph-name="ampersand" horiz-adv-x="1740" unicode="&amp;" d="M817 1124q0 29 -11 52t-30 38.5t-43 24t-51 8.5q-33 0 -60.5 -10t-48 -27t-31.5 -40.5t-11 -50.5q0 -56 35 -103t87 -76q33 12 62.5 28t52 38t36 51t13.5 67zM632 216q59 0 111 11.5t98 30.5t85.5 44t72.5 52q-51 80 -101 135.5t-99 95t-97.5 66.5t-97.5 49 q-41 -20 -78.5 -44.5t-66.5 -57t-46.5 -74t-17.5 -95.5q0 -48 17 -87t48.5 -67t75 -43.5t96.5 -15.5zM1479 -23q-53 0 -100.5 14t-90 38t-80.5 56.5t-72 69.5q-37 -30 -89 -62t-117.5 -57.5t-144.5 -42t-169 -16.5q-117 0 -216.5 28t-171.5 83.5t-112.5 137.5t-40.5 190 q0 85 30.5 151.5t79.5 116.5t111 86t126 60q-31 24 -62.5 55.5t-56.5 69t-40.5 81.5t-15.5 93q0 79 32 140t89.5 103t137.5 64t176 22q92 0 168.5 -23t131.5 -64t85 -98.5t30 -126.5q0 -111 -66.5 -192.5t-187.5 -132.5q48 -22 92 -50t86 -64t82 -81.5t79 -104.5 q82 103 117.5 219.5t35.5 242.5q0 38 -4.5 73t-14.5 65h269q11 -32 16 -62t5 -71q0 -97 -20.5 -189t-57.5 -176t-89.5 -159t-115.5 -140q49 -51 101 -78.5t98 -27.5q48 0 98 10.5t87 29.5v-238q-55 -22 -108.5 -32.5t-119.5 -10.5z"/>
<glyph glyph-name="quotesingle" horiz-adv-x="600" unicode="&apos;" d="M430 1452l-31 -442h-200l-29 442h260z"/>
<glyph glyph-name="asterisk" horiz-adv-x="932" unicode="*" d="M864 1053l-274 -37l196 -211l-182 -125l-137 254l-137 -254l-183 125l197 211l-274 37l71 202l252 -108l-43 287h234l-43 -287l250 108z"/>
<glyph glyph-name="plus" horiz-adv-x="1448" unicode="+" d="M1212 485h-385v-385h-202v385h-387v203h387v387h202v-387h385v-203z"/>
<glyph glyph-name="comma" horiz-adv-x="555" unicode="," d="M432 252l-147 -506h-246l102 506h291z"/>
<glyph glyph-name="hyphen" horiz-adv-x="828" unicode="-" d="M690 436h-547v221h547v-221z"/>
<glyph glyph-name="hyphen" horiz-adv-x="828" unicode="‐" d="M690 436h-547v221h547v-221z"/>
<glyph glyph-name="period" horiz-adv-x="555" unicode="." d="M274 -25q-78 0 -130 48t-52 118q0 72 53.5 118t133.5 46q81 0 132.5 -46.5t51.5 -117.5q0 -73 -52.5 -119.5t-136.5 -46.5z"/>
<glyph glyph-name="slash" horiz-adv-x="908" unicode="/" d="M932 1434l-699 -1672h-282l696 1672h285z"/>
<glyph glyph-name="zero" horiz-adv-x="1178" unicode="0" d="M596 1217q-205 0 -205 -515q0 -485 201 -485q196 0 196 500t-192 500zM582 -25q-512 0 -512 719q0 373 138.5 568.5t401.5 195.5q500 0 500 -731q0 -364 -136.5 -558t-391.5 -194z"/>
<glyph glyph-name="one" horiz-adv-x="1178" unicode="1" d="M1077 0h-907v250h297v893l-305 -66v256l620 125v-1208h295v-250z"/>
<glyph glyph-name="two" horiz-adv-x="1178" unicode="2" d="M471 268v-6h582v-262h-944v246l411 393q124 119 174.5 199.5t50.5 169.5q0 198 -213 198q-185 0 -354 -147v278q187 121 422 121q220 0 343.5 -110.5t123.5 -298.5q0 -251 -301 -519z"/>
<glyph glyph-name="three" horiz-adv-x="1178" unicode="3" d="M147 47v275q144 -105 336 -105q121 0 188.5 52t67.5 145q0 96 -83.5 148t-229.5 52h-129v242h119q280 0 280 186q0 175 -215 175q-144 0 -280 -93v258q151 76 352 76q220 0 342.5 -99t122.5 -257q0 -281 -285 -352v-5q152 -19 240 -110.5t88 -224.5q0 -201 -147 -318 t-406 -117q-222 0 -361 72z"/>
<glyph glyph-name="four" horiz-adv-x="1178" unicode="4" d="M668 1118h-6q-14 -36 -54 -112l-307 -476h363v451q0 60 4 137zM1124 305h-172v-305h-288v305h-625v201l602 928h311v-904h172v-225z"/>
<glyph glyph-name="five" horiz-adv-x="1178" unicode="5" d="M164 37v270q147 -90 313 -90q125 0 195.5 59.5t70.5 161.5q0 213 -301 213q-98 0 -237 -18v801h794v-258h-524v-287q63 6 119 6q221 0 346 -116t125 -312q0 -217 -149 -354.5t-404 -137.5q-207 0 -348 62z"/>
<glyph glyph-name="six" horiz-adv-x="1178" unicode="6" d="M612 688q-87 0 -138.5 -61t-51.5 -156q0 -105 52.5 -179.5t139.5 -74.5q85 0 136 66.5t51 173.5q0 231 -189 231zM1008 1419v-264q-109 62 -238 62q-159 0 -256.5 -121.5t-101.5 -325.5h6q103 152 301 152q180 0 285.5 -122t105.5 -323q0 -216 -140 -359t-356 -143 q-242 0 -378 175t-136 491q0 372 175 594.5t475 222.5q166 0 258 -39z"/>
<glyph glyph-name="seven" horiz-adv-x="1178" unicode="7" d="M1094 1288l-506 -1288h-334l510 1176h-668v258h998v-146z"/>
<glyph glyph-name="eight" horiz-adv-x="1178" unicode="8" d="M582 625q-201 -79 -201 -242q0 -78 61.5 -129t149.5 -51q95 0 153 50t58 132q0 164 -221 240zM768 1071q0 73 -46.5 116.5t-123.5 43.5q-75 0 -124.5 -45.5t-49.5 -116.5q0 -134 172 -203q172 71 172 205zM371 745v5q-246 101 -246 327q0 166 132 273.5t341 107.5 q213 0 340 -100.5t127 -259.5q0 -235 -272 -346v-4q146 -43 226.5 -141.5t80.5 -221.5q0 -190 -140.5 -300t-392.5 -110q-218 0 -351.5 107.5t-133.5 284.5q0 257 289 378z"/>
<glyph glyph-name="nine" horiz-adv-x="1178" unicode="9" d="M575 1217q-82 0 -135 -66.5t-53 -171.5q0 -109 52.5 -171.5t142.5 -62.5q82 0 134 59.5t52 149.5q0 113 -54.5 188t-138.5 75zM160 31v260q113 -74 272 -74q166 0 256.5 112.5t91.5 319.5l-6 2q-95 -141 -289 -141q-176 0 -291.5 123t-115.5 319q0 229 141 367.5 t365 138.5q230 0 366.5 -174t136.5 -498q0 -384 -164.5 -597.5t-459.5 -213.5q-175 0 -303 56z"/>
<glyph glyph-name="colon" horiz-adv-x="555" unicode=":" d="M274 -25q-78 0 -130 48t-52 118q0 72 53.5 118t133.5 46q81 0 132.5 -46.5t51.5 -117.5q0 -73 -52.5 -119.5t-136.5 -46.5zM274 707q-78 0 -130 47.5t-52 117.5q0 72 53.5 118t133.5 46q81 0 132.5 -46.5t51.5 -117.5q0 -73 -52.5 -119t-136.5 -46z"/>
<glyph glyph-name="semicolon" horiz-adv-x="555" unicode=";" d="M432 252l-147 -506h-246l102 506h291zM281 707q-79 0 -131 48t-52 117q0 73 52.5 118.5t132.5 45.5q81 0 132.5 -46.5t51.5 -117.5q0 -73 -51 -119t-135 -46z"/>
<glyph glyph-name="less" horiz-adv-x="1448" unicode="&lt;" d="M1192 63l-934 426v162l934 447v-238l-666 -285v-6l666 -268v-238z"/>
<glyph glyph-name="equal" horiz-adv-x="1448" unicode="=" d="M1212 266h-974v203h974v-203zM1212 700h-974v205h974v-205z"/>
<glyph glyph-name="greater" horiz-adv-x="1448" unicode="&gt;" d="M1192 502l-934 -426v237l668 267v4l-668 286v238l934 -444v-162z"/>
<glyph glyph-name="question" horiz-adv-x="897" unicode="?" d="M409 -23q-80 0 -133 48q-53 50 -53 118q0 70 53 117t133 47q79 0 131 -47q52 -46 52 -117q0 -72 -51 -119q-52 -47 -132 -47zM263 415q-10 26 -15.5 58.5t-5.5 61.5q0 46 9 84t27 71.5t45 64t63 60.5q38 32 66.5 59.5t48.5 55t30 57t10 65.5q0 31 -11 57.5t-31.5 45.5 t-50 30t-65.5 11q-78 0 -162 -32.5t-159 -98.5v301q77 46 168 69t188 23q93 0 173 -20.5t139.5 -64.5t93 -112.5t33.5 -164.5q0 -61 -14 -110.5t-41 -93.5t-67 -84.5t-92 -83.5q-35 -29 -61.5 -54t-44 -49.5t-26.5 -52t-9 -62.5q0 -24 6.5 -49t17.5 -42h-263z"/>
<glyph glyph-name="at" horiz-adv-x="1954" unicode="@" d="M989 899q-90 0 -146.5 -102.5t-56.5 -237.5q0 -96 38.5 -149.5t99.5 -53.5q94 0 148 101t54 270q0 80 -37.5 126t-99.5 46zM1122 371h-6q-70 -191 -254 -191q-138 0 -222.5 100t-84.5 277q0 229 117 372.5t282 143.5q149 0 187 -117h4l10 99h225q-45 -426 -45 -557 q0 -140 76 -140q80 0 132 106t52 277q0 234 -149 383.5t-416 149.5q-286 0 -475.5 -199.5t-189.5 -486.5q0 -278 167.5 -438t462.5 -160q225 0 412 86v-191q-171 -73 -440 -73q-369 0 -600.5 211.5t-231.5 568.5q0 364 247 612t636 248q360 0 582.5 -192.5t222.5 -507.5 q0 -259 -136 -415.5t-337 -156.5q-99 0 -161 53t-67 138z"/>
<glyph glyph-name="A" horiz-adv-x="1440" unicode="A" d="M897 567l-154 482q-17 54 -24 129h-8q-5 -63 -25 -125l-156 -486h367zM1425 0h-352l-102 319h-510l-101 -319h-350l522 1434h383z"/>
<glyph glyph-name="B" horiz-adv-x="1313" unicode="B" d="M487 616v-378h175q112 0 175.5 52t63.5 142q0 86 -62.5 135t-174.5 49h-177zM487 1196v-340h142q100 0 157.5 48.5t57.5 133.5q0 158 -236 158h-121zM164 0v1434h522q240 0 369 -88t129 -248q0 -116 -78.5 -203t-200.5 -121v-4q153 -19 244.5 -113t91.5 -229 q0 -197 -141 -312.5t-385 -115.5h-551z"/>
<glyph glyph-name="C" horiz-adv-x="1278" unicode="C" d="M1192 51q-157 -76 -410 -76q-330 0 -519 194t-189 517q0 344 212.5 558t551.5 214q210 0 354 -53v-311q-144 86 -328 86q-202 0 -326 -127t-124 -344q0 -208 117 -331.5t315 -123.5q189 0 346 92v-295z"/>
<glyph glyph-name="D" horiz-adv-x="1510" unicode="D" d="M487 1171v-909h160q210 0 329.5 126t119.5 343q0 205 -118.5 322.5t-332.5 117.5h-158zM164 0v1434h508q764 0 764 -699q0 -335 -208.5 -535t-555.5 -200h-508z"/>
<glyph glyph-name="E" horiz-adv-x="1090" unicode="E" d="M1024 0h-860v1434h827v-263h-504v-319h469v-262h-469v-328h537v-262z"/>
<glyph glyph-name="F" horiz-adv-x="1065" unicode="F" d="M993 1171h-506v-352h465v-262h-465v-557h-323v1434h829v-263z"/>
<glyph glyph-name="G" horiz-adv-x="1456" unicode="G" d="M1341 96q-210 -121 -522 -121q-346 0 -545.5 191.5t-199.5 527.5q0 338 218 551t580 213q228 0 402 -63v-303q-166 96 -406 96q-201 0 -327.5 -130.5t-126.5 -348.5q0 -221 113.5 -342t306.5 -121q116 0 184 33v280h-287v258h610v-721z"/>
<glyph glyph-name="H" horiz-adv-x="1569" unicode="H" d="M1405 0h-324v584h-594v-584h-323v1434h323v-572h594v572h324v-1434z"/>
<glyph glyph-name="I" horiz-adv-x="649" unicode="I" d="M607 1434v-250h-120v-934h120v-250h-563v250h120v934h-120v250h563z"/>
<glyph glyph-name="J" horiz-adv-x="912" unicode="J" d="M762 569q0 -288 -133.5 -441t-386.5 -153q-113 0 -209 39v303q83 -63 186 -63q221 0 221 328v852h322v-865z"/>
<glyph glyph-name="K" horiz-adv-x="1329" unicode="K" d="M1356 0h-408l-418 623q-12 18 -38 79h-5v-702h-323v1434h323v-678h5q12 28 40 80l396 598h385l-500 -684z"/>
<glyph glyph-name="L" horiz-adv-x="1047" unicode="L" d="M1018 0h-854v1434h323v-1172h531v-262z"/>
<glyph glyph-name="M" horiz-adv-x="1960" unicode="M" d="M1798 0h-319v858q0 139 12 307h-8q-25 -132 -45 -190l-336 -975h-264l-342 965q-14 39 -45 200h-9q13 -212 13 -372v-793h-291v1434h473l293 -850q35 -102 51 -205h6q27 119 57 207l293 848h461v-1434z"/>
<glyph glyph-name="N" horiz-adv-x="1618" unicode="N" d="M1454 0h-326l-591 901q-52 79 -72 119h-4q8 -76 8 -232v-788h-305v1434h348l569 -873q39 -59 72 -117h4q-8 50 -8 197v793h305v-1434z"/>
<glyph glyph-name="O" horiz-adv-x="1553" unicode="O" d="M784 1180q-170 0 -270 -127.5t-100 -337.5q0 -213 100 -337t262 -124q167 0 265 120.5t98 334.5q0 223 -95 347t-260 124zM770 -25q-308 0 -502 200.5t-194 522.5q0 340 197 550t522 210q307 0 496.5 -201t189.5 -530q0 -338 -196.5 -545t-512.5 -207z"/>
<glyph glyph-name="P" horiz-adv-x="1258" unicode="P" d="M487 1186v-447h127q258 0 258 226q0 221 -258 221h-127zM487 494v-494h-323v1434h506q542 0 542 -457q0 -216 -155.5 -349.5t-415.5 -133.5h-154z"/>
<glyph glyph-name="Q" horiz-adv-x="1553" unicode="Q" d="M1040 27q52 -56 99 -92t94.5 -57t97.5 -29t109 -8q16 0 35 1.5t38.5 5t37.5 8t33 10.5v-272q-32 -9 -88.5 -18t-137.5 -9q-98 0 -180.5 32t-158 87.5t-147 130.5t-148.5 161q-147 4 -267 61t-205 153.5t-131.5 226.5t-46.5 279q0 341 196 550q197 210 525 210 q305 0 494 -202q190 -200 190 -529q0 -257 -116 -442q-116 -183 -323 -258zM784 1180q-169 0 -270 -128q-100 -127 -100 -337q0 -212 99 -337q100 -124 263 -124q168 0 265 120q98 122 98 335q0 221 -94 345q-94 126 -261 126z"/>
<glyph glyph-name="R" horiz-adv-x="1337" unicode="R" d="M487 1192v-399h140q104 0 167 60q64 61 64 151q0 188 -225 188h-146zM1367 0h-371l-223 369q-25 42 -48 75t-46.5 56.5t-49 36t-55.5 12.5h-87v-549h-323v1434h512q522 0 522 -390q0 -75 -23 -138.5t-65 -114.5t-101.5 -88t-132.5 -58v-4q32 -10 62 -32.5t58 -52.5 t53.5 -64.5t46.5 -67.5z"/>
<glyph glyph-name="S" horiz-adv-x="1148" unicode="S" d="M98 55v320q87 -73 189 -109.5t206 -36.5q61 0 106.5 11t76 30.5t45.5 46t15 57.5q0 42 -24 75t-65.5 61t-98.5 54t-123 53q-168 70 -250.5 171t-82.5 244q0 112 45 192.5t122.5 132.5t179.5 76.5t216 24.5q112 0 198.5 -13.5t159.5 -41.5v-299q-36 25 -78.5 44 t-87.5 31.5t-89.5 18.5t-84.5 6q-55 0 -100 -10.5t-76 -29.5t-48 -45.5t-17 -59.5q0 -36 19 -64.5t54 -54t85 -50t113 -50.5q86 -36 154.5 -76.5t117.5 -91.5t75 -116.5t26 -152.5q0 -120 -45.5 -201.5t-123.5 -132t-181.5 -72.5t-218.5 -22q-118 0 -224.5 20t-184.5 60z "/>
<glyph glyph-name="T" horiz-adv-x="1200" unicode="T" d="M1171 1171h-409v-1171h-324v1171h-407v263h1140v-263z"/>
<glyph glyph-name="U" horiz-adv-x="1481" unicode="U" d="M1333 621q0 -646 -602 -646q-584 0 -584 631v828h324v-832q0 -348 272 -348q267 0 267 336v844h323v-813z"/>
<glyph glyph-name="V" horiz-adv-x="1366" unicode="V" d="M1358 1434l-494 -1434h-366l-488 1434h348l299 -998q24 -81 29 -143h6q7 67 31 147l297 994h338z"/>
<glyph glyph-name="W" horiz-adv-x="2058" unicode="W" d="M2040 1434l-379 -1434h-358l-238 920q-19 72 -23 161h-4q-9 -98 -26 -161l-244 -920h-373l-377 1434h353l202 -955q13 -61 19 -164h6q4 77 29 168l260 951h346l235 -963q13 -53 23 -154h4q4 79 21 160l198 957h326z"/>
<glyph glyph-name="X" horiz-adv-x="1342" unicode="X" d="M1335 0h-383l-247 467q-14 26 -29 96h-4q-7 -33 -33 -100l-248 -463h-385l457 717l-418 717h393l205 -430q24 -51 43 -121h4q12 42 45 125l228 426h360l-430 -711z"/>
<glyph glyph-name="Y" horiz-adv-x="1243" unicode="Y" d="M1245 1434l-467 -924v-510h-323v504l-455 930h369l231 -535q6 -15 33 -117h4q13 72 31 113l235 539h342z"/>
<glyph glyph-name="Z" horiz-adv-x="1243" unicode="Z" d="M1196 0h-1155v186l735 985h-682v263h1100v-181l-719 -991h721v-262z"/>
<glyph glyph-name="bracketleft" horiz-adv-x="756" unicode="[" d="M686 -326h-469v1760h469v-201h-209v-1358h209v-201z"/>
<glyph glyph-name="backslash" horiz-adv-x="893" unicode="\" d="M961 -238h-279l-682 1672h281z"/>
<glyph glyph-name="bracketright" horiz-adv-x="756" unicode="]" d="M541 -326h-471v201h211v1358h-211v201h471v-1760z"/>
<glyph glyph-name="asciicircum" horiz-adv-x="1448" unicode="^" d="M1249 610h-243l-287 586h-4l-271 -586h-241l430 848h162z"/>
<glyph glyph-name="underscore" horiz-adv-x="850" unicode="_" d="M850 -297h-850v119h850v-119z"/>
<glyph glyph-name="grave" horiz-adv-x="643" unicode="`" d="M596 1186h-227l-314 323h281z"/>
<glyph glyph-name="a" d="M688 416v69l-186 -24q-154 -20 -154 -139q0 -54 37.5 -88.5t101.5 -34.5q89 0 145 61.5t56 155.5zM985 0h-299v147h-4q-103 -172 -305 -172q-149 0 -234.5 84.5t-85.5 225.5q0 298 353 344l278 37q0 168 -182 168q-183 0 -348 -109v238q66 34 180.5 60t208.5 26 q438 0 438 -437v-612z" unicode="a"/>
<glyph glyph-name="b" horiz-adv-x="1270" unicode="b" d="M444 551v-105q0 -99 57 -164t146 -65q108 0 167.5 83.5t59.5 236.5q0 127 -54.5 198.5t-155.5 71.5q-95 0 -157.5 -71t-62.5 -185zM453 119h-4v-119h-316v1516h316v-646h4q117 179 333 179q198 0 305 -136t107 -372q0 -256 -125 -411t-334 -155q-189 0 -286 144z"/>
<glyph glyph-name="c" horiz-adv-x="983" unicode="c" d="M909 37q-107 -62 -309 -62q-236 0 -382 143t-146 369q0 261 156.5 411.5t418.5 150.5q181 0 262 -48v-268q-99 74 -221 74q-136 0 -215.5 -79.5t-79.5 -219.5q0 -136 76 -213.5t209 -77.5q118 0 231 74v-254z"/>
<glyph glyph-name="d" horiz-adv-x="1268" unicode="d" d="M825 498v77q0 100 -58 166t-151 66q-105 0 -164 -82.5t-59 -226.5q0 -135 57 -208t158 -73q96 0 156.5 77t60.5 204zM1135 0h-316v141h-4q-108 -166 -317 -166q-192 0 -309 135.5t-117 378.5q0 254 129 407t338 153q198 0 276 -142h4v609h316v-1516z"/>
<glyph glyph-name="e" horiz-adv-x="1108" unicode="e" d="M760 616q0 220 -178 220q-76 0 -131.5 -63t-67.5 -157h377zM1053 422h-668q16 -223 281 -223q169 0 297 80v-228q-142 -76 -369 -76q-248 0 -385 137.5t-137 383.5q0 255 148 404t364 149q224 0 346.5 -133t122.5 -361v-133z"/>
<glyph glyph-name="f" horiz-adv-x="785" unicode="f" d="M801 1274q-61 24 -117 24q-152 0 -152 -165v-109h234v-233h-234v-791h-315v791h-172v233h172v127q0 175 114 282t310 107q96 0 160 -20v-246z"/>
<glyph glyph-name="g" horiz-adv-x="1268" unicode="g" d="M825 492v81q0 97 -57.5 165.5t-149.5 68.5q-105 0 -165 -82t-60 -231q0 -128 57 -202.5t156 -74.5q98 0 158.5 75.5t60.5 199.5zM1137 117q0 -285 -165 -441.5t-478 -156.5q-207 0 -328 59v266q158 -92 319 -92q160 0 248 84.5t88 229.5v81h-4q-108 -172 -319 -172 q-196 0 -311 138t-115 370q0 260 128 413t337 153q187 0 280 -144h4v119h316v-907z"/>
<glyph glyph-name="h" horiz-adv-x="1233" unicode="h" d="M1116 0h-315v582q0 225 -164 225q-84 0 -136 -63t-52 -160v-584h-316v1516h316v-644h4q116 177 315 177q348 0 348 -420v-629z"/>
<glyph glyph-name="i" horiz-adv-x="582" unicode="i" d="M449 0h-316v1024h316v-1024zM293 1186q-80 0 -131 47.5t-51 116.5q0 71 51 116t131 45q81 0 131.5 -45t50.5 -116q0 -72 -50.5 -118t-131.5 -46z"/>
<glyph glyph-name="j" horiz-adv-x="582" unicode="j" d="M449 18q0 -227 -111 -363t-320 -136q-69 0 -151 30v248q66 -37 117 -37q149 0 149 234v1030h316v-1006zM293 1186q-80 0 -131 47.5t-51 116.5q0 71 51 116t131 45q81 0 131.5 -45t50.5 -116q0 -72 -50.5 -118t-131.5 -46z"/>
<glyph glyph-name="k" horiz-adv-x="1145" unicode="k" d="M1159 0h-379l-327 508h-4v-508h-316v1516h316v-965h4l305 473h375l-367 -481z"/>
<glyph glyph-name="l" horiz-adv-x="582" unicode="l" d="M449 0h-316v1516h316v-1516z"/>
<glyph glyph-name="m" horiz-adv-x="1876" unicode="m" d="M1759 0h-315v584q0 223 -164 223q-78 0 -127 -67t-49 -167v-573h-316v590q0 217 -161 217q-81 0 -129.5 -64t-48.5 -174v-569h-316v1024h316v-160h4q49 82 137.5 133.5t193.5 51.5q217 0 297 -191q117 191 344 191q334 0 334 -412v-637z"/>
<glyph glyph-name="n" horiz-adv-x="1239" unicode="n" d="M1122 0h-315v569q0 238 -170 238q-82 0 -135 -63t-53 -160v-584h-316v1024h316v-162h4q113 187 329 187q340 0 340 -422v-627z"/>
<glyph glyph-name="o" horiz-adv-x="1252" unicode="o" d="M629 807q-112 0 -174 -77t-62 -218q0 -295 238 -295q227 0 227 303q0 287 -229 287zM621 -25q-256 0 -402.5 143.5t-146.5 389.5q0 254 152 397.5t411 143.5q255 0 400 -143.5t145 -379.5q0 -255 -149.5 -403t-409.5 -148z"/>
<glyph glyph-name="p" horiz-adv-x="1270" unicode="p" d="M444 539v-82q0 -106 56 -173t147 -67q108 0 167.5 83.5t59.5 236.5q0 270 -210 270q-97 0 -158.5 -73.5t-61.5 -194.5zM453 119h-4v-590h-316v1495h316v-154h4q117 179 329 179q199 0 307.5 -136.5t108.5 -371.5q0 -256 -126.5 -411t-336.5 -155q-185 0 -282 144z"/>
<glyph glyph-name="q" horiz-adv-x="1268" unicode="q" d="M825 489v82q0 100 -58 168t-149 68q-105 0 -165 -82.5t-60 -228.5q0 -131 58.5 -205t152.5 -74q100 0 160.5 75t60.5 197zM1135 -471h-316v612h-4q-107 -166 -315 -166q-193 0 -310.5 134.5t-117.5 377.5q0 256 129 409t336 153q188 0 278 -144h4v119h316v-1495z"/>
<glyph glyph-name="r" horiz-adv-x="815" unicode="r" d="M801 739q-57 31 -133 31q-103 0 -161 -75.5t-58 -205.5v-489h-316v1024h316v-190h4q75 208 270 208q50 0 78 -12v-291z"/>
<glyph glyph-name="s" horiz-adv-x="901" unicode="s" d="M66 27v256q78 -47 155.5 -70t146.5 -23q84 0 132.5 23t48.5 70q0 30 -22 50t-56.5 35t-75.5 27t-79 27q-61 23 -107.5 49.5t-78 61.5t-48 81t-16.5 109q0 86 37.5 148t100 101.5t143 58t167.5 18.5q68 0 138 -10.5t138 -30.5v-244q-60 35 -128.5 52.5t-134.5 17.5 q-31 0 -58.5 -5.5t-48.5 -16t-33 -27t-12 -37.5q0 -28 18 -48t47 -34.5t64.5 -26t70.5 -23.5q63 -22 114 -48t87.5 -61t56 -82t19.5 -112q0 -91 -39.5 -155.5t-105 -105t-151 -59t-177.5 -18.5q-169 0 -313 52z"/>
<glyph glyph-name="t" horiz-adv-x="797" unicode="t" d="M752 12q-70 -37 -211 -37q-334 0 -334 347v469h-166v233h166v221l315 90v-311h230v-233h-230v-414q0 -160 127 -160q50 0 103 29v-234z"/>
<glyph glyph-name="u" horiz-adv-x="1239" unicode="u" d="M1106 0h-315v156h-5q-117 -181 -313 -181q-356 0 -356 431v618h315v-590q0 -217 172 -217q85 0 136 59.5t51 161.5v586h315v-1024z"/>
<glyph glyph-name="v" horiz-adv-x="1110" unicode="v" d="M1108 1024l-381 -1024h-360l-363 1024h338l178 -631q30 -107 35 -182h4q7 71 37 176l182 637h330z"/>
<glyph glyph-name="w" horiz-adv-x="1633" unicode="w" d="M1616 1024l-295 -1024h-332l-151 600q-15 60 -17 131h-6q-7 -78 -20 -127l-162 -604h-328l-289 1024h322l141 -668q10 -47 15 -114h6q5 70 18 118l176 664h301l158 -668q6 -25 14 -116h7q5 58 16 116l133 668h293z"/>
<glyph glyph-name="x" horiz-adv-x="1131" unicode="x" d="M1122 1024l-338 -496l336 -528h-364l-148 276q-18 33 -43 93h-4q-15 -42 -41 -90l-149 -279h-363l346 510l-325 514h366l146 -287q29 -57 41 -96h4q16 47 43 98l149 285h344z"/>
<glyph glyph-name="y" d="M1108 1024l-416 -1106q-150 -399 -452 -399q-115 0 -189 26v252q63 -37 137 -37q122 0 170 115l54 127l-416 1022h350l191 -623q18 -58 28 -137h4q9 58 33 135l193 625h313z" unicode="y"/>
<glyph glyph-name="z" horiz-adv-x="981" unicode="z" d="M944 0h-919v131l514 660h-463v233h864v-156l-487 -635h491v-233z"/>
<glyph glyph-name="braceleft" horiz-adv-x="756" unicode="{" d="M674 -326q-218 0 -317 80t-99 285v240q0 184 -152 184v184q152 0 152 191v223q0 206 98 289.5t318 83.5v-187q-160 0 -160 -174v-213q0 -240 -154 -303v-4q154 -62 154 -307v-205q0 -98 37.5 -139t122.5 -41v-187z"/>
<glyph glyph-name="bar" horiz-adv-x="668" unicode="|" d="M461 -481h-252v2048h252v-2048z"/>
<glyph glyph-name="braceright" horiz-adv-x="756" unicode="}" d="M651 463q-153 0 -153 -187v-231q0 -211 -97.5 -291t-316.5 -80v187q84 0 122 40.5t38 137.5v213q0 239 153 299v4q-153 63 -153 313v205q0 174 -160 174v187q218 0 316 -83.5t98 -285.5v-229q0 -189 153 -189v-184z"/>
<glyph glyph-name="asciitilde" horiz-adv-x="1448" unicode="~" d="M1255 772q-6 -168 -89.5 -266t-223.5 -98q-106 0 -258 88q-109 63 -156 63q-123 0 -129 -160h-204q6 169 89.5 267t227.5 98q112 0 238 -76q130 -78 180 -78q52 0 85.5 44.5t35.5 117.5h204z"/>
<glyph glyph-name="nonbreakingspace" horiz-adv-x="565" unicode=" "/>
<glyph glyph-name="exclamdown" horiz-adv-x="670" unicode="¡" d="M504 -408h-332l37 990h256zM336 721q-81 0 -132.5 46t-51.5 116q0 72 51.5 119t132.5 47q79 0 130.5 -48t51.5 -118q0 -72 -51.5 -117t-130.5 -45z"/>
<glyph glyph-name="cent" horiz-adv-x="1178" unicode="¢" d="M662 399v559q-195 -59 -195 -280q0 -222 195 -279zM1004 207q-73 -42 -181 -55v-189h-161v184q-216 12 -354 151.5t-138 358.5q0 234 134 381.5t358 171.5v211h161v-207q110 -6 181 -45v-272q-76 58 -181 70v-574q108 17 181 68v-254z"/>
<glyph glyph-name="sterling" horiz-adv-x="1178" unicode="£" d="M1114 0h-971v227q193 52 193 269v116h-172v217h172v187q0 198 122 320t330 122q127 0 234 -49v-258q-98 66 -209 66q-184 0 -184 -230v-158h268v-217h-268v-86q0 -184 -152 -284h637v-242z"/>
<glyph glyph-name="currency" horiz-adv-x="1139" unicode="¤" d="M569 965q-100 0 -169.5 -69.5t-69.5 -168.5t69.5 -168.5t169.5 -69.5t171 69.5t71 168.5q0 98 -73 168t-169 70zM1087 358l-141 -145l-143 141q-105 -65 -234 -65q-127 0 -233 65l-143 -141l-142 145l142 138q-66 110 -66 229q0 121 66 229l-142 140l142 145l143 -141 q106 65 233 65q129 0 234 -65l143 141l141 -145l-141 -140q68 -111 68 -229q0 -115 -68 -229z"/>
<glyph glyph-name="yen" horiz-adv-x="1178" unicode="¥" d="M1157 1434l-354 -641h252v-189h-305v-153h305v-189h-305v-262h-308v262h-315v189h315v153h-315v189h256l-342 641h321l246 -570h4q4 11 37 90l203 480h305z"/>
<glyph glyph-name="brokenbar" horiz-adv-x="668" unicode="¦" d="M461 -481h-252v895h252v-895zM461 684h-252v883h252v-883z"/>
<glyph glyph-name="section" horiz-adv-x="994" unicode="§" d="M432 864q-65 -38 -65 -110q0 -57 51 -102t178 -99q66 44 66 123q0 62 -53.5 100.5t-176.5 87.5zM752 434q82 -75 82 -174q0 -149 -108.5 -237.5t-285.5 -88.5q-163 0 -290 68v248q180 -105 311 -105q127 0 127 99q0 61 -96 108q-141 65 -210 112.5t-110 116.5t-41 150 q0 143 125 234q-88 88 -88 215q0 140 102.5 225.5t274.5 85.5q139 0 260 -55v-250q-139 96 -260 96q-123 0 -123 -94q0 -45 40.5 -77.5t184.5 -96.5q254 -112 254 -309q0 -167 -149 -271z"/>
<glyph glyph-name="dieresis" horiz-adv-x="946" unicode="¨" d="M240 1186q-68 0 -111 39.5t-43 97.5q0 60 44 98.5t110 38.5q68 0 110.5 -38.5t42.5 -98.5q0 -61 -42.5 -99t-110.5 -38zM698 1186q-67 0 -110 39t-43 98q0 61 43 99t110 38t110.5 -38.5t43.5 -98.5t-43 -98.5t-111 -38.5z"/>
<glyph glyph-name="copyright" horiz-adv-x="1790" unicode="©" d="M1204 295q-125 -68 -274 -68q-209 0 -346.5 134t-137.5 335q0 231 143.5 370.5t373.5 139.5q125 0 239 -55v-236q-98 76 -244 76q-115 0 -192.5 -76.5t-77.5 -205.5q0 -122 78.5 -197.5t198.5 -75.5q141 0 239 76v-217zM897 1346q-275 0 -454 -180t-179 -449 q0 -272 181.5 -450.5t451.5 -178.5q265 0 448 179.5t183 447.5q0 272 -180 451.5t-451 179.5zM893 -25q-333 0 -547.5 207t-214.5 531q0 317 220.5 531t549.5 214q328 0 544 -208.5t216 -532.5q0 -317 -221.5 -529.5t-546.5 -212.5z"/>
<glyph glyph-name="ordfeminine" horiz-adv-x="840" unicode="ª" d="M526 985v70l-123 -17q-116 -16 -116 -96q0 -88 104 -88q54 0 94.5 38.5t40.5 92.5zM739 717h-213v86h-4q-87 -107 -219 -107q-101 0 -166 61t-65 158q0 211 262 244l192 25q0 114 -139 114q-118 0 -246 -77v176q124 57 287 57q311 0 311 -299v-438z"/>
<glyph glyph-name="guillemotleft" horiz-adv-x="1190" unicode="«" d="M651 201h-268l-330 336l330 344h266l-334 -344zM1137 201h-269l-327 336l327 344h269l-334 -344z"/>
<glyph glyph-name="logicalnot" horiz-adv-x="1448" unicode="¬" d="M1212 266h-202v389h-772v203h974v-592z"/>
<glyph glyph-name="sfthyphen" horiz-adv-x="828" unicode="­" d="M690 436h-547v221h547v-221z"/>
<glyph glyph-name="registered" horiz-adv-x="1790" unicode="®" d="M774 1010v-230h111q139 0 139 119q0 111 -160 111h-90zM1288 264h-254l-76 232q-40 122 -110 122h-74v-354h-211v922h320q370 0 370 -262q0 -189 -217 -244v-4q90 -20 142 -146zM897 1346q-275 0 -454 -180t-179 -449q0 -272 181.5 -450.5t451.5 -178.5q265 0 448 179.5 t183 447.5q0 272 -180 451.5t-451 179.5zM893 -25q-333 0 -547.5 207t-214.5 531q0 317 220.5 531t549.5 214q328 0 544 -208.5t216 -532.5q0 -317 -221.5 -529.5t-546.5 -212.5z"/>
<glyph glyph-name="uni00AF" horiz-adv-x="850" unicode="¯" d="M850 1396h-850v120h850v-120z"/>
<glyph glyph-name="degree" horiz-adv-x="778" unicode="°" d="M399 1307q-54 0 -91.5 -37.5t-37.5 -91.5t37.5 -92.5t91.5 -38.5q53 0 91 38.5t38 92.5t-37.5 91.5t-91.5 37.5zM399 895q-119 0 -201.5 82.5t-82.5 200.5t82.5 199t201.5 81q118 0 201.5 -81t83.5 -199t-83.5 -200.5t-201.5 -82.5z"/>
<glyph glyph-name="plusminus" horiz-adv-x="1448" unicode="±" d="M1210 0h-972v203h972v-203zM1212 694h-385v-387h-202v387h-383v203h383v391h202v-391h385v-203z"/>
<glyph glyph-name="twosuperior" horiz-adv-x="828" unicode="²" d="M721 884h-604v157l248 234q77 73 95.5 110t18.5 82q0 42 -28.5 69.5t-75.5 27.5q-98 0 -211 -103v215q118 78 250 78q136 0 215.5 -68.5t79.5 -189.5q0 -70 -37.5 -141t-179.5 -197l-105 -92v-4h334v-178z"/>
<glyph glyph-name="threesuperior" horiz-adv-x="828" unicode="³" d="M131 916v181q107 -68 221 -68q150 0 150 102q0 103 -172 103h-117v166h113q149 0 149 96q0 90 -119 90q-107 0 -198 -65v176q99 57 239 57q134 0 211.5 -60.5t77.5 -160.5q0 -147 -143 -195v-4q172 -41 172 -198q0 -123 -98 -198t-257 -75q-133 0 -229 53z"/>
<glyph glyph-name="acute" horiz-adv-x="621" unicode="´" d="M596 1509l-313 -323h-228l260 323h281z"/>
<glyph glyph-name="mu1" horiz-adv-x="1255" unicode="µ" d="M1161 0h-324q-25 70 -25 154h-4q-57 -177 -216 -177q-97 0 -140 64h-3v-436h-316v1419h316v-589q0 -207 170 -207q184 0 184 254v542h319v-710q0 -236 39 -314z"/>
<glyph glyph-name="paragraph" horiz-adv-x="1043" unicode="¶" d="M946 1272h-117v-1272h-174v1272h-118v-1272h-177v836q-115 7 -191.5 92t-76.5 211q0 129 85.5 212t211.5 83h557v-162z"/>
<glyph glyph-name="periodcentered" horiz-adv-x="555" unicode="·" d="M274 487q-78 0 -130 48t-52 118q0 72 53.5 118t133.5 46q81 0 132.5 -46.5t51.5 -117.5q0 -73 -52.5 -119.5t-136.5 -46.5z"/>
<glyph glyph-name="cedilla" horiz-adv-x="441" unicode="¸" d="M51 -451v138q35 -6 72 -6q123 0 123 73q0 66 -111 66q-13 0 -37 -2v182h172v-82q187 -8 187 -166q0 -207 -318 -207q-46 0 -88 4z"/>
<glyph glyph-name="onesuperior" horiz-adv-x="807" unicode="¹" d="M721 884h-563v172h176v477l-191 -41v180l406 82v-698h172v-172z"/>
<glyph glyph-name="ordmasculine" horiz-adv-x="934" unicode="º" d="M465 1280q-164 0 -164 -203q0 -207 164 -207q160 0 160 209q0 201 -160 201zM459 696q-185 0 -287 99.5t-102 277.5q0 179 108.5 280t292.5 101q181 0 284 -101.5t103 -265.5q0 -184 -106.5 -287.5t-292.5 -103.5z"/>
<glyph glyph-name="guillemotright" horiz-adv-x="1190" unicode="»" d="M651 537l-329 -336h-269l336 336l-334 344h267zM1137 537l-328 -336h-268l333 336l-331 344h266z"/>
<glyph glyph-name="onequarter" horiz-adv-x="1950" unicode="¼" d="M676 584h-563v172h176v477l-191 -41v180l406 82v-698h172v-172zM1505 1434l-891 -1434h-244l891 1434h244zM1526 678h-8q-14 -36 -39 -76l-168 -271h211v263q0 47 4 84zM1845 176h-110v-176h-213v176h-395v141l350 533h258v-519h110v-155z"/>
<glyph glyph-name="onehalf" horiz-adv-x="1977" unicode="½" d="M676 584h-563v172h176v477l-191 -41v180l406 82v-698h172v-172zM1506 1434l-891 -1434h-244l891 1434h244zM1843 0h-604v157l248 234q77 73 95.5 110t18.5 82q0 42 -28.5 69.5t-75.5 27.5q-98 0 -211 -103v215q118 78 250 78q136 0 215.5 -68.5t79.5 -189.5 q0 -70 -37.5 -141t-179.5 -197l-105 -92v-4h334v-178z"/>
<glyph glyph-name="threequarters" horiz-adv-x="2005" unicode="¾" d="M131 616v181q107 -68 221 -68q150 0 150 102q0 103 -172 103h-117v166h113q149 0 149 96q0 90 -119 90q-107 0 -198 -65v176q99 57 239 57q134 0 211.5 -60.5t77.5 -160.5q0 -147 -143 -195v-4q172 -41 172 -198q0 -123 -98 -198t-257 -75q-133 0 -229 53zM1565 1434 l-891 -1434h-244l891 1434h244zM1573 678h-8q-14 -36 -39 -76l-168 -271h211v263q0 47 4 84zM1892 176h-110v-176h-213v176h-395v141l350 533h258v-519h110v-155z"/>
<glyph glyph-name="questiondown" horiz-adv-x="897" unicode="¿" d="M501 1049q81 0 133 -48q53 -50 53 -118q0 -70 -53 -117t-133 -47q-79 0 -131 47q-52 46 -52 117q0 73 51 119q52 47 132 47zM647 611q10 -26 15.5 -58.5t5.5 -61.5q0 -46 -9 -84t-27 -71.5t-45 -64t-63 -60.5q-37 -32 -66 -59.5t-49 -55t-30 -57t-10 -65.5 q0 -31 11 -57.5t31.5 -45.5t50 -30t65.5 -11q78 0 162 32.5t159 98.5v-301q-77 -46 -168 -69t-188 -23q-93 0 -173 20.5t-139.5 64.5t-93 112.5t-33.5 164.5q0 61 14 110.5t41 93.5t67 84.5t92 83.5q35 29 61.5 54t44 49.5t26.5 52t9 62.5q0 24 -6.5 49t-17.5 42h263z"/>
<glyph glyph-name="Agrave" horiz-adv-x="1440" unicode="À" d="M897 567l-154 482q-17 54 -24 129h-8q-5 -63 -25 -125l-156 -486h367zM1425 0h-352l-102 319h-510l-101 -319h-350l522 1434h383zM916 1567h-227l-314 323h281z"/>
<glyph glyph-name="Aacute" horiz-adv-x="1440" unicode="Á" d="M897 567l-154 482q-17 54 -24 129h-8q-5 -63 -25 -125l-156 -486h367zM1425 0h-352l-102 319h-510l-101 -319h-350l522 1434h383zM1036 1890l-313 -323h-228l260 323h281z"/>
<glyph glyph-name="Acircumflex" horiz-adv-x="1440" unicode="Â" d="M897 567l-154 482q-17 54 -24 129h-8q-5 -63 -25 -125l-156 -486h367zM1425 0h-352l-102 319h-510l-101 -319h-350l522 1434h383zM1078 1567h-207l-158 188l-147 -188h-207l235 325h248z"/>
<glyph glyph-name="Atilde" horiz-adv-x="1440" unicode="Ã" d="M897 567l-154 482q-17 54 -24 129h-8q-5 -63 -25 -125l-156 -486h367zM1425 0h-352l-102 319h-510l-101 -319h-350l522 1434h383zM1077 1878q0 -140 -55.5 -216.5t-151.5 -76.5q-86 0 -168 43q-89 47 -123 47q-80 0 -80 -108h-141q0 139 55 216t154 77q81 0 168 -49 q79 -44 120 -44q78 0 78 111h144z"/>
<glyph glyph-name="Adieresis" horiz-adv-x="1440" unicode="Ä" d="M897 567l-154 482q-17 54 -24 129h-8q-5 -63 -25 -125l-156 -486h367zM1425 0h-352l-102 319h-510l-101 -319h-350l522 1434h383zM487 1567q-68 0 -111 39.5t-43 97.5q0 60 44 98.5t110 38.5q68 0 110.5 -38.5t42.5 -98.5q0 -61 -42.5 -99t-110.5 -38zM945 1567 q-67 0 -110 39t-43 98q0 61 43 99t110 38t110.5 -38.5t43.5 -98.5t-43 -98.5t-111 -38.5z"/>
<glyph glyph-name="Aring" horiz-adv-x="1440" unicode="Å" d="M893 584l-152 465q-13 40 -22 120h-8q-7 -68 -23 -116l-153 -469h358zM719 1645q-47 0 -75 -28.5t-28 -70.5q0 -98 103 -98q48 0 77 28.5t29 69.5q0 43 -29.5 71t-76.5 28zM1425 0h-352l-102 319h-510l-101 -319h-350l512 1407q-53 54 -53 137q0 106 73.5 169t180.5 63 q114 0 184 -63.5t70 -164.5q0 -80 -53 -137z"/>
<glyph glyph-name="AE" horiz-adv-x="1915" unicode="Æ" d="M991 567v604h-78l-282 -604h360zM1849 0h-858v319h-471l-147 -319h-375l725 1434h1094v-263h-504v-319h469v-262h-469v-328h536v-262z"/>
<glyph glyph-name="Ccedilla" horiz-adv-x="1278" unicode="Ç" d="M1192 51q-157 -76 -410 -76q-330 0 -519 194t-189 517q0 344 212.5 558t551.5 214q210 0 354 -53v-311q-144 86 -328 86q-202 0 -326 -127t-124 -344q0 -208 117 -331.5t315 -123.5q189 0 346 92v-295zM610 -451v138q35 -6 72 -6q123 0 123 73q0 66 -111 66q-13 0 -37 -2 v182h172v-82q187 -8 187 -166q0 -207 -318 -207q-46 0 -88 4z"/>
<glyph glyph-name="Egrave" horiz-adv-x="1090" unicode="È" d="M1024 0h-860v1434h827v-263h-504v-319h469v-262h-469v-328h537v-262zM766 1567h-227l-314 323h281z"/>
<glyph glyph-name="Eacute" horiz-adv-x="1090" unicode="É" d="M1024 0h-860v1434h827v-263h-504v-319h469v-262h-469v-328h537v-262zM934 1890l-313 -323h-228l260 323h281z"/>
<glyph glyph-name="Ecircumflex" horiz-adv-x="1090" unicode="Ê" d="M1024 0h-860v1434h827v-263h-504v-319h469v-262h-469v-328h537v-262zM932 1567h-207l-158 188l-147 -188h-207l235 325h248z"/>
<glyph glyph-name="Edieresis" horiz-adv-x="1090" unicode="Ë" d="M1024 0h-860v1434h827v-263h-504v-319h469v-262h-469v-328h537v-262zM354 1567q-68 0 -111 39.5t-43 97.5q0 60 44 98.5t110 38.5q68 0 110.5 -38.5t42.5 -98.5q0 -61 -42.5 -99t-110.5 -38zM812 1567q-67 0 -110 39t-43 98q0 61 43 99t110 38t110.5 -38.5t43.5 -98.5 t-43 -98.5t-111 -38.5z"/>
<glyph glyph-name="Igrave" horiz-adv-x="649" unicode="Ì" d="M607 1434v-250h-120v-934h120v-250h-563v250h120v934h-120v250h563zM532 1567h-227l-314 323h281z"/>
<glyph glyph-name="Iacute" horiz-adv-x="649" unicode="Í" d="M607 1434v-250h-120v-934h120v-250h-563v250h120v934h-120v250h563zM651 1890l-313 -323h-228l260 323h281z"/>
<glyph glyph-name="Icircumflex" horiz-adv-x="649" unicode="Î" d="M607 1434v-250h-120v-934h120v-250h-563v250h120v934h-120v250h563zM691 1567h-207l-158 188l-147 -188h-207l235 325h248z"/>
<glyph glyph-name="Idieresis" horiz-adv-x="649" unicode="Ï" d="M607 1434v-250h-120v-934h120v-250h-563v250h120v934h-120v250h563zM101 1567q-68 0 -111 39.5t-43 97.5q0 60 44 98.5t110 38.5q68 0 110.5 -38.5t42.5 -98.5q0 -61 -42.5 -99t-110.5 -38zM559 1567q-67 0 -110 39t-43 98q0 61 43 99t110 38t110.5 -38.5t43.5 -98.5 t-43 -98.5t-111 -38.5z"/>
<glyph glyph-name="Eth" horiz-adv-x="1510" unicode="Ð" d="M487 1171v-319h271v-266h-271v-324h160q210 0 329.5 126t119.5 343q0 205 -118.5 322.5t-332.5 117.5h-158zM164 0v586h-164v266h164v582h508q764 0 764 -699q0 -335 -208.5 -535t-555.5 -200h-508z"/>
<glyph glyph-name="Ntilde" horiz-adv-x="1618" unicode="Ñ" d="M1454 0h-326l-591 901q-52 79 -72 119h-4q8 -76 8 -232v-788h-305v1434h348l569 -873q39 -59 72 -117h4q-8 50 -8 197v793h305v-1434zM1206 1878q0 -140 -55.5 -216.5t-151.5 -76.5q-86 0 -168 43q-89 47 -123 47q-80 0 -80 -108h-141q0 139 55 216t154 77q81 0 168 -49 q79 -44 120 -44q78 0 78 111h144z"/>
<glyph glyph-name="Ograve" horiz-adv-x="1552" unicode="Ò" d="M784 1180q-170 0 -270 -127.5t-100 -337.5q0 -213 100 -337t262 -124q167 0 265 120.5t98 334.5q0 223 -95 347t-260 124zM770 -25q-308 0 -502 200.5t-194 522.5q0 340 197 550t522 210q307 0 496.5 -201t189.5 -530q0 -338 -196.5 -545t-512.5 -207zM971 1567h-227 l-314 323h281z"/>
<glyph glyph-name="Oacute" horiz-adv-x="1552" unicode="Ó" d="M784 1180q-170 0 -270 -127.5t-100 -337.5q0 -213 100 -337t262 -124q167 0 265 120.5t98 334.5q0 223 -95 347t-260 124zM770 -25q-308 0 -502 200.5t-194 522.5q0 340 197 550t522 210q307 0 496.5 -201t189.5 -530q0 -338 -196.5 -545t-512.5 -207zM1110 1890 l-313 -323h-228l260 323h281z"/>
<glyph glyph-name="Ocircumflex" horiz-adv-x="1552" unicode="Ô" d="M784 1180q-170 0 -270 -127.5t-100 -337.5q0 -213 100 -337t262 -124q167 0 265 120.5t98 334.5q0 223 -95 347t-260 124zM770 -25q-308 0 -502 200.5t-194 522.5q0 340 197 550t522 210q307 0 496.5 -201t189.5 -530q0 -338 -196.5 -545t-512.5 -207zM1149 1567h-207 l-158 188l-147 -188h-207l235 325h248z"/>
<glyph glyph-name="Otilde" horiz-adv-x="1552" unicode="Õ" d="M784 1180q-170 0 -270 -127.5t-100 -337.5q0 -213 100 -337t262 -124q167 0 265 120.5t98 334.5q0 223 -95 347t-260 124zM770 -25q-308 0 -502 200.5t-194 522.5q0 340 197 550t522 210q307 0 496.5 -201t189.5 -530q0 -338 -196.5 -545t-512.5 -207zM1147 1878 q0 -140 -55.5 -216.5t-151.5 -76.5q-86 0 -168 43q-89 47 -123 47q-80 0 -80 -108h-141q0 139 55 216t154 77q81 0 168 -49q79 -44 120 -44q78 0 78 111h144z"/>
<glyph glyph-name="Odieresis" horiz-adv-x="1552" unicode="Ö" d="M784 1180q-170 0 -270 -127.5t-100 -337.5q0 -213 100 -337t262 -124q167 0 265 120.5t98 334.5q0 223 -95 347t-260 124zM770 -25q-308 0 -502 200.5t-194 522.5q0 340 197 550t522 210q307 0 496.5 -201t189.5 -530q0 -338 -196.5 -545t-512.5 -207zM546 1567 q-68 0 -111 39.5t-43 97.5q0 60 44 98.5t110 38.5q68 0 110.5 -38.5t42.5 -98.5q0 -61 -42.5 -99t-110.5 -38zM1004 1567q-67 0 -110 39t-43 98q0 61 43 99t110 38t110.5 -38.5t43.5 -98.5t-43 -98.5t-111 -38.5z"/>
<glyph glyph-name="multiply" horiz-adv-x="1448" unicode="×" d="M1210 248l-145 -144l-338 340l-340 -340l-145 146l340 336l-340 340l141 145l344 -340l342 340l139 -151l-338 -334z"/>
<glyph glyph-name="Oslash" horiz-adv-x="1553" unicode="Ø" d="M1110 995l-578 -676q101 -92 244 -92q175 0 281 128.5t106 351.5q0 164 -53 288zM1016 1130q-97 76 -232 76q-181 0 -287 -136.5t-106 -360.5q0 -146 47 -252zM348 109l-143 -170l-125 104l149 176q-155 192 -155 479q0 340 196.5 550t522.5 210q234 0 401 -119l129 150 l125 -103l-135 -157q166 -196 166 -502q0 -338 -196.5 -545t-512.5 -207q-240 0 -422 134z"/>
<glyph glyph-name="Ugrave" horiz-adv-x="1481" unicode="Ù" d="M1333 621q0 -646 -602 -646q-584 0 -584 631v828h324v-832q0 -348 272 -348q267 0 267 336v844h323v-813zM920 1567h-227l-314 323h281z"/>
<glyph glyph-name="Uacute" horiz-adv-x="1481" unicode="Ú" d="M1333 621q0 -646 -602 -646q-584 0 -584 631v828h324v-832q0 -348 272 -348q267 0 267 336v844h323v-813zM1088 1890l-313 -323h-228l260 323h281z"/>
<glyph glyph-name="Ucircumflex" horiz-adv-x="1481" unicode="Û" d="M1333 621q0 -646 -602 -646q-584 0 -584 631v828h324v-832q0 -348 272 -348q267 0 267 336v844h323v-813zM1099 1567h-207l-158 188l-147 -188h-207l235 325h248z"/>
<glyph glyph-name="Udieresis" horiz-adv-x="1481" unicode="Ü" d="M1333 621q0 -646 -602 -646q-584 0 -584 631v828h324v-832q0 -348 272 -348q267 0 267 336v844h323v-813zM511 1567q-68 0 -111 39.5t-43 97.5q0 60 44 98.5t110 38.5q68 0 110.5 -38.5t42.5 -98.5q0 -61 -42.5 -99t-110.5 -38zM969 1567q-67 0 -110 39t-43 98 q0 61 43 99t110 38t110.5 -38.5t43.5 -98.5t-43 -98.5t-111 -38.5z"/>
<glyph glyph-name="Yacute" horiz-adv-x="1243" unicode="Ý" d="M1245 1434l-467 -924v-510h-323v504l-455 930h369l231 -535q6 -15 33 -117h4q13 72 31 113l235 539h342zM903 1857l-313 -323h-228l260 323h281z"/>
<glyph glyph-name="Thorn" horiz-adv-x="1258" unicode="Þ" d="M487 975v-447h127q258 0 258 226q0 221 -258 221h-127zM487 281v-281h-323v1434h323v-211h183q542 0 542 -457q0 -216 -155.5 -350.5t-415.5 -134.5h-154z"/>
<glyph glyph-name="germandbls" horiz-adv-x="1286" unicode="ß" d="M545 8v262q83 -53 176 -53q83 0 132.5 52.5t49.5 144.5q0 116 -89 183.5t-251 72.5v221q111 8 172.5 68t61.5 159q0 84 -44.5 132t-119.5 48q-184 0 -184 -245v-1053h-316v1049q0 223 137 357t381 134q217 0 343 -109.5t126 -281.5q0 -122 -71.5 -214t-184.5 -126v-4 q363 -69 363 -399q0 -180 -126.5 -305.5t-342.5 -125.5q-105 0 -213 33z"/>
<glyph glyph-name="agrave" d="M688 416v69l-186 -24q-154 -20 -154 -139q0 -54 37.5 -88.5t101.5 -34.5q89 0 145 61.5t56 155.5zM985 0h-299v147h-4q-103 -172 -305 -172q-149 0 -234.5 84.5t-85.5 225.5q0 298 353 344l278 37q0 168 -182 168q-183 0 -348 -109v238q66 34 180.5 60t208.5 26 q438 0 438 -437v-612zM775 1186h-227l-314 323h281z" unicode="à"/>
<glyph glyph-name="aacute" d="M688 416v69l-186 -24q-154 -20 -154 -139q0 -54 37.5 -88.5t101.5 -34.5q89 0 145 61.5t56 155.5zM985 0h-299v147h-4q-103 -172 -305 -172q-149 0 -234.5 84.5t-85.5 225.5q0 298 353 344l278 37q0 168 -182 168q-183 0 -348 -109v238q66 34 180.5 60t208.5 26 q438 0 438 -437v-612zM891 1509l-313 -323h-228l260 323h281z" unicode="á"/>
<glyph glyph-name="acircumflex" d="M688 416v69l-186 -24q-154 -20 -154 -139q0 -54 37.5 -88.5t101.5 -34.5q89 0 145 61.5t56 155.5zM985 0h-299v147h-4q-103 -172 -305 -172q-149 0 -234.5 84.5t-85.5 225.5q0 298 353 344l278 37q0 168 -182 168q-183 0 -348 -109v238q66 34 180.5 60t208.5 26 q438 0 438 -437v-612zM914 1186h-207l-158 188l-147 -188h-207l235 325h248z" unicode="â"/>
<glyph glyph-name="atilde" d="M688 416v69l-186 -24q-154 -20 -154 -139q0 -54 37.5 -88.5t101.5 -34.5q89 0 145 61.5t56 155.5zM985 0h-299v147h-4q-103 -172 -305 -172q-149 0 -234.5 84.5t-85.5 225.5q0 298 353 344l278 37q0 168 -182 168q-183 0 -348 -109v238q66 34 180.5 60t208.5 26 q438 0 438 -437v-612zM907 1497q0 -140 -55.5 -216.5t-151.5 -76.5q-86 0 -168 43q-89 47 -123 47q-80 0 -80 -108h-141q0 139 55 216t154 77q81 0 168 -49q79 -44 120 -44q78 0 78 111h144z" unicode="ã"/>
<glyph glyph-name="adieresis" d="M688 416v69l-186 -24q-154 -20 -154 -139q0 -54 37.5 -88.5t101.5 -34.5q89 0 145 61.5t56 155.5zM985 0h-299v147h-4q-103 -172 -305 -172q-149 0 -234.5 84.5t-85.5 225.5q0 298 353 344l278 37q0 168 -182 168q-183 0 -348 -109v238q66 34 180.5 60t208.5 26 q438 0 438 -437v-612zM329 1186q-68 0 -111 39.5t-43 97.5q0 60 44 98.5t110 38.5q68 0 110.5 -38.5t42.5 -98.5q0 -61 -42.5 -99t-110.5 -38zM787 1186q-67 0 -110 39t-43 98q0 61 43 99t110 38t110.5 -38.5t43.5 -98.5t-43 -98.5t-111 -38.5z" unicode="ä"/>
<glyph glyph-name="aring" d="M688 416v69l-186 -24q-154 -20 -154 -139q0 -54 37.5 -88.5t101.5 -34.5q89 0 145 61.5t56 155.5zM985 0h-299v147h-4q-103 -172 -305 -172q-149 0 -234.5 84.5t-85.5 225.5q0 298 353 344l278 37q0 168 -182 168q-183 0 -348 -109v238q66 34 180.5 60t208.5 26 q438 0 438 -437v-612zM573 1499q-96 0 -96 -94t96 -94q45 0 74 27.5t29 66.5q0 41 -28.5 67.5t-74.5 26.5zM573 1186q-102 0 -168.5 59.5t-66.5 155.5q0 101 69.5 161t170.5 60q107 0 173 -59.5t66 -155.5q0 -98 -71.5 -159.5t-172.5 -61.5z" unicode="å"/>
<glyph glyph-name="ae" horiz-adv-x="1696" unicode="æ" d="M686 414v45l-156 -13q-184 -15 -184 -131q0 -50 39 -83t102 -33q86 0 142.5 59.5t56.5 155.5zM1348 616q0 220 -177 220q-75 0 -131.5 -62t-66.5 -158h375zM1640 422h-667q20 -223 282 -223q160 0 297 80v-226q-156 -78 -378 -78q-269 0 -398 179h-4q-141 -179 -362 -179 q-166 0 -259.5 82.5t-93.5 229.5q0 146 96.5 234t276.5 102l256 20q0 191 -184 191q-174 0 -344 -107v236q187 86 370 86q234 0 324 -134h4q132 134 326 134q214 0 336 -133t122 -365v-129z"/>
<glyph glyph-name="ccedilla" horiz-adv-x="983" unicode="ç" d="M909 37q-107 -62 -309 -62q-236 0 -382 143t-146 369q0 261 156.5 411.5t418.5 150.5q181 0 262 -48v-268q-99 74 -221 74q-136 0 -215.5 -79.5t-79.5 -219.5q0 -136 76 -213.5t209 -77.5q118 0 231 74v-254zM426 -451v138q35 -6 72 -6q123 0 123 73q0 66 -111 66 q-13 0 -37 -2v182h172v-82q187 -8 187 -166q0 -207 -318 -207q-46 0 -88 4z"/>
<glyph glyph-name="egrave" horiz-adv-x="1108" unicode="è" d="M760 616q0 220 -178 220q-76 0 -131.5 -63t-67.5 -157h377zM1053 422h-668q16 -223 281 -223q169 0 297 80v-228q-142 -76 -369 -76q-248 0 -385 137.5t-137 383.5q0 255 148 404t364 149q224 0 346.5 -133t122.5 -361v-133zM795 1186h-227l-314 323h281z"/>
<glyph glyph-name="eacute" horiz-adv-x="1108" unicode="é" d="M760 616q0 220 -178 220q-76 0 -131.5 -63t-67.5 -157h377zM1053 422h-668q16 -223 281 -223q169 0 297 80v-228q-142 -76 -369 -76q-248 0 -385 137.5t-137 383.5q0 255 148 404t364 149q224 0 346.5 -133t122.5 -361v-133zM921 1509l-313 -323h-228l260 323h281z"/>
<glyph glyph-name="ecircumflex" horiz-adv-x="1108" unicode="ê" d="M760 616q0 220 -178 220q-76 0 -131.5 -63t-67.5 -157h377zM1053 422h-668q16 -223 281 -223q169 0 297 80v-228q-142 -76 -369 -76q-248 0 -385 137.5t-137 383.5q0 255 148 404t364 149q224 0 346.5 -133t122.5 -361v-133zM949 1186h-207l-158 188l-147 -188h-207 l235 325h248z"/>
<glyph glyph-name="edieresis" horiz-adv-x="1108" unicode="ë" d="M760 616q0 220 -178 220q-76 0 -131.5 -63t-67.5 -157h377zM1053 422h-668q16 -223 281 -223q169 0 297 80v-228q-142 -76 -369 -76q-248 0 -385 137.5t-137 383.5q0 255 148 404t364 149q224 0 346.5 -133t122.5 -361v-133zM350 1186q-68 0 -111 39.5t-43 97.5 q0 60 44 98.5t110 38.5q68 0 110.5 -38.5t42.5 -98.5q0 -61 -42.5 -99t-110.5 -38zM808 1186q-67 0 -110 39t-43 98q0 61 43 99t110 38t110.5 -38.5t43.5 -98.5t-43 -98.5t-111 -38.5z"/>
<glyph glyph-name="igrave" horiz-adv-x="582" unicode="ì" d="M449 0h-316v1024h316v-1024zM514 1186h-227l-314 323h281z"/>
<glyph glyph-name="iacute" horiz-adv-x="582" unicode="í" d="M449 0h-316v1024h316v-1024zM612 1509l-313 -323h-228l260 323h281z"/>
<glyph glyph-name="icircumflex" horiz-adv-x="582" unicode="î" d="M449 0h-316v1024h316v-1024zM657 1186h-207l-158 188l-147 -188h-207l235 325h248z"/>
<glyph glyph-name="idieresis" horiz-adv-x="582" unicode="ï" d="M449 0h-316v1024h316v-1024zM68 1186q-68 0 -111 39.5t-43 97.5q0 60 44 98.5t110 38.5q68 0 110.5 -38.5t42.5 -98.5q0 -61 -42.5 -99t-110.5 -38zM526 1186q-67 0 -110 39t-43 98q0 61 43 99t110 38t110.5 -38.5t43.5 -98.5t-43 -98.5t-111 -38.5z"/>
<glyph glyph-name="eth" horiz-adv-x="1215" unicode="ð" d="M612 807q-103 0 -161 -78.5t-58 -214.5q0 -140 57 -218.5t158 -78.5q98 0 155.5 81.5t57.5 221.5q0 287 -209 287zM756 965l4 2q-84 147 -195 237l-291 -143l-81 141l241 115q-157 125 -270 199h352q11 -6 131 -97l273 133l77 -137l-215 -104q361 -291 361 -748 q0 -260 -150 -424t-395 -164q-248 0 -387 144.5t-139 394.5q0 231 132.5 378.5t346.5 147.5q117 0 205 -75z"/>
<glyph glyph-name="ntilde" horiz-adv-x="1239" unicode="ñ" d="M1122 0h-315v569q0 238 -170 238q-82 0 -135 -63t-53 -160v-584h-316v1024h316v-162h4q113 187 329 187q340 0 340 -422v-627zM982 1497q0 -140 -55.5 -216.5t-151.5 -76.5q-86 0 -168 43q-89 47 -123 47q-80 0 -80 -108h-141q0 139 55 216t154 77q81 0 168 -49 q79 -44 120 -44q78 0 78 111h144z"/>
<glyph glyph-name="ograve" horiz-adv-x="1251" unicode="ò" d="M629 807q-112 0 -174 -77t-62 -218q0 -295 238 -295q227 0 227 303q0 287 -229 287zM621 -25q-256 0 -402.5 143.5t-146.5 389.5q0 254 152 397.5t411 143.5q255 0 400 -143.5t145 -379.5q0 -255 -149.5 -403t-409.5 -148zM852 1186h-227l-314 323h281z"/>
<glyph glyph-name="oacute" horiz-adv-x="1251" unicode="ó" d="M629 807q-112 0 -174 -77t-62 -218q0 -295 238 -295q227 0 227 303q0 287 -229 287zM621 -25q-256 0 -402.5 143.5t-146.5 389.5q0 254 152 397.5t411 143.5q255 0 400 -143.5t145 -379.5q0 -255 -149.5 -403t-409.5 -148zM968 1509l-313 -323h-228l260 323h281z"/>
<glyph glyph-name="ocircumflex" horiz-adv-x="1251" unicode="ô" d="M629 807q-112 0 -174 -77t-62 -218q0 -295 238 -295q227 0 227 303q0 287 -229 287zM621 -25q-256 0 -402.5 143.5t-146.5 389.5q0 254 152 397.5t411 143.5q255 0 400 -143.5t145 -379.5q0 -255 -149.5 -403t-409.5 -148zM988 1186h-207l-158 188l-147 -188h-207 l235 325h248z"/>
<glyph glyph-name="otilde" horiz-adv-x="1251" unicode="õ" d="M629 807q-112 0 -174 -77t-62 -218q0 -295 238 -295q227 0 227 303q0 287 -229 287zM621 -25q-256 0 -402.5 143.5t-146.5 389.5q0 254 152 397.5t411 143.5q255 0 400 -143.5t145 -379.5q0 -255 -149.5 -403t-409.5 -148zM985 1497q0 -140 -55.5 -216.5t-151.5 -76.5 q-86 0 -168 43q-89 47 -123 47q-80 0 -80 -108h-141q0 139 55 216t154 77q81 0 168 -49q79 -44 120 -44q78 0 78 111h144z"/>
<glyph glyph-name="odieresis" horiz-adv-x="1251" unicode="ö" d="M629 807q-112 0 -174 -77t-62 -218q0 -295 238 -295q227 0 227 303q0 287 -229 287zM621 -25q-256 0 -402.5 143.5t-146.5 389.5q0 254 152 397.5t411 143.5q255 0 400 -143.5t145 -379.5q0 -255 -149.5 -403t-409.5 -148zM401 1186q-68 0 -111 39.5t-43 97.5 q0 60 44 98.5t110 38.5q68 0 110.5 -38.5t42.5 -98.5q0 -61 -42.5 -99t-110.5 -38zM859 1186q-67 0 -110 39t-43 98q0 61 43 99t110 38t110.5 -38.5t43.5 -98.5t-43 -98.5t-111 -38.5z"/>
<glyph glyph-name="divide" horiz-adv-x="1448" unicode="÷" d="M727 47q-59 0 -100 39t-41 96q0 62 39.5 104t101.5 42t99.5 -40.5t37.5 -103.5q0 -61 -40 -99t-97 -38zM1212 485h-974v203h974v-203zM731 846q-59 0 -100 40t-41 97q0 62 39.5 103.5t101.5 41.5t99.5 -40t37.5 -103q0 -61 -40.5 -100t-96.5 -39z"/>
<glyph glyph-name="oslash" horiz-adv-x="1252" unicode="ø" d="M862 651l-393 -409q61 -45 160 -45q252 0 252 323q0 74 -19 131zM772 791q-56 40 -141 40q-258 0 -258 -317q0 -73 18 -121zM1206 1010l-139 -146q113 -143 113 -338q0 -259 -148 -404t-411 -145q-198 0 -328 86l-135 -141l-119 107l137 143q-104 141 -104 338 q0 253 152.5 397t412.5 144q179 0 311 -82l139 147z"/>
<glyph glyph-name="ugrave" horiz-adv-x="1239" unicode="ù" d="M1106 0h-315v156h-5q-117 -181 -313 -181q-356 0 -356 431v618h315v-590q0 -217 172 -217q85 0 136 59.5t51 161.5v586h315v-1024zM784 1186h-227l-314 323h281z"/>
<glyph glyph-name="uacute" horiz-adv-x="1239" unicode="ú" d="M1106 0h-315v156h-5q-117 -181 -313 -181q-356 0 -356 431v618h315v-590q0 -217 172 -217q85 0 136 59.5t51 161.5v586h315v-1024zM977 1509l-313 -323h-228l260 323h281z"/>
<glyph glyph-name="ucircumflex" horiz-adv-x="1239" unicode="û" d="M1106 0h-315v156h-5q-117 -181 -313 -181q-356 0 -356 431v618h315v-590q0 -217 172 -217q85 0 136 59.5t51 161.5v586h315v-1024zM970 1186h-207l-158 188l-147 -188h-207l235 325h248z"/>
<glyph glyph-name="udieresis" horiz-adv-x="1239" unicode="ü" d="M1106 0h-315v156h-5q-117 -181 -313 -181q-356 0 -356 431v618h315v-590q0 -217 172 -217q85 0 136 59.5t51 161.5v586h315v-1024zM386 1186q-68 0 -111 39.5t-43 97.5q0 60 44 98.5t110 38.5q68 0 110.5 -38.5t42.5 -98.5q0 -61 -42.5 -99t-110.5 -38zM844 1186 q-67 0 -110 39t-43 98q0 61 43 99t110 38t110.5 -38.5t43.5 -98.5t-43 -98.5t-111 -38.5z"/>
<glyph glyph-name="yacute" d="M1108 1024l-416 -1106q-150 -399 -452 -399q-115 0 -189 26v252q63 -37 137 -37q122 0 170 115l54 127l-416 1022h350l191 -623q18 -58 28 -137h4q9 58 33 135l193 625h313zM834 1509l-313 -323h-228l260 323h281z" unicode="ý"/>
<glyph glyph-name="thorn" horiz-adv-x="1270" unicode="þ" d="M444 539v-82q0 -106 56 -173t147 -67q108 0 167.5 83.5t59.5 236.5q0 270 -210 270q-97 0 -158.5 -73.5t-61.5 -194.5zM453 119h-4v-590h-316v1987h316v-646h4q117 179 329 179q199 0 307.5 -136.5t108.5 -371.5q0 -256 -126.5 -411t-336.5 -155q-185 0 -282 144z"/>
<glyph glyph-name="dotlessi" horiz-adv-x="582" unicode="ı" d="M449 0h-316v1024h316v-1024z"/>
<glyph glyph-name="OE" horiz-adv-x="1925" unicode="Œ" d="M991 305v823q-86 52 -209 52q-168 0 -267 -129.5t-99 -339.5q0 -208 101 -332.5t261 -124.5q116 0 213 51zM1860 0h-828q-26 0 -117 -12q-90 -13 -157 -13q-307 0 -495.5 203t-188.5 520q0 342 194 551t516 209q63 0 151 -12q89 -12 109 -12h783v-263h-504v-323h469v-264 h-469v-322h537v-262z"/>
<glyph glyph-name="oe" horiz-adv-x="1893" unicode="œ" d="M631 807q-113 0 -175.5 -77.5t-62.5 -217.5q0 -293 236 -293q229 0 229 297q0 138 -59.5 214.5t-167.5 76.5zM1542 616q0 220 -174 220q-80 0 -135 -63.5t-66 -156.5h375zM1837 422h-670q14 -223 283 -223q167 0 295 80v-228q-142 -76 -346 -76q-252 0 -391 189h-4 q-137 -187 -408 -187q-234 0 -379 143t-145 388q0 251 147 397t389 146q134 0 238.5 -49.5t154.5 -127.5h5q118 175 376 175q213 0 334 -134t121 -358v-135z"/>
<glyph glyph-name="Scaron" horiz-adv-x="1148" unicode="Š" d="M98 55v320q87 -73 189 -109.5t206 -36.5q61 0 106.5 11t76 30.5t45.5 46t15 57.5q0 42 -24 75t-65.5 61t-98.5 54t-123 53q-168 70 -250.5 171t-82.5 244q0 112 45 192.5t122.5 132.5t179.5 76.5t216 24.5q112 0 198.5 -13.5t159.5 -41.5v-299q-36 25 -78.5 44 t-87.5 31.5t-89.5 18.5t-84.5 6q-55 0 -100 -10.5t-76 -29.5t-48 -45.5t-17 -59.5q0 -36 19 -64.5t54 -54t85 -50t113 -50.5q86 -36 154.5 -76.5t117.5 -91.5t75 -116.5t26 -152.5q0 -120 -45.5 -201.5t-123.5 -132t-181.5 -72.5t-218.5 -22q-118 0 -224.5 20t-184.5 60z M973 1861l-238 -325h-248l-235 325h205l155 -188l156 188h205z"/>
<glyph glyph-name="scaron" horiz-adv-x="901" unicode="š" d="M66 27v256q78 -47 155.5 -70t146.5 -23q84 0 132.5 23t48.5 70q0 30 -22 50t-56.5 35t-75.5 27t-79 27q-61 23 -107.5 49.5t-78 61.5t-48 81t-16.5 109q0 86 37.5 148t100 101.5t143 58t167.5 18.5q68 0 138 -10.5t138 -30.5v-244q-60 35 -128.5 52.5t-134.5 17.5 q-31 0 -58.5 -5.5t-48.5 -16t-33 -27t-12 -37.5q0 -28 18 -48t47 -34.5t64.5 -26t70.5 -23.5q63 -22 114 -48t87.5 -61t56 -82t19.5 -112q0 -91 -39.5 -155.5t-105 -105t-151 -59t-177.5 -18.5q-169 0 -313 52zM811 1511l-238 -325h-248l-235 325h205l155 -188l156 188h205z "/>
<glyph glyph-name="Ydieresis" horiz-adv-x="1243" unicode="Ÿ" d="M1245 1434l-467 -924v-510h-323v504l-455 930h369l231 -535q6 -15 33 -117h4q13 72 31 113l235 539h342zM400 1567q-68 0 -111 39.5t-43 97.5q0 60 44 98.5t110 38.5q68 0 110.5 -38.5t42.5 -98.5q0 -61 -42.5 -99t-110.5 -38zM858 1567q-67 0 -110 39t-43 98q0 61 43 99 t110 38t110.5 -38.5t43.5 -98.5t-43 -98.5t-111 -38.5z"/>
<glyph glyph-name="uni0190" horiz-adv-x="1143" unicode="Ɛ" d="M1071 43q-168 -68 -379 -68q-294 0 -454 110.5t-160 311.5q0 132 76 225.5t213 129.5v6q-240 77 -240 301q0 184 155.5 291.5t426.5 107.5q181 0 338 -61v-283q-149 66 -318 66q-264 0 -264 -158t303 -158h119v-268h-129q-177 0 -258.5 -39t-81.5 -133q0 -170 301 -170 q194 0 352 74v-285z"/>
<glyph glyph-name="uni019F" horiz-adv-x="1553" unicode="Ɵ" d="M1130 594h-704q26 -160 120 -250t230 -90q142 0 235.5 89t118.5 251zM1128 838q-26 164 -115.5 253t-228.5 89q-142 0 -236 -91t-122 -251h702zM770 -25q-308 0 -502 200.5t-194 522.5q0 340 197 550t522 210q307 0 496.5 -201t189.5 -530q0 -338 -196.5 -545 t-512.5 -207z"/>
<glyph glyph-name="uni0275" horiz-adv-x="1241" unicode="ɵ" d="M844 416h-447q38 -199 228 -199q182 0 219 199zM844 610q-36 197 -221 197q-186 0 -226 -197h447zM614 -25q-253 0 -397.5 142.5t-144.5 390.5q0 254 150 397.5t409 143.5q254 0 396 -143t142 -380q0 -256 -147.5 -403.5t-407.5 -147.5z"/>
<glyph glyph-name="uni0292" horiz-adv-x="1016" unicode="ʒ" d="M-23 -389v274q157 -125 355 -125q164 0 255 65.5t91 182.5q0 115 -94 179.5t-262 64.5h-125v131l350 408h-537v233h914v-156l-363 -413q205 -32 319.5 -146t114.5 -293q0 -219 -183 -358t-462 -139q-208 0 -373 92z"/>
<glyph glyph-name="circumflex" horiz-adv-x="785" unicode="ˆ" d="M750 1186h-207l-158 188l-147 -188h-207l235 325h248z"/>
<glyph glyph-name="caron" horiz-adv-x="785" unicode="ˇ" d="M754 1511l-238 -325h-248l-235 325h205l155 -188l156 188h205z"/>
<glyph glyph-name="macron" horiz-adv-x="690" unicode="ˉ" d="M637 1186h-586v172h586v-172z"/>
<glyph glyph-name="breve" horiz-adv-x="709" unicode="˘" d="M692 1493q-12 -141 -102.5 -224t-237.5 -83q-146 0 -238 85.5t-96 221.5h179q17 -135 159 -135q137 0 156 135h180z"/>
<glyph glyph-name="ring" horiz-adv-x="555" unicode="˚" d="M274 1499q-96 0 -96 -94t96 -94q45 0 74 27.5t29 66.5q0 41 -28.5 67.5t-74.5 26.5zM274 1186q-102 0 -168.5 59.5t-66.5 155.5q0 101 69.5 161t170.5 60q107 0 173 -59.5t66 -155.5q0 -98 -71.5 -159.5t-172.5 -61.5z"/>
<glyph glyph-name="tilde" horiz-adv-x="785" unicode="˜" d="M754 1497q0 -140 -55.5 -216.5t-151.5 -76.5q-86 0 -168 43q-89 47 -123 47q-80 0 -80 -108h-141q0 139 55 216t154 77q81 0 168 -49q79 -44 120 -44q78 0 78 111h144z"/>
<glyph glyph-name="hungarumlaut" horiz-adv-x="832" unicode="˝" d="M492 1505l-248 -319h-211l211 319h248zM870 1505l-252 -319h-210l213 319h249z"/>
<glyph glyph-name="uni02F5" horiz-adv-x="890" unicode="˵" d="M496 377h-211l-252 319h250zM870 377h-211l-247 319h247z"/>
<glyph glyph-name="Alpha" horiz-adv-x="1440" unicode="Α" d="M897 567l-154 482q-17 54 -24 129h-8q-5 -63 -25 -125l-156 -486h367zM1425 0h-352l-102 319h-510l-101 -319h-350l522 1434h383z"/>
<glyph glyph-name="Beta" horiz-adv-x="1313" unicode="Β" d="M487 616v-378h175q112 0 175.5 52t63.5 142q0 86 -62.5 135t-174.5 49h-177zM487 1196v-340h142q100 0 157.5 48.5t57.5 133.5q0 158 -236 158h-121zM164 0v1434h522q240 0 369 -88t129 -248q0 -116 -78.5 -203t-200.5 -121v-4q153 -19 244.5 -113t91.5 -229 q0 -197 -141 -312.5t-385 -115.5h-551z"/>
<glyph glyph-name="Gamma" horiz-adv-x="1048" unicode="Γ" d="M1019 1168h-532v-1168h-323v1434h855v-266z"/>
<glyph glyph-name="Delta" horiz-adv-x="1440" unicode="Δ" d="M994 262l-253 764q-28 85 -34 143h-8q-7 -65 -32 -141l-255 -766h582zM1379 0h-1343v125l486 1309h382l475 -1309v-125z"/>
<glyph glyph-name="Epsilon" horiz-adv-x="1090" unicode="Ε" d="M1024 0h-860v1434h827v-263h-504v-319h469v-262h-469v-328h537v-262z"/>
<glyph glyph-name="Zeta" horiz-adv-x="1243" unicode="Ζ" d="M1196 0h-1155v186l735 985h-682v263h1100v-181l-719 -991h721v-262z"/>
<glyph glyph-name="Eta" horiz-adv-x="1569" unicode="Η" d="M1405 0h-324v584h-594v-584h-323v1434h323v-572h594v572h324v-1434z"/>
<glyph glyph-name="Theta" horiz-adv-x="1553" unicode="Θ" d="M1004 594h-453v244h453v-244zM784 1179q-170 0 -269.5 -126.5t-99.5 -336.5q0 -213 99.5 -337t261.5 -124q166 0 264 120t98 334q0 223 -94.5 346.5t-259.5 123.5zM771 -25q-308 0 -502.5 200.5t-194.5 522.5q0 340 196.5 550t521.5 210q307 0 497 -201t190 -530 q0 -338 -196.5 -545t-511.5 -207z"/>
<glyph glyph-name="Iota" horiz-adv-x="649" unicode="Ι" d="M607 1434v-250h-120v-934h120v-250h-563v250h120v934h-120v250h563z"/>
<glyph glyph-name="Kappa" horiz-adv-x="1329" unicode="Κ" d="M1356 0h-408l-418 623q-12 18 -38 79h-5v-702h-323v1434h323v-678h5q12 28 40 80l396 598h385l-500 -684z"/>
<glyph glyph-name="Lambda" horiz-adv-x="1419" unicode="Λ" d="M1401 0h-352l-313 1039q-18 60 -27 135h-7q-7 -58 -29 -131l-315 -1043h-347l507 1434h393z"/>
<glyph glyph-name="Mu" horiz-adv-x="1960" unicode="Μ" d="M1798 0h-319v858q0 139 12 307h-8q-25 -132 -45 -190l-336 -975h-264l-342 965q-14 39 -45 200h-9q13 -212 13 -372v-793h-291v1434h473l293 -850q35 -102 51 -205h6q27 119 57 207l293 848h461v-1434z"/>
<glyph glyph-name="Nu" horiz-adv-x="1618" unicode="Ν" d="M1454 0h-326l-591 901q-52 79 -72 119h-4q8 -76 8 -232v-788h-305v1434h348l569 -873q39 -59 72 -117h4q-8 50 -8 197v793h305v-1434z"/>
<glyph glyph-name="Xi" horiz-adv-x="1134" unicode="Ξ" d="M1074 0h-1014v270h1014v-270zM905 589h-677v264h677v-264zM1050 1166h-967v268h967v-268z"/>
<glyph glyph-name="Omicron" horiz-adv-x="1553" unicode="Ο" d="M784 1180q-170 0 -270 -127.5t-100 -337.5q0 -213 100 -337t262 -124q167 0 265 120.5t98 334.5q0 223 -95 347t-260 124zM770 -25q-308 0 -502 200.5t-194 522.5q0 340 197 550t522 210q307 0 496.5 -201t189.5 -530q0 -338 -196.5 -545t-512.5 -207z"/>
<glyph glyph-name="Pi" horiz-adv-x="1567" unicode="Π" d="M1404 0h-323v1152h-594v-1152h-323v1434h1240v-1434z"/>
<glyph glyph-name="Rho" horiz-adv-x="1258" unicode="Ρ" d="M487 1186v-447h127q258 0 258 226q0 221 -258 221h-127zM487 494v-494h-323v1434h506q542 0 542 -457q0 -216 -155.5 -349.5t-415.5 -133.5h-154z"/>
<glyph glyph-name="Sigma" horiz-adv-x="1165" unicode="Σ" d="M1125 0h-1083v172l462 554l-437 523v185h996v-265h-540l353 -429l-384 -480h633v-260z"/>
<glyph glyph-name="Tau" horiz-adv-x="1200" unicode="Τ" d="M1171 1171h-409v-1171h-324v1171h-407v263h1140v-263z"/>
<glyph glyph-name="Upsilon" horiz-adv-x="1243" unicode="Υ" d="M1245 1434l-467 -924v-510h-323v504l-455 930h369l231 -535q6 -15 33 -117h4q13 72 31 113l235 539h342z"/>
<glyph glyph-name="Phi" horiz-adv-x="1670" unicode="Φ" d="M687 424v637h-18q-127 0 -203 -88t-76 -228q0 -148 75.5 -234.5t202.5 -86.5h19zM985 1061v-637h19q126 0 201.5 87.5t75.5 235.5q0 141 -75.5 227.5t-201.5 86.5h-19zM985 178v-198h-300v198h-23q-259 0 -423 161.5t-164 410.5q0 243 167 398t421 155h22v149h300v-150 h23q257 0 421.5 -153t164.5 -393q0 -250 -166 -414t-421 -164h-22z"/>
<glyph glyph-name="Chi" horiz-adv-x="1342" unicode="Χ" d="M1335 0h-383l-247 467q-14 26 -29 96h-4q-7 -33 -33 -100l-248 -463h-385l457 717l-418 717h393l205 -430q24 -51 43 -121h4q12 42 45 125l228 426h360l-430 -711z"/>
<glyph glyph-name="Psi" horiz-adv-x="1692" unicode="Ψ" d="M1558 895q0 -240 -152.5 -389t-396.5 -152h-23v-354h-280v354h-24q-234 0 -391.5 147.5t-157.5 392.5v540h285v-517q0 -293 263 -294h25v811h280v-811h24q263 0 263 294v517h285v-539z"/>
<glyph glyph-name="alpha" horiz-adv-x="1304" unicode="α" d="M795 526q-58 283 -203 283q-95 0 -149 -88t-54 -219q0 -125 43.5 -203.5t126.5 -78.5q142 0 221 259zM863 214q-123 -239 -371 -239q-195 0 -307 141t-112 367q0 245 130 405.5t349 160.5q247 0 334 -211h5l56 186h319l-221 -519q38 -142 78.5 -204.5t93.5 -62.5 q47 0 79 16l-4 -242q-66 -27 -151 -27q-110 0 -174.5 53.5t-97.5 175.5h-6z"/>
<glyph glyph-name="beta" horiz-adv-x="1274" unicode="β" d="M563 670v221q104 7 167.5 68t63.5 159q0 82 -44 129t-119 47q-182 0 -182 -236v-774q107 -66 218 -66q215 0 215 204q0 236 -319 248zM449 25v-499h-316v1522q0 221 134 354.5t365 133.5q225 0 353.5 -105.5t128.5 -282.5q0 -120 -69.5 -211t-185.5 -128v-4 q161 -32 253 -136.5t92 -256.5q0 -195 -135 -315.5t-358 -120.5q-135 0 -262 49z"/>
<glyph glyph-name="gamma" horiz-adv-x="1161" unicode="γ" d="M689 -74q0 -321 -4 -407h-322q19 205 19 501q-33 183 -163.5 497t-246.5 507h366q212 -416 279 -747h4q174 312 174 602q0 64 -12 145h309q7 -66 7 -107q0 -223 -81.5 -442t-328.5 -549z"/>
<glyph glyph-name="delta" horiz-adv-x="1253" unicode="δ" d="M623 791q-101 -34 -165.5 -117t-64.5 -191q0 -120 63.5 -193t171.5 -73q107 0 168.5 73t61.5 192q0 183 -235 309zM425 932q-204 125 -204 308q0 136 120 216t316 80q169 0 375 -77v-298q-196 133 -351 133q-138 0 -138 -86q0 -41 48 -80.5t220 -132.5q369 -198 369 -501 q0 -236 -149.5 -377.5t-413.5 -141.5q-248 0 -396.5 139t-148.5 345q0 341 353 473z"/>
<glyph glyph-name="epsilon" horiz-adv-x="948" unicode="ε" d="M883 254v-233q-155 -46 -366 -46q-213 0 -331.5 78t-118.5 219q0 198 230 253v5q-82 21 -137.5 84t-55.5 147q0 137 112.5 212.5t320.5 75.5q167 0 302 -41v-232q-145 60 -259 60q-154 0 -154 -100q0 -117 205 -117q68 0 117 7v-208q-54 6 -146 6q-214 0 -214 -120 q0 -116 199 -116q143 0 296 66z"/>
<glyph glyph-name="zeta" horiz-adv-x="953" unicode="ζ" d="M860 -309h-339q116 80 116 172q0 51 -53 86.5t-188 72.5q-330 79 -330 434q0 362 522 827v4h-384v229h690v-231q-505 -470 -505 -790q0 -101 54 -164t186 -101q178 -53 249 -130t71 -189q0 -123 -89 -220z"/>
<glyph glyph-name="eta" horiz-adv-x="1252" unicode="η" d="M1122 -474h-319v1015q0 238 -167 238q-83 0 -135 -61t-52 -157v-561h-316v676q0 262 -41 348h324q31 -63 31 -164h5q113 189 330 189q340 0 340 -422v-1101z"/>
<glyph glyph-name="theta" horiz-adv-x="1253" unicode="θ" d="M854 650h-458q21 -431 233 -431q205 0 225 431zM854 878q-22 415 -227 415q-204 0 -230 -415h457zM620 -25q-257 0 -402.5 205.5t-145.5 574.5t149.5 575.5t414.5 206.5q260 0 402 -204t142 -557q0 -377 -147 -589t-413 -212z"/>
<glyph glyph-name="iota" horiz-adv-x="672" unicode="ι" d="M653 14q-71 -33 -185 -33q-314 0 -314 335v708h316v-661q0 -130 88 -130q45 0 95 23v-242z"/>
<glyph glyph-name="kappa" horiz-adv-x="1168" unicode="κ" d="M1168 0h-368l-261 421l-90 -93v-328h-316v1024h316v-422l189 237q159 200 306 200q92 0 137 -13v-257q-36 13 -89 13q-68 0 -158 -95l-73 -77z"/>
<glyph glyph-name="lambda" horiz-adv-x="1124" unicode="λ" d="M1103 0h-332l-198 708l-229 -708h-339l445 1016l-38 106q-46 127 -152 127q-69 0 -141 -37v271q80 27 198 27q146 0 241.5 -80.5t163.5 -285.5z"/>
<glyph glyph-name="mu" horiz-adv-x="1284" unicode="μ" d="M811 162q-61 -185 -233 -185q-78 0 -123 42h-3l-3 -414h-316v1419h316v-589q0 -207 170 -207q184 0 184 254v542h319l-1 -619q0 -84 19.5 -125.5t69.5 -41.5q21 0 56 10l-1 -240q-86 -24 -184 -24q-226 0 -266 178h-4z"/>
<glyph glyph-name="nu" horiz-adv-x="1134" unicode="ν" d="M670 0h-285l-409 1024h336l263 -770q174 220 174 491q0 79 -19 164t-41 115h316q39 -70 39 -242q0 -357 -374 -782z"/>
<glyph glyph-name="xi" horiz-adv-x="978" unicode="ξ" d="M875 -309h-340q117 75 117 164q0 38 -22 64t-59.5 41t-126.5 34q-380 78 -380 400q0 142 95 255t256 161q-98 40 -151 98.5t-53 123.5q0 157 252 250v5h-308v229h713v-222q-175 -35 -273.5 -102t-98.5 -157q0 -57 48 -99t127 -58q21 0 173 8v-252q-52 4 -143 4 q-136 0 -225 -55t-89 -154q0 -152 223 -199q196 -41 275 -113t79 -192q0 -127 -89 -234z"/>
<glyph glyph-name="omicron" horiz-adv-x="1252" unicode="ο" d="M629 807q-112 0 -174 -77t-62 -218q0 -295 238 -295q227 0 227 303q0 287 -229 287zM621 -25q-256 0 -402.5 143.5t-146.5 389.5q0 254 152 397.5t411 143.5q255 0 400 -143.5t145 -379.5q0 -255 -149.5 -403t-409.5 -148z"/>
<glyph glyph-name="pi" horiz-adv-x="1418" unicode="π" d="M1352 791h-222v-414q0 -144 87 -144q45 0 94 23v-242q-82 -32 -176 -32q-320 0 -320 342v467h-248v-480q0 -211 -41 -311h-321q47 121 47 328v463q-121 -2 -242 -84v254q87 63 246 63h1096v-233z"/>
<glyph glyph-name="rho" horiz-adv-x="1266" unicode="ρ" d="M446 307q83 -90 198 -90q228 0 228 296q0 128 -62.5 211t-161.5 83q-202 0 -202 -266v-234zM450 70h-4v-465h-317v903q0 257 135 399t392 142q248 0 393 -142.5t145 -386.5q0 -248 -126.5 -396.5t-339.5 -148.5q-169 0 -278 95z"/>
<glyph glyph-name="sigma1" horiz-adv-x="999" unicode="ς" d="M866 -309h-332q117 81 117 172q0 99 -201 142q-180 39 -279.5 151.5t-99.5 281.5q0 276 168.5 443.5t410.5 167.5q161 0 261 -50v-268q-99 76 -221 76q-126 0 -211 -97t-85 -244q0 -92 52 -147.5t194 -90.5q315 -77 315 -316q0 -128 -89 -221z"/>
<glyph glyph-name="sigma" horiz-adv-x="1256" unicode="σ" d="M722 796h-72q-255 0 -255 -299q0 -130 57 -205t151 -75q93 0 144.5 78t51.5 216q0 161 -77 285zM1238 796h-225q108 -137 108 -318q0 -231 -137.5 -367t-377.5 -136q-246 0 -390 144.5t-144 390.5q0 250 140.5 382t408.5 132h617v-228z"/>
<glyph glyph-name="tau" horiz-adv-x="1125" unicode="τ" d="M1076 796h-359v-433q0 -130 106 -130q53 0 106 22v-241q-76 -33 -206 -33q-323 0 -323 335v480h-86q-149 0 -280 -102v251q93 79 307 79h735v-228z"/>
<glyph glyph-name="upsilon" horiz-adv-x="1271" unicode="υ" d="M156 667q0 76 -20.5 103t-59.5 27q-24 0 -55 -9l-1 228q65 27 175 27q144 0 210.5 -67.5t66.5 -247.5v-246q0 -255 202 -255q95 0 141 58.5t46 184.5q0 285 -119 554h329q108 -247 108 -550q0 -236 -136 -367.5t-378 -131.5q-240 0 -374.5 123t-134.5 346v223z"/>
<glyph glyph-name="phi" horiz-adv-x="1538" unicode="φ" d="M908 216h25q104 0 168 79t64 220q0 136 -45 214.5t-117 78.5q-95 0 -95 -118v-474zM908 -25v-456h-285v456h-20q-244 0 -387.5 145.5t-143.5 389.5q0 304 171 514h328q-83 -79 -141.5 -222t-58.5 -279q0 -143 64.5 -225t169.5 -82h18v455q0 182 97.5 280t277.5 98 q220 0 344 -145t124 -408q0 -235 -145.5 -378t-391.5 -143h-21z"/>
<glyph glyph-name="chi" horiz-adv-x="1135" unicode="χ" d="M1135 -458q-49 -21 -145 -21q-114 0 -193.5 72.5t-154.5 249.5l-96 228l-239 -534h-334l438 801l-128 296q-72 166 -145 166q-48 0 -100 -26v255q47 20 153 20q109 0 179.5 -53.5t122.5 -180.5l88 -217l178 426h337l-375 -690l167 -376q54 -121 86.5 -153.5t73.5 -32.5 q46 0 87 22v-252z"/>
<glyph glyph-name="psi" horiz-adv-x="1620" unicode="ψ" d="M1498 559q0 -269 -142.5 -426t-377.5 -157h-26v-457h-285v457h-26q-235 0 -377.5 157t-142.5 426v465h296v-465q0 -161 64.5 -250t170.5 -89h15v1111h285v-1111h15q106 0 170.5 89t64.5 250v465h296v-465z"/>
<glyph glyph-name="uni03D1" horiz-adv-x="1434" unicode="ϑ" d="M969 1008q-26 288 -164 288q-36 0 -58 -25.5t-22 -60.5q0 -80 66.5 -135t177.5 -67zM1475 821q-78 -25 -181 -43q-9 -370 -190.5 -586.5t-491.5 -216.5q-235 0 -360 105t-125 301q0 68 21 190q20 122 20 170q0 66 -66 66q-40 0 -102 -27v240q84 29 178 29 q146 0 225.5 -76.5t79.5 -208.5q0 -48 -20 -169q-21 -121 -21 -192q0 -84 52 -135t137 -51q152 0 245.5 146t100.5 399q-258 18 -406.5 137.5t-148.5 306.5q0 145 104 238.5t277 93.5q419 0 481 -522q100 18 191 55v-250z"/>
<glyph glyph-name="uni03D2" horiz-adv-x="1266" unicode="ϒ" d="M1307 1159q-50 21 -93 21q-96 0 -172 -150l-264 -526v-504h-323v504l-455 930h369l231 -535q6 -15 33 -117h4q7 38 33 117l116 250q75 162 166 235.5t219 73.5q71 0 136 -24v-275z"/>
<glyph glyph-name="uni03D6" horiz-adv-x="1800" unicode="ϖ" d="M1325 795h-815q-55 -154 -55 -314q0 -254 159 -254q156 0 156 242v211h295v-211q0 -240 156 -240q157 0 157 254q0 160 -53 312zM1790 795h-180q67 -165 67 -324q0 -234 -117.5 -365t-326.5 -131q-220 0 -315 177h-5q-98 -177 -315 -177q-207 0 -323.5 133t-116.5 365 q0 155 67 322q-148 0 -245 -84v241q97 72 268 72h1542v-229z"/>
<glyph glyph-name="uni0400" horiz-adv-x="1090" unicode="Ѐ" d="M1024 0h-860v1434h827v-263h-504v-319h469v-262h-469v-328h537v-262zM852 1535h-227l-314 323h281z"/>
<glyph glyph-name="uni0401" horiz-adv-x="1090" unicode="Ё" d="M1024 0h-860v1434h827v-263h-504v-319h469v-262h-469v-328h537v-262zM379 1534q-68 0 -111 39.5t-43 97.5q0 60 44 98.5t110 38.5q68 0 110.5 -38.5t42.5 -98.5q0 -61 -42.5 -99t-110.5 -38zM837 1534q-67 0 -110 39t-43 98q0 61 43 99t110 38t110.5 -38.5t43.5 -98.5 t-43 -98.5t-111 -38.5z"/>
<glyph glyph-name="uni0402" horiz-adv-x="1545" unicode="Ђ" d="M872 14v236q63 -29 134 -29q69 0 111 50.5t42 136.5q0 219 -248 219h-178v-627h-323v1169h-379v265h1140v-265h-438v-305h232q235 0 370 -121.5t135 -332.5q0 -200 -106 -312t-299 -112q-123 0 -193 28z"/>
<glyph glyph-name="uni0403" horiz-adv-x="1048" unicode="Ѓ" d="M1018 1167h-531v-1167h-323v1434h854v-267zM924 1890l-313 -323h-228l260 323h281z"/>
<glyph glyph-name="uni0404" horiz-adv-x="1277" unicode="Є" d="M1190 51q-157 -76 -410 -76q-333 0 -519.5 194t-186.5 517q0 357 200 564.5t541 207.5q218 0 375 -53v-297q-151 86 -352 86q-174 0 -281 -92.5t-131 -261.5h553v-256h-551q21 -164 126.5 -254t279.5 -90q199 0 356 92v-281z"/>
<glyph glyph-name="uni0405" horiz-adv-x="1148" unicode="Ѕ" d="M98 55v320q87 -73 189 -109.5t206 -36.5q61 0 106.5 11t76 30.5t45.5 46t15 57.5q0 42 -24 75t-65.5 61t-98.5 54t-123 53q-168 70 -250.5 171t-82.5 244q0 112 45 192.5t122.5 132.5t179.5 76.5t216 24.5q112 0 198.5 -13.5t159.5 -41.5v-299q-36 25 -78.5 44 t-87.5 31.5t-89.5 18.5t-84.5 6q-55 0 -100 -10.5t-76 -29.5t-48 -45.5t-17 -59.5q0 -36 19 -64.5t54 -54t85 -50t113 -50.5q86 -36 154.5 -76.5t117.5 -91.5t75 -116.5t26 -152.5q0 -120 -45.5 -201.5t-123.5 -132t-181.5 -72.5t-218.5 -22q-118 0 -224.5 20t-184.5 60z "/>
<glyph glyph-name="uni0406" horiz-adv-x="649" unicode="І" d="M607 1434v-250h-120v-934h120v-250h-563v250h120v934h-120v250h563z"/>
<glyph glyph-name="uni0407" horiz-adv-x="649" unicode="Ї" d="M607 1434v-250h-120v-934h120v-250h-563v250h120v934h-120v250h563zM101 1534q-68 0 -111 39.5t-43 97.5q0 60 44 98.5t110 38.5q68 0 110.5 -38.5t42.5 -98.5q0 -61 -42.5 -99t-110.5 -38zM559 1534q-67 0 -110 39t-43 98q0 61 43 99t110 38t110.5 -38.5t43.5 -98.5 t-43 -98.5t-111 -38.5z"/>
<glyph glyph-name="uni0408" horiz-adv-x="912" unicode="Ј" d="M762 569q0 -288 -133.5 -441t-386.5 -153q-113 0 -209 39v303q83 -63 186 -63q221 0 221 328v852h322v-865z"/>
<glyph glyph-name="uni0409" horiz-adv-x="2118" unicode="Љ" d="M1331 641v-395h146q243 0 243 198q0 197 -237 197h-152zM1008 0v1165h-287q-32 -233 -72 -449t-76 -360.5t-70 -207.5t-78 -98.5t-99 -52.5t-123 -17q-100 0 -180 30v264q56 -28 106 -28q28 0 50.5 12.5t45.5 49t65.5 196.5t86 397.5t82.5 532.5h872v-549h211 q518 0 518 -418q0 -221 -140 -344t-394 -123h-518z"/>
<glyph glyph-name="uni040A" horiz-adv-x="2142" unicode="Њ" d="M1356 641v-393h147q242 0 242 201q0 192 -236 192h-153zM1034 0v606h-547v-606h-323v1434h323v-553h547v553h322v-541h213q516 0 516 -422q0 -224 -139.5 -347.5t-395.5 -123.5h-516z"/>
<glyph glyph-name="uni040B" horiz-adv-x="1637" unicode="Ћ" d="M1542 0h-321v360q0 228 -242 228h-217v-588h-324v1169h-407v265h1140v-265h-409v-309h274q248 0 377 -122t129 -353v-385z"/>
<glyph glyph-name="uni040C" horiz-adv-x="1329" unicode="Ќ" d="M1356 0h-408l-418 623q-12 18 -38 79h-5v-702h-323v1434h323v-678h5q12 28 40 80l396 598h385l-500 -684zM1047 1890l-313 -323h-228l260 323h281z"/>
<glyph glyph-name="uni040D" horiz-adv-x="1619" unicode="Ѝ" d="M1454 0h-305v788q0 136 10 232h-6q-21 -41 -72 -119l-592 -901h-325v1434h305v-793q0 -147 -8 -197h4q5 12 74 117l569 873h346v-1434zM1070 1535h-227l-314 323h281z"/>
<glyph glyph-name="uni040E" horiz-adv-x="1259" unicode="Ў" d="M1268 1434l-449 -983q-126 -276 -238 -376t-284 -100q-114 0 -186 33v295q82 -53 170 -53q121 0 213 196l-471 988h368l238 -574q21 -52 33 -117h2q11 54 34 113l230 578h340zM1083 1913q-18 -159 -137 -253t-295 -94q-179 0 -298 94t-128 253h230q5 -77 63 -126.5 t137 -49.5q78 0 135 50t63 126h230z"/>
<glyph glyph-name="uni040F" horiz-adv-x="1566" unicode="Џ" d="M1405 0h-482v-391h-284v391h-475v1434h323v-1158h594v1158h324v-1434z"/>
<glyph glyph-name="uni0410" horiz-adv-x="1440" unicode="А" d="M897 567l-154 482q-17 54 -24 129h-8q-5 -63 -25 -125l-156 -486h367zM1425 0h-352l-102 319h-510l-101 -319h-350l522 1434h383z"/>
<glyph glyph-name="uni0411" horiz-adv-x="1315" unicode="Б" d="M487 621v-385h189q227 0 227 198q0 187 -217 187h-199zM164 0v1434h923v-265h-600v-313h277q230 0 355.5 -106.5t125.5 -294.5q0 -216 -133.5 -335.5t-378.5 -119.5h-569z"/>
<glyph glyph-name="uni0412" horiz-adv-x="1313" unicode="В" d="M487 616v-378h175q112 0 175.5 52t63.5 142q0 86 -62.5 135t-174.5 49h-177zM487 1196v-340h142q100 0 157.5 48.5t57.5 133.5q0 158 -236 158h-121zM164 0v1434h522q240 0 369 -88t129 -248q0 -116 -78.5 -203t-200.5 -121v-4q153 -19 244.5 -113t91.5 -229 q0 -197 -141 -312.5t-385 -115.5h-551z"/>
<glyph glyph-name="uni0413" horiz-adv-x="1048" unicode="Г" d="M1018 1167h-531v-1167h-323v1434h854v-267z"/>
<glyph glyph-name="uni0414" horiz-adv-x="1587" unicode="Д" d="M985 264v901h-244q-11 -199 -76 -448t-161 -453h481zM1513 -391h-284v391h-910v-391h-280v655h133q278 503 307 1170h830v-1170h204v-655z"/>
<glyph glyph-name="uni0415" horiz-adv-x="1090" unicode="Е" d="M1024 0h-860v1434h827v-263h-504v-319h469v-262h-469v-328h537v-262z"/>
<glyph glyph-name="uni0416" horiz-adv-x="2033" unicode="Ж" d="M2042 0h-402l-423 618q-17 24 -39 72h-4v-690h-316v690h-4q-10 -23 -39 -72l-424 -618h-401l547 748l-506 686h385l399 -600q25 -38 39 -66h4v666h316v-666h4q14 29 39 66l399 600h385l-506 -686z"/>
<glyph glyph-name="uni0417" horiz-adv-x="1144" unicode="З" d="M72 53v283q171 -115 389 -115q270 0 270 195q0 198 -297 198h-184v242h176q264 0 264 186q0 170 -225 170q-161 0 -344 -102v264q184 84 407 84q235 0 364.5 -97.5t129.5 -264.5q0 -131 -73.5 -222.5t-209.5 -123.5v-5q153 -20 239.5 -110.5t86.5 -224.5 q0 -207 -150 -321t-432 -114q-268 0 -411 78z"/>
<glyph glyph-name="uni0418" horiz-adv-x="1619" unicode="И" d="M1454 0h-305v788q0 136 10 232h-6q-21 -41 -72 -119l-592 -901h-325v1434h305v-793q0 -147 -8 -197h4q5 12 74 117l569 873h346v-1434z"/>
<glyph glyph-name="uni0419" horiz-adv-x="1619" unicode="Й" d="M1454 0h-305v788q0 136 10 232h-6q-21 -41 -72 -119l-592 -901h-325v1434h305v-793q0 -147 -8 -197h4q5 12 74 117l569 873h346v-1434zM1251 1913q-18 -159 -137 -253t-295 -94q-179 0 -298 94t-128 253h230q5 -77 63 -126.5t137 -49.5q78 0 135 50t63 126h230z"/>
<glyph glyph-name="uni041A" horiz-adv-x="1329" unicode="К" d="M1356 0h-408l-418 623q-12 18 -38 79h-5v-702h-323v1434h323v-678h5q12 28 40 80l396 598h385l-500 -684z"/>
<glyph glyph-name="uni041B" horiz-adv-x="1495" unicode="Л" d="M1331 0h-323v1165h-287q-116 -824 -217 -1004.5t-307 -180.5q-87 0 -174 28v258q58 -20 100 -20q41 0 72.5 26t69.5 138t91.5 386.5t102.5 637.5h872v-1434z"/>
<glyph glyph-name="uni041C" horiz-adv-x="1960" unicode="М" d="M1798 0h-319v858q0 139 12 307h-8q-25 -132 -45 -190l-336 -975h-264l-342 965q-14 39 -45 200h-9q13 -212 13 -372v-793h-291v1434h473l293 -850q35 -102 51 -205h6q27 119 57 207l293 848h461v-1434z"/>
<glyph glyph-name="uni041D" horiz-adv-x="1569" unicode="Н" d="M1405 0h-324v584h-594v-584h-323v1434h323v-572h594v572h324v-1434z"/>
<glyph glyph-name="uni041E" horiz-adv-x="1553" unicode="О" d="M784 1180q-170 0 -270 -127.5t-100 -337.5q0 -213 100 -337t262 -124q167 0 265 120.5t98 334.5q0 223 -95 347t-260 124zM770 -25q-308 0 -502 200.5t-194 522.5q0 340 197 550t522 210q307 0 496.5 -201t189.5 -530q0 -338 -196.5 -545t-512.5 -207z"/>
<glyph glyph-name="uni041F" horiz-adv-x="1567" unicode="П" d="M1404 0h-323v1152h-594v-1152h-323v1434h1240v-1434z"/>
<glyph glyph-name="uni0420" horiz-adv-x="1258" unicode="Р" d="M487 1186v-447h127q258 0 258 226q0 221 -258 221h-127zM487 494v-494h-323v1434h506q542 0 542 -457q0 -216 -155.5 -349.5t-415.5 -133.5h-154z"/>
<glyph glyph-name="uni0421" horiz-adv-x="1278" unicode="С" d="M1192 51q-157 -76 -410 -76q-330 0 -519 194t-189 517q0 344 212.5 558t551.5 214q210 0 354 -53v-311q-144 86 -328 86q-202 0 -326 -127t-124 -344q0 -208 117 -331.5t315 -123.5q189 0 346 92v-295z"/>
<glyph glyph-name="uni0422" horiz-adv-x="1200" unicode="Т" d="M1171 1171h-409v-1171h-324v1171h-407v263h1140v-263z"/>
<glyph glyph-name="uni0423" horiz-adv-x="1259" unicode="У" d="M1268 1434l-449 -983q-126 -276 -238 -376t-284 -100q-114 0 -186 33v295q82 -53 170 -53q121 0 213 196l-471 988h368l238 -574q21 -52 33 -117h2q11 54 34 113l230 578h340z"/>
<glyph glyph-name="uni0424" horiz-adv-x="1718" unicode="Ф" d="M702 401v656h-18q-130 0 -206.5 -89t-76.5 -237q0 -150 75.5 -240t209.5 -90h16zM1016 1057v-656h14q134 0 210.5 90.5t76.5 239.5t-76.5 237.5t-208.5 88.5h-16zM1016 156v-164h-314v164h-34q-275 0 -436.5 162.5t-161.5 420.5q0 252 158.5 405.5t435.5 153.5h38v164 h314v-164h37q279 0 437.5 -153t158.5 -406q0 -258 -162 -420.5t-438 -162.5h-33z"/>
<glyph glyph-name="uni0425" horiz-adv-x="1342" unicode="Х" d="M1335 0h-383l-247 467q-14 26 -29 96h-4q-7 -33 -33 -100l-248 -463h-385l457 717l-418 717h393l205 -430q24 -51 43 -121h4q12 42 45 125l228 426h360l-430 -711z"/>
<glyph glyph-name="uni0426" horiz-adv-x="1682" unicode="Ц" d="M1610 -391h-284v391h-1162v1434h323v-1158h594v1158h324v-1158h205v-667z"/>
<glyph glyph-name="uni0427" horiz-adv-x="1487" unicode="Ч" d="M1315 0h-324v569q-201 -110 -407 -110q-445 0 -445 428v547h322v-519q0 -186 205 -186q162 0 325 98v607h324v-1434z"/>
<glyph glyph-name="uni0428" horiz-adv-x="2071" unicode="Ш" d="M1907 0h-1743v1434h323v-1158h387v1158h322v-1158h387v1158h324v-1434z"/>
<glyph glyph-name="uni0429" horiz-adv-x="2184" unicode="Щ" d="M2111 -391h-264v391h-1683v1434h323v-1158h387v1158h322v-1158h387v1158h324v-1158h204v-667z"/>
<glyph glyph-name="uni042A" horiz-adv-x="1551" unicode="Ъ" d="M762 653v-407h145q244 0 244 207q0 200 -238 200h-151zM438 0v1169h-407v265h731v-537h211q518 0 518 -422q0 -225 -140 -350t-395 -125h-518z"/>
<glyph glyph-name="uni042B" horiz-adv-x="1840" unicode="Ы" d="M487 653v-407h146q244 0 244 207q0 200 -238 200h-152zM164 0v1434h323v-537h211q519 0 519 -422q0 -225 -140 -350t-395 -125h-518zM1675 0h-321v1434h321v-1434z"/>
<glyph glyph-name="uni042C" horiz-adv-x="1276" unicode="Ь" d="M487 653v-407h146q244 0 244 207q0 200 -238 200h-152zM164 0v1434h323v-537h211q519 0 519 -422q0 -225 -140 -350t-395 -125h-518z"/>
<glyph glyph-name="uni042D" horiz-adv-x="1277" unicode="Э" d="M88 51v281q157 -92 354 -92q361 0 408 344h-553v256h555q-62 354 -408 354q-197 0 -356 -84v291q167 57 389 57q341 0 533 -196.5t192 -548.5q0 -333 -191 -535.5t-522 -202.5q-243 0 -401 76z"/>
<glyph glyph-name="uni042E" horiz-adv-x="2179" unicode="Ю" d="M1440 1180q-163 0 -252.5 -122t-89.5 -339q0 -226 85.5 -345.5t243.5 -119.5q159 0 247.5 118t88.5 337q0 225 -84.5 348t-238.5 123zM764 594h-277v-594h-323v1434h323v-570h283q45 275 225 434.5t449 159.5q298 0 479.5 -200t181.5 -531q0 -342 -188 -547t-496 -205 q-266 0 -445.5 168t-211.5 451z"/>
<glyph glyph-name="uni042F" horiz-adv-x="1311" unicode="Я" d="M823 799v389h-135q-227 0 -227 -189q0 -90 61.5 -145t165.5 -55h135zM1147 0h-324v557h-86q-120 0 -196 -182l-156 -375h-373l201 428q85 181 223 225v4q-317 75 -317 367q0 193 140 301.5t394 108.5h494v-1434z"/>
<glyph glyph-name="uni0430" d="M688 416v69l-186 -24q-154 -20 -154 -139q0 -54 37.5 -88.5t101.5 -34.5q89 0 145 61.5t56 155.5zM985 0h-299v147h-4q-103 -172 -305 -172q-149 0 -234.5 84.5t-85.5 225.5q0 298 353 344l278 37q0 168 -182 168q-183 0 -348 -109v238q66 34 180.5 60t208.5 26 q438 0 438 -437v-612z" unicode="а"/>
<glyph glyph-name="uni0431" horiz-adv-x="1247" unicode="б" d="M401 645q-2 -24 -2 -94q0 -153 61.5 -243.5t170.5 -90.5q99 0 161 76t62 203q0 129 -62.5 201.5t-168.5 72.5q-69 0 -130.5 -36t-91.5 -89zM1040 1540v-250q-48 -37 -128 -49q-225 -35 -269 -45q-91 -21 -132.5 -57t-68 -105t-36.5 -168h4q114 131 305 131 q218 0 339.5 -129.5t121.5 -357.5q0 -244 -149 -389.5t-404 -145.5q-267 0 -406 170t-139 492q0 154 23 278.5t69 220t113.5 159.5t138 93.5t138.5 44t341 56.5q90 23 139 51z"/>
<glyph glyph-name="uni0432" horiz-adv-x="1187" unicode="в" d="M449 430v-233h182q151 0 151 122q0 111 -155 111h-178zM449 831v-215h155q144 0 144 113q0 102 -136 102h-163zM133 0v1024h572q366 0 366 -250q0 -89 -57.5 -150.5t-149.5 -80.5q113 -14 177.5 -78.5t64.5 -157.5q0 -139 -99 -223t-272 -84h-602z"/>
<glyph glyph-name="uni0433" horiz-adv-x="840" unicode="г" d="M801 784h-352v-784h-316v1024h668v-240z"/>
<glyph glyph-name="uni0434" horiz-adv-x="1269" unicode="д" d="M741 223v580h-157q-23 -324 -168 -580h325zM1219 -373h-258v373h-689v-373h-254v596h91q217 340 229 801h719v-801h162v-596z"/>
<glyph glyph-name="uni0435" horiz-adv-x="1108" unicode="е" d="M760 616q0 220 -178 220q-76 0 -131.5 -63t-67.5 -157h377zM1053 422h-668q16 -223 281 -223q169 0 297 80v-228q-142 -76 -369 -76q-248 0 -385 137.5t-137 383.5q0 255 148 404t364 149q224 0 346.5 -133t122.5 -361v-133z"/>
<glyph glyph-name="uni0436" horiz-adv-x="1736" unicode="ж" d="M1731 0h-373l-330 512h-4v-512h-311v512h-4l-328 -512h-373l389 537l-379 487h371l320 -485h4v485h311v-485h4l320 485h370l-379 -487z"/>
<glyph glyph-name="uni0437" horiz-adv-x="984" unicode="з" d="M80 27v229q148 -68 295 -68q213 0 213 117q0 121 -232 121h-143v195h145q199 0 199 116q0 103 -178 103q-134 0 -268 -60v217q180 52 325 52q447 0 447 -277q0 -192 -238 -237v-5q126 -11 197 -76t71 -165q0 -309 -501 -309q-191 0 -332 47z"/>
<glyph glyph-name="uni0438" horiz-adv-x="1285" unicode="и" d="M1151 0h-287v670q-39 -79 -84 -146l-348 -524h-299v1024h289v-649q32 67 70 125l348 524h311v-1024z"/>
<glyph glyph-name="uni0439" horiz-adv-x="1285" unicode="й" d="M1151 0h-287v670q-39 -79 -84 -146l-348 -524h-299v1024h289v-649q32 67 70 125l348 524h311v-1024zM1077 1513q-18 -159 -137 -253t-295 -94q-179 0 -298 94t-128 253h230q5 -77 63 -126.5t137 -49.5q78 0 135 50t63 126h230z"/>
<glyph glyph-name="uni043A" horiz-adv-x="1145" unicode="к" d="M1155 0h-379l-323 500h-4v-500h-316v1024h316v-481h4l315 481h375l-377 -487z"/>
<glyph glyph-name="uni043B" horiz-adv-x="1235" unicode="л" d="M1102 0h-318v801h-174q-55 -465 -164.5 -639t-306.5 -174q-68 0 -123 20v215q35 -16 74 -16q94 0 156 175t112 642h744v-1024z"/>
<glyph glyph-name="uni043C" horiz-adv-x="1591" unicode="м" d="M1458 0h-295v797q-10 -56 -53 -189l-199 -608h-278l-199 608q-49 150 -53 187v-795h-248v1024h416l194 -584q45 -135 50 -182q7 45 51 180l192 586h422v-1024z"/>
<glyph glyph-name="uni043D" horiz-adv-x="1253" unicode="н" d="M1120 0h-317v428h-354v-428h-316v1024h316v-379h354v379h317v-1024z"/>
<glyph glyph-name="uni043E" horiz-adv-x="1252" unicode="о" d="M629 807q-112 0 -174 -77t-62 -218q0 -295 238 -295q227 0 227 303q0 287 -229 287zM621 -25q-256 0 -402.5 143.5t-146.5 389.5q0 254 152 397.5t411 143.5q255 0 400 -143.5t145 -379.5q0 -255 -149.5 -403t-409.5 -148z"/>
<glyph glyph-name="uni043F" horiz-adv-x="1253" unicode="п" d="M1120 0h-317v801h-354v-801h-316v1024h987v-1024z"/>
<glyph glyph-name="uni0440" horiz-adv-x="1270" unicode="р" d="M444 539v-82q0 -106 56 -173t147 -67q108 0 167.5 83.5t59.5 236.5q0 270 -210 270q-97 0 -158.5 -73.5t-61.5 -194.5zM453 119h-4v-590h-316v1495h316v-154h4q117 179 329 179q199 0 307.5 -136.5t108.5 -371.5q0 -256 -126.5 -411t-336.5 -155q-185 0 -282 144z"/>
<glyph glyph-name="uni0441" horiz-adv-x="983" unicode="с" d="M909 37q-107 -62 -309 -62q-236 0 -382 143t-146 369q0 261 156.5 411.5t418.5 150.5q181 0 262 -48v-268q-99 74 -221 74q-136 0 -215.5 -79.5t-79.5 -219.5q0 -136 76 -213.5t209 -77.5q118 0 231 74v-254z"/>
<glyph glyph-name="uni0442" horiz-adv-x="931" unicode="т" d="M899 784h-274v-784h-318v784h-276v240h868v-240z"/>
<glyph glyph-name="uni0443" d="M1108 1024l-416 -1106q-150 -399 -452 -399q-115 0 -189 26v252q63 -37 137 -37q122 0 170 115l54 127l-416 1022h350l191 -623q18 -58 28 -137h4q9 58 33 135l193 625h313z" unicode="у"/>
<glyph glyph-name="uni0444" horiz-adv-x="1606" unicode="ф" d="M655 211v602h-16q-117 0 -183.5 -81t-66.5 -224q0 -136 67.5 -216.5t186.5 -80.5h12zM950 813v-602h13q119 0 186.5 80.5t67.5 216.5q0 143 -66.5 224t-183.5 81h-17zM950 -12v-463h-295v463h-49q-250 0 -394 142t-144 378q0 243 143.5 385.5t396.5 142.5h47v430h295 v-430h45q255 0 399 -142t144 -386q0 -237 -144 -378.5t-395 -141.5h-49z"/>
<glyph glyph-name="uni0445" horiz-adv-x="1131" unicode="х" d="M1122 1024l-338 -496l336 -528h-364l-148 276q-18 33 -43 93h-4q-15 -42 -41 -90l-149 -279h-363l346 510l-325 514h366l146 -287q29 -57 41 -96h4q16 47 43 98l149 285h344z"/>
<glyph glyph-name="uni0446" horiz-adv-x="1334" unicode="ц" d="M1284 -373h-257v373h-894v1024h316v-801h354v801h317v-801h164v-596z"/>
<glyph glyph-name="uni0447" horiz-adv-x="1230" unicode="ч" d="M1096 0h-316v354q-161 -90 -311 -90q-348 0 -348 352v408h303v-358q0 -158 141 -158q100 0 215 61v455h316v-1024z"/>
<glyph glyph-name="uni0448" horiz-adv-x="1765" unicode="ш" d="M1632 0h-1499v1024h316v-801h274v801h317v-801h275v801h317v-1024z"/>
<glyph glyph-name="uni0449" horiz-adv-x="1846" unicode="щ" d="M1796 -373h-257v373h-1406v1024h316v-801h274v801h317v-801h275v801h317v-801h164v-596z"/>
<glyph glyph-name="uni044A" horiz-adv-x="1328" unicode="ъ" d="M633 467v-266h153q160 0 160 137q0 129 -155 129h-158zM315 0v784h-288v240h606v-358h268q175 0 272 -84.5t97 -237.5q0 -156 -96.5 -250t-266.5 -94h-592z"/>
<glyph glyph-name="uni044B" horiz-adv-x="1669" unicode="ы" d="M449 467v-266h153q160 0 160 137q0 129 -156 129h-157zM133 0v1024h316v-358h270q174 0 271 -84.5t97 -237.5q0 -157 -96 -250.5t-266 -93.5h-592zM1536 0h-317v1024h317v-1024z"/>
<glyph glyph-name="uni044C" horiz-adv-x="1145" unicode="ь" d="M449 467v-266h153q160 0 160 137q0 129 -156 129h-157zM133 0v1024h316v-358h270q174 0 271 -84.5t97 -237.5q0 -157 -96 -250.5t-266 -93.5h-592z"/>
<glyph glyph-name="uni044D" horiz-adv-x="981" unicode="э" d="M76 43v225q109 -73 246 -73q238 0 270 219h-381v186h383q-31 227 -279 227q-133 0 -231 -69v235q122 56 278 56q267 0 407 -139.5t140 -403.5q0 -236 -144 -383.5t-390 -147.5q-165 0 -299 68z"/>
<glyph glyph-name="uni044E" horiz-adv-x="1810" unicode="ю" d="M1194 807q-217 0 -217 -291q0 -299 221 -299q217 0 217 303q0 287 -221 287zM659 418h-210v-418h-316v1024h316v-381h219q38 193 179.5 299.5t354.5 106.5q253 0 394 -142t141 -381q0 -257 -145.5 -404t-403.5 -147q-228 0 -365.5 115.5t-163.5 327.5z"/>
<glyph glyph-name="uni044F" horiz-adv-x="1164" unicode="я" d="M719 571v252h-119q-164 0 -164 -125q0 -127 164 -127h119zM1032 0h-313v383h-72q-83 0 -151 -147l-109 -236h-352l149 291q68 132 191 168q-256 44 -256 266q0 299 438 299h475v-1024z"/>
<glyph glyph-name="uni0450" horiz-adv-x="1108" unicode="ѐ" d="M760 616q0 220 -178 220q-76 0 -131.5 -63t-67.5 -157h377zM1053 422h-668q16 -223 281 -223q169 0 297 80v-228q-142 -76 -369 -76q-248 0 -385 137.5t-137 383.5q0 255 148 404t364 149q224 0 346.5 -133t122.5 -361v-133zM825 1186h-227l-314 323h281z"/>
<glyph glyph-name="uni0451" horiz-adv-x="1108" unicode="ё" d="M760 616q0 220 -178 220q-76 0 -131.5 -63t-67.5 -157h377zM1053 422h-668q16 -223 281 -223q169 0 297 80v-228q-142 -76 -369 -76q-248 0 -385 137.5t-137 383.5q0 255 148 404t364 149q224 0 346.5 -133t122.5 -361v-133zM367 1186q-68 0 -111 39.5t-43 97.5 q0 60 44 98.5t110 38.5q68 0 110.5 -38.5t42.5 -98.5q0 -61 -42.5 -99t-110.5 -38zM825 1186q-67 0 -110 39t-43 98q0 61 43 99t110 38t110.5 -38.5t43.5 -98.5t-43 -98.5t-111 -38.5z"/>
<glyph glyph-name="uni0452" horiz-adv-x="1267" unicode="ђ" d="M535 -420v244q56 -37 110 -37q113 0 161 122.5t48 444.5q0 424 -180 424q-77 0 -133 -62.5t-56 -156.5v-559h-315v1179h-143v159h143v178h315v-178h330v-159h-330v-329h4q105 176 306 176q376 0 376 -664q0 -453 -120 -632t-385 -179q-66 0 -131 29z"/>
<glyph glyph-name="uni0453" horiz-adv-x="840" unicode="ѓ" d="M801 784h-352v-784h-316v1024h668v-240zM790 1509l-313 -323h-228l260 323h281z"/>
<glyph glyph-name="uni0454" horiz-adv-x="983" unicode="є" d="M903 43q-133 -68 -301 -68q-242 0 -386 142.5t-144 376.5q0 264 150 409.5t413 145.5q147 0 262 -50v-241q-93 69 -231 69q-244 0 -279 -227h383v-186h-381q32 -219 268 -219q134 0 246 75v-227z"/>
<glyph glyph-name="uni0455" horiz-adv-x="901" unicode="ѕ" d="M66 27v256q78 -47 155.5 -70t146.5 -23q84 0 132.5 23t48.5 70q0 30 -22 50t-56.5 35t-75.5 27t-79 27q-61 23 -107.5 49.5t-78 61.5t-48 81t-16.5 109q0 86 37.5 148t100 101.5t143 58t167.5 18.5q68 0 138 -10.5t138 -30.5v-244q-60 35 -128.5 52.5t-134.5 17.5 q-31 0 -58.5 -5.5t-48.5 -16t-33 -27t-12 -37.5q0 -28 18 -48t47 -34.5t64.5 -26t70.5 -23.5q63 -22 114 -48t87.5 -61t56 -82t19.5 -112q0 -91 -39.5 -155.5t-105 -105t-151 -59t-177.5 -18.5q-169 0 -313 52z"/>
<glyph glyph-name="uni0456" horiz-adv-x="582" unicode="і" d="M449 0h-316v1024h316v-1024zM293 1186q-80 0 -131 47.5t-51 116.5q0 71 51 116t131 45q81 0 131.5 -45t50.5 -116q0 -72 -50.5 -118t-131.5 -46z"/>
<glyph glyph-name="uni0457" horiz-adv-x="582" unicode="ї" d="M449 0h-316v1024h316v-1024zM70 1186q-68 0 -111 39.5t-43 97.5q0 60 44 98.5t110 38.5q68 0 110.5 -38.5t42.5 -98.5q0 -61 -42.5 -99t-110.5 -38zM528 1186q-67 0 -110 39t-43 98q0 61 43 99t110 38t110.5 -38.5t43.5 -98.5t-43 -98.5t-111 -38.5z"/>
<glyph glyph-name="uni0458" horiz-adv-x="582" unicode="ј" d="M449 18q0 -227 -111 -363t-320 -136q-69 0 -151 30v248q66 -37 117 -37q149 0 149 234v1030h316v-1006zM293 1186q-80 0 -131 47.5t-51 116.5q0 71 51 116t131 45q81 0 131.5 -45t50.5 -116q0 -72 -50.5 -118t-131.5 -46z"/>
<glyph glyph-name="uni0459" horiz-adv-x="1799" unicode="љ" d="M1102 449v-244h151q162 0 162 127q0 117 -162 117h-151zM784 0v801h-174q-55 -465 -164.5 -639t-306.5 -174q-68 0 -123 20v215q35 -16 74 -16q94 0 156 175t112 642h744v-371h266q174 0 272.5 -82.5t98.5 -232.5q0 -155 -96 -246.5t-267 -91.5h-592z"/>
<glyph glyph-name="uni045A" horiz-adv-x="1766" unicode="њ" d="M1069 457v-254h154q159 0 159 133q0 121 -155 121h-158zM752 0v438h-303v-438h-316v1024h316v-367h303v367h317v-367h268q177 0 273 -82t96 -233q0 -156 -96.5 -249t-266.5 -93h-591z"/>
<glyph glyph-name="uni045B" horiz-adv-x="1262" unicode="ћ" d="M1149 0h-311v553q0 225 -164 225q-88 0 -138.5 -61t-50.5 -158v-559h-315v1179h-143v159h143v178h315v-178h330v-159h-330v-329h4q116 176 316 176q344 0 344 -420v-606z"/>
<glyph glyph-name="uni045C" horiz-adv-x="1145" unicode="ќ" d="M1155 0h-379l-323 500h-4v-500h-316v1024h316v-481h4l315 481h375l-377 -487zM949 1509l-313 -323h-228l260 323h281z"/>
<glyph glyph-name="uni045D" horiz-adv-x="1285" unicode="ѝ" d="M1151 0h-287v670q-39 -79 -84 -146l-348 -524h-299v1024h289v-649q32 67 70 125l348 524h311v-1024zM871 1186h-227l-314 323h281z"/>
<glyph glyph-name="uni045E" d="M1108 1024l-416 -1106q-150 -399 -452 -399q-115 0 -189 26v252q63 -37 137 -37q122 0 170 115l54 127l-416 1022h350l191 -623q18 -58 28 -137h4q9 58 33 135l193 625h313zM997 1513q-18 -159 -137 -253t-295 -94q-179 0 -298 94t-128 253h230q5 -77 63 -126.5 t137 -49.5q78 0 135 50t63 126h230z" unicode="ў"/>
<glyph glyph-name="uni045F" horiz-adv-x="1253" unicode="џ" d="M1120 0h-362v-374h-258v374h-367v1024h316v-801h354v801h317v-1024z"/>
<glyph glyph-name="uni0460" horiz-adv-x="2360" unicode="Ѡ" d="M1180 37q-226 -62 -361 -62q-342 0 -543.5 200.5t-201.5 539.5q0 324 183 533.5t513 209.5q161 0 279 -49v-295q-128 74 -281 74q-167 0 -260.5 -122t-93.5 -345q0 -224 115 -349.5t305 -125.5q116 0 184 33v280h-287v258h897v-258h-287v-280q68 -33 185 -33 q190 0 305 125.5t115 349.5q0 223 -94 345t-261 122q-151 0 -280 -74v295q119 49 278 49q331 0 514 -210t183 -533q0 -339 -202 -539.5t-544 -200.5q-150 0 -360 62z"/>
<glyph glyph-name="uni0461" horiz-adv-x="1526" unicode="ѡ" d="M1518 1024l-338 -1024h-299l-146 369l-151 -369h-269q-196 439 -249.5 630t-57.5 394h295q3 -165 40.5 -318.5t135.5 -388.5l135 318q-65 219 -65 389h305q11 -268 174 -707l197 707h293z"/>
<glyph glyph-name="uni0462" horiz-adv-x="1366" unicode="Ѣ" d="M578 653v-407h145q244 0 244 207q0 200 -238 200h-151zM254 0v1090h-205v237h205v107h324v-107h266v-237h-266v-193h210q519 0 519 -422q0 -225 -140 -350t-395 -125h-518z"/>
<glyph glyph-name="uni0463" horiz-adv-x="1256" unicode="ѣ" d="M559 467v-266h154q159 0 159 137q0 129 -155 129h-158zM244 0v1126h-217v205h217v185h315v-185h240v-205h-240v-460h270q175 0 272 -84.5t97 -237.5q0 -157 -96 -250.5t-266 -93.5h-592z"/>
<glyph glyph-name="uni0464" horiz-adv-x="1960" unicode="Ѥ" d="M1874 51q-157 -76 -410 -76q-303 0 -486 162t-214 447h-277v-584h-323v1434h323v-594h281q42 290 236 454t495 164q218 0 375 -53v-297q-151 86 -352 86q-174 0 -281 -92.5t-131 -261.5h553v-256h-551q21 -164 126.5 -254t279.5 -90q199 0 356 92v-281z"/>
<glyph glyph-name="uni0465" horiz-adv-x="1559" unicode="ѥ" d="M1479 43q-133 -68 -301 -68q-217 0 -357.5 116.5t-167.5 314.5h-204v-406h-316v1024h316v-414h206q32 210 178 324.5t377 114.5q148 0 263 -50v-241q-93 69 -232 69q-243 0 -278 -227h383v-186h-381q32 -219 268 -219q134 0 246 75v-227z"/>
<glyph glyph-name="uni0466" horiz-adv-x="1465" unicode="Ѧ" d="M872 733l-106 350q-28 92 -33 156h-8q-6 -69 -31 -152l-108 -354l139 -174zM1450 0h-330l-157 463l-117 -123v-340h-254v340l-98 123l-154 -463h-326l523 1434h403z"/>
<glyph glyph-name="uni0467" horiz-adv-x="1157" unicode="ѧ" d="M676 524l-82 232q-6 17 -14 104h-9q-1 -34 -14 -100l-84 -236l98 -112zM1153 0h-289l-114 317l-76 -73v-244h-213v244l-64 73l-112 -317h-281l404 1020h348z"/>
<glyph glyph-name="uni0468" horiz-adv-x="2024" unicode="Ѩ" d="M1432 733l-107 350q-28 90 -33 156h-8q-6 -69 -31 -152l-108 -354l139 -174zM2009 0h-330l-157 463l-117 -123v-340h-254v340l-98 123l-154 -463h-326l213 586h-299v-586h-323v1434h323v-586h396l213 586h403z"/>
<glyph glyph-name="uni0469" horiz-adv-x="1677" unicode="ѩ" d="M1196 524l-82 232q-6 17 -14 104h-8q-2 -34 -15 -100l-84 -236l99 -112zM1673 0h-289l-114 317l-76 -73v-244h-213v244l-63 73l-113 -317h-281l164 416h-239v-416h-316v1024h316v-399h321l158 399h348z"/>
<glyph glyph-name="uni046A" horiz-adv-x="1643" unicode="Ѫ" d="M1053 1196h-430l172 -332q25 -49 41 -108h4q14 56 39 104zM1626 0h-309q-67 212 -124.5 309t-211.5 193v-502h-324v498q-144 -91 -202.5 -183.5t-128.5 -314.5h-310q97 334 202 473.5t319 241.5l-404 719h1385l-416 -717q216 -102 321.5 -241.5t202.5 -475.5z"/>
<glyph glyph-name="uni046B" horiz-adv-x="1321" unicode="ѫ" d="M811 831h-281l109 -206q19 -36 31 -78h4q9 33 31 76zM1315 0h-264q-47 135 -75 188.5t-72 92.5t-109 71v-352h-275v348q-104 -51 -147.5 -112t-104.5 -236h-262q80 252 165.5 353.5t244.5 170.5l-320 500h1133l-328 -498q162 -69 248 -172t166 -354z"/>
<glyph glyph-name="uni046C" horiz-adv-x="2194" unicode="Ѭ" d="M1604 1196h-430l172 -324q23 -43 40 -108h5q15 58 39 104zM2177 0h-307q-56 178 -95.5 259.5t-98.5 142.5t-144 114v-516h-324v512q-137 -87 -197 -182.5t-134 -329.5h-310q75 261 149.5 383.5t201.5 206.5h-431v-590h-323v1434h323v-594h545l-348 594h1384l-415 -709 q210 -99 317.5 -240t206.5 -485z"/>
<glyph glyph-name="uni046D" horiz-adv-x="1833" unicode="ѭ" d="M1323 831h-281l109 -200q18 -32 31 -78h4q10 36 31 76zM1827 0h-264q-49 141 -76.5 194.5t-72 93t-107.5 70.5v-358h-275v354q-56 -27 -97 -61.5t-69.5 -81t-85.5 -211.5h-262q55 171 114 262.5t159 155.5h-342v-418h-316v1024h316v-391h425l-266 391h1133l-328 -492 q159 -68 246 -172t168 -360z"/>
<glyph glyph-name="uni046E" horiz-adv-x="1144" unicode="Ѯ" d="M1034 -410h-256q0 48 -65 48q-37 0 -164 -30q-128 -30 -176 -30q-348 0 -348 326q0 151 89 238t242 87q41 0 92 -7q52 -7 95 -7q188 0 188 201q0 198 -297 198h-184v242h176q264 0 264 186q0 170 -225 170q-161 0 -344 -102v264q122 55 261 74l-192 266h205l155 -188 l156 188h205l-201 -274q108 -24 182 -80q130 -97 130 -264q0 -131 -73.5 -222.5t-209.5 -123.5v-5q153 -20 239.5 -110.5t86.5 -224.5q0 -428 -477 -428q-40 0 -95 8q-54 8 -90 8q-42 0 -67 -25.5t-25 -62.5q0 -92 127 -92q58 0 176 30q119 29 181 29q114 0 176.5 -76.5 t62.5 -210.5z"/>
<glyph glyph-name="uni046F" horiz-adv-x="984" unicode="ѯ" d="M924 -410h-248q0 50 -58 50q-29 0 -128 -30q-98 -30 -152 -30q-154 0 -237 82t-83 221q0 148 79 235t216 87q28 0 67 -5q38 -5 52 -5q156 0 156 116q0 62 -52.5 88.5t-179.5 26.5h-143v195h145q199 0 199 116q0 103 -178 103q-134 0 -268 -60v217q113 32 212 44l-188 261 h205l155 -188l156 188h205l-202 -276q229 -29 229 -254q0 -192 -238 -237v-5q126 -11 197 -76t71 -165q0 -141 -100 -225t-276 -84q-21 0 -65 5t-85 5q-106 0 -106 -90q0 -93 108 -93q51 0 144 29q94 29 165 29q107 0 166.5 -74.5t59.5 -200.5z"/>
<glyph glyph-name="uni0470" horiz-adv-x="1692" unicode="Ѱ" d="M1559 895q0 -243 -153 -392t-396 -149h-25v-354h-278v354h-25q-212 0 -329 105.5t-169 341.5l-139 633h285l139 -609q25 -110 70.5 -156t140.5 -46h27v811h278v-811h25q264 0 264 295v516h285v-539z"/>
<glyph glyph-name="uni0471" horiz-adv-x="1620" unicode="ѱ" d="M1499 559q0 -270 -142.5 -427t-377.5 -157h-27v-456h-284v456h-19q-178 0 -286 86t-168 328l-158 635h299l149 -600q50 -203 166 -203h17v803h284v-803h15q106 0 170.5 88.5t64.5 249.5v465h297v-465z"/>
<glyph glyph-name="uni0472" horiz-adv-x="1553" unicode="Ѳ" d="M1128 578q-129 -48 -184 -48q-53 0 -173 55q-120 54 -163 54q-31 0 -184 -53q28 -157 122.5 -244.5t229.5 -87.5q139 0 231.5 85t120.5 239zM1130 827q-24 168 -114.5 260.5t-231.5 92.5q-143 0 -238 -92t-122 -252q146 49 203 49q56 0 179 -54q124 -55 157 -55 q37 0 167 51zM770 -25q-308 0 -502 200.5t-194 522.5q0 340 197 550t522 210q307 0 496.5 -201t189.5 -530q0 -338 -196.5 -545t-512.5 -207z"/>
<glyph glyph-name="uni0473" horiz-adv-x="1252" unicode="ѳ" d="M868 418q-100 -39 -141 -39q-28 0 -99 28q-72 27 -110 27q-21 0 -131 -41q46 -196 244 -196q201 0 237 221zM868 614q-38 211 -239 211q-217 0 -250 -237q114 41 156 41q46 0 113 -28q68 -28 95 -28q26 0 125 41zM621 -25q-256 0 -402.5 143.5t-146.5 389.5 q0 254 152 397.5t411 143.5q255 0 400 -143.5t145 -379.5q0 -255 -149.5 -403t-409.5 -148z"/>
<glyph glyph-name="uni0474" horiz-adv-x="1696" unicode="Ѵ" d="M1681 1085h-276q-5 109 -76 109q-63 0 -100 -109l-365 -1085h-366l-488 1434h348l299 -998q24 -81 29 -143h6q7 65 31 147l203 686q98 332 399 332q162 0 255.5 -98t100.5 -275z"/>
<glyph glyph-name="uni0475" horiz-adv-x="1440" unicode="ѵ" d="M1434 696h-279q-5 101 -80 101q-63 0 -102 -109l-246 -688h-360l-363 1024h338l178 -631q30 -107 35 -182h4q6 64 37 176l90 328q92 334 389 334q326 0 359 -353z"/>
<glyph glyph-name="uni0476" horiz-adv-x="1696" unicode="Ѷ" d="M1681 1085h-276q-5 109 -76 109q-63 0 -100 -109l-365 -1085h-366l-488 1434h348l299 -998q24 -81 29 -143h6q7 65 31 147l203 686q98 332 399 332q162 0 255.5 -98t100.5 -275zM691 1567h-211l-252 319h250zM1065 1567h-211l-247 319h247z"/>
<glyph glyph-name="uni0477" horiz-adv-x="1440" unicode="ѷ" d="M1434 696h-279q-5 101 -80 101q-63 0 -102 -109l-246 -688h-360l-363 1024h338l178 -631q30 -107 35 -182h4q6 64 37 176l90 328q92 334 389 334q326 0 359 -353zM554 1186h-211l-252 319h250zM928 1186h-211l-247 319h247z"/>
<glyph glyph-name="uni0478" horiz-adv-x="2984" unicode="Ѹ" d="M2970 696h-279q-5 101 -80 101q-63 0 -102 -109l-391 -1098h-332l143 373l-389 1061h338l178 -602q30 -100 35 -182h4q8 76 37 176l90 303q98 330 385 330q330 0 363 -353zM786 1139v82q-171 0 -271.5 -128t-100.5 -337q0 -214 98.5 -337.5t259.5 -123.5v-82 q168 0 267.5 121t99.5 334q0 223 -94 347t-259 124zM772 -66v82q-308 0 -503 200.5t-195 522.5q0 342 194 551t518 209v-82q308 0 500.5 -201.5t192.5 -529.5q0 -338 -196 -545t-511 -207z"/>
<glyph glyph-name="uni0479" horiz-adv-x="2669" unicode="ѹ" d="M2654 696h-278q-5 101 -80 101q-64 0 -103 -109l-391 -1098h-332l144 373l-389 1061h338l178 -602q30 -100 35 -182h4q8 76 37 176l90 303q98 330 385 330q329 0 362 -353zM631 776v62q-238 0 -238 -295t232 -295v-62q233 0 233 303q0 287 -227 287zM625 -55v61 q-257 0 -405 143t-148 390q0 250 151 395t408 145v-61q259 0 404 -142.5t145 -379.5q0 -253 -149 -402t-406 -149z"/>
<glyph glyph-name="uni047A" horiz-adv-x="1696" unicode="Ѻ" d="M1020 1167q-66 -69 -164 -69t-164 71q-131 -32 -204.5 -153t-73.5 -301q0 -177 72 -294t196 -153q67 74 168 74q103 0 170 -76q262 69 262 443q0 388 -262 458zM1032 -16q-68 -93 -182 -93q-112 0 -180 91q-269 35 -432.5 230t-163.5 486q0 307 160 510.5t436 241.5 q67 98 186 98t186 -98q264 -36 422 -231.5t158 -491.5q0 -305 -160 -505t-430 -238z"/>
<glyph glyph-name="uni047B" horiz-adv-x="1405" unicode="ѻ" d="M850 799q-59 -60 -143 -60q-85 0 -144 60q-170 -43 -170 -287q0 -233 158 -283q60 68 151 68q93 0 152 -70q158 46 158 293q0 237 -162 279zM866 -18q-60 -86 -164 -86q-103 0 -163 84q-220 23 -343.5 163t-123.5 365q0 227 121.5 366.5t338.5 167.5q59 99 175 99 q114 0 172 -97q214 -25 334 -164.5t120 -353.5q0 -230 -123.5 -374t-343.5 -170z"/>
<glyph glyph-name="uni047C" horiz-adv-x="2360" unicode="Ѽ" d="M1576 2001v-188h-40q-61 0 -126.5 19t-127.5 42t-117 42t-94 19q-21 0 -38 -9.5t-28 -26t-17 -39t-6 -47.5h-164q0 66 12 122.5t38.5 98t68 65.5t101.5 24q57 0 121 -19t129 -42t128.5 -42t120.5 -19h39zM1076 1473l-47 88q78 12 111 51q-103 11 -103 104q0 46 35 76.5 t90 30.5q66 0 107 -39.5t41 -99.5q0 -78 -63.5 -134t-170.5 -77zM1180 47q-205 -72 -361 -72q-342 0 -543.5 200.5t-201.5 539.5q0 324 183 533.5t513 209.5q161 0 279 -49v-295q-128 74 -281 74q-167 0 -260.5 -122t-93.5 -345q0 -224 115 -349.5t305 -125.5q179 0 346 88 q163 -88 346 -88q190 0 305 125.5t115 349.5q0 223 -94 345t-261 122q-151 0 -280 -74v295q119 49 278 49q331 0 514 -210t183 -533q0 -339 -202 -539.5t-544 -200.5q-175 0 -360 72z"/>
<glyph glyph-name="uni047D" horiz-adv-x="1819" unicode="ѽ" d="M1339 1621v-188h-40q-61 0 -126.5 19t-127.5 42t-117 42t-94 19q-21 0 -38 -9.5t-28 -26t-17 -39t-6 -47.5h-164q0 66 12 122.5t38.5 98t68 65.5t101.5 24q57 0 121 -19t129 -42t128.5 -42t120.5 -19h39zM839 1093l-47 88q78 12 111 51q-103 11 -103 104q0 46 35 76.5 t90 30.5q66 0 107 -39.5t41 -99.5q0 -78 -63.5 -134t-170.5 -77zM909 49q-144 -74 -317 -74q-231 0 -375.5 152.5t-144.5 384.5q0 243 140 390t366 147q130 0 200 -35v-248q-58 41 -151 41q-234 0 -234 -287q0 -140 72.5 -221.5t200.5 -81.5q133 0 243 72q110 -72 244 -72 q127 0 199.5 81t72.5 222q0 287 -233 287q-94 0 -152 -41v248q70 35 201 35q226 0 366 -147t140 -390q0 -232 -144.5 -384.5t-375.5 -152.5q-174 0 -318 74z"/>
<glyph glyph-name="uni047E" horiz-adv-x="2360" unicode="Ѿ" d="M1180 37q-226 -62 -361 -62q-342 0 -543.5 200.5t-201.5 539.5q0 324 183 533.5t513 209.5q161 0 279 -49v-295q-128 74 -281 74q-167 0 -260.5 -122t-93.5 -345q0 -224 115 -349.5t305 -125.5q116 0 184 33v280h-287v258h897v-258h-287v-280q68 -33 185 -33 q190 0 305 125.5t115 349.5q0 223 -94 345t-261 122q-151 0 -280 -74v295q119 49 278 49q331 0 514 -210t183 -533q0 -339 -202 -539.5t-544 -200.5q-150 0 -360 62zM1668 1796l-109 -235h-60l-47 101h-196l-47 -101h-60l-47 101h-196l-47 -101h-60l-109 235h978z"/>
<glyph glyph-name="uni047F" horiz-adv-x="1526" unicode="ѿ" d="M1518 1024l-338 -1024h-299l-146 369l-151 -369h-269q-196 439 -249.5 630t-57.5 394h295q3 -165 40.5 -318.5t135.5 -388.5l135 318q-65 219 -65 389h305q11 -268 174 -707l197 707h293zM1238 1448l-109 -235h-60l-47 101h-196l-47 -101h-60l-47 101h-196l-47 -101h-60 l-109 235h978z"/>
<glyph glyph-name="uni0480" horiz-adv-x="1223" unicode="Ҁ" d="M1192 1094q-144 86 -328 86q-202 0 -326 -127t-124 -344q0 -208 117 -331.5t315 -123.5q55 0 98 6v-670h-323v400q-258 45 -402.5 231t-144.5 465q0 344 212.5 558t551.5 214q210 0 354 -53v-311z"/>
<glyph glyph-name="uni0481" horiz-adv-x="940" unicode="ҁ" d="M909 733q-99 74 -221 74q-136 0 -215.5 -79.5t-79.5 -219.5q0 -136 76 -213.5t209 -77.5q43 0 90 12v-639h-315v402q-176 42 -278.5 175t-102.5 320q0 261 156.5 411.5t418.5 150.5q181 0 262 -48v-268z"/>
<glyph glyph-name="uni0482" horiz-adv-x="1065" unicode="҂" d="M1028 901l-76 -178l-272 115l-135 -318l272 -117l-76 -178l-272 115l-143 -340h-197l174 412l-266 112l76 181l266 -115l135 319l-266 113l76 180l266 -115l147 349h197l-176 -418z"/>
<glyph glyph-name="uni0483" horiz-adv-x="830" unicode="҃" d="M303 1298q-24 -79 -108 -79q-47 0 -80 34.5t-33 81.5q0 48 33.5 84.5t79.5 36.5h329q25 80 111 80q47 0 80 -35t33 -82q0 -48 -33.5 -84.5t-79.5 -36.5h-332z"/>
<glyph glyph-name="uni0484" horiz-adv-x="867" unicode="҄" d="M813 1219h-164q-44 122 -133 122q-46 0 -140 -61t-175 -61h-107v188h80q61 0 164 46t178 46q207 0 297 -280z"/>
<glyph glyph-name="uni0485" horiz-adv-x="0" unicode="҅" d="M141 1223l-53 -84q-100 42 -163.5 122t-63.5 169q0 63 38 102t103 39q56 0 90.5 -31.5t34.5 -81.5q0 -42 -31 -73.5t-75 -34.5q29 -75 120 -127z"/>
<glyph glyph-name="uni0486" horiz-adv-x="0" unicode="҆" d="M-86 1139l-53 84q93 53 121 127q-44 3 -75.5 34.5t-31.5 73.5q0 50 34.5 81.5t90.5 31.5q65 0 103 -39t38 -102q0 -89 -63.5 -169t-163.5 -122z"/>
<glyph glyph-name="uni0487" horiz-adv-x="868" unicode="҇" d="M806 1405v-188h-40q-61 0 -126.5 19t-127.5 42t-117 42t-94 19q-21 0 -38 -9.5t-28 -26t-17 -39t-6 -47.5h-164q0 66 12 122.5t38.5 98t68 65.5t101.5 24q57 0 121 -19t129 -42t128.5 -42t120.5 -19h39z"/>
<glyph glyph-name="uni0488" horiz-adv-x="2018" unicode="҈" d="M1200 -299h-115q-8 102 -92 102q-79 0 -92 -102h-117q9 101 66.5 158t144.5 57q91 0 146 -57.5t59 -157.5zM586 -49h-117q-8 102 -90 102q-77 0 -90 -102h-119q9 102 65.5 159.5t143.5 57.5q91 0 147 -58.5t60 -158.5zM1833 -49h-117q-8 102 -88 102q-79 0 -92 -102h-119 q9 101 66.5 159t144.5 58q90 0 145.5 -58t59.5 -159zM457 428h-117q-8 102 -92 102q-77 0 -90 -102h-117q9 101 65.5 158t143.5 57q91 0 147 -57.5t60 -157.5zM1972 428h-117q-8 102 -88 102q-79 0 -92 -102h-119q9 101 66.5 158t144.5 57q91 0 146 -57.5t59 -157.5z M586 901h-117q-8 105 -90 105q-77 0 -90 -105h-119q9 102 65.5 159.5t143.5 57.5q91 0 147 -58.5t60 -158.5zM1833 901h-117q-8 105 -88 105q-79 0 -92 -105h-119q9 101 66.5 159t144.5 58q90 0 145.5 -58t59.5 -159zM1200 1149h-115q-8 102 -92 102q-79 0 -92 -102h-117 q9 101 66.5 158t144.5 57q91 0 146 -57.5t59 -157.5z"/>
<glyph glyph-name="uni0489" horiz-adv-x="1944" unicode="҉" d="M1106 -57l-143 -353h-154l94 353h203zM668 25l-351 -148l-108 109l315 182zM1620 -156l-109 -108l-182 315l144 144zM1907 336l-353 94v203l353 -144v-153zM416 391l-353 144v153l353 -94v-203zM1761 1038l-315 -182l-143 143l350 148zM641 973l-143 -144l-148 351 l109 108zM1161 1434l-94 -353h-203l144 353h153z"/>
<glyph glyph-name="uni048A" horiz-adv-x="1788" unicode="Ҋ" d="M1251 1913q-18 -159 -137 -253t-295 -94q-179 0 -298 94t-128 253h230q5 -77 63 -126.5t137 -49.5q78 0 135 50t63 126h230zM1454 276h276l-226 -663h-310l174 387h-219v788q0 136 10 232h-6q-21 -41 -72 -119l-592 -901h-325v1434h305v-793q0 -147 -8 -197h4 q5 12 74 117l569 873h346v-1158z"/>
<glyph glyph-name="uni048B" horiz-adv-x="1432" unicode="ҋ" d="M1077 1513q-18 -159 -137 -253t-295 -94q-179 0 -298 94t-128 253h230q5 -77 63 -126.5t137 -49.5q78 0 135 50t63 126h230zM1151 223h223l-184 -596h-293l161 373h-194v670q-39 -79 -84 -146l-348 -524h-299v1024h289v-649q32 67 70 125l348 524h311v-801z"/>
<glyph glyph-name="uni048C" horiz-adv-x="1276" unicode="Ҍ" d="M487 653v-407h146q244 0 244 207q0 200 -238 200h-152zM164 0v1090h-135v237h135v107h323v-107h142v-237h-142v-193h211q519 0 519 -422q0 -225 -140 -350t-395 -125h-518z"/>
<glyph glyph-name="uni048D" horiz-adv-x="1176" unicode="ҍ" d="M479 467v-266h154q160 0 160 137q0 129 -156 129h-158zM164 0v1126h-137v205h137v185h315v-185h146v-205h-146v-460h271q174 0 271 -84.5t97 -237.5q0 -157 -96 -250.5t-266 -93.5h-592z"/>
<glyph glyph-name="uni048E" horiz-adv-x="1258" unicode="Ҏ" d="M487 1186v-447h127q24 0 48 2l-89 131l179 121l96 -143q24 47 24 115q0 221 -258 221h-127zM1018 598l106 -156l-178 -120l-129 190q-80 -18 -176 -18h-154v-494h-323v1434h506q542 0 542 -457q0 -244 -194 -379z"/>
<glyph glyph-name="uni048F" horiz-adv-x="1270" unicode="ҏ" d="M659 217l-90 145l183 113l86 -137q36 75 36 199q0 270 -210 270q-97 0 -158.5 -73.5t-61.5 -194.5v-82q0 -106 56 -173t147 -67h12zM1008 66l96 -154l-182 -115l-115 185q-47 -7 -72 -7q-185 0 -282 144h-4v-590h-316v1495h316v-154h4q117 179 329 179 q199 0 307.5 -136.5t108.5 -371.5q0 -323 -190 -475z"/>
<glyph glyph-name="uni0490" horiz-adv-x="1057" unicode="Ґ" d="M1018 1169h-531v-1169h-323v1434h580v252h274v-517z"/>
<glyph glyph-name="uni0491" horiz-adv-x="890" unicode="ґ" d="M834 788h-385v-788h-316v1024h449v250h252v-486z"/>
<glyph glyph-name="uni0492" horiz-adv-x="1149" unicode="Ғ" d="M1120 1167h-530v-338h342v-262h-342v-567h-324v567h-235v262h235v605h854v-267z"/>
<glyph glyph-name="uni0493" horiz-adv-x="918" unicode="ғ" d="M891 784h-352v-211h231v-237h-231v-336h-316v336h-196v237h196v451h668v-240z"/>
<glyph glyph-name="uni0494" horiz-adv-x="1340" unicode="Ҕ" d="M164 -367v289q196 -76 362 -76q195 0 298.5 104t103.5 292q0 185 -112 294t-298 109h-31v-645h-323v1434h854v-267h-531v-243h82q329 0 515 -186.5t186 -493.5q0 -300 -192.5 -484t-553.5 -184q-185 0 -360 57z"/>
<glyph glyph-name="uni0495" horiz-adv-x="1174" unicode="ҕ" d="M127 -332v242q179 -88 367 -88q294 0 294 266q0 299 -321 299h-21v-387h-315v1024h668v-240h-353v-155h58q274 0 440 -147t166 -392q0 -212 -158.5 -356t-425.5 -144q-230 0 -399 78z"/>
<glyph glyph-name="uni0496" horiz-adv-x="2136" unicode="Җ" d="M2071 -324h-265v324h-166l-423 618q-17 24 -39 72h-4v-690h-316v690h-4q-10 -23 -39 -72l-424 -618h-401l547 748l-506 686h385l399 -600q25 -38 39 -66h4v666h316v-666h4q14 29 39 66l399 600h385l-506 -686l344 -472h232v-600z"/>
<glyph glyph-name="uni0497" horiz-adv-x="1837" unicode="җ" d="M1772 -250h-238v250h-176l-330 512h-4v-512h-311v512h-4l-328 -512h-373l389 537l-379 487h371l320 -485h4v485h311v-485h4l320 485h370l-379 -487l230 -314h203v-473z"/>
<glyph glyph-name="uni0498" horiz-adv-x="1144" unicode="Ҙ" d="M625 -16q59 -81 59 -158q0 -78 -52.5 -126t-137.5 -48q-82 0 -154 24v138q74 -27 119 -27q57 0 57 53q0 56 -45 135q-260 3 -399 78v283q171 -115 389 -115q270 0 270 195q0 198 -297 198h-184v242h176q264 0 264 186q0 170 -225 170q-161 0 -344 -102v264q184 84 407 84 q235 0 364.5 -97.5t129.5 -264.5q0 -131 -73.5 -222.5t-209.5 -123.5v-5q153 -20 239.5 -110.5t86.5 -224.5q0 -179 -113 -289.5t-327 -136.5z"/>
<glyph glyph-name="uni0499" horiz-adv-x="984" unicode="ҙ" d="M555 -12q63 -84 63 -162t-52.5 -126t-137.5 -48q-82 0 -154 24v138q74 -27 119 -27q58 0 58 53q0 57 -48 140q-186 1 -323 47v229q148 -68 295 -68q213 0 213 117q0 121 -232 121h-143v195h145q199 0 199 116q0 103 -178 103q-134 0 -268 -60v217q180 52 325 52 q447 0 447 -277q0 -192 -238 -237v-5q126 -11 197 -76t71 -165q0 -258 -358 -301z"/>
<glyph glyph-name="uni049A" horiz-adv-x="1456" unicode="Қ" d="M1391 -324h-265v324h-178l-418 623q-12 18 -38 79h-5v-702h-323v1434h323v-678h5q12 28 40 80l396 598h385l-500 -684l342 -474h236v-600z"/>
<glyph glyph-name="uni049B" horiz-adv-x="1252" unicode="қ" d="M1186 -373h-258v373h-152l-323 500h-4v-500h-316v1024h316v-481h4l315 481h375l-377 -487l227 -314h193v-596z"/>
<glyph glyph-name="uni049C" horiz-adv-x="1329" unicode="Ҝ" d="M1356 0h-408l-295 487v-258h-94v385l-20 33q-47 77 -47 80h-5v-727h-323v1434h323v-689h5l67 109v356h94v-229l275 453h385l-445 -684z"/>
<glyph glyph-name="uni049D" horiz-adv-x="1182" unicode="ҝ" d="M1192 0h-371l-223 358v-243h-84v331l-61 54h-4v-500h-316v1024h316v-483h4l61 57v297h84v-213l213 342h369l-357 -487z"/>
<glyph glyph-name="uni049E" horiz-adv-x="1329" unicode="Ҟ" d="M1356 0h-408l-418 623q-12 18 -38 79h-5v-702h-323v1118h-135v209h135v107h323v-107h175v-209h-175v-362h5q12 28 40 80l396 598h385l-500 -684z"/>
<glyph glyph-name="uni049F" horiz-adv-x="1186" unicode="ҟ" d="M1196 0h-379l-328 508h-4v-508h-315v1167h-143v209h143v140h315v-140h330v-209h-330v-616h4l306 473h374l-366 -481z"/>
<glyph glyph-name="uni04A0" horiz-adv-x="1604" unicode="Ҡ" d="M1630 0h-407l-418 623q-14 21 -39 79h-4v-702h-324v1169h-407v265h731v-678h4q12 28 41 80l395 598h385l-500 -684z"/>
<glyph glyph-name="uni04A1" horiz-adv-x="1329" unicode="ҡ" d="M1339 0h-378l-324 500h-4v-500h-318v784h-288v240h606v-481h4l315 481h375l-377 -487z"/>
<glyph glyph-name="uni04A2" horiz-adv-x="1676" unicode="Ң" d="M1610 -391h-284v391h-245v582h-594v-582h-323v1434h323v-570h594v570h324v-1158h205v-667z"/>
<glyph glyph-name="uni04A3" horiz-adv-x="1350" unicode="ң" d="M1284 -374h-257v374h-224v428h-354v-428h-316v1024h316v-379h354v379h317v-801h164v-597z"/>
<glyph glyph-name="uni04A4" horiz-adv-x="1843" unicode="Ҥ" d="M1812 1169h-407v-1169h-324v582h-594v-582h-323v1434h323v-570h594v570h731v-265z"/>
<glyph glyph-name="uni04A5" horiz-adv-x="1440" unicode="ҥ" d="M1409 784h-289v-784h-317v428h-354v-428h-316v1024h316v-379h354v379h606v-240z"/>
<glyph glyph-name="uni04A6" horiz-adv-x="2257" unicode="Ҧ" d="M1081 -367v289q196 -76 363 -76q195 0 298 104t103 292q0 186 -112 294.5t-297 108.5h-31v-645h-324v1157h-594v-1157h-323v1434h1241v-510h82q329 0 514.5 -186.5t185.5 -493.5q0 -301 -192.5 -484.5t-552.5 -183.5q-186 0 -361 57z"/>
<glyph glyph-name="uni04A7" horiz-adv-x="1848" unicode="ҧ" d="M801 -332v242q179 -88 366 -88q295 0 295 266q0 299 -321 299h-21v-387h-317v801h-354v-801h-316v1024h987v-395h58q274 0 440 -147t166 -392q0 -212 -158.5 -356t-425.5 -144q-230 0 -399 78z"/>
<glyph glyph-name="uni04A8" horiz-adv-x="1578" unicode="Ҩ" d="M1060 347q21 14 40.5 34.5t33.5 50t22.5 70t8.5 93.5q0 97 -29.5 152.5t-85.5 55.5q-31 0 -53.5 -16t-36.5 -43.5t-21 -65.5t-7 -83q0 -92 35.5 -153.5t92.5 -94.5zM1341 -20q-45 0 -82 4t-68 10.5t-57.5 16t-51.5 19.5q-23 -12 -56 -22t-73.5 -17t-86 -11t-93.5 -4 q-142 0 -269.5 47.5t-222.5 139t-151 227t-56 310.5q0 170 54.5 309.5t154 239t240.5 154.5t315 55q109 0 198.5 -13.5t155.5 -39.5v-298q-72 42 -149.5 63.5t-178.5 21.5q-104 0 -187 -33t-141.5 -94t-90 -148t-31.5 -194q0 -113 23.5 -200t64.5 -146.5t98.5 -90 t124.5 -30.5q24 0 41.5 2t34.5 4q-88 47 -137 147t-49 239q0 95 32 170t89.5 127.5t138.5 80.5t178 28q104 0 185.5 -28.5t138 -81.5t86.5 -128.5t30 -170.5q0 -75 -14 -136.5t-38 -109.5t-56 -81.5t-68 -53.5q15 -3 37.5 -5t37.5 -2q43 0 88 10t80 32v-279 q-87 -40 -219 -40z"/>
<glyph glyph-name="uni04A9" horiz-adv-x="1227" unicode="ҩ" d="M854 250q15 10 27.5 29t21 44.5t13 55.5t4.5 60q0 62 -16.5 100.5t-56.5 38.5q-22 0 -37 -11t-23 -30t-11.5 -44.5t-3.5 -53.5q0 -60 20.5 -112.5t61.5 -76.5zM1041 -14q-69 0 -114.5 10t-83.5 26q-18 -9 -43 -16t-56 -12t-66 -8t-71 -3q-121 0 -220 34t-169 100 t-108 163.5t-38 223.5q0 122 39 222.5t113 172.5t181 111.5t242 39.5q85 0 157 -10t122 -28v-223q-44 16 -101 26t-128 10q-89 0 -149.5 -22.5t-97 -64.5t-52 -101.5t-15.5 -132.5q0 -77 16.5 -137t46.5 -100.5t71 -61.5t90 -21q17 0 30 1.5t25 3.5q-64 33 -99 105.5 t-35 172.5q0 68 23 122t64.5 92t99.5 58t128 20q75 0 134 -20.5t99.5 -58.5t62 -92.5t21.5 -123.5q0 -54 -10 -98t-27.5 -78.5t-40.5 -59t-49 -38.5q11 -2 27 -3.5t27 -1.5q31 0 63.5 7t57.5 23v-201q-66 -28 -167 -28z"/>
<glyph glyph-name="uni04AA" horiz-adv-x="1278" unicode="Ҫ" d="M1192 51q-114 -55 -301 -71q57 -80 57 -154q0 -78 -52.5 -126.5t-137.5 -48.5q-76 0 -154 26v136q71 -26 119 -26q57 0 57 53q0 58 -45 136q-310 14 -485.5 206.5t-175.5 503.5q0 344 212.5 558t551.5 214q210 0 354 -53v-311q-144 86 -328 86q-202 0 -326 -127 t-124 -344q0 -208 117 -331.5t315 -123.5q189 0 346 92v-295z"/>
<glyph glyph-name="uni04AB" horiz-adv-x="983" unicode="ҫ" d="M909 37q-81 -46 -222 -58q56 -79 56 -153q0 -78 -52.5 -126.5t-137.5 -48.5q-76 0 -154 26v136q71 -26 119 -26q57 0 57 53q0 60 -46 139q-207 22 -332 161.5t-125 346.5q0 261 156.5 411.5t418.5 150.5q181 0 262 -48v-268q-99 74 -221 74q-136 0 -215.5 -79.5 t-79.5 -219.5q0 -136 76 -213.5t209 -77.5q118 0 231 74v-254z"/>
<glyph glyph-name="uni04AC" horiz-adv-x="1200" unicode="Ҭ" d="M1171 1171h-409v-895h205v-667h-285v391h-244v1171h-407v263h1140v-263z"/>
<glyph glyph-name="uni04AD" horiz-adv-x="930" unicode="ҭ" d="M899 784h-274v-561h163v-596h-257v373h-224v784h-276v240h868v-240z"/>
<glyph glyph-name="uni04AE" horiz-adv-x="1243" unicode="Ү" d="M1245 1434l-467 -924v-510h-323v504l-455 930h369l231 -535q6 -15 33 -117h4q13 72 31 113l235 539h342z"/>
<glyph glyph-name="uni04AF" d="M1108 1024l-383 -1024v-471h-315v473l-414 1022h350l191 -623q18 -58 28 -137h4q9 58 33 135l193 625h313z" unicode="ү"/>
<glyph glyph-name="uni04B0" horiz-adv-x="1243" unicode="Ұ" d="M1245 1434l-465 -879h322v-262h-324v-293h-323v293h-316v262h312l-451 879h369l229 -512q13 -29 35 -113h4q11 60 33 109l233 516h342z"/>
<glyph glyph-name="uni04B1" d="M1108 1024l-381 -1024h295v-205h-297v-266h-315v266h-289v205h288l-413 1024h350l191 -627q19 -61 28 -137h4q9 57 33 135l193 629h313z" unicode="ұ"/>
<glyph glyph-name="uni04B2" horiz-adv-x="1454" unicode="Ҳ" d="M1389 -387h-285v387h-152l-247 467q-14 27 -29 96h-4q-7 -33 -33 -100l-248 -463h-385l457 717l-418 717h393l205 -430q24 -49 43 -121h4q12 42 45 125l228 426h360l-430 -711l273 -447h223v-663z"/>
<glyph glyph-name="uni04B3" horiz-adv-x="1231" unicode="ҳ" d="M1165 -374h-257v374h-152l-148 276q-19 36 -43 93h-4q-15 -42 -41 -90l-149 -279h-363l346 510l-325 514h366l146 -287q29 -57 41 -96h4q16 47 43 98l149 285h344l-338 -496l194 -305h187v-597z"/>
<glyph glyph-name="uni04B4" horiz-adv-x="1948" unicode="Ҵ" d="M1882 -387h-284v387h-1162v1171h-407v263h1140v-263h-409v-895h594v1158h323v-1158h205v-663z"/>
<glyph glyph-name="uni04B5" horiz-adv-x="1526" unicode="ҵ" d="M1460 -374h-257v374h-896v784h-276v240h848v-240h-254v-561h354v801h317v-801h164v-597z"/>
<glyph glyph-name="uni04B6" horiz-adv-x="1585" unicode="Ҷ" d="M1520 -387h-285v387h-244v569q-201 -110 -407 -110q-445 0 -445 428v547h322v-519q0 -186 205 -186q162 0 325 98v607h324v-1158h205v-663z"/>
<glyph glyph-name="uni04B7" horiz-adv-x="1325" unicode="ҷ" d="M1260 -373h-258v373h-222v354q-161 -90 -311 -90q-348 0 -348 352v408h303v-358q0 -158 141 -158q100 0 215 61v455h316v-801h164v-596z"/>
<glyph glyph-name="uni04B8" horiz-adv-x="1479" unicode="Ҹ" d="M1315 0h-324v569q-118 -65 -223 -90v-282h-115v264q-24 -2 -69 -2q-445 0 -445 428v547h322v-519q0 -180 192 -186v305h115v-295q114 22 223 88v607h324v-1434z"/>
<glyph glyph-name="uni04B9" horiz-adv-x="1229" unicode="ҹ" d="M1096 0h-316v354q-54 -30 -110 -51v-188h-115v157q-46 -8 -86 -8q-348 0 -348 352v408h303v-358q0 -151 131 -158v246h115v-234q61 16 110 49v455h316v-1024z"/>
<glyph glyph-name="uni04BA" horiz-adv-x="1479" unicode="Һ" d="M1339 0h-321v518q0 187 -205 187q-161 0 -326 -99v-606h-323v1434h323v-570q203 111 408 111q444 0 444 -428v-547z"/>
<glyph glyph-name="uni04BB" horiz-adv-x="1233" unicode="һ" d="M1116 0h-315v582q0 225 -164 225q-84 0 -136 -63t-52 -160v-584h-316v1516h316v-644h4q116 177 315 177q348 0 348 -420v-629z"/>
<glyph glyph-name="uni04BC" horiz-adv-x="1934" unicode="Ҽ" d="M1505 840q-17 165 -106.5 259.5t-227.5 94.5q-146 0 -243.5 -95t-126.5 -259h704zM1855 584h-1054q60 -344 446 -344q217 0 445 151v-287q-207 -129 -492 -129q-328 0 -519.5 158.5t-223.5 450.5h-39q-377 0 -377 336q0 91 41 184h219q-31 -66 -31 -125q0 -139 150 -139 h41q41 283 232.5 450.5t480.5 167.5q306 0 493.5 -200.5t187.5 -530.5v-143z"/>
<glyph glyph-name="uni04BD" horiz-adv-x="1411" unicode="ҽ" d="M1063 616q0 220 -178 220q-76 0 -131.5 -63t-67.5 -157h377zM1356 422h-668q16 -223 281 -223q169 0 297 80v-228q-142 -76 -369 -76q-228 0 -362.5 117t-155.5 330h-19q-319 0 -319 270q0 86 37 164h180q-29 -62 -29 -115q0 -125 142 -125h14q34 202 175 317.5 t327 115.5q224 0 346.5 -133t122.5 -361v-133z"/>
<glyph glyph-name="uni04BE" horiz-adv-x="1934" unicode="Ҿ" d="M1505 840q-17 165 -106.5 259.5t-227.5 94.5q-146 0 -243.5 -95t-126.5 -259h704zM1855 584h-1054q60 -344 446 -344q217 0 445 151v-287q-207 -129 -492 -129q-328 0 -519.5 158.5t-223.5 450.5h-39q-377 0 -377 336q0 91 41 184h219q-31 -66 -31 -125q0 -139 150 -139 h41q41 283 232.5 450.5t480.5 167.5q306 0 493.5 -200.5t187.5 -530.5v-143zM1056 0h284v-391h-284v391z"/>
<glyph glyph-name="uni04BF" horiz-adv-x="1411" unicode="ҿ" d="M1063 616q0 220 -178 220q-76 0 -131.5 -63t-67.5 -157h377zM1356 422h-668q16 -223 281 -223q169 0 297 80v-228q-142 -76 -369 -76q-228 0 -362.5 117t-155.5 330h-19q-319 0 -319 270q0 86 37 164h180q-29 -62 -29 -115q0 -125 142 -125h14q34 202 175 317.5 t327 115.5q224 0 346.5 -133t122.5 -361v-133zM762 0h258v-373h-258v373z"/>
<glyph glyph-name="uni04C0" horiz-adv-x="649" unicode="Ӏ" d="M607 1434v-250h-120v-934h120v-250h-563v250h120v934h-120v250h563z"/>
<glyph glyph-name="uni04C1" horiz-adv-x="2033" unicode="Ӂ" d="M2042 0h-402l-423 618q-17 24 -39 72h-4v-690h-316v690h-4q-10 -23 -39 -72l-424 -618h-401l547 748l-506 686h385l399 -600q25 -38 39 -66h4v666h316v-666h4q14 29 39 66l399 600h385l-506 -686zM1356 1874q-12 -141 -102.5 -224t-237.5 -83q-146 0 -238 85.5t-96 221.5 h179q17 -135 159 -135q137 0 156 135h180z"/>
<glyph glyph-name="uni04C2" horiz-adv-x="1736" unicode="ӂ" d="M1731 0h-373l-330 512h-4v-512h-311v512h-4l-328 -512h-373l389 537l-379 487h371l320 -485h4v485h311v-485h4l320 485h370l-379 -487zM1208 1493q-12 -141 -102.5 -224t-237.5 -83q-146 0 -238 85.5t-96 221.5h179q17 -135 159 -135q137 0 156 135h180z"/>
<glyph glyph-name="uni04C3" horiz-adv-x="1344" unicode="Ӄ" d="M1313 1434l-496 -627h4q211 0 330 -171.5t119 -424.5q0 -284 -194.5 -459.5t-551.5 -175.5q-185 0 -360 57v289q196 -76 362 -76q193 0 297.5 95t104.5 268q0 172 -111.5 270.5t-298.5 98.5h-31v-578h-323v1434h323v-609h5q17 34 40 66l396 543h385z"/>
<glyph glyph-name="uni04C4" horiz-adv-x="1184" unicode="ӄ" d="M1143 1024l-377 -485q159 -43 252.5 -167t93.5 -296q0 -204 -161 -345t-423 -141q-230 0 -399 78v242q179 -88 365 -88q135 0 211.5 68t76.5 184q0 127 -81.5 199.5t-231.5 72.5h-20v-346h-316v1024h316v-481h4l315 481h375z"/>
<glyph glyph-name="uni04C5" horiz-adv-x="1612" unicode="Ӆ" d="M1331 223h223l-184 -596h-293l161 373h-230v1165h-287q-116 -824 -217 -1004.5t-307 -180.5q-87 0 -174 28v258q58 -20 100 -20q41 0 72.5 26t69.5 138t91.5 386.5t102.5 637.5h872v-1211z"/>
<glyph glyph-name="uni04C6" horiz-adv-x="1383" unicode="ӆ" d="M1102 223h223l-184 -596h-293l161 373h-225v801h-174q-55 -465 -164.5 -639t-306.5 -174q-68 0 -123 20v215q35 -16 74 -16q94 0 156 175t112 642h744v-801z"/>
<glyph glyph-name="uni04C7" horiz-adv-x="1569" unicode="Ӈ" d="M1081 582h-594v-582h-323v1434h323v-570h594v570h324v-1223q0 -159 -57.5 -278.5t-158 -198.5t-236.5 -118.5t-294 -39.5q-184 0 -360 57v289q195 -76 362 -76q96 0 174 24t132.5 70.5t84 114t29.5 154.5v373z"/>
<glyph glyph-name="uni04C8" horiz-adv-x="1254" unicode="ӈ" d="M803 428h-354v-428h-316v1024h316v-379h354v379h317v-916v-15q0 -113 -43 -206.5t-121.5 -160t-185 -101.5t-227.5 -35q-115 0 -218 19.5t-188 58.5v242q177 -88 366 -88q149 0 224.5 66t75.5 200v340z"/>
<glyph glyph-name="uni04C9" horiz-adv-x="1739" unicode="Ӊ" d="M1681 276l-226 -663h-310l174 387h-238v582h-594v-582h-323v1434h323v-570h594v570h324v-1158h276z"/>
<glyph glyph-name="uni04CA" horiz-adv-x="1401" unicode="ӊ" d="M1343 223l-184 -596h-293l161 373h-224v428h-354v-428h-316v1024h316v-379h354v379h317v-801h223z"/>
<glyph glyph-name="uni04CB" horiz-adv-x="1479" unicode="Ӌ" d="M1315 0h-244v-388h-285v664h205v293q-201 -110 -407 -110q-445 0 -445 428v547h322v-519q0 -186 205 -186q162 0 325 98v607h324v-1434z"/>
<glyph glyph-name="uni04CC" horiz-adv-x="1229" unicode="ӌ" d="M1096 0h-222v-373h-258v596h164v131q-161 -90 -311 -90q-348 0 -348 352v408h303v-358q0 -158 141 -158q100 0 215 61v455h316v-1024z"/>
<glyph glyph-name="uni04CD" horiz-adv-x="2132" unicode="Ӎ" d="M1798 276h276l-226 -663h-310l174 387h-233v858q0 139 12 307h-8q-25 -132 -45 -190l-336 -975h-264l-342 965q-14 39 -45 200h-9q13 -212 13 -372v-793h-291v1434h473l293 -850q35 -102 51 -205h6q27 119 57 207l293 848h461v-1158z"/>
<glyph glyph-name="uni04CE" horiz-adv-x="1739" unicode="ӎ" d="M1458 223h223l-184 -596h-293l161 373h-202v797q-10 -56 -53 -189l-199 -608h-278l-199 608q-48 146 -53 185v-793h-248v1024h416l194 -584q45 -135 50 -182q7 45 51 180l192 586h422v-801z"/>
<glyph glyph-name="uni04CF" horiz-adv-x="582" unicode="ӏ" d="M449 0h-316v1516h316v-1516z"/>
<glyph glyph-name="uni04D0" horiz-adv-x="1440" unicode="Ӑ" d="M897 567l-154 482q-17 54 -24 129h-8q-5 -63 -25 -125l-156 -486h367zM1425 0h-352l-102 319h-510l-101 -319h-350l522 1434h383zM1055 1840q-12 -141 -102.5 -224t-237.5 -83q-146 0 -238 85.5t-96 221.5h179q17 -135 159 -135q137 0 156 135h180z"/>
<glyph glyph-name="uni04D1" d="M688 416v69l-186 -24q-154 -20 -154 -139q0 -54 37.5 -88.5t101.5 -34.5q89 0 145 61.5t56 155.5zM985 0h-299v147h-4q-103 -172 -305 -172q-149 0 -234.5 84.5t-85.5 225.5q0 298 353 344l278 37q0 168 -182 168q-183 0 -348 -109v238q66 34 180.5 60t208.5 26 q438 0 438 -437v-612zM868 1493q-12 -141 -102.5 -224t-237.5 -83q-146 0 -238 85.5t-96 221.5h179q17 -135 159 -135q137 0 156 135h180z" unicode="ӑ"/>
<glyph glyph-name="uni04D2" horiz-adv-x="1440" unicode="Ӓ" d="M897 567l-154 482q-17 54 -24 129h-8q-5 -63 -25 -125l-156 -486h367zM1425 0h-352l-102 319h-510l-101 -319h-350l522 1434h383zM470 1533q-68 0 -111 39.5t-43 97.5q0 60 44 98.5t110 38.5q68 0 110.5 -38.5t42.5 -98.5q0 -61 -42.5 -99t-110.5 -38zM928 1533 q-67 0 -110 39t-43 98q0 61 43 99t110 38t110.5 -38.5t43.5 -98.5t-43 -98.5t-111 -38.5z"/>
<glyph glyph-name="uni04D3" d="M688 416v69l-186 -24q-154 -20 -154 -139q0 -54 37.5 -88.5t101.5 -34.5q89 0 145 61.5t56 155.5zM985 0h-299v147h-4q-103 -172 -305 -172q-149 0 -234.5 84.5t-85.5 225.5q0 298 353 344l278 37q0 168 -182 168q-183 0 -348 -109v238q66 34 180.5 60t208.5 26 q438 0 438 -437v-612zM338 1186q-68 0 -111 39.5t-43 97.5q0 60 44 98.5t110 38.5q68 0 110.5 -38.5t42.5 -98.5q0 -61 -42.5 -99t-110.5 -38zM796 1186q-67 0 -110 39t-43 98q0 61 43 99t110 38t110.5 -38.5t43.5 -98.5t-43 -98.5t-111 -38.5z" unicode="ӓ"/>
<glyph glyph-name="uni04D4" horiz-adv-x="1915" unicode="Ӕ" d="M991 567v604h-78l-282 -604h360zM1849 0h-858v319h-471l-147 -319h-375l725 1434h1094v-263h-504v-319h469v-262h-469v-328h536v-262z"/>
<glyph glyph-name="uni04D5" horiz-adv-x="1696" unicode="ӕ" d="M686 414v45l-156 -13q-184 -15 -184 -131q0 -50 39 -83t102 -33q86 0 142.5 59.5t56.5 155.5zM1348 616q0 220 -177 220q-75 0 -131.5 -62t-66.5 -158h375zM1640 422h-667q20 -223 282 -223q160 0 297 80v-226q-156 -78 -378 -78q-269 0 -398 179h-4q-141 -179 -362 -179 q-166 0 -259.5 82.5t-93.5 229.5q0 146 96.5 234t276.5 102l256 20q0 191 -184 191q-174 0 -344 -107v236q187 86 370 86q234 0 324 -134h4q132 134 326 134q214 0 336 -133t122 -365v-129z"/>
<glyph glyph-name="uni04D6" horiz-adv-x="1090" unicode="Ӗ" d="M1024 0h-860v1434h827v-263h-504v-319h469v-262h-469v-328h537v-262zM967 1842q-12 -141 -102.5 -224t-237.5 -83q-146 0 -238 85.5t-96 221.5h179q17 -135 159 -135q137 0 156 135h180z"/>
<glyph glyph-name="uni04D7" horiz-adv-x="1108" unicode="ӗ" d="M760 616q0 220 -178 220q-76 0 -131.5 -63t-67.5 -157h377zM1053 422h-668q16 -223 281 -223q169 0 297 80v-228q-142 -76 -369 -76q-248 0 -385 137.5t-137 383.5q0 255 148 404t364 149q224 0 346.5 -133t122.5 -361v-133zM921 1493q-12 -141 -102.5 -224t-237.5 -83 q-146 0 -238 85.5t-96 221.5h179q17 -135 159 -135q137 0 156 135h180z"/>
<glyph glyph-name="uni04D8" horiz-adv-x="1557" unicode="Ә" d="M1133 594h-705q17 -165 106.5 -259.5t227.5 -94.5q146 0 244 95t127 259zM78 850h1055q-60 344 -447 344q-214 0 -444 -152v287q207 129 491 129q361 0 555.5 -190t194.5 -533q0 -339 -198.5 -549.5t-524.5 -210.5q-306 0 -494 201t-188 531v143z"/>
<glyph glyph-name="uni04D9" horiz-adv-x="1108" unicode="ә" d="M725 408h-377q0 -220 178 -220q76 0 131.5 63t67.5 157zM55 602h668q-15 223 -281 223q-168 0 -297 -80v228q143 76 369 76q248 0 385 -137.5t137 -383.5q0 -255 -148 -404t-364 -149q-224 0 -346.5 133t-122.5 361v133z"/>
<glyph glyph-name="uni04DA" horiz-adv-x="1557" unicode="Ӛ" d="M1133 594h-705q17 -165 106.5 -259.5t227.5 -94.5q146 0 244 95t127 259zM78 850h1055q-60 344 -447 344q-214 0 -444 -152v287q207 129 491 129q361 0 555.5 -190t194.5 -533q0 -339 -198.5 -549.5t-524.5 -210.5q-306 0 -494 201t-188 531v143zM531 1567 q-68 0 -111 39.5t-43 97.5q0 60 44 98.5t110 38.5q68 0 110.5 -38.5t42.5 -98.5q0 -61 -42.5 -99t-110.5 -38zM989 1567q-67 0 -110 39t-43 98q0 61 43 99t110 38t110.5 -38.5t43.5 -98.5t-43 -98.5t-111 -38.5z"/>
<glyph glyph-name="uni04DB" horiz-adv-x="1108" unicode="ӛ" d="M725 408h-377q0 -220 178 -220q76 0 131.5 63t67.5 157zM55 602h668q-15 223 -281 223q-168 0 -297 -80v228q143 76 369 76q248 0 385 -137.5t137 -383.5q0 -255 -148 -404t-364 -149q-224 0 -346.5 133t-122.5 361v133zM330 1186q-68 0 -111 39.5t-43 97.5q0 60 44 98.5 t110 38.5q68 0 110.5 -38.5t42.5 -98.5q0 -61 -42.5 -99t-110.5 -38zM788 1186q-67 0 -110 39t-43 98q0 61 43 99t110 38t110.5 -38.5t43.5 -98.5t-43 -98.5t-111 -38.5z"/>
<glyph glyph-name="uni04DC" horiz-adv-x="2033" unicode="Ӝ" d="M2042 0h-402l-423 618q-17 24 -39 72h-4v-690h-316v690h-4q-10 -23 -39 -72l-424 -618h-401l547 748l-506 686h385l399 -600q25 -38 39 -66h4v666h316v-666h4q14 29 39 66l399 600h385l-506 -686zM789 1567q-68 0 -111 39.5t-43 97.5q0 60 44 98.5t110 38.5 q68 0 110.5 -38.5t42.5 -98.5q0 -61 -42.5 -99t-110.5 -38zM1247 1567q-67 0 -110 39t-43 98q0 61 43 99t110 38t110.5 -38.5t43.5 -98.5t-43 -98.5t-111 -38.5z"/>
<glyph glyph-name="uni04DD" horiz-adv-x="1736" unicode="ӝ" d="M1731 0h-373l-330 512h-4v-512h-311v512h-4l-328 -512h-373l389 537l-379 487h371l320 -485h4v485h311v-485h4l320 485h370l-379 -487zM639 1186q-68 0 -111 39.5t-43 97.5q0 60 44 98.5t110 38.5q68 0 110.5 -38.5t42.5 -98.5q0 -61 -42.5 -99t-110.5 -38zM1097 1186 q-67 0 -110 39t-43 98q0 61 43 99t110 38t110.5 -38.5t43.5 -98.5t-43 -98.5t-111 -38.5z"/>
<glyph glyph-name="uni04DE" horiz-adv-x="1144" unicode="Ӟ" d="M72 53v283q171 -115 389 -115q270 0 270 195q0 198 -297 198h-184v242h176q264 0 264 186q0 170 -225 170q-161 0 -344 -102v264q184 84 407 84q235 0 364.5 -97.5t129.5 -264.5q0 -131 -73.5 -222.5t-209.5 -123.5v-5q153 -20 239.5 -110.5t86.5 -224.5 q0 -207 -150 -321t-432 -114q-268 0 -411 78zM316 1567q-68 0 -111 39.5t-43 97.5q0 60 44 98.5t110 38.5q68 0 110.5 -38.5t42.5 -98.5q0 -61 -42.5 -99t-110.5 -38zM774 1567q-67 0 -110 39t-43 98q0 61 43 99t110 38t110.5 -38.5t43.5 -98.5t-43 -98.5t-111 -38.5z"/>
<glyph glyph-name="uni04DF" horiz-adv-x="984" unicode="ӟ" d="M80 27v229q148 -68 295 -68q213 0 213 117q0 121 -232 121h-143v195h145q199 0 199 116q0 103 -178 103q-134 0 -268 -60v217q180 52 325 52q447 0 447 -277q0 -192 -238 -237v-5q126 -11 197 -76t71 -165q0 -309 -501 -309q-191 0 -332 47zM258 1186q-68 0 -111 39.5 t-43 97.5q0 60 44 98.5t110 38.5q68 0 110.5 -38.5t42.5 -98.5q0 -61 -42.5 -99t-110.5 -38zM716 1186q-67 0 -110 39t-43 98q0 61 43 99t110 38t110.5 -38.5t43.5 -98.5t-43 -98.5t-111 -38.5z"/>
<glyph glyph-name="uni04E0" horiz-adv-x="1137" unicode="Ӡ" d="M72 53v283q171 -115 383 -115q276 0 276 217q0 211 -315 211h-129v135l313 387h-506v263h916v-181l-351 -405q190 -7 298 -113t108 -280q0 -228 -148 -354t-434 -126q-268 0 -411 78z"/>
<glyph glyph-name="uni04E1" horiz-adv-x="1016" unicode="ӡ" d="M-23 -389v274q157 -125 355 -125q164 0 255 65.5t91 182.5q0 115 -94 179.5t-262 64.5h-125v131l350 408h-537v233h914v-156l-363 -413q205 -32 319.5 -146t114.5 -293q0 -219 -183 -358t-462 -139q-208 0 -373 92z"/>
<glyph glyph-name="uni04E2" horiz-adv-x="1619" unicode="Ӣ" d="M1454 0h-305v788q0 136 10 232h-6q-21 -41 -72 -119l-592 -901h-325v1434h305v-793q0 -147 -8 -197h4q5 12 74 117l569 873h346v-1434zM1087 1567h-586v172h586v-172z"/>
<glyph glyph-name="uni04E3" horiz-adv-x="1285" unicode="ӣ" d="M1151 0h-287v670q-39 -79 -84 -146l-348 -524h-299v1024h289v-649q32 67 70 125l348 524h311v-1024zM924 1186h-586v172h586v-172z"/>
<glyph glyph-name="uni04E4" horiz-adv-x="1619" unicode="Ӥ" d="M1454 0h-305v788q0 136 10 232h-6q-21 -41 -72 -119l-592 -901h-325v1434h305v-793q0 -147 -8 -197h4q5 12 74 117l569 873h346v-1434zM594 1567q-68 0 -111 39.5t-43 97.5q0 60 44 98.5t110 38.5q68 0 110.5 -38.5t42.5 -98.5q0 -61 -42.5 -99t-110.5 -38zM1052 1567 q-67 0 -110 39t-43 98q0 61 43 99t110 38t110.5 -38.5t43.5 -98.5t-43 -98.5t-111 -38.5z"/>
<glyph glyph-name="uni04E5" horiz-adv-x="1285" unicode="ӥ" d="M1151 0h-287v670q-39 -79 -84 -146l-348 -524h-299v1024h289v-649q32 67 70 125l348 524h311v-1024zM410 1186q-68 0 -111 39.5t-43 97.5q0 60 44 98.5t110 38.5q68 0 110.5 -38.5t42.5 -98.5q0 -61 -42.5 -99t-110.5 -38zM868 1186q-67 0 -110 39t-43 98q0 61 43 99 t110 38t110.5 -38.5t43.5 -98.5t-43 -98.5t-111 -38.5z"/>
<glyph glyph-name="uni04E6" horiz-adv-x="1553" unicode="Ӧ" d="M784 1180q-170 0 -270 -127.5t-100 -337.5q0 -213 100 -337t262 -124q167 0 265 120.5t98 334.5q0 223 -95 347t-260 124zM770 -25q-308 0 -502 200.5t-194 522.5q0 340 197 550t522 210q307 0 496.5 -201t189.5 -530q0 -338 -196.5 -545t-512.5 -207zM545 1567 q-68 0 -111 39.5t-43 97.5q0 60 44 98.5t110 38.5q68 0 110.5 -38.5t42.5 -98.5q0 -61 -42.5 -99t-110.5 -38zM1003 1567q-67 0 -110 39t-43 98q0 61 43 99t110 38t110.5 -38.5t43.5 -98.5t-43 -98.5t-111 -38.5z"/>
<glyph glyph-name="uni04E7" horiz-adv-x="1252" unicode="ӧ" d="M629 807q-112 0 -174 -77t-62 -218q0 -295 238 -295q227 0 227 303q0 287 -229 287zM621 -25q-256 0 -402.5 143.5t-146.5 389.5q0 254 152 397.5t411 143.5q255 0 400 -143.5t145 -379.5q0 -255 -149.5 -403t-409.5 -148zM402 1186q-68 0 -111 39.5t-43 97.5 q0 60 44 98.5t110 38.5q68 0 110.5 -38.5t42.5 -98.5q0 -61 -42.5 -99t-110.5 -38zM860 1186q-67 0 -110 39t-43 98q0 61 43 99t110 38t110.5 -38.5t43.5 -98.5t-43 -98.5t-111 -38.5z"/>
<glyph glyph-name="uni04E8" horiz-adv-x="1553" unicode="Ө" d="M1135 584h-715q27 -166 121 -255t235 -89q310 0 359 344zM1135 840q-51 354 -351 354q-149 0 -244.5 -92.5t-121.5 -261.5h717zM770 -25q-308 0 -502 200.5t-194 522.5q0 340 197 550t522 210q307 0 496.5 -201t189.5 -530q0 -338 -196.5 -545t-512.5 -207z"/>
<glyph glyph-name="uni04E9" horiz-adv-x="1252" unicode="ө" d="M860 414h-469q39 -219 240 -219q192 0 229 219zM864 600q-31 227 -235 227t-240 -227h475zM621 -25q-256 0 -402.5 143.5t-146.5 389.5q0 254 152 397.5t411 143.5q255 0 400 -143.5t145 -379.5q0 -255 -149.5 -403t-409.5 -148z"/>
<glyph glyph-name="uni04EA" horiz-adv-x="1553" unicode="Ӫ" d="M1130 594h-704q26 -160 120 -250t230 -90q142 0 235.5 89t118.5 251zM1128 838q-26 164 -115.5 253t-228.5 89q-142 0 -236 -91t-122 -251h702zM770 -25q-308 0 -502 200.5t-194 522.5q0 340 197 550t522 210q307 0 496.5 -201t189.5 -530q0 -338 -196.5 -545 t-512.5 -207zM545 1567q-68 0 -111 39.5t-43 97.5q0 60 44 98.5t110 38.5q68 0 110.5 -38.5t42.5 -98.5q0 -61 -42.5 -99t-110.5 -38zM1003 1567q-67 0 -110 39t-43 98q0 61 43 99t110 38t110.5 -38.5t43.5 -98.5t-43 -98.5t-111 -38.5z"/>
<glyph glyph-name="uni04EB" horiz-adv-x="1241" unicode="ӫ" d="M844 416h-447q38 -199 228 -199q182 0 219 199zM844 610q-36 197 -221 197q-186 0 -226 -197h447zM614 -25q-253 0 -397.5 142.5t-144.5 390.5q0 254 150 397.5t409 143.5q254 0 396 -143t142 -380q0 -256 -147.5 -403.5t-407.5 -147.5zM402 1186q-68 0 -111 39.5 t-43 97.5q0 60 44 98.5t110 38.5q68 0 110.5 -38.5t42.5 -98.5q0 -61 -42.5 -99t-110.5 -38zM860 1186q-67 0 -110 39t-43 98q0 61 43 99t110 38t110.5 -38.5t43.5 -98.5t-43 -98.5t-111 -38.5z"/>
<glyph glyph-name="uni04EC" horiz-adv-x="1277" unicode="Ӭ" d="M88 51v281q157 -92 354 -92q361 0 408 344h-553v256h555q-62 354 -408 354q-197 0 -356 -84v291q167 57 389 57q341 0 533 -196.5t192 -548.5q0 -333 -191 -535.5t-522 -202.5q-243 0 -401 76zM318 1567q-68 0 -111 39.5t-43 97.5q0 60 44 98.5t110 38.5 q68 0 110.5 -38.5t42.5 -98.5q0 -61 -42.5 -99t-110.5 -38zM776 1567q-67 0 -110 39t-43 98q0 61 43 99t110 38t110.5 -38.5t43.5 -98.5t-43 -98.5t-111 -38.5z"/>
<glyph glyph-name="uni04ED" horiz-adv-x="981" unicode="ӭ" d="M76 43v225q109 -73 246 -73q238 0 270 219h-381v186h383q-31 227 -279 227q-133 0 -231 -69v235q122 56 278 56q267 0 407 -139.5t140 -403.5q0 -236 -144 -383.5t-390 -147.5q-165 0 -299 68zM228 1186q-68 0 -111 39.5t-43 97.5q0 60 44 98.5t110 38.5 q68 0 110.5 -38.5t42.5 -98.5q0 -61 -42.5 -99t-110.5 -38zM686 1186q-67 0 -110 39t-43 98q0 61 43 99t110 38t110.5 -38.5t43.5 -98.5t-43 -98.5t-111 -38.5z"/>
<glyph glyph-name="uni04EE" horiz-adv-x="1259" unicode="Ӯ" d="M1268 1434l-449 -983q-126 -276 -238 -376t-284 -100q-114 0 -186 33v295q82 -53 170 -53q121 0 213 196l-471 988h368l238 -574q21 -52 33 -117h2q11 54 34 113l230 578h340zM922 1567h-586v172h586v-172z"/>
<glyph glyph-name="uni04EF" d="M1108 1024l-416 -1106q-150 -399 -452 -399q-115 0 -189 26v252q63 -37 137 -37q122 0 170 115l54 127l-416 1022h350l191 -623q18 -58 28 -137h4q9 58 33 135l193 625h313zM844 1186h-586v172h586v-172z" unicode="ӯ"/>
<glyph glyph-name="uni04F0" horiz-adv-x="1259" unicode="Ӱ" d="M1268 1434l-449 -983q-126 -276 -238 -376t-284 -100q-114 0 -186 33v295q82 -53 170 -53q121 0 213 196l-471 988h368l238 -574q21 -52 33 -117h2q11 54 34 113l230 578h340zM441 1567q-68 0 -111 39.5t-43 97.5q0 60 44 98.5t110 38.5q68 0 110.5 -38.5t42.5 -98.5 q0 -61 -42.5 -99t-110.5 -38zM899 1567q-67 0 -110 39t-43 98q0 61 43 99t110 38t110.5 -38.5t43.5 -98.5t-43 -98.5t-111 -38.5z"/>
<glyph glyph-name="uni04F1" d="M1108 1024l-416 -1106q-150 -399 -452 -399q-115 0 -189 26v252q63 -37 137 -37q122 0 170 115l54 127l-416 1022h350l191 -623q18 -58 28 -137h4q9 58 33 135l193 625h313zM328 1186q-68 0 -111 39.5t-43 97.5q0 60 44 98.5t110 38.5q68 0 110.5 -38.5t42.5 -98.5 q0 -61 -42.5 -99t-110.5 -38zM786 1186q-67 0 -110 39t-43 98q0 61 43 99t110 38t110.5 -38.5t43.5 -98.5t-43 -98.5t-111 -38.5z" unicode="ӱ"/>
<glyph glyph-name="uni04F2" horiz-adv-x="1259" unicode="Ӳ" d="M1268 1434l-449 -983q-126 -276 -238 -376t-284 -100q-114 0 -186 33v295q82 -53 170 -53q121 0 213 196l-471 988h368l238 -574q21 -52 33 -117h2q11 54 34 113l230 578h340zM728 1886l-248 -319h-211l211 319h248zM1106 1886l-252 -319h-210l213 319h249z"/>
<glyph glyph-name="uni04F3" d="M1108 1024l-416 -1106q-150 -399 -452 -399q-115 0 -189 26v252q63 -37 137 -37q122 0 170 115l54 127l-416 1022h350l191 -623q18 -58 28 -137h4q9 58 33 135l193 625h313zM652 1505l-248 -319h-211l211 319h248zM1030 1505l-252 -319h-210l213 319h249z" unicode="ӳ"/>
<glyph glyph-name="uni04F4" horiz-adv-x="1487" unicode="Ӵ" d="M1315 0h-324v569q-201 -110 -407 -110q-445 0 -445 428v547h322v-519q0 -186 205 -186q162 0 325 98v607h324v-1434zM496 1567q-68 0 -111 39.5t-43 97.5q0 60 44 98.5t110 38.5q68 0 110.5 -38.5t42.5 -98.5q0 -61 -42.5 -99t-110.5 -38zM954 1567q-67 0 -110 39t-43 98 q0 61 43 99t110 38t110.5 -38.5t43.5 -98.5t-43 -98.5t-111 -38.5z"/>
<glyph glyph-name="uni04F5" horiz-adv-x="1230" unicode="ӵ" d="M1096 0h-316v354q-161 -90 -311 -90q-348 0 -348 352v408h303v-358q0 -158 141 -158q100 0 215 61v455h316v-1024zM365 1186q-68 0 -111 39.5t-43 97.5q0 60 44 98.5t110 38.5q68 0 110.5 -38.5t42.5 -98.5q0 -61 -42.5 -99t-110.5 -38zM823 1186q-67 0 -110 39t-43 98 q0 61 43 99t110 38t110.5 -38.5t43.5 -98.5t-43 -98.5t-111 -38.5z"/>
<glyph glyph-name="uni04F6" horiz-adv-x="1048" unicode="Ӷ" d="M1018 1167h-531v-891h205v-667h-284v391h-244v1434h854v-267z"/>
<glyph glyph-name="uni04F7" horiz-adv-x="840" unicode="ӷ" d="M449 223h164v-596h-257v373h-223v1024h668v-240h-352v-561z"/>
<glyph glyph-name="uni04F8" horiz-adv-x="1840" unicode="Ӹ" d="M487 653v-407h146q244 0 244 207q0 200 -238 200h-152zM164 0v1434h323v-537h211q519 0 519 -422q0 -225 -140 -350t-395 -125h-518zM1675 0h-321v1434h321v-1434zM686 1567q-68 0 -111 39.5t-43 97.5q0 60 44 98.5t110 38.5q68 0 110.5 -38.5t42.5 -98.5 q0 -61 -42.5 -99t-110.5 -38zM1144 1567q-67 0 -110 39t-43 98q0 61 43 99t110 38t110.5 -38.5t43.5 -98.5t-43 -98.5t-111 -38.5z"/>
<glyph glyph-name="uni04F9" horiz-adv-x="1669" unicode="ӹ" d="M449 467v-266h153q160 0 160 137q0 129 -156 129h-157zM133 0v1024h316v-358h270q174 0 271 -84.5t97 -237.5q0 -157 -96 -250.5t-266 -93.5h-592zM1536 0h-317v1024h317v-1024zM594 1186q-68 0 -111 39.5t-43 97.5q0 60 44 98.5t110 38.5q68 0 110.5 -38.5t42.5 -98.5 q0 -61 -42.5 -99t-110.5 -38zM1052 1186q-67 0 -110 39t-43 98q0 61 43 99t110 38t110.5 -38.5t43.5 -98.5t-43 -98.5t-111 -38.5z"/>
<glyph glyph-name="uni04FA" horiz-adv-x="1149" unicode="Ӻ" d="M1120 1167h-530v-338h342v-262h-342v-567h-324v567h-235v262h235v605h854v-267zM906 63q0 -485 -410 -485q-88 0 -172 31v248q66 -37 117 -37q149 0 149 233v190h316v-180z"/>
<glyph glyph-name="uni04FB" horiz-adv-x="918" unicode="ӻ" d="M891 784h-352v-211h231v-237h-231v-336h-316v336h-196v237h196v451h668v-240zM855 63q0 -485 -410 -485q-88 0 -172 31v248q66 -37 117 -37q149 0 149 233v90h316v-80z"/>
<glyph glyph-name="uni04FC" horiz-adv-x="1503" unicode="Ӽ" d="M1335 0h-383l-247 467q-14 26 -29 96h-4q-7 -33 -33 -100l-248 -463h-385l457 717l-418 717h393l205 -430q24 -51 43 -121h4q12 42 45 125l228 426h360l-430 -711zM1443 63q0 -485 -410 -485q-88 0 -172 31v248q66 -37 117 -37q149 0 149 233v190h316v-180z"/>
<glyph glyph-name="uni04FD" horiz-adv-x="1303" unicode="ӽ" d="M1122 1024l-338 -496l336 -528h-364l-148 276q-18 33 -43 93h-4q-15 -42 -41 -90l-149 -279h-363l346 510l-325 514h366l146 -287q29 -57 41 -96h4q16 47 43 98l149 285h344zM1253 63q0 -485 -410 -485q-88 0 -172 31v248q66 -37 117 -37q149 0 149 233v90h316v-80z"/>
<glyph glyph-name="uni04FE" horiz-adv-x="1342" unicode="Ӿ" d="M1335 0h-383l-247 467q-14 26 -29 96h-4q-7 -33 -33 -100l-248 -463h-385l404 634h-380v205h362l-347 595h393l205 -430q24 -51 43 -121h4q12 42 45 125l228 426h360l-360 -595h349v-205h-365z"/>
<glyph glyph-name="uni0500" horiz-adv-x="1276" unicode="Ԁ" d="M788 246v407h-151q-238 0 -238 -200q0 -207 244 -207h145zM1112 0h-526q-527 0 -527 446q0 217 135.5 334t391.5 117h202v537h324v-1434z"/>
<glyph glyph-name="uni0501" horiz-adv-x="1268" unicode="ԁ" d="M825 498v77q0 100 -58 166t-151 66q-105 0 -164 -82.5t-59 -226.5q0 -135 57 -208t158 -73q96 0 156.5 77t60.5 204zM1135 0h-316v141h-4q-108 -166 -317 -166q-192 0 -309 135.5t-117 378.5q0 254 129 407t338 153q198 0 276 -142h4v609h316v-1516z"/>
<glyph glyph-name="uni0502" horiz-adv-x="1839" unicode="Ԃ" d="M788 434v219h-151q-238 0 -238 -200q0 -207 209 -207q180 0 180 188zM1716 428q0 -210 -113.5 -331.5t-314.5 -121.5q-235 0 -348 185q-133 -185 -397 -185q-484 0 -484 471q0 217 135.5 334t391.5 117h202v537h324v-1018q0 -76 39 -125t104 -49q138 0 138 174v481h323 v-469z"/>
<glyph glyph-name="uni0503" horiz-adv-x="1827" unicode="ԃ" d="M825 498v77q0 100 -58 166t-151 66q-105 0 -164 -82.5t-59 -226.5q0 -135 57 -208t158 -73q96 0 156.5 77t60.5 204zM1714 397q0 -195 -108.5 -308.5t-302.5 -113.5q-247 0 -357 222q-144 -222 -416 -222q-214 0 -336 133.5t-122 380.5q0 254 129 407t338 153 q198 0 276 -142h4v609h316v-1135q0 -71 36.5 -113.5t94.5 -42.5q127 0 127 172v201h321v-201z"/>
<glyph glyph-name="uni0504" horiz-adv-x="1700" unicode="Ԅ" d="M1577 428q0 -206 -124.5 -329.5t-336.5 -123.5q-437 0 -475 441q-17 198 -297 198h-184v242h176q264 0 264 186q0 170 -225 170q-161 0 -344 -102v264q184 84 407 84q235 0 364.5 -97.5t129.5 -264.5q0 -131 -73.5 -222.5t-209.5 -123.5v-5q313 -41 326 -335 q8 -168 141 -168q137 0 137 174v448h324v-436z"/>
<glyph glyph-name="uni0505" horiz-adv-x="1518" unicode="ԅ" d="M1405 397q0 -189 -120.5 -305.5t-326.5 -116.5q-190 0 -297.5 74t-150.5 246q-32 131 -217 131h-160v195h146q198 0 198 116q0 103 -178 103q-134 0 -268 -60v217q180 52 325 52q447 0 447 -277q0 -192 -238 -237v-5q106 -9 167 -47.5t85 -128.5q35 -129 139 -129 q127 0 127 172v201h322v-201z"/>
<glyph glyph-name="uni0506" horiz-adv-x="1239" unicode="Ԇ" d="M1174 -387h-285v387h-244v412q0 97 -80 149.5t-221 52.5h-184v242h176q264 0 264 186q0 170 -225 170q-161 0 -344 -102v264q184 84 407 84q235 0 364.5 -97.5t129.5 -264.5q0 -131 -73.5 -222.5t-209.5 -123.5v-5q151 -20 235.5 -110t84.5 -225v-134h205v-663z"/>
<glyph glyph-name="uni0507" horiz-adv-x="1055" unicode="ԇ" d="M989 -373h-257v373h-222v266q0 160 -205 160h-172v195h146q198 0 198 116q0 103 -178 103q-134 0 -268 -60v217q180 52 325 52q447 0 447 -277q0 -192 -238 -237v-5q125 -11 192.5 -75t67.5 -166v-66h164v-596z"/>
<glyph glyph-name="uni0508" horiz-adv-x="1997" unicode="Ԉ" d="M1874 428q0 -206 -124.5 -329.5t-336.5 -123.5q-221 0 -344 122.5t-123 324.5v743h-426v-671q0 -239 -102 -375.5t-295 -136.5q-57 0 -98 18v252q38 -19 69 -19q73 0 105 59.5t32 201.5v940h1039v-1018q0 -76 39 -125t104 -49q137 0 137 174v448h324v-436z"/>
<glyph glyph-name="uni0509" horiz-adv-x="1794" unicode="ԉ" d="M1681 397q0 -190 -120.5 -306t-325.5 -116q-201 0 -326 116t-125 298v412h-313v-377q0 -209 -94 -323.5t-275 -114.5q-56 0 -86 10v221q24 -10 50 -10q124 0 124 239v578h912v-631q0 -77 36 -122.5t95 -45.5q127 0 127 172v201h321v-201z"/>
<glyph glyph-name="uni050A" horiz-adv-x="2132" unicode="Ԋ" d="M2009 428q0 -206 -124.5 -329.5t-336.5 -123.5q-210 0 -338.5 129.5t-128.5 317.5v160h-594v-582h-323v1434h323v-570h594v570h324v-1018q0 -76 39 -125t104 -49q138 0 138 174v448h323v-436z"/>
<glyph glyph-name="uni050B" horiz-adv-x="1813" unicode="ԋ" d="M1700 397q0 -189 -120.5 -305.5t-326.5 -116.5q-201 0 -325.5 116t-124.5 298v39h-354v-428h-316v1024h316v-379h354v379h317v-631q0 -77 36 -122.5t95 -45.5q127 0 127 172v201h322v-201z"/>
<glyph glyph-name="uni050C" horiz-adv-x="1557" unicode="Ԍ" d="M1483 662q0 -311 -189.5 -499t-498.5 -188q-333 0 -525 193t-192 526q0 335 214 549.5t570 214.5q264 0 463 -88v-309q-232 127 -455 127q-208 0 -332 -129.5t-124 -351.5q0 -224 100.5 -342.5t284.5 -118.5q147 0 235.5 78.5t98.5 224.5h-379v256h729v-143z"/>
<glyph glyph-name="uni050D" horiz-adv-x="1155" unicode="ԍ" d="M1100 463q0 -215 -140 -351.5t-374 -136.5q-227 0 -370.5 136.5t-143.5 384.5t150.5 400.5t418.5 152.5q180 0 338 -56v-256q-163 90 -311 90q-137 0 -217 -83t-80 -232q0 -148 65.5 -231.5t184.5 -83.5q84 0 135 51.5t51 130.5h-275v194h568v-110z"/>
<glyph glyph-name="uni050E" horiz-adv-x="1489" unicode="Ԏ" d="M1366 428q0 -206 -124.5 -329.5t-336.5 -123.5q-210 0 -338.5 129.5t-128.5 317.5v749h-407v263h1140v-263h-409v-755q0 -76 39 -125t104 -49q137 0 137 174v448h324v-436z"/>
<glyph glyph-name="uni050F" horiz-adv-x="1317" unicode="ԏ" d="M1204 397q0 -190 -120.5 -306t-325.5 -116q-201 0 -326 116t-125 298v395h-276v240h868v-240h-274v-391q0 -77 36 -122.5t95 -45.5q127 0 127 172v201h321v-201z"/>
<glyph glyph-name="uni0510" horiz-adv-x="1143" unicode="Ԑ" d="M1071 43q-168 -68 -379 -68q-294 0 -454 110.5t-160 311.5q0 132 76 225.5t213 129.5v6q-240 77 -240 301q0 184 155.5 291.5t426.5 107.5q181 0 338 -61v-283q-149 66 -318 66q-264 0 -264 -158t303 -158h119v-268h-129q-177 0 -258.5 -39t-81.5 -133q0 -170 301 -170 q194 0 352 74v-285z"/>
<glyph glyph-name="uni0511" horiz-adv-x="948" unicode="ԑ" d="M883 254v-233q-155 -46 -366 -46q-213 0 -331.5 78t-118.5 219q0 198 230 253v5q-82 21 -137.5 84t-55.5 147q0 137 112.5 212.5t320.5 75.5q167 0 302 -41v-232q-145 60 -259 60q-154 0 -154 -100q0 -117 205 -117q68 0 117 7v-208q-54 6 -146 6q-214 0 -214 -120 q0 -116 199 -116q143 0 296 66z"/>
<glyph glyph-name="uni0512" horiz-adv-x="1495" unicode="Ԓ" d="M1331 0h-323v1165h-287q-116 -824 -217 -1004.5t-307 -180.5q-87 0 -174 28v258q58 -20 100 -20q41 0 72.5 26t69.5 138t91.5 386.5t102.5 637.5h872v-1434zM1331 -18q0 -404 -410 -404q-88 0 -172 31v248q66 -37 120 -37q139 0 139 159v21h323v-18z"/>
<glyph glyph-name="uni0513" horiz-adv-x="1235" unicode="ԓ" d="M1102 0h-318v801h-174q-55 -465 -164.5 -639t-306.5 -174q-68 0 -123 20v215q35 -16 74 -16q94 0 156 175t112 642h744v-1024zM1107 -18q0 -404 -410 -404q-88 0 -172 31v248q66 -37 120 -37q139 0 139 159v21h323v-18z"/>
<glyph glyph-name="uni051A" horiz-adv-x="1553" unicode="Ԛ" d="M1040 27q52 -56 99 -92t94.5 -57t97.5 -29t109 -8q16 0 35 1.5t38.5 5t37.5 8t33 10.5v-272q-32 -9 -88.5 -18t-137.5 -9q-98 0 -180.5 32t-158 87.5t-147 130.5t-148.5 161q-147 4 -267 61t-205 153.5t-131.5 226.5t-46.5 279q0 341 196 550q197 210 525 210 q305 0 494 -202q190 -200 190 -529q0 -257 -116 -442q-116 -183 -323 -258zM784 1180q-169 0 -270 -128q-100 -127 -100 -337q0 -212 99 -337q100 -124 263 -124q168 0 265 120q98 122 98 335q0 221 -94 345q-94 126 -261 126z"/>
<glyph glyph-name="uni051B" horiz-adv-x="1268" unicode="ԛ" d="M825 489v82q0 100 -58 168t-149 68q-105 0 -165 -82.5t-60 -228.5q0 -131 58.5 -205t152.5 -74q100 0 160.5 75t60.5 197zM1135 -471h-316v612h-4q-107 -166 -315 -166q-193 0 -310.5 134.5t-117.5 377.5q0 256 129 409t336 153q188 0 278 -144h4v119h316v-1495z"/>
<glyph glyph-name="uni051C" horiz-adv-x="2058" unicode="Ԝ" d="M2040 1434l-379 -1434h-358l-238 920q-19 72 -23 161h-4q-9 -98 -26 -161l-244 -920h-373l-377 1434h353l202 -955q13 -61 19 -164h6q4 77 29 168l260 951h346l235 -963q13 -53 23 -154h4q4 79 21 160l198 957h326z"/>
<glyph glyph-name="uni051D" horiz-adv-x="1633" unicode="ԝ" d="M1616 1024l-295 -1024h-332l-151 600q-15 60 -17 131h-6q-7 -78 -20 -127l-162 -604h-328l-289 1024h322l141 -668q10 -47 15 -114h6q5 70 18 118l176 664h301l158 -668q6 -25 14 -116h7q5 58 16 116l133 668h293z"/>
<glyph glyph-name="uni1FBF" horiz-adv-x="1252" unicode="᾿" d="M539 1139l-53 84q93 53 121 127q-44 3 -75.5 34.5t-31.5 73.5q0 50 34.5 81.5t90.5 31.5q65 0 103 -39t38 -102q0 -89 -63.5 -169t-163.5 -122z"/>
<glyph glyph-name="uni1FFE" horiz-adv-x="1252" unicode="῾" d="M766 1223l-53 -84q-100 42 -163.5 122t-63.5 169q0 63 38 102t103 39q56 0 90.5 -31.5t34.5 -81.5q0 -42 -31 -73.5t-75 -34.5q29 -75 120 -127z"/>
<glyph glyph-name="uni2002" horiz-adv-x="1024" unicode=" "/>
<glyph glyph-name="uni2003" horiz-adv-x="2048" unicode=" "/>
<glyph glyph-name="uni200C" horiz-adv-x="0" unicode="‌" d="M36 1750v-2158h-72v2158h72z"/>
<glyph glyph-name="uni200D" horiz-adv-x="0" unicode="‍" d="M36 -408h-72v1859l-134 -136l-49 49l171 169l-171 168l49 49l170 -171l170 171l49 -49l-171 -168l171 -169l-49 -49l-134 136v-1859z"/>
<glyph glyph-name="uni200E" horiz-adv-x="0" unicode="‎" d="M431 1535l-217 -214l-49 49l137 130h-266v-1908h-72v1979h338l-137 130l49 49z"/>
<glyph glyph-name="endash" horiz-adv-x="1024" unicode="–" d="M1024 436h-1024v221h1024v-221z"/>
<glyph glyph-name="emdash" horiz-adv-x="2048" unicode="—" d="M2048 436h-2048v221h2048v-221z"/>
<glyph glyph-name="quoteleft" horiz-adv-x="594" unicode="‘" d="M481 1468l-110 -444h-275l189 444h196z"/>
<glyph glyph-name="quotesinglbase" horiz-adv-x="594" unicode="‚" d="M477 219l-192 -444h-195l115 444h272z"/>
<glyph glyph-name="quotedblleft" horiz-adv-x="1010" unicode="“" d="M481 1468l-110 -444h-275l189 444h196zM897 1468l-113 -444h-272l190 444h195z"/>
<glyph glyph-name="quotedblright" horiz-adv-x="1010" unicode="”" d="M500 1468l-193 -444h-194l114 444h273zM915 1468l-190 -444h-197l113 444h274z"/>
<glyph glyph-name="dagger" horiz-adv-x="832" unicode="†" d="M798 868l-273 30l-45 -696h-129l-45 696l-273 -30v226l293 -30l-30 370h239l-30 -370l293 30v-226z"/>
<glyph glyph-name="daggerdbl" horiz-adv-x="832" unicode="‡" d="M798 482l-298 30l35 -310h-239l35 310l-298 -30v226l268 -30l33 140l-33 140l-268 -30v226l298 -30l-35 310h239l-35 -310l298 30v-226l-268 30l-33 -140l33 -140l268 30v-226z"/>
<glyph glyph-name="ellipsis" horiz-adv-x="1868" unicode="…" d="M309 -23q-78 0 -129 48t-51 118q0 72 51.5 118t130.5 46q81 0 133 -46.5t52 -117.5q0 -73 -51.5 -119.5t-135.5 -46.5zM932 -23q-78 0 -129 48t-51 118q0 72 51.5 118t130.5 46q81 0 132.5 -46.5t51.5 -117.5q0 -73 -51.5 -119.5t-134.5 -46.5zM1554 -23q-78 0 -130 48 t-52 118q0 72 52.5 118t131.5 46q81 0 133 -46.5t52 -117.5q0 -73 -51.5 -119.5t-135.5 -46.5z"/>
<glyph glyph-name="perthousand" horiz-adv-x="2573" unicode="‰" d="M1339 551q-145 0 -145 -203q0 -192 141 -192q142 0 142 200q0 93 -38 144t-100 51zM1323 -20q-153 0 -246.5 97t-93.5 261q0 179 99.5 284t265.5 105q160 0 249 -94t89 -266q0 -177 -99 -282t-264 -105zM2136 551q-145 0 -145 -203q0 -192 139 -192q143 0 143 200 q0 93 -38 144t-99 51zM2118 -20q-153 0 -246.5 97t-93.5 261q0 179 99.5 284t264.5 105q161 0 250.5 -94t89.5 -266q0 -177 -99.5 -282t-264.5 -105zM1477 1434l-934 -1434h-244l934 1434h244zM449 1278q-146 0 -146 -203q0 -192 139 -192q142 0 142 200q0 195 -135 195z M430 707q-153 0 -246.5 97t-93.5 261q0 179 99.5 284t265.5 105q159 0 248.5 -95t89.5 -267q0 -177 -99 -281t-264 -104z"/>
<glyph glyph-name="minute" horiz-adv-x="600" unicode="′" d="M477 1452l-125 -442h-200l65 442h260z"/>
<glyph glyph-name="second" horiz-adv-x="1010" unicode="″" d="M486 1452l-125 -442h-203l65 442h263zM881 1452l-125 -444h-201l64 444h262z"/>
<glyph glyph-name="guilsinglleft" horiz-adv-x="705" unicode="‹" d="M651 201h-268l-330 336l330 344h268l-334 -344z"/>
<glyph glyph-name="guilsinglright" horiz-adv-x="705" unicode="›" d="M651 537l-329 -336h-269l334 336l-332 344h267z"/>
<glyph glyph-name="radicalex" horiz-adv-x="850" unicode="‾" d="M850 1397h-850v119h850v-119z"/>
<glyph glyph-name="fraction" horiz-adv-x="719" unicode="⁄" d="M932 1434l-891 -1434h-244l891 1434h244z"/>
<glyph glyph-name="fraction" horiz-adv-x="719" unicode="∕" d="M932 1434l-891 -1434h-244l891 1434h244z"/>
<glyph glyph-name="Euro" horiz-adv-x="1178" unicode="€" d="M1094 45q-118 -72 -308 -72q-225 0 -367 124.5t-188 355.5h-122v190h96q-2 25 -2 59q0 18 4 82h-98v187h127q55 231 208 359t381 128q167 0 269 -55v-260q-112 88 -254 88q-110 0 -193.5 -71t-118.5 -189h426v-187h-456q-4 -59 -4 -82q0 -27 2 -59h458v-190h-428 q75 -252 299 -252q141 0 269 90v-246z"/>
<glyph glyph-name="trademark" horiz-adv-x="1579" unicode="™" d="M582 1311h-179v-539h-155v539h-172v123h506v-123zM1395 772h-150v445h-4l-160 -445h-135l-145 445h-6v-445h-148v662h217l156 -453h4l168 453h203v-662z"/>
<glyph glyph-name="arrowleft" horiz-adv-x="1767" unicode="←" d="M1536 530h-1190l123 -118v-148l-319 332v4l319 332v-148l-125 -120h1192v-134z"/>
<glyph glyph-name="arrowup" horiz-adv-x="967" unicode="↑" d="M416 -12v1188l-119 -121h-147l331 319h4l332 -319h-147l-121 123v-1190h-133z"/>
<glyph glyph-name="arrowright" horiz-adv-x="1767" unicode="→" d="M231 664h1190l-123 120v148l320 -332v-4l-320 -332v148l121 118h-1188v134z"/>
<glyph glyph-name="arrowdown" horiz-adv-x="967" unicode="↓" d="M549 1376v-1192l121 125h147l-332 -319h-4l-331 319h147l119 -123v1190h133z"/>
<glyph glyph-name="partialdiff" horiz-adv-x="1183" unicode="∂" d="M786 645q-38 154 -157 154q-109 0 -185.5 -121t-76.5 -270q0 -191 143 -191q102 0 178 119.5t98 308.5zM819 879h4q2 31 2 39q0 342 -243 342q-134 0 -269 -70l64 250q137 61 285 61q487 0 487 -579q0 -217 -74 -452t-228.5 -365t-371.5 -130q-201 0 -315.5 113 t-114.5 309q0 253 145 438t373 185q169 0 256 -141z"/>
<glyph glyph-name="product" horiz-adv-x="1620" unicode="∏" d="M1475 -471h-324v1626h-664v-1626h-323v1905h1311v-1905z"/>
<glyph glyph-name="summation" horiz-adv-x="1316" unicode="∑" d="M1270 -469h-1217v176l604 785l-579 757v185h1159v-263h-707l500 -671l-528 -707h768v-262z"/>
<glyph glyph-name="minus" horiz-adv-x="1448" unicode="−" d="M1212 485h-974v203h974v-203z"/>
<glyph glyph-name="radical" horiz-adv-x="1331" unicode="√" d="M1196 1516l-408 -1516h-196l-320 729h-182v168h350l242 -567l317 1186h197z"/>
<glyph glyph-name="infinity" horiz-adv-x="1664" unicode="∞" d="M940 586q108 -191 246 -191q80 0 131 54t51 137q0 84 -51.5 138t-132.5 54q-134 0 -244 -192zM729 596q-108 192 -246 192q-81 0 -132.5 -54.5t-51.5 -137.5t51.5 -136.5t134.5 -53.5q136 0 244 190zM834 438q-153 -243 -379 -243q-170 0 -277.5 111.5t-107.5 291.5 q0 165 111 281t274 116q236 0 379 -252q152 242 380 242q171 0 278 -111t107 -290q0 -165 -112 -281.5t-275 -116.5q-231 0 -378 252z"/>
<glyph glyph-name="intersection" horiz-adv-x="1437" unicode="∩" d="M712 899q-57 0 -108 -20t-89.5 -60.5t-60.5 -103t-22 -147.5v-452h-202v453q0 138 42.5 238.5t111.5 166t157 97.5t178 32q93 0 181 -32t156 -97.5t109.5 -166t41.5 -238.5v-453h-195v452q0 83 -24.5 145t-66 103t-96 62t-113.5 21z"/>
<glyph glyph-name="therefore" horiz-adv-x="1426" unicode="∴" d="M709 803q-78 0 -130 48t-52 118q0 72 53.5 118t133.5 46q81 0 132.5 -46.5t51.5 -117.5q0 -73 -52.5 -119.5t-136.5 -46.5zM1080 61q-78 0 -130 48t-52 118q0 72 53.5 118t133.5 46q81 0 132.5 -46.5t51.5 -117.5q0 -73 -52.5 -119.5t-136.5 -46.5zM338 61q-78 0 -130 48 t-52 118q0 72 53.5 118t133.5 46q81 0 132.5 -46.5t51.5 -117.5q0 -73 -52.5 -119.5t-136.5 -46.5z"/>
<glyph glyph-name="approxequal" horiz-adv-x="1450" unicode="≈" d="M1255 549q-6 -168 -89.5 -266.5t-223.5 -98.5q-102 0 -258 90q-110 64 -156 64q-123 0 -129 -162h-204q6 170 88.5 268.5t226.5 98.5q114 0 240 -76q130 -78 180 -78q53 0 86 44t35 116h204zM1255 997q-6 -168 -89.5 -266t-223.5 -98q-105 0 -258 88q-109 63 -156 63 q-123 0 -129 -157h-204q6 169 88.5 265.5t226.5 96.5q114 0 240 -76q125 -75 180 -75q53 0 86 43.5t35 115.5h204z"/>
<glyph glyph-name="notequal" horiz-adv-x="1450" unicode="≠" d="M1212 266h-536l-139 -266h-244l139 266h-194v203h301l120 231h-421v205h528l145 283h244l-145 -283h202v-205h-309l-121 -231h430v-203z"/>
<glyph glyph-name="uni2261" horiz-adv-x="1448" unicode="≡" d="M1212 919h-974v205h974v-205zM1212 49h-974v203h974v-203zM1212 483h-974v205h974v-205z"/>
<glyph glyph-name="lessequal" horiz-adv-x="1450" unicode="≤" d="M1210 0h-972v203h972v-203zM1194 248l-936 399v174l936 418v-238l-668 -264v-4l668 -248v-237z"/>
<glyph glyph-name="greaterequal" horiz-adv-x="1450" unicode="≥" d="M1210 0h-972v203h972v-203zM1194 647l-936 -399v237l668 246v4l-668 266v238l936 -418v-174z"/>
<glyph glyph-name="lozenge" horiz-adv-x="1203" unicode="◊" d="M899 717l-299 471l-299 -471l299 -471zM1128 717l-473 -717h-114l-469 715l469 719h114z"/>
<glyph glyph-name="spade" horiz-adv-x="1402" unicode="♠" d="M705 1458q44 -52 105.5 -105.5t128.5 -112.5t133 -124t118.5 -138.5t85 -156.5t32.5 -178q0 -82 -26 -145t-68.5 -105.5t-97 -64.5t-111.5 -22q-55 0 -104.5 14t-88.5 46q4 -34 14.5 -72t29.5 -76t46 -75t64 -68v-75h-530v75q37 31 64 68t46 75t29.5 76t14.5 72 q-39 -32 -88.5 -46t-104.5 -14q-57 0 -111.5 22t-97 64.5t-68.5 105.5t-26 145q0 95 32.5 178t85 156.5t118.5 138.5t133 124t128.5 113t105.5 105h8z"/>
<glyph glyph-name="club" horiz-adv-x="1402" unicode="♣" d="M436 0v75q28 23 55 58t48 81t34 103t13 125q-19 -13 -37.5 -23t-39.5 -17.5t-45.5 -11.5t-55.5 -4q-65 0 -122.5 22t-100 62.5t-67 98.5t-24.5 130q0 65 22.5 121.5t64 99t99 67.5t126.5 26q-16 52 -16 107q0 64 22.5 121.5t63.5 100t98 67.5t127 25t127 -25t98 -67.5 t63.5 -100t22.5 -121.5q0 -55 -16 -107q69 -1 126.5 -26t99 -67.5t64 -99t22.5 -121.5q0 -72 -24.5 -130t-67 -98.5t-100 -62.5t-122.5 -22q-31 0 -55.5 4t-45.5 11.5t-39.5 17.5t-37.5 23q0 -68 12.5 -125t33.5 -103t48 -81t56 -58v-75h-530z"/>
<glyph glyph-name="heart" horiz-adv-x="1402" unicode="♥" d="M1002 1315q59 0 114.5 -21.5t98 -65t68 -109.5t25.5 -156q0 -100 -32 -186.5t-84 -162.5t-117.5 -142.5t-132.5 -127t-129.5 -116t-107.5 -108.5h-9q-45 53 -107 108.5t-129 116t-132.5 127t-117.5 142.5t-84 162.5t-32 186.5q0 90 25.5 156t68 109.5t98 65t114.5 21.5 q57 0 102.5 -15t82 -40.5t64 -58t47.5 -66.5h9q20 34 48 66.5t64.5 58t82 40.5t102.5 15z"/>
<glyph glyph-name="diamond" horiz-adv-x="1402" unicode="♦" d="M205 716l496 718l497 -718l-497 -716z"/>
<glyph glyph-name="onenumerator" d="M721 584h-563v172h176v477l-191 -41v180l406 82v-698h172v-172z" horiz-adv-x="807"/>
<glyph glyph-name="twonumerator" d="M721 584h-604v157l248 234q77 73 95.5 110t18.5 82q0 42 -28.5 69.5t-75.5 27.5q-98 0 -211 -103v215q118 78 250 78q136 0 215.5 -68.5t79.5 -189.5q0 -70 -37.5 -141t-179.5 -197l-105 -92v-4h334v-178z" horiz-adv-x="828"/>
<glyph glyph-name="threenumerator" d="M131 616v181q107 -68 221 -68q150 0 150 102q0 103 -172 103h-117v166h113q149 0 149 96q0 90 -119 90q-107 0 -198 -65v176q99 57 239 57q134 0 211.5 -60.5t77.5 -160.5q0 -147 -143 -195v-4q172 -41 172 -198q0 -123 -98 -198t-257 -75q-133 0 -229 53z" horiz-adv-x="828"/>
<glyph glyph-name="fournumerator" d="M467 1262h-8q-14 -36 -39 -76l-168 -271h211v263q0 47 4 84zM786 760h-110v-176h-213v176h-395v141l350 533h258v-519h110v-155z" horiz-adv-x="856"/>
<glyph glyph-name="cyrillic_otmark" d="M830 1509l-109 -235h-60l-47 101h-196l-47 -101h-60l-47 101h-196l-47 -101h-60l-109 235h978z" horiz-adv-x="682"/>
<glyph glyph-name="cyrillicbreve" d="M867 1513q-18 -159 -137 -253t-295 -94q-179 0 -298 94t-128 253h230q5 -77 63 -126.5t137 -49.5q78 0 135 50t63 126h230z" horiz-adv-x="876"/>
<glyph glyph-name="uni0321.1" d="M291 63q0 -485 -410 -485q-88 0 -172 31v248q66 -37 117 -37q149 0 149 233v190h316v-180z" horiz-adv-x="0"/>
<glyph glyph-name="uni0321.2" d="M291 63q0 -485 -410 -485q-88 0 -172 31v248q66 -37 117 -37q149 0 149 233v90h316v-80z" horiz-adv-x="0"/>
<glyph glyph-name="uni0321.4" d="M803 -18q0 -404 -410 -404q-88 0 -172 31v248q66 -37 120 -37q139 0 139 159v21h323v-18z" horiz-adv-x="1024"/>
<glyph glyph-name="Abkhas_descender" d="M1056 0h284v-391h-284v391z" horiz-adv-x="1710"/>
<glyph glyph-name="abkhas_descender" d="M762 0h258v-373h-258v373z" horiz-adv-x="1296"/>
</font>
</defs>
</svg>
